<?xml version="1.0" encoding="UTF-8"?>
<svg version="1.1" xmlns="http://www.w3.org/2000/svg" width="514" height="167">
<path d="M0 0 C6.93 0.33 13.86 0.66 21 1 C22 6 22 6 22.375 8.125 C23.13207097 10.39621291 24.29014694 11.36139081 26 13 C27.35711871 17.07135614 28.61541154 21.17320482 29.5 25.375 C29.7475 26.179375 29.7475 26.179375 30 27 C30.66 27.33 31.32 27.66 32 28 C32.5625 30.3125 32.5625 30.3125 33 33 C33.48897354 35.77499046 33.48897354 35.77499046 35 38 C35.185625 36.5459375 35.185625 36.5459375 35.375 35.0625 C35.58125 34.051875 35.7875 33.04125 36 32 C36.66 31.67 37.32 31.34 38 31 C38.71033294 28.79007531 39.06440514 26.60436844 39.4375 24.3125 C39.623125 23.549375 39.80875 22.78625 40 22 C40.66 21.67 41.32 21.34 42 21 C42.71033294 18.79007531 43.06440514 16.60436844 43.4375 14.3125 C43.7159375 13.1678125 43.7159375 13.1678125 44 12 C44.66 11.67 45.32 11.34 46 11 C46.56058477 9.26566343 46.56058477 9.26566343 47 7 C47.66 4.69 48.32 2.38 49 0 C55.27 0.33 61.54 0.66 68 1 C68 20.47 68 39.94 68 60 C63.05 60 58.1 60 53 60 C52.67 50.43 52.34 40.86 52 31 C51.01 34.3 50.02 37.6 49 41 C48.505 41.99 48.505 41.99 48 43 C46.95463114 45.94009992 46.04671821 48.73721009 45.5 51.8125 C45.2525 52.8953125 45.2525 52.8953125 45 54 C44.01 54.495 44.01 54.495 43 55 C42.27840576 56.64363134 41.60648579 58.31050386 41 60 C39.06280622 60.05406122 37.12518079 60.09282025 35.1875 60.125 C34.10855469 60.14820313 33.02960938 60.17140625 31.91796875 60.1953125 C29 60 29 60 26 58 C25.61781233 56.34385343 25.28604898 54.67542976 25 53 C24.34 52.01 23.68 51.02 23 50 C22.5 47.5 22.5 47.5 22 45 C21.34 44.01 20.68 43.02 20 42 C19.61781233 40.34385343 19.28604898 38.67542976 19 37 C18.67 35.68 18.34 34.36 18 33 C18 42.24 18 51.48 18 61 C12.06 61 6.12 61 0 61 C0 40.87 0 20.74 0 0 Z " fill="#EEEEEE" transform="translate(384,76)"/>
<path d="M0 0 C0 5.94 0 11.88 0 18 C-19.8 18 -39.6 18 -60 18 C-44.1197094 37.53761896 -44.1197094 37.53761896 -30.17578125 38.85546875 C-26.50842161 38.7299195 -22.95559534 38.51473192 -19.3125 38.1875 C-17.42426472 38.09186232 -15.53555125 38.0052287 -13.64648438 37.92773438 C-9.0756833 37.73753459 -4.57323283 37.36801074 0 37 C0 43.27 0 49.54 0 56 C-6.44174394 55.95580017 -12.88251215 55.88591522 -19.32373047 55.79248047 C-21.51375553 55.7642994 -23.70388177 55.74307066 -25.89404297 55.72900391 C-29.04707527 55.70753523 -32.19889485 55.66086325 -35.3515625 55.609375 C-36.32678864 55.60814636 -37.30201477 55.60691772 -38.30679321 55.60565186 C-46.2699874 55.43506736 -50.46603114 52.80055521 -56.05859375 47.171875 C-56.77466797 46.45386719 -57.49074219 45.73585937 -58.22851562 44.99609375 C-59.32196289 43.88427734 -59.32196289 43.88427734 -60.4375 42.75 C-61.16259766 42.02425781 -61.88769531 41.29851562 -62.63476562 40.55078125 C-66.73729162 36.41508119 -70.65136543 32.18936904 -74.38525391 27.71704102 C-75.95197512 25.93159477 -75.95197512 25.93159477 -77.97802734 24.62866211 C-80.4189801 22.83337877 -81.53343796 21.69807408 -83 19 C-83.37686087 15.73802237 -83.28796556 12.51629557 -83.19140625 9.23828125 C-83.17758911 8.35096313 -83.16377197 7.46364502 -83.14953613 6.54943848 C-83.11354353 4.36564217 -83.06324141 2.18314911 -83 0 C-72.47353204 -0.15366379 -61.94700272 -0.30184555 -51.42035866 -0.4429636 C-46.53280019 -0.5086589 -41.64528355 -0.57626635 -36.7578125 -0.64819336 C-32.04409399 -0.7174938 -27.33033185 -0.78183729 -22.61649704 -0.84269524 C-20.81508284 -0.86683311 -19.01369196 -0.89277902 -17.21232986 -0.92053413 C-14.69578958 -0.95900443 -12.17924426 -0.99113528 -9.66259766 -1.02172852 C-8.91237839 -1.03467453 -8.16215912 -1.04762054 -7.38920593 -1.06095886 C-2.22810432 -1.11405216 -2.22810432 -1.11405216 0 0 Z " fill="#ED7E1E" transform="translate(117,77)"/>
<path d="M0 0 C4.11743801 0.0761207 7.99724015 0.19447427 12.01171875 1.23046875 C12.01171875 1.89046875 12.01171875 2.55046875 12.01171875 3.23046875 C12.63820313 3.50761719 13.2646875 3.78476562 13.91015625 4.0703125 C14.72742188 4.43253906 15.5446875 4.79476563 16.38671875 5.16796875 C17.19882813 5.52761719 18.0109375 5.88726563 18.84765625 6.2578125 C22.50589557 7.9020392 25.27881899 9.20938439 28.01171875 12.23046875 C28.73527485 16.07528766 28.5919172 19.8774718 28.5 23.77734375 C28.49292526 24.90368225 28.48585052 26.03002075 28.4785614 27.19049072 C28.45057367 30.78782575 28.38782272 34.38360419 28.32421875 37.98046875 C28.29914174 40.41924836 28.27632754 42.85805236 28.25585938 45.296875 C28.20073253 51.27527065 28.11706106 57.2527585 28.01171875 63.23046875 C24.38149859 64.70234677 20.73719586 66.01752271 17.01171875 67.23046875 C17.01171875 67.89046875 17.01171875 68.55046875 17.01171875 69.23046875 C16.26921875 69.51921875 15.52671875 69.80796875 14.76171875 70.10546875 C12.09404946 71.15009773 12.09404946 71.15009773 9.94921875 72.29296875 C6.36125579 74.02907986 6.36125579 74.02907986 4.01171875 74.23046875 C0.51171875 72.91796875 0.51171875 72.91796875 -2.98828125 71.23046875 C-4.07109375 70.73546875 -4.07109375 70.73546875 -5.17578125 70.23046875 C-6.98828125 69.23046875 -6.98828125 69.23046875 -8.67578125 67.85546875 C-11.5439976 65.83996537 -14.55296858 64.56675788 -17.76953125 63.1953125 C-23.30250812 60.78924685 -23.30250812 60.78924685 -25.67578125 58.85546875 C-28.5439976 56.83996537 -31.55296858 55.56675788 -34.76953125 54.1953125 C-38.55584659 52.54879861 -41.70983039 50.74394775 -44.98828125 48.23046875 C-45.64828125 47.90046875 -46.30828125 47.57046875 -46.98828125 47.23046875 C-46.90097272 49.96111822 -46.79406001 52.68863065 -46.67578125 55.41796875 C-46.65322266 56.18689453 -46.63066406 56.95582031 -46.60742188 57.74804688 C-46.38235059 62.51546593 -45.58035274 65.14075596 -42.98828125 69.23046875 C-43.17607789 72.1387788 -44.08442683 74.42376293 -44.98828125 77.23046875 C-44.32828125 77.56046875 -43.66828125 77.89046875 -42.98828125 78.23046875 C-42.64087202 80.2280718 -42.30862082 82.22834646 -41.98828125 84.23046875 C-41.32828125 85.22046875 -40.66828125 86.21046875 -39.98828125 87.23046875 C-39.65828125 90.20046875 -39.32828125 93.17046875 -38.98828125 96.23046875 C-46.90828125 96.56046875 -54.82828125 96.89046875 -62.98828125 97.23046875 C-61.99828125 93.93046875 -61.00828125 90.63046875 -59.98828125 87.23046875 C-59.65828125 85.58046875 -59.32828125 83.93046875 -58.98828125 82.23046875 C-57.99828125 81.73546875 -57.99828125 81.73546875 -56.98828125 81.23046875 C-56.24076752 77.74792162 -56.24076752 77.74792162 -55.98828125 74.23046875 C-56.31828125 73.90046875 -56.64828125 73.57046875 -56.98828125 73.23046875 C-57.23828125 70.35546875 -57.23828125 70.35546875 -56.98828125 67.23046875 C-56.4986792 66.7718042 -56.00907715 66.31313965 -55.50463867 65.84057617 C-53.46055141 63.6701116 -53.56584746 62.29015383 -53.4765625 59.34375 C-53.44111328 58.40595703 -53.40566406 57.46816406 -53.36914062 56.50195312 C-53.34658203 55.52548828 -53.32402344 54.54902344 -53.30078125 53.54296875 C-53.26662109 52.55490234 -53.23246094 51.56683594 -53.19726562 50.54882812 C-53.11477587 48.10948822 -53.04563057 45.67050812 -52.98828125 43.23046875 C-55.29828125 42.90046875 -57.60828125 42.57046875 -59.98828125 42.23046875 C-59.98828125 41.57046875 -59.98828125 40.91046875 -59.98828125 40.23046875 C-62.45154837 38.58580135 -62.45154837 38.58580135 -64.98828125 37.23046875 C-64.7734375 35.33984375 -64.7734375 35.33984375 -63.98828125 33.23046875 C-61.921875 32.18359375 -61.921875 32.18359375 -59.42578125 31.48046875 C-58.18634766 31.11695313 -58.18634766 31.11695313 -56.921875 30.74609375 C-56.28378906 30.5759375 -55.64570312 30.40578125 -54.98828125 30.23046875 C-54.98828125 29.57046875 -54.98828125 28.91046875 -54.98828125 28.23046875 C-51.26960466 26.24140918 -48.09270385 25.05135327 -43.98828125 24.23046875 C-41.96591073 23.27652039 -39.96001165 22.28511524 -37.98828125 21.23046875 C-37.98828125 20.57046875 -37.98828125 19.91046875 -37.98828125 19.23046875 C-33.6461379 16.91394066 -29.85204878 15.12642593 -24.98828125 14.23046875 C-22.96591073 13.27652039 -20.96001165 12.28511524 -18.98828125 11.23046875 C-18.98828125 10.57046875 -18.98828125 9.91046875 -18.98828125 9.23046875 C-16.10867517 7.69021433 -13.58625187 6.34436792 -10.36328125 5.73046875 C-6.06743131 4.82607929 -4.01213011 0.46506027 0 0 Z M-5.80078125 13.29296875 C-8.48198404 15.66774836 -10.59800794 16.0096776 -14.03125 16.7421875 C-17.74710383 17.66929674 -20.29912734 19.44625913 -22.80078125 22.29296875 C-25.48198404 24.66774836 -27.59800794 25.0096776 -31.03125 25.7421875 C-34.74710383 26.66929674 -37.29912734 28.44625913 -39.80078125 31.29296875 C-42.9515613 34.08365965 -45.8868854 34.41018958 -49.98828125 35.23046875 C-46.9884815 39.56433178 -44.23838165 41.39993615 -39.42578125 43.48046875 C-38.29011719 43.980625 -37.15445313 44.48078125 -35.984375 44.99609375 C-34.01223564 45.80860488 -32.01178247 46.55596834 -29.98828125 47.23046875 C-29.54484375 47.69195312 -29.10140625 48.1534375 -28.64453125 48.62890625 C-26.48352709 50.7185565 -24.23508384 51.65189665 -21.48828125 52.85546875 C-20.52921875 53.28085937 -19.57015625 53.70625 -18.58203125 54.14453125 C-15.94672522 55.28581006 -15.94672522 55.28581006 -12.98828125 56.23046875 C-12.51777344 56.70355469 -12.04726563 57.17664062 -11.5625 57.6640625 C-6.87115595 62.33212445 0.74252013 63.8626436 7.01171875 65.23046875 C7.67171875 64.24046875 8.33171875 63.25046875 9.01171875 62.23046875 C9.79546875 62.08609375 10.57921875 61.94171875 11.38671875 61.79296875 C14.66715923 61.09001722 15.72315456 59.59531841 18.01171875 57.23046875 C19.00171875 57.23046875 19.99171875 57.23046875 21.01171875 57.23046875 C21.01171875 43.70046875 21.01171875 30.17046875 21.01171875 16.23046875 C17.24742101 14.23046875 17.24742101 14.23046875 14.01171875 13.23046875 C13.33109375 12.51890625 13.33109375 12.51890625 12.63671875 11.79296875 C9.96036193 9.21954873 7.1511653 8.37289957 3.51171875 7.91796875 C-0.55671544 8.42652302 -3.12275544 10.24556008 -5.80078125 13.29296875 Z " fill="#E2E2E2" transform="translate(65.98828125,-0.23046875)"/>
<path d="M0 0 C36.55458515 0 36.55458515 0 46.44140625 9.4140625 C46.95574219 9.93742187 47.47007812 10.46078125 48 11 C48.66 11.66 49.32 12.32 50 13 C54.16190575 20.09972157 53.84857711 29.06423256 53 37 C50.59180347 43.84354584 46.73681465 51.32555843 41 56 C28.21282394 61.23111748 13.15847141 59 0 59 C0 39.53 0 20.06 0 0 Z M15 13 C15.33 23.56 15.66 34.12 16 45 C26.95650161 45.89442719 26.95650161 45.89442719 32 43 C36.32095164 38.37758662 37.77882041 35.87533463 38.25 29.75 C37.95775009 25.36625128 37.22897937 21.81163758 35 18 C28.39301336 12.51760683 23.83850347 13 15 13 Z " fill="#F1F1F1" transform="translate(133,77)"/>
<path d="M0 0 C0.12117188 0.71027344 0.24234375 1.42054687 0.3671875 2.15234375 C0.61855469 3.53099609 0.61855469 3.53099609 0.875 4.9375 C1.11863281 6.31228516 1.11863281 6.31228516 1.3671875 7.71484375 C1.57601562 8.46894531 1.78484375 9.22304687 2 10 C2.66 10.33 3.32 10.66 4 11 C4.64158599 13.56634394 5.02199146 16.13823206 5.4375 18.75 C5.623125 19.4925 5.80875 20.235 6 21 C6.66 21.33 7.32 21.66 8 22 C8.64158599 24.56634394 9.02199146 27.13823206 9.4375 29.75 C9.623125 30.4925 9.80875 31.235 10 32 C10.99 32.495 10.99 32.495 12 33 C12.64158599 35.56634394 13.02199146 38.13823206 13.4375 40.75 C13.623125 41.4925 13.80875 42.235 14 43 C14.99 43.495 14.99 43.495 16 44 C16.39764263 45.98821313 16.72428861 47.99124558 17 50 C17.36856864 52.23167185 17.36856864 52.23167185 18 54 C18.99 54.495 18.99 54.495 20 55 C20 56.98 20 58.96 20 61 C14.06 61 8.12 61 2 61 C1.505 58.03 1.505 58.03 1 55 C0.505 53.02 0.505 53.02 0 51 C-6.93 50.67 -13.86 50.34 -21 50 C-21.99 53.3 -22.98 56.6 -24 60 C-29.28 60 -34.56 60 -40 60 C-39.50233839 57.77711149 -39.00435291 55.55429441 -38.50390625 53.33203125 C-38.12192511 51.56425805 -37.79732736 49.78396416 -37.5 48 C-37.335 47.34 -37.17 46.68 -37 46 C-36.01 45.505 -36.01 45.505 -35 45 C-34.65458149 42.66842508 -34.32205743 40.33491639 -34 38 C-33.34 37.01 -32.68 36.02 -32 35 C-30.91372687 32.06067271 -30.04876468 29.2743013 -29.5 26.1875 C-29.335 25.465625 -29.17 24.74375 -29 24 C-28.34 23.67 -27.68 23.34 -27 23 C-26.3507139 21.17912417 -26.3507139 21.17912417 -25.9375 19.0625 C-25.44690289 16.82845863 -25.02602198 15.05204395 -24 13 C-23.48662761 11.50452389 -22.98826635 10.00386036 -22.5 8.5 C-20.57692308 2.57692308 -20.57692308 2.57692308 -19 1 C-16.18272719 0.76204474 -13.38482788 0.5773554 -10.5625 0.4375 C-9.37817383 0.37272461 -9.37817383 0.37272461 -8.16992188 0.30664062 C-2.46056548 0 -2.46056548 0 0 0 Z M-11 20 C-11.12375 20.928125 -11.2475 21.85625 -11.375 22.8125 C-12 26 -12 26 -14 29 C-14.165 29.99 -14.33 30.98 -14.5 32 C-15 35 -15 35 -17 38 C-12.71 38 -8.42 38 -4 38 C-4.77877052 34.10614739 -5.28422267 32.27674769 -7 29 C-7.56811297 27.42596224 -8.10988621 25.8421699 -8.625 24.25 C-8.88539063 23.45078125 -9.14578125 22.6515625 -9.4140625 21.828125 C-9.60742188 21.22484375 -9.80078125 20.6215625 -10 20 C-10.33 20 -10.66 20 -11 20 Z " fill="#ECECEC" transform="translate(358,76)"/>
<path d="M0 0 C5.28 0.33 10.56 0.66 16 1 C16.01458252 2.1960083 16.02916504 3.3920166 16.04418945 4.62426758 C16.10212586 9.05816675 16.17935874 13.49155558 16.26245117 17.92504883 C16.2957225 19.84456098 16.32374754 21.76417148 16.34643555 23.68383789 C16.37994121 26.44199572 16.43225403 29.19925043 16.48828125 31.95703125 C16.49467117 32.81649857 16.5010611 33.67596588 16.50764465 34.56147766 C16.53733589 35.76238289 16.53733589 35.76238289 16.56762695 36.98754883 C16.57873001 37.6914827 16.58983307 38.39541656 16.60127258 39.12068176 C17.11778764 41.5551674 18.1002538 42.44056642 20 44 C22.28705831 45.14352916 23.59264762 45.10334439 26.125 45.0625 C28.043125 45.0315625 28.043125 45.0315625 30 45 C30.33 44.01 30.66 43.02 31 42 C31.66 42 32.32 42 33 42 C33 41.01 33 40.02 33 39 C33.66 39 34.32 39 35 39 C35 26.46 35 13.92 35 1 C39.95 1 44.9 1 50 1 C50.02481154 6.71085294 50.04291275 12.42167414 50.05493164 18.13256836 C50.05994485 20.07332913 50.06675712 22.01408616 50.07543945 23.95483398 C50.08763732 26.75245084 50.09325855 29.55001755 50.09765625 32.34765625 C50.10281754 33.2083522 50.10797882 34.06904816 50.11329651 34.95582581 C50.11373768 39.74729665 49.80561817 44.27500764 49 49 C48.34 49 47.68 49 47 49 C45.55496355 50.69035266 45.55496355 50.69035266 44.125 52.8125 C42.01668896 55.84250722 40.15143363 58.04268568 37 60 C34.37451172 60.37231445 34.37451172 60.37231445 31.4296875 60.36328125 C29.83833984 60.36231445 29.83833984 60.36231445 28.21484375 60.36132812 C26.56162109 60.3371582 26.56162109 60.3371582 24.875 60.3125 C23.76511719 60.31572266 22.65523437 60.31894531 21.51171875 60.32226562 C13.34950841 60.26758577 11.77159173 58.77159173 6 53 C5.1646875 52.2265625 5.1646875 52.2265625 4.3125 51.4375 C-1.05345119 45.56050584 -0.14656794 36.39198173 -0.09765625 28.90625 C-0.0962413 28.07411987 -0.09482635 27.24198975 -0.09336853 26.38464355 C-0.08782167 23.7563907 -0.07527945 21.12822662 -0.0625 18.5 C-0.05747812 16.70573041 -0.05291642 14.91145946 -0.04882812 13.1171875 C-0.03786972 8.74475805 -0.02064248 4.37239402 0 0 Z " fill="#F0F0F0" transform="translate(195,76)"/>
<path d="M0 0 C0 0.66 0 1.32 0 2 C0.61875 1.79375 1.2375 1.5875 1.875 1.375 C2.57625 1.25125 3.2775 1.1275 4 1 C4.66 1.66 5.32 2.32 6 3 C8.8684413 5.10232344 8.8684413 5.10232344 12 6 C12.495 6.99 12.495 6.99 13 8 C13.9590625 8.86625 13.9590625 8.86625 14.9375 9.75 C18.48161958 13.61631227 18.98803879 17.94019395 20 23 C13.73 23 7.46 23 1 23 C0.34 21.35 -0.32 19.7 -1 18 C-4.38998506 16.08114053 -6.76160632 14.91360044 -10.6875 15.1875 C-15.26554974 16.79600396 -18.75587914 18.51175829 -21 23 C-21.33 23.33 -21.66 23.66 -22 24 C-22.09938863 25.76853292 -22.12969223 27.54118275 -22.125 29.3125 C-22.12757813 30.27800781 -22.13015625 31.24351563 -22.1328125 32.23828125 C-21.88293747 37.43421195 -20.62506911 40.16778408 -17 44 C-12.97513103 45.80425161 -8.12106742 45.18180578 -3.8125 44.8125 C-1.72705593 44.082096 -1.72705593 44.082096 -0.46484375 41.5 C2.66402538 38.32650357 4.44320842 38.36137298 8.75 38.20507812 C9.575 38.19927734 10.4 38.19347656 11.25 38.1875 C12.51070313 38.14979492 12.51070313 38.14979492 13.796875 38.11132812 C15.86408228 38.05260065 17.93209111 38.02340226 20 38 C16.88627646 44.61265 13.96829349 50.60585278 9 56 C8.505 56.99 8.505 56.99 8 58 C6.34385343 58.38218767 4.67542976 58.71395102 3 59 C2.01 59.495 2.01 59.495 1 60 C-10.12882678 60.92544981 -19.62019347 60.88369273 -29 54 C-30.94786503 52.09083427 -32.40776972 50.2291224 -34 48 C-34.66 48 -35.32 48 -36 48 C-39.77599983 37.42720048 -40.54326153 27.13857058 -36.35546875 16.5859375 C-34.51389505 13.07261823 -32.16995222 10.36711558 -29.390625 7.55859375 C-27.77808147 6.09940872 -27.77808147 6.09940872 -28 4 C-27.195625 3.87625 -26.39125 3.7525 -25.5625 3.625 C-24.716875 3.41875 -23.87125 3.2125 -23 3 C-22.67 2.34 -22.34 1.68 -22 1 C-14.68698064 -0.21883656 -7.39669343 -0.10289063 0 0 Z " fill="#EEEEEE" transform="translate(293,76)"/>
<path d="M0 0 C4.27621578 2.13810789 7.25412472 4.4951128 10.75 7.6875 C11.35199219 8.17283203 11.95398438 8.65816406 12.57421875 9.15820312 C14.296875 10.76171875 14.296875 10.76171875 17 15 C17 19.95 17 24.9 17 30 C38.78 29.67 60.56 29.34 83 29 C82.67 34.94 82.34 40.88 82 47 C54.94 47 27.88 47 0 47 C0 31.49 0 15.98 0 0 Z " fill="#EE7E1D" transform="translate(34,120)"/>
<path d="M0 0 C2.91884528 0.06005854 5.83261639 0.14708616 8.75 0.25 C9.9875 0.27126953 9.9875 0.27126953 11.25 0.29296875 C17.35626414 0.53918908 17.35626414 0.53918908 20.515625 2.80078125 C21.98668272 4.9802694 22.59307725 6.36880011 23 8.9375 C23.79567983 12.82186424 25.35906287 15.00693792 28 18 C28 18.66 28 19.32 28 20 C28.99 19.67 29.98 19.34 31 19 C31.69345393 17.22191371 31.69345393 17.22191371 32 15.125 C32.72203217 11.73144879 33.42919864 10.35656791 36 8 C37.53048507 4.10618237 37.53048507 4.10618237 38 0 C43.94 0.33 49.88 0.66 56 1 C54.64043778 5.07868666 53.30991216 8.65945469 51.5 12.5 C49.75154574 16.28058105 48.18951114 19.99891707 47 24 C46.34 24 45.68 24 45 24 C37.62848373 36.02279191 35.7698562 45.96122846 36 60 C31.05 60 26.1 60 21 60 C20.99742187 58.62328125 20.99484375 57.2465625 20.9921875 55.828125 C20.81494692 44.80015609 20.34194591 36.36746139 14 27 C13.34 27 12.68 27 12 27 C11.01330241 25.10807525 10.0359398 23.21128022 9.0625 21.3125 C8.51722656 20.25675781 7.97195313 19.20101562 7.41015625 18.11328125 C6.13653642 15.30143914 5.57666319 12.99864861 5 10 C4.20028505 8.20391888 3.34455414 6.43183488 2.4375 4.6875 C1.98246094 3.80449219 1.52742188 2.92148438 1.05859375 2.01171875 C0.53458984 1.01591797 0.53458984 1.01591797 0 0 Z M29 21 C28.67 21.66 28.34 22.32 28 23 C28.66 23 29.32 23 30 23 C29.67 22.34 29.34 21.68 29 21 Z " fill="#EEEEEE" transform="translate(458,76)"/>
<path d="M0 0 C0.845625 0.268125 1.69125 0.53625 2.5625 0.8125 C3.9546875 1.0909375 3.9546875 1.0909375 5.375 1.375 C6.096875 1.519375 6.81875 1.66375 7.5625 1.8125 C7.5625 2.4725 7.5625 3.1325 7.5625 3.8125 C9.233125 4.5240625 9.233125 4.5240625 10.9375 5.25 C16.203099 7.51965474 16.203099 7.51965474 18.25 9.1875 C20.66331492 11.02065926 20.66331492 11.02065926 24.25 12.25 C27.5625 13.8125 27.5625 13.8125 28.6875 15.625 C28.46360372 19.54318482 26.50831642 22.50637257 24.25 25.625 C21.84965436 27.31413212 19.43159895 27.38518739 16.5625 27.8125 C15.9025 28.4725 15.2425 29.1325 14.5625 29.8125 C10.90021349 33.16959597 8.49159937 34.31959006 3.5625 34.8125 C2.345625 35.06 1.12875 35.3075 -0.125 35.5625 C-3.4375 35.8125 -3.4375 35.8125 -5.11743164 34.73413086 C-7.8871444 30.70224458 -6.91382682 25.14260385 -6.88354492 20.41577148 C-6.87504133 18.38487181 -6.90378379 16.3567931 -6.93554688 14.32617188 C-6.93490234 13.04419922 -6.93425781 11.76222656 -6.93359375 10.44140625 C-6.93544678 9.26650635 -6.9372998 8.09160645 -6.93920898 6.88110352 C-6.25975346 2.72534852 -4.54216736 -0.34939749 0 0 Z " fill="#E67B1E" transform="translate(106.4375,18.1875)"/>
<path d="M0 0 C0.33 0.99 0.66 1.98 1 3 C1.33 3 1.66 3 2 3 C2.33 2.34 2.66 1.68 3 1 C4.98 1 6.96 1 9 1 C9 1.99 9 2.98 9 4 C9.598125 3.505 10.19625 3.01 10.8125 2.5 C13 1 13 1 16 1 C15.52188823 2.77111844 15.0424722 4.54188483 14.5625 6.3125 C14.29566406 7.29863281 14.02882812 8.28476563 13.75390625 9.30078125 C13.21920575 11.21517526 12.62855462 13.11433615 12 15 C9.03 14.505 9.03 14.505 6 14 C5.67 12.35 5.34 10.7 5 9 C4.34 10.98 3.68 12.96 3 15 C0.03 14.505 0.03 14.505 -3 14 C-3.185625 12.6078125 -3.185625 12.6078125 -3.375 11.1875 C-3.81533082 7.86074765 -3.81533082 7.86074765 -6 5 C-5.8125 2.875 -5.8125 2.875 -5 1 C-2 0 -2 0 0 0 Z M0 5 C0.33 5.99 0.66 6.98 1 8 C1 7.01 1 6.02 1 5 C0.67 5 0.34 5 0 5 Z M10 5 C9.67 5.99 9.34 6.98 9 8 C9.66 8 10.32 8 11 8 C10.67 7.01 10.34 6.02 10 5 Z " fill="#C0C0C0" transform="translate(139,152)"/>
<path d="M0 0 C4.29 0 8.58 0 13 0 C15.20979827 8.22536023 15.20979827 8.22536023 14.1875 12 C13 14 13 14 12 15 C8.3308423 15.14310287 4.67284559 15.04221662 1 15 C0.67 10.05 0.34 5.1 0 0 Z M5 4 C5 4.66 5 5.32 5 6 C6.65 6 8.3 6 10 6 C10 5.34 10 4.68 10 4 C8.35 4 6.7 4 5 4 Z M5 9 C5 9.99 5 10.98 5 12 C6.65 12 8.3 12 10 12 C10 11.01 10 10.02 10 9 C8.35 9 6.7 9 5 9 Z " fill="#DAD9DA" transform="translate(241,152)"/>
<path d="M0 0 C0.625 2 0.625 2 1 4 C1.33 4.33 1.66 4.66 2 5 C2 3.02 2 1.04 2 -1 C3.65 -0.67 5.3 -0.34 7 0 C7 4.62 7 9.24 7 14 C2.40962044 12.85240511 1.66330818 11.70960782 -1 8 C-1.33 9.98 -1.66 11.96 -2 14 C-3.32 14 -4.64 14 -6 14 C-6 9.38 -6 4.76 -6 0 C-3 -1 -3 -1 0 0 Z " fill="#CACACA" transform="translate(487,153)"/>
<path d="M0 0 C0.66 0.33 1.32 0.66 2 1 C1.67 5.62 1.34 10.24 1 15 C-0.98 15 -2.96 15 -5 15 C-5.33 13.68 -5.66 12.36 -6 11 C-6.66 12.32 -7.32 13.64 -8 15 C-9.32 15 -10.64 15 -12 15 C-12 10.38 -12 5.76 -12 1 C-7.40962044 2.14759489 -6.66330818 3.29039218 -4 7 C-3.67 5.02 -3.34 3.04 -3 1 C-2.01 0.67 -1.02 0.34 0 0 Z M-8 8 C-7 10 -7 10 -7 10 Z " fill="#D0D0D0" transform="translate(363,152)"/>
<path d="M0 0 C0.66 0.33 1.32 0.66 2 1 C2 6.94 2 12.88 2 19 C-4.44174394 18.95580017 -10.88251215 18.88591522 -17.32373047 18.79248047 C-19.51375553 18.7642994 -21.70388177 18.74307066 -23.89404297 18.72900391 C-27.04707527 18.70753523 -30.19889485 18.66086325 -33.3515625 18.609375 C-34.32678864 18.60814636 -35.30201477 18.60691772 -36.30679321 18.60565186 C-42.08866828 18.48179475 -45.66809762 17.9885033 -50 14 C-50 13.01 -50 12.02 -50 11 C-49.38358643 11.64743164 -48.76717285 12.29486328 -48.13208008 12.96191406 C-43.72412454 15.83022904 -40.04256051 15.60261182 -34.88671875 15.609375 C-33.91716751 15.62591125 -32.94761627 15.64244751 -31.94868469 15.65948486 C-28.86155857 15.70794745 -25.77492501 15.72933225 -22.6875 15.75 C-20.59047003 15.77816109 -18.493463 15.80808871 -16.39648438 15.83984375 C-11.26436346 15.91370622 -6.13251571 15.96329171 -1 16 C-1.01160156 14.92878906 -1.02320313 13.85757813 -1.03515625 12.75390625 C-1.04453299 11.35677257 -1.05363331 9.95963701 -1.0625 8.5625 C-1.07087891 7.85544922 -1.07925781 7.14839844 -1.08789062 6.41992188 C-1.09653588 4.61306441 -1.05220011 2.80612397 -1 1 C-0.67 0.67 -0.34 0.34 0 0 Z " fill="#BA6116" transform="translate(115,114)"/>
<path d="M0 0 C1.60875 -0.04125 3.2175 -0.0825 4.875 -0.125 C5.77992188 -0.14820313 6.68484375 -0.17140625 7.6171875 -0.1953125 C10 0 10 0 12 2 C11.625 4.125 11.625 4.125 11 6 C11.66 6 12.32 6 13 6 C11.125 12.875 11.125 12.875 10 14 C6.66381769 14.14257189 3.34024394 14.04228157 0 14 C0 9.38 0 4.76 0 0 Z M3 3 C3 3.66 3 4.32 3 5 C4.65 5 6.3 5 8 5 C8 4.34 8 3.68 8 3 C6.35 3 4.7 3 3 3 Z M3 8 C3 8.99 3 9.98 3 11 C4.65 11 6.3 11 8 11 C8 10.01 8 9.02 8 8 C6.35 8 4.7 8 3 8 Z " fill="#E8E8E8" transform="translate(416,153)"/>
<path d="M0 0 C3.96 0.33 7.92 0.66 12 1 C11.34 2.32 10.68 3.64 10 5 C9.34 5 8.68 5 8 5 C8 5.66 8 6.32 8 7 C8.99 7 9.98 7 11 7 C11.125 9.875 11.125 9.875 11 13 C9 15 9 15 6.6171875 15.1953125 C5.71226562 15.17210937 4.80734375 15.14890625 3.875 15.125 C1.461875 15.063125 1.461875 15.063125 -1 15 C-1.66 11.04 -2.32 7.08 -3 3 C-2.01 2.67 -1.02 2.34 0 2 C0 1.34 0 0.68 0 0 Z M3 4 C1.64973223 6.12939828 1.64973223 6.12939828 2.9375 9.125 C3.4634375 10.548125 3.4634375 10.548125 4 12 C4.99 12 5.98 12 7 12 C6.67 9.69 6.34 7.38 6 5 C6.66 4.67 7.32 4.34 8 4 C6.35 4 4.7 4 3 4 Z M1 6 C2 9 2 9 2 9 Z " fill="#BCBCBC" transform="translate(453,152)"/>
<path d="M0 0 C10.47818182 0.49309091 10.47818182 0.49309091 12.9140625 2.859375 C14 5 14 5 13.0625 8 C12.711875 8.99 12.36125 9.98 12 11 C12.74875954 13.33725801 12.74875954 13.33725801 14 15 C11.5625 14.625 11.5625 14.625 9 14 C8.67 13.34 8.34 12.68 8 12 C7.01 11.67 6.02 11.34 5 11 C5 12.32 5 13.64 5 15 C3.68 15 2.36 15 1 15 C0.67 10.05 0.34 5.1 0 0 Z M5 4 C5 5.32 5 6.64 5 8 C6.65 7.67 8.3 7.34 10 7 C9.67 6.01 9.34 5.02 9 4 C7.68 4 6.36 4 5 4 Z " fill="#E5E5E5" transform="translate(196,152)"/>
<path d="M0 0 C3.96 0 7.92 0 12 0 C13.125 8.75 13.125 8.75 12 11 C12.89163577 13.11683841 12.89163577 13.11683841 14 15 C11.5625 14.625 11.5625 14.625 9 14 C8.67 13.34 8.34 12.68 8 12 C7.01 11.67 6.02 11.34 5 11 C5 12.32 5 13.64 5 15 C3.68 15 2.36 15 1 15 C0.67 10.05 0.34 5.1 0 0 Z M5 4 C5 5.32 5 6.64 5 8 C6.65 7.67 8.3 7.34 10 7 C9.67 6.01 9.34 5.02 9 4 C7.68 4 6.36 4 5 4 Z " fill="#D0D0D0" transform="translate(260,152)"/>
<path d="M0 0 C0.886875 0.391875 1.77375 0.78375 2.6875 1.1875 C3.60971976 5.89082076 3.96286232 8.88959339 1.6875 13.1875 C0.6875 14.1875 0.6875 14.1875 -2.6875 14.4375 C-6.3125 14.1875 -6.3125 14.1875 -8.25 12.6875 C-8.600625 12.1925 -8.95125 11.6975 -9.3125 11.1875 C-8.9825 10.5275 -8.6525 9.8675 -8.3125 9.1875 C-6.6625 9.5175 -5.0125 9.8475 -3.3125 10.1875 C-3.3125 9.5275 -3.3125 8.8675 -3.3125 8.1875 C-4.6325 8.5175 -5.9525 8.8475 -7.3125 9.1875 C-7.6425 6.8775 -7.9725 4.5675 -8.3125 2.1875 C-5.09279771 -0.27462528 -4.04623082 -0.99247171 0 0 Z M-4.3125 3.1875 C-4.3125 3.8475 -4.3125 4.5075 -4.3125 5.1875 C-1.8375 5.6825 -1.8375 5.6825 0.6875 6.1875 C0.6875 5.1975 0.6875 4.2075 0.6875 3.1875 C-0.9625 3.1875 -2.6125 3.1875 -4.3125 3.1875 Z " fill="#CCCCCC" transform="translate(508.3125,152.8125)"/>
<path d="M0 0 C3.96 0.33 7.92 0.66 12 1 C12 1.99 12 2.98 12 4 C9.69 4 7.38 4 5 4 C5 4.66 5 5.32 5 6 C6.98 6 8.96 6 11 6 C11 6.99 11 7.98 11 9 C9.02 9 7.04 9 5 9 C5 9.99 5 10.98 5 12 C7.31 12 9.62 12 12 12 C12 12.99 12 13.98 12 15 C8.37 15 4.74 15 1 15 C0.67 10.05 0.34 5.1 0 0 Z " fill="#EAEAEA" transform="translate(433,152)"/>
<path d="M0 0 C3.96 0.33 7.92 0.66 12 1 C12 1.99 12 2.98 12 4 C9.69 4 7.38 4 5 4 C5 4.66 5 5.32 5 6 C6.98 6 8.96 6 11 6 C11 6.99 11 7.98 11 9 C9.02 9 7.04 9 5 9 C5 9.99 5 10.98 5 12 C7.31 12 9.62 12 12 12 C12 12.99 12 13.98 12 15 C8.37 15 4.74 15 1 15 C0.67 10.05 0.34 5.1 0 0 Z " fill="#D8D8D8" transform="translate(179,152)"/>
<path d="M0 0 C1.32 0 2.64 0 4 0 C5.5625 2.25 5.5625 2.25 7 5 C7.8353125 5.99 7.8353125 5.99 8.6875 7 C10.31861958 9.48551555 10.24293723 11.08475321 10 14 C8.68 14 7.36 14 6 14 C5.67 13.34 5.34 12.68 5 12 C3.02 12 1.04 12 -1 12 C-1.33 12.66 -1.66 13.32 -2 14 C-3.32 13.67 -4.64 13.34 -6 13 C-5.525625 12.0925 -5.05125 11.185 -4.5625 10.25 C-3.33584456 7.69855669 -2.65019924 5.69368258 -2 3 C-1.34 2.01 -0.68 1.02 0 0 Z M2 5 C1.01 6.485 1.01 6.485 0 8 C1.32 7.67 2.64 7.34 4 7 C3.34 6.34 2.68 5.68 2 5 Z " fill="#BCBCBC" transform="translate(336,153)"/>
<path d="M0 0 C3.3 0 6.6 0 10 0 C10.33 2.97 10.66 5.94 11 9 C8.36 8.67 5.72 8.34 3 8 C3 8.99 3 9.98 3 11 C7.455 10.505 7.455 10.505 12 10 C11.67 11.32 11.34 12.64 11 14 C7.37 14 3.74 14 0 14 C0 9.38 0 4.76 0 0 Z M3 3 C3 3.66 3 4.32 3 5 C4.98 5 6.96 5 9 5 C9.33 4.34 9.66 3.68 10 3 C7.69 3 5.38 3 3 3 Z " fill="#D7D7D7" transform="translate(389,153)"/>
<path d="M0 0 C3.3 0 6.6 0 10 0 C10.33 2.97 10.66 5.94 11 9 C8.36 8.67 5.72 8.34 3 8 C3 8.99 3 9.98 3 11 C7.455 10.505 7.455 10.505 12 10 C11.67 11.32 11.34 12.64 11 14 C7.37 14 3.74 14 0 14 C0 9.38 0 4.76 0 0 Z M3 3 C3 3.66 3 4.32 3 5 C4.98 5 6.96 5 9 5 C9.33 4.34 9.66 3.68 10 3 C7.69 3 5.38 3 3 3 Z " fill="#D3D3D3" transform="translate(216,153)"/>
<path d="M0 0 C3.96 0.33 7.92 0.66 12 1 C11.34 2.32 10.68 3.64 10 5 C7.69 5 5.38 5 3 5 C3 6.65 3 8.3 3 10 C5.49064888 10.68707555 7.37886292 11 10 11 C10 11.99 10 12.98 10 14 C7.21084611 15.39457694 5.09726736 15.1821922 2 15 C-0.875 14 -0.875 14 -3 13 C-3 9.7 -3 6.4 -3 3 C-2.01 2.67 -1.02 2.34 0 2 C0 1.34 0 0.68 0 0 Z M1 6 C2 9 2 9 2 9 Z " fill="#C1C1C1" transform="translate(372,152)"/>
<path d="M0 0 C3.56311466 1.78155733 5.35645475 3.16763009 8 6 C7.67 6.66 7.34 7.32 7 8 C5.68 6.68 4.36 5.36 3 4 C2.67 18.19 2.34 32.38 2 47 C1.34 47 0.68 47 0 47 C0 31.49 0 15.98 0 0 Z " fill="#CA741B" transform="translate(34,120)"/>
<path d="M0 0 C0.99 0 1.98 0 3 0 C3 1.65 3 3.3 3 5 C4.98 5 6.96 5 9 5 C9 3.35 9 1.7 9 0 C9.99 0 10.98 0 12 0 C12 4.62 12 9.24 12 14 C11.01 14 10.02 14 9 14 C9 12.02 9 10.04 9 8 C7.02 8 5.04 8 3 8 C3 9.98 3 11.96 3 14 C2.01 14 1.02 14 0 14 C0 9.38 0 4.76 0 0 Z " fill="#F1F1F1" transform="translate(161,153)"/>
<path d="M0 0 C0.66 0.33 1.32 0.66 2 1 C1.67 4.63 1.34 8.26 1 12 C3.64 11.67 6.28 11.34 9 11 C8.67 12.32 8.34 13.64 8 15 C4.37 15 0.74 15 -3 15 C-3 10.38 -3 5.76 -3 1 C-2.01 0.67 -1.02 0.34 0 0 Z " fill="#BEBEBE" transform="translate(293,152)"/>
<path d="M0 0 C0.66 0.33 1.32 0.66 2 1 C1.67 4.3 1.34 7.6 1 11 C3.97 11.495 3.97 11.495 7 12 C7 12.99 7 13.98 7 15 C3.7 15 0.4 15 -3 15 C-3 10.38 -3 5.76 -3 1 C-2.01 0.67 -1.02 0.34 0 0 Z " fill="#CCCCCC" transform="translate(309,152)"/>
<path d="M0 0 C1.65 0.33 3.3 0.66 5 1 C5 5.62 5 10.24 5 15 C1 14 1 14 -1.25 10.9375 C-1.8275 9.968125 -2.405 8.99875 -3 8 C-2.01 7.67 -1.02 7.34 0 7 C0 4.69 0 2.38 0 0 Z " fill="#D3D3D3" transform="translate(489,152)"/>
<path d="M0 0 C0.99 0 1.98 0 3 0 C2.52188823 1.77111844 2.0424722 3.54188483 1.5625 5.3125 C1.29566406 6.29863281 1.02882812 7.28476563 0.75390625 8.30078125 C0.21920575 10.21517526 -0.37144538 12.11433615 -1 14 C-3.97 13.505 -3.97 13.505 -7 13 C-6.67 11.02 -6.34 9.04 -6 7 C-4.68 7 -3.36 7 -2 7 C-1.855625 6.030625 -1.71125 5.06125 -1.5625 4.0625 C-1 1 -1 1 0 0 Z " fill="#D7D7D7" transform="translate(152,153)"/>
<path d="M0 0 C2.36608693 4.23405029 1.91464004 7.33533582 1 12 C0.01 12 -0.98 12 -2 12 C-2.2475 11.030625 -2.495 10.06125 -2.75 9.0625 C-3.1625 8.051875 -3.575 7.04125 -4 6 C-6.03243548 5.03122943 -6.03243548 5.03122943 -8 5 C-6.35 5 -4.7 5 -3 5 C-3 4.34 -3 3.68 -3 3 C-4.65 3 -6.3 3 -8 3 C-7.67 2.01 -7.34 1.02 -7 0 C-2.25 -1.125 -2.25 -1.125 0 0 Z " fill="#C7C7C7" transform="translate(254,153)"/>
<path d="M0 0 C4.455 0.99 4.455 0.99 9 2 C9 2.33 9 2.66 9 3 C7.35 3 5.7 3 4 3 C4.33 4.65 4.66 6.3 5 8 C5.99 8.33 6.98 8.66 8 9 C8 9.66 8 10.32 8 11 C7.01 11 6.02 11 5 11 C5 12.32 5 13.64 5 15 C3.68 15 2.36 15 1 15 C0.67 10.05 0.34 5.1 0 0 Z " fill="#C8C8C8" transform="translate(260,152)"/>
<path d="M0 0 C2.475 0.495 2.475 0.495 5 1 C5 5.62 5 10.24 5 15 C3.68 15 2.36 15 1 15 C0.67 10.05 0.34 5.1 0 0 Z " fill="#C3C3C3" transform="translate(469,152)"/>
<path d="M0 0 C2.475 0.495 2.475 0.495 5 1 C5 5.62 5 10.24 5 15 C3.68 15 2.36 15 1 15 C0.67 10.05 0.34 5.1 0 0 Z " fill="#CFCFCF" transform="translate(278,152)"/>
<path d="M0 0 C3.96 0.33 7.92 0.66 12 1 C11.34 2.32 10.68 3.64 10 5 C8.948125 4.938125 7.89625 4.87625 6.8125 4.8125 C2.84183507 5.0077786 1.15803031 5.70325068 -2 8 C-2.33 6.35 -2.66 4.7 -3 3 C-2.01 2.67 -1.02 2.34 0 2 C0 1.34 0 0.68 0 0 Z " fill="#C2C2C2" transform="translate(453,152)"/>
<path d="M0 0 C2.31 0 4.62 0 7 0 C7 0.99 7 1.98 7 3 C7.66 2.67 8.32 2.34 9 2 C8.34 3.65 7.68 5.3 7 7 C6.34 7 5.68 7 5 7 C4.67 7.66 4.34 8.32 4 9 C4 7.68 4 6.36 4 5 C2.68 5.33 1.36 5.66 0 6 C-0.66 4.68 -1.32 3.36 -2 2 C-1.34 2 -0.68 2 0 2 C0 1.34 0 0.68 0 0 Z " fill="#A5A5A5" transform="translate(141,153)"/>
<path d="M0 0 C1.98 0 3.96 0 6 0 C5.01 0.33 4.02 0.66 3 1 C3 2.98 3 4.96 3 7 C3.99 7.33 4.98 7.66 6 8 C5.01 8 4.02 8 3 8 C3 9.65 3 11.3 3 13 C2.01 13 1.02 13 0 13 C0 8.71 0 4.42 0 0 Z " fill="#EFEFEF" transform="translate(198,154)"/>
<path d="M0 0 C0.33 0.99 0.66 1.98 1 3 C0.67 3.66 0.34 4.32 0 5 C-0.66 4.67 -1.32 4.34 -2 4 C-2 3.67 -2 3.34 -2 3 C-4.97 2.505 -4.97 2.505 -8 2 C-8.33 2.99 -8.66 3.98 -9 5 C-9.66 5 -10.32 5 -11 5 C-10.52034261 0.44325482 -10.52034261 0.44325482 -8.3125 -1.4375 C-4.99756869 -2.24383464 -3.04487718 -1.42094268 0 0 Z " fill="#DADADA" transform="translate(511,154)"/>
<path d="M0 0 C0.99 0 1.98 0 3 0 C3 4.62 3 9.24 3 14 C2.01 14 1.02 14 0 14 C0 9.38 0 4.76 0 0 Z " fill="#EFEFEF" transform="translate(322,153)"/>
<path d="M0 0 C3.96 0.33 7.92 0.66 12 1 C12 1.99 12 2.98 12 4 C9.69 4 7.38 4 5 4 C5 3.34 5 2.68 5 2 C4.01 2 3.02 2 2 2 C2 6.29 2 10.58 2 15 C1.67 15 1.34 15 1 15 C0.67 10.05 0.34 5.1 0 0 Z " fill="#9B9B9B" transform="translate(433,152)"/>
<path d="M0 0 C3.63 0.33 7.26 0.66 11 1 C11 1.99 11 2.98 11 4 C10.01 4.495 10.01 4.495 9 5 C6.64018187 4.06421005 4.30368736 3.06652192 2 2 C2 6.29 2 10.58 2 15 C1.67 15 1.34 15 1 15 C0.67 10.05 0.34 5.1 0 0 Z " fill="#959595" transform="translate(196,152)"/>
<path d="M0 0 C-0.33 0.99 -0.66 1.98 -1 3 C-4.63 3 -8.26 3 -12 3 C-11.67 2.01 -11.34 1.02 -11 0 C-9.54263913 -0.19491452 -8.08405407 -0.38069358 -6.625 -0.5625 C-5.81289062 -0.66691406 -5.00078125 -0.77132812 -4.1640625 -0.87890625 C-2 -1 -2 -1 0 0 Z " fill="#DBDBDB" transform="translate(228,164)"/>
<path d="M0 0 C3.96 0.33 7.92 0.66 12 1 C11.34 2.32 10.68 3.64 10 5 C4.7323908 4.52112644 4.03685532 4.03685532 0 0 Z " fill="#B8B8B8" transform="translate(372,152)"/>
<path d="M0 0 C0.33 0.99 0.66 1.98 1 3 C1.99 3.33 2.98 3.66 4 4 C2.68 4 1.36 4 0 4 C-0.33 5.32 -0.66 6.64 -1 8 C-2.32 7.67 -3.64 7.34 -5 7 C-2.25 1.125 -2.25 1.125 0 0 Z " fill="#EFEFEF" transform="translate(335,159)"/>
<path d="M0 0 C-1.32 2.31 -2.64 4.62 -4 7 C-4.99 6.67 -5.98 6.34 -7 6 C-7.33 4.35 -7.66 2.7 -8 1 C-5.07175348 0.02391783 -3.04386724 -0.08226668 0 0 Z " fill="#DFDFDF" transform="translate(377,154)"/>
<path d="M0 0 C1.65 0 3.3 0 5 0 C6.32 2.31 7.64 4.62 9 7 C7.35 6.67 5.7 6.34 4 6 C3.67 4.35 3.34 2.7 3 1 C2.01 0.67 1.02 0.34 0 0 Z " fill="#E9E8E9" transform="translate(265,160)"/>
<path d="M0 0 C0.99 0.33 1.98 0.66 3 1 C4.04449911 4.13349732 3.93423645 4.98968256 3 8 C2.01 8 1.02 8 0 8 C0 5.36 0 2.72 0 0 Z " fill="#BDBDBD" transform="translate(352,159)"/>
<path d="M0 0 C0.99 1.485 0.99 1.485 2 3 C4.05003955 4.19232613 4.05003955 4.19232613 6 5 C5.01 5.33 4.02 5.66 3 6 C1.77479736 9.00847418 1.77479736 9.00847418 1 12 C0.67 12 0.34 12 0 12 C0 8.04 0 4.08 0 0 Z " fill="#F5F5F5" transform="translate(416,155)"/>
<path d="M0 0 C1.65 0.33 3.3 0.66 5 1 C5.33 2.32 5.66 3.64 6 5 C5.01 5 4.02 5 3 5 C2.67 4.34 2.34 3.68 2 3 C0.35 3 -1.3 3 -3 3 C-2.01 2.67 -1.02 2.34 0 2 C0 1.34 0 0.68 0 0 Z " fill="#D0D0D0" transform="translate(422,153)"/>
<path d="M0 0 C1.98 0 3.96 0 6 0 C6 0.66 6 1.32 6 2 C5.01 2 4.02 2 3 2 C3 2.99 3 3.98 3 5 C4.32 5.33 5.64 5.66 7 6 C5.35 6 3.7 6 2 6 C1.34 4.02 0.68 2.04 0 0 Z " fill="#DFDFDF" transform="translate(416,153)"/>
<path d="M0 0 C0.99 0 1.98 0 3 0 C2.34 2.64 1.68 5.28 1 8 C0.01 7.67 -0.98 7.34 -2 7 C-1.125 1.125 -1.125 1.125 0 0 Z " fill="#E2E2E2" transform="translate(152,153)"/>
<path d="M0 0 C-0.25 1.875 -0.25 1.875 -1 4 C-3.0625 5.25 -3.0625 5.25 -5 6 C-5.33 4.35 -5.66 2.7 -6 1 C-3 0 -3 0 0 0 Z " fill="#D8D8D8" transform="translate(456,154)"/>
<path d="M0 0 C1.32 0 2.64 0 4 0 C4.33 1.32 4.66 2.64 5 4 C3.02 4 1.04 4 -1 4 C-0.67 2.68 -0.34 1.36 0 0 Z " fill="#EBEAEB" transform="translate(336,153)"/>
<path d="M0 0 C1.67542976 0.28604898 3.34385343 0.61781233 5 1 C5.33 1.99 5.66 2.98 6 4 C5.67 4.66 5.34 5.32 5 6 C2.49642808 4.74821404 0.93566621 3.00018842 -1 1 C-0.67 0.67 -0.34 0.34 0 0 Z " fill="#A5A5A5" transform="translate(506,153)"/>
<path d="M0 0 C1.17539996 0.92652701 2.34010577 1.86663387 3.5 2.8125 C4.1496875 3.33457031 4.799375 3.85664062 5.46875 4.39453125 C7 6 7 6 7 9 C5.82737096 7.88121617 4.66204862 6.75476949 3.5 5.625 C2.8503125 4.99851562 2.200625 4.37203125 1.53125 3.7265625 C0 2 0 2 0 0 Z " fill="#1A0000" transform="translate(33,96)"/>
<path d="M0 0 C0 3 0 3 -1.5 4.6875 C-1.995 5.120625 -2.49 5.55375 -3 6 C-3.66 5.67 -4.32 5.34 -5 5 C-3.35 3.35 -1.7 1.7 0 0 Z " fill="#010101" transform="translate(241,127)"/>
<path d="M0 0 C0 0.99 0 1.98 0 3 C-1.98 3.99 -1.98 3.99 -4 5 C-2.68 3.35 -1.36 1.7 0 0 Z " fill="#010101" transform="translate(307,126)"/>
<path d="M0 0 C0.99 0.33 1.98 0.66 3 1 C2.67 1.66 2.34 2.32 2 3 C1.34 2.01 0.68 1.02 0 0 Z " fill="#020202" transform="translate(164,94)"/>
<path d="M0 0 C0.66 0.33 1.32 0.66 2 1 C1.01 1.66 0.02 2.32 -1 3 C-0.67 2.01 -0.34 1.02 0 0 Z " fill="#020202" transform="translate(10,63)"/>
<path d="M0 0 C0.99 0.99 1.98 1.98 3 3 C2.01 2.67 1.02 2.34 0 2 C0 1.34 0 0.68 0 0 Z " fill="#0C0100" transform="translate(100,52)"/>
<path d="M0 0 C0 0.99 0 1.98 0 3 C-0.66 2.67 -1.32 2.34 -2 2 C-1.34 1.34 -0.68 0.68 0 0 Z " fill="#0E0000" transform="translate(134,39)"/>
<path d="M0 0 C0.99 0.495 0.99 0.495 2 1 C1.67 1.66 1.34 2.32 1 3 C0.67 2.01 0.34 1.02 0 0 Z " fill="#020202" transform="translate(258,124)"/>
<path d="M0 0 C0 3 0 3 0 3 Z " fill="#020202" transform="translate(182,123)"/>
<path d="M0 0 C0 3 0 3 0 3 Z " fill="#030303" transform="translate(419,110)"/>
<path d="M0 0 C0.33 0.66 0.66 1.32 1 2 C0.34 1.67 -0.32 1.34 -1 1 C-0.67 0.67 -0.34 0.34 0 0 Z " fill="#010101" transform="translate(511,165)"/>
<path d="M0 0 C0.33 0.66 0.66 1.32 1 2 C0.34 1.67 -0.32 1.34 -1 1 C-0.67 0.67 -0.34 0.34 0 0 Z " fill="#020202" transform="translate(464,165)"/>
<path d="M0 0 C0.33 0.66 0.66 1.32 1 2 C0.34 1.67 -0.32 1.34 -1 1 C-0.67 0.67 -0.34 0.34 0 0 Z " fill="#000000" transform="translate(428,165)"/>
<path d="M0 0 C0.33 0.66 0.66 1.32 1 2 C0.34 1.67 -0.32 1.34 -1 1 C-0.67 0.67 -0.34 0.34 0 0 Z " fill="#000000" transform="translate(255,165)"/>
<path d="M0 0 C0.66 0 1.32 0 2 0 C1.67 0.66 1.34 1.32 1 2 C0.67 1.34 0.34 0.68 0 0 Z " fill="#020202" transform="translate(382,162)"/>
<path d="M0 0 C0.66 0 1.32 0 2 0 C1.67 0.66 1.34 1.32 1 2 C0.67 1.34 0.34 0.68 0 0 Z " fill="#000000" transform="translate(354,152)"/>
<path d="M0 0 C0.99 0.495 0.99 0.495 2 1 C1.01 1.495 1.01 1.495 0 2 C0 1.34 0 0.68 0 0 Z " fill="#010101" transform="translate(150,152)"/>
<path d="M0 0 C0.66 0.66 1.32 1.32 2 2 C1.34 2 0.68 2 0 2 C0 1.34 0 0.68 0 0 Z " fill="#000000" transform="translate(411,135)"/>
<path d="M0 0 C2 1 2 1 2 1 Z " fill="#000000" transform="translate(371,166)"/>
<path d="" fill="#020202" transform="translate(0,0)"/>
<path d="" fill="#030303" transform="translate(0,0)"/>
<path d="" fill="#030303" transform="translate(0,0)"/>
<path d="" fill="#040404" transform="translate(0,0)"/>
<path d="" fill="#030303" transform="translate(0,0)"/>
<path d="" fill="#030303" transform="translate(0,0)"/>
<path d="" fill="#030303" transform="translate(0,0)"/>
<path d="" fill="#000000" transform="translate(0,0)"/>
<path d="" fill="#010101" transform="translate(0,0)"/>
<path d="" fill="#010101" transform="translate(0,0)"/>
<path d="" fill="#010101" transform="translate(0,0)"/>
<path d="" fill="#030303" transform="translate(0,0)"/>
<path d="" fill="#000000" transform="translate(0,0)"/>
<path d="" fill="#000000" transform="translate(0,0)"/>
<path d="" fill="#000000" transform="translate(0,0)"/>
<path d="" fill="#010101" transform="translate(0,0)"/>
<path d="" fill="#040404" transform="translate(0,0)"/>
<path d="" fill="#050505" transform="translate(0,0)"/>
<path d="M0 0 C2 1 2 1 2 1 Z " fill="#040404" transform="translate(456,157)"/>
<path d="M0 0 C2 1 2 1 2 1 Z " fill="#000000" transform="translate(378,157)"/>
<path d="M0 0 C2 1 2 1 2 1 Z " fill="#010101" transform="translate(375,157)"/>
<path d="" fill="#040404" transform="translate(0,0)"/>
<path d="" fill="#010101" transform="translate(0,0)"/>
<path d="" fill="#010101" transform="translate(0,0)"/>
<path d="" fill="#020202" transform="translate(0,0)"/>
<path d="" fill="#010101" transform="translate(0,0)"/>
<path d="" fill="#020202" transform="translate(0,0)"/>
<path d="M0 0 C2 1 2 1 2 1 Z " fill="#020202" transform="translate(271,135)"/>
<path d="M0 0 C2 1 2 1 2 1 Z " fill="#040404" transform="translate(297,134)"/>
<path d="M0 0 C2 1 2 1 2 1 Z " fill="#000000" transform="translate(269,134)"/>
<path d="M0 0 C2 1 2 1 2 1 Z " fill="#020202" transform="translate(267,133)"/>
<path d="M0 0 C2 1 2 1 2 1 Z " fill="#020202" transform="translate(204,133)"/>
<path d="" fill="#000000" transform="translate(0,0)"/>
<path d="" fill="#000000" transform="translate(0,0)"/>
<path d="" fill="#010101" transform="translate(0,0)"/>
<path d="M0 0 C2 1 2 1 2 1 Z " fill="#010101" transform="translate(264,131)"/>
<path d="M0 0 C2 1 2 1 2 1 Z " fill="#1D0000" transform="translate(67,131)"/>
<path d="" fill="#000000" transform="translate(0,0)"/>
<path d="" fill="#000000" transform="translate(0,0)"/>
<path d="" fill="#000000" transform="translate(0,0)"/>
<path d="" fill="#000000" transform="translate(0,0)"/>
<path d="" fill="#030303" transform="translate(0,0)"/>
<path d="" fill="#000000" transform="translate(0,0)"/>
<path d="" fill="#000000" transform="translate(0,0)"/>
<path d="" fill="#000000" transform="translate(0,0)"/>
<path d="" fill="#000000" transform="translate(0,0)"/>
<path d="" fill="#040404" transform="translate(0,0)"/>
<path d="" fill="#010101" transform="translate(0,0)"/>
<path d="" fill="#030303" transform="translate(0,0)"/>
<path d="M0 0 C2 1 2 1 2 1 Z " fill="#030303" transform="translate(223,120)"/>
<path d="" fill="#000000" transform="translate(0,0)"/>
<path d="M0 0 C2 1 2 1 2 1 Z " fill="#010101" transform="translate(289,119)"/>
<path d="M0 0 C2 1 2 1 2 1 Z " fill="#000000" transform="translate(276,119)"/>
<path d="M0 0 C2 1 2 1 2 1 Z " fill="#000000" transform="translate(162,119)"/>
<path d="" fill="#010101" transform="translate(0,0)"/>
<path d="" fill="#010101" transform="translate(0,0)"/>
<path d="" fill="#050505" transform="translate(0,0)"/>
<path d="" fill="#040404" transform="translate(0,0)"/>
<path d="" fill="#030303" transform="translate(0,0)"/>
<path d="" fill="#040404" transform="translate(0,0)"/>
<path d="" fill="#000000" transform="translate(0,0)"/>
<path d="" fill="#000000" transform="translate(0,0)"/>
<path d="" fill="#010101" transform="translate(0,0)"/>
<path d="" fill="#010101" transform="translate(0,0)"/>
<path d="" fill="#000000" transform="translate(0,0)"/>
<path d="" fill="#000000" transform="translate(0,0)"/>
<path d="" fill="#010101" transform="translate(0,0)"/>
<path d="" fill="#010101" transform="translate(0,0)"/>
<path d="" fill="#000000" transform="translate(0,0)"/>
<path d="" fill="#000000" transform="translate(0,0)"/>
<path d="" fill="#000000" transform="translate(0,0)"/>
<path d="" fill="#030303" transform="translate(0,0)"/>
<path d="" fill="#000000" transform="translate(0,0)"/>
<path d="" fill="#020202" transform="translate(0,0)"/>
<path d="" fill="#000000" transform="translate(0,0)"/>
<path d="" fill="#010101" transform="translate(0,0)"/>
<path d="" fill="#010101" transform="translate(0,0)"/>
<path d="" fill="#010101" transform="translate(0,0)"/>
<path d="" fill="#000000" transform="translate(0,0)"/>
<path d="" fill="#000000" transform="translate(0,0)"/>
<path d="" fill="#000000" transform="translate(0,0)"/>
<path d="" fill="#010101" transform="translate(0,0)"/>
<path d="" fill="#000000" transform="translate(0,0)"/>
<path d="" fill="#000000" transform="translate(0,0)"/>
<path d="" fill="#000000" transform="translate(0,0)"/>
<path d="" fill="#020202" transform="translate(0,0)"/>
<path d="" fill="#000000" transform="translate(0,0)"/>
<path d="" fill="#010101" transform="translate(0,0)"/>
<path d="" fill="#000000" transform="translate(0,0)"/>
<path d="M0 0 C2 1 2 1 2 1 Z " fill="#060606" transform="translate(160,92)"/>
<path d="" fill="#010101" transform="translate(0,0)"/>
<path d="" fill="#010101" transform="translate(0,0)"/>
<path d="" fill="#020202" transform="translate(0,0)"/>
<path d="" fill="#020202" transform="translate(0,0)"/>
<path d="" fill="#020202" transform="translate(0,0)"/>
<path d="" fill="#030303" transform="translate(0,0)"/>
<path d="" fill="#020202" transform="translate(0,0)"/>
<path d="" fill="#010101" transform="translate(0,0)"/>
<path d="" fill="#030303" transform="translate(0,0)"/>
<path d="" fill="#000000" transform="translate(0,0)"/>
<path d="" fill="#010101" transform="translate(0,0)"/>
<path d="" fill="#000000" transform="translate(0,0)"/>
<path d="" fill="#000000" transform="translate(0,0)"/>
<path d="" fill="#000000" transform="translate(0,0)"/>
<path d="" fill="#020202" transform="translate(0,0)"/>
<path d="" fill="#000000" transform="translate(0,0)"/>
<path d="" fill="#050505" transform="translate(0,0)"/>
<path d="" fill="#010101" transform="translate(0,0)"/>
<path d="" fill="#020202" transform="translate(0,0)"/>
<path d="" fill="#000000" transform="translate(0,0)"/>
<path d="" fill="#000000" transform="translate(0,0)"/>
<path d="M0 0 C2 1 2 1 2 1 Z " fill="#010101" transform="translate(174,81)"/>
<path d="" fill="#030303" transform="translate(0,0)"/>
<path d="" fill="#000000" transform="translate(0,0)"/>
<path d="" fill="#000000" transform="translate(0,0)"/>
<path d="M0 0 C2 1 2 1 2 1 Z " fill="#010101" transform="translate(299,79)"/>
<path d="M0 0 C2 1 2 1 2 1 Z " fill="#000000" transform="translate(268,78)"/>
<path d="" fill="#000000" transform="translate(0,0)"/>
<path d="" fill="#020202" transform="translate(0,0)"/>
<path d="" fill="#020202" transform="translate(0,0)"/>
<path d="M0 0 C2 1 2 1 2 1 Z " fill="#010000" transform="translate(66,73)"/>
<path d="M0 0 C2 1 2 1 2 1 Z " fill="#030101" transform="translate(74,72)"/>
<path d="M0 0 C2 1 2 1 2 1 Z " fill="#050303" transform="translate(64,72)"/>
<path d="M0 0 C2 1 2 1 2 1 Z " fill="#030303" transform="translate(76,71)"/>
<path d="M0 0 C2 1 2 1 2 1 Z " fill="#050505" transform="translate(57,68)"/>
<path d="M0 0 C2 1 2 1 2 1 Z " fill="#000000" transform="translate(83,67)"/>
<path d="M0 0 C2 1 2 1 2 1 Z " fill="#010101" transform="translate(55,67)"/>
<path d="M0 0 C2 1 2 1 2 1 Z " fill="#010101" transform="translate(85,66)"/>
<path d="M0 0 C2 1 2 1 2 1 Z " fill="#020202" transform="translate(53,66)"/>
<path d="" fill="#010101" transform="translate(0,0)"/>
<path d="M0 0 C2 1 2 1 2 1 Z " fill="#030303" transform="translate(87,65)"/>
<path d="M0 0 C2 1 2 1 2 1 Z " fill="#060606" transform="translate(51,65)"/>
<path d="M0 0 C2 1 2 1 2 1 Z " fill="#010101" transform="translate(49,64)"/>
<path d="M0 0 C2 1 2 1 2 1 Z " fill="#010101" transform="translate(71,63)"/>
<path d="M0 0 C2 1 2 1 2 1 Z " fill="#010101" transform="translate(47,63)"/>
<path d="M0 0 C2 1 2 1 2 1 Z " fill="#040404" transform="translate(78,59)"/>
<path d="M0 0 C2 1 2 1 2 1 Z " fill="#000000" transform="translate(40,59)"/>
<path d="M0 0 C2 1 2 1 2 1 Z " fill="#020202" transform="translate(80,58)"/>
<path d="M0 0 C2 1 2 1 2 1 Z " fill="#000000" transform="translate(58,58)"/>
<path d="M0 0 C2 1 2 1 2 1 Z " fill="#000000" transform="translate(38,58)"/>
<path d="M0 0 C2 1 2 1 2 1 Z " fill="#010101" transform="translate(56,57)"/>
<path d="M0 0 C2 1 2 1 2 1 Z " fill="#010101" transform="translate(36,57)"/>
<path d="M0 0 C2 1 2 1 2 1 Z " fill="#000000" transform="translate(54,56)"/>
<path d="M0 0 C2 1 2 1 2 1 Z " fill="#000000" transform="translate(34,56)"/>
<path d="M0 0 C2 1 2 1 2 1 Z " fill="#010101" transform="translate(32,55)"/>
<path d="M0 0 C2 1 2 1 2 1 Z " fill="#0F0200" transform="translate(108,54)"/>
<path d="M0 0 C2 1 2 1 2 1 Z " fill="#040404" transform="translate(30,54)"/>
<path d="M0 0 C2 1 2 1 2 1 Z " fill="#080000" transform="translate(110,53)"/>
<path d="M0 0 C2 1 2 1 2 1 Z " fill="#110000" transform="translate(112,52)"/>
<path d="M0 0 C2 1 2 1 2 1 Z " fill="#000000" transform="translate(43,50)"/>
<path d="M0 0 C2 1 2 1 2 1 Z " fill="#000000" transform="translate(23,50)"/>
<path d="M0 0 C2 1 2 1 2 1 Z " fill="#020202" transform="translate(41,49)"/>
<path d="M0 0 C2 1 2 1 2 1 Z " fill="#000000" transform="translate(21,49)"/>
<path d="M0 0 C2 1 2 1 2 1 Z " fill="#000000" transform="translate(39,48)"/>
<path d="M0 0 C2 1 2 1 2 1 Z " fill="#1D0000" transform="translate(121,47)"/>
<path d="M0 0 C2 1 2 1 2 1 Z " fill="#040404" transform="translate(37,47)"/>
<path d="M0 0 C2 1 2 1 2 1 Z " fill="#140000" transform="translate(123,46)"/>
<path d="M0 0 C2 1 2 1 2 1 Z " fill="#1E0100" transform="translate(125,45)"/>
<path d="M0 0 C2 1 2 1 2 1 Z " fill="#010101" transform="translate(24,40)"/>
<path d="M0 0 C2 1 2 1 2 1 Z " fill="#010101" transform="translate(4,40)"/>
<path d="M0 0 C2 1 2 1 2 1 Z " fill="#010101" transform="translate(22,39)"/>
<path d="M0 0 C2 1 2 1 2 1 Z " fill="#020202" transform="translate(2,39)"/>
<path d="M0 0 C2 1 2 1 2 1 Z " fill="#010101" transform="translate(20,38)"/>
<path d="M0 0 C2 1 2 1 2 1 Z " fill="#040404" transform="translate(18,35)"/>
<path d="M0 0 C2 1 2 1 2 1 Z " fill="#000000" transform="translate(5,31)"/>
<path d="M0 0 C2 1 2 1 2 1 Z " fill="#1D0100" transform="translate(131,30)"/>
<path d="M0 0 C2 1 2 1 2 1 Z " fill="#000000" transform="translate(7,30)"/>
<path d="M0 0 C2 1 2 1 2 1 Z " fill="#130000" transform="translate(129,29)"/>
<path d="M0 0 C2 1 2 1 2 1 Z " fill="#000000" transform="translate(29,29)"/>
<path d="M0 0 C2 1 2 1 2 1 Z " fill="#020202" transform="translate(9,29)"/>
<path d="M0 0 C2 1 2 1 2 1 Z " fill="#1C0000" transform="translate(127,28)"/>
<path d="M0 0 C2 1 2 1 2 1 Z " fill="#000000" transform="translate(31,28)"/>
<path d="M0 0 C2 1 2 1 2 1 Z " fill="#150000" transform="translate(125,27)"/>
<path d="M0 0 C2 1 2 1 2 1 Z " fill="#000000" transform="translate(33,27)"/>
<path d="M0 0 C2 1 2 1 2 1 Z " fill="#220000" transform="translate(123,26)"/>
<path d="M0 0 C2 1 2 1 2 1 Z " fill="#030303" transform="translate(35,26)"/>
<path d="M0 0 C2 1 2 1 2 1 Z " fill="#080000" transform="translate(116,22)"/>
<path d="M0 0 C2 1 2 1 2 1 Z " fill="#000000" transform="translate(22,22)"/>
<path d="M0 0 C2 1 2 1 2 1 Z " fill="#1E0300" transform="translate(114,21)"/>
<path d="M0 0 C2 1 2 1 2 1 Z " fill="#000000" transform="translate(24,21)"/>
<path d="M0 0 C2 1 2 1 2 1 Z " fill="#030303" transform="translate(46,20)"/>
<path d="M0 0 C2 1 2 1 2 1 Z " fill="#000000" transform="translate(26,20)"/>
<path d="M0 0 C2 1 2 1 2 1 Z " fill="#010101" transform="translate(48,19)"/>
<path d="M0 0 C2 1 2 1 2 1 Z " fill="#040404" transform="translate(50,18)"/>
<path d="M0 0 C2 1 2 1 2 1 Z " fill="#0A0000" transform="translate(102,17)"/>
<path d="M0 0 C2 1 2 1 2 1 Z " fill="#040404" transform="translate(52,17)"/>
<path d="M0 0 C2 1 2 1 2 1 Z " fill="#010101" transform="translate(84,16)"/>
<path d="M0 0 C2 1 2 1 2 1 Z " fill="#040404" transform="translate(39,13)"/>
<path d="M0 0 C2 1 2 1 2 1 Z " fill="#010101" transform="translate(77,12)"/>
<path d="M0 0 C2 1 2 1 2 1 Z " fill="#010101" transform="translate(41,12)"/>
<path d="M0 0 C2 1 2 1 2 1 Z " fill="#030303" transform="translate(75,11)"/>
<path d="M0 0 C2 1 2 1 2 1 Z " fill="#000000" transform="translate(63,11)"/>
<path d="M0 0 C2 1 2 1 2 1 Z " fill="#030303" transform="translate(43,11)"/>
<path d="M0 0 C2 1 2 1 2 1 Z " fill="#010101" transform="translate(73,10)"/>
<path d="M0 0 C2 1 2 1 2 1 Z " fill="#000000" transform="translate(65,10)"/>
<path d="M0 0 C2 1 2 1 2 1 Z " fill="#030303" transform="translate(45,10)"/>
<path d="M0 0 C2 1 2 1 2 1 Z " fill="#010101" transform="translate(91,9)"/>
<path d="M0 0 C2 1 2 1 2 1 Z " fill="#000000" transform="translate(67,9)"/>
<path d="M0 0 C2 1 2 1 2 1 Z " fill="#040404" transform="translate(89,8)"/>
<path d="M0 0 C2 1 2 1 2 1 Z " fill="#000000" transform="translate(56,4)"/>
<path d="M0 0 C2 1 2 1 2 1 Z " fill="#020202" transform="translate(80,3)"/>
<path d="M0 0 C2 1 2 1 2 1 Z " fill="#030303" transform="translate(58,3)"/>
<path d="M0 0 C2 1 2 1 2 1 Z " fill="#000000" transform="translate(78,2)"/>
<path d="M0 0 C2 1 2 1 2 1 Z " fill="#000000" transform="translate(60,2)"/>
<path d="" fill="#010101" transform="translate(0,0)"/>
<path d="" fill="#020202" transform="translate(0,0)"/>
<path d="" fill="#000000" transform="translate(0,0)"/>
<path d="" fill="#030303" transform="translate(0,0)"/>
<path d="" fill="#030303" transform="translate(0,0)"/>
<path d="" fill="#000000" transform="translate(0,0)"/>
<path d="" fill="#070707" transform="translate(0,0)"/>
<path d="" fill="#000000" transform="translate(0,0)"/>
<path d="" fill="#010101" transform="translate(0,0)"/>
<path d="" fill="#050505" transform="translate(0,0)"/>
<path d="" fill="#030303" transform="translate(0,0)"/>
<path d="" fill="#000000" transform="translate(0,0)"/>
<path d="" fill="#000000" transform="translate(0,0)"/>
<path d="" fill="#000000" transform="translate(0,0)"/>
<path d="" fill="#050505" transform="translate(0,0)"/>
<path d="" fill="#060606" transform="translate(0,0)"/>
<path d="" fill="#000000" transform="translate(0,0)"/>
<path d="" fill="#030303" transform="translate(0,0)"/>
<path d="" fill="#000000" transform="translate(0,0)"/>
<path d="" fill="#070707" transform="translate(0,0)"/>
<path d="" fill="#030303" transform="translate(0,0)"/>
<path d="" fill="#000000" transform="translate(0,0)"/>
<path d="" fill="#010101" transform="translate(0,0)"/>
<path d="" fill="#000000" transform="translate(0,0)"/>
<path d="" fill="#020202" transform="translate(0,0)"/>
<path d="" fill="#000000" transform="translate(0,0)"/>
<path d="" fill="#000000" transform="translate(0,0)"/>
<path d="" fill="#000000" transform="translate(0,0)"/>
<path d="" fill="#010101" transform="translate(0,0)"/>
<path d="" fill="#000000" transform="translate(0,0)"/>
<path d="" fill="#000000" transform="translate(0,0)"/>
<path d="" fill="#010101" transform="translate(0,0)"/>
<path d="" fill="#000000" transform="translate(0,0)"/>
<path d="" fill="#050505" transform="translate(0,0)"/>
<path d="" fill="#000000" transform="translate(0,0)"/>
<path d="" fill="#010101" transform="translate(0,0)"/>
<path d="" fill="#010101" transform="translate(0,0)"/>
<path d="" fill="#010101" transform="translate(0,0)"/>
<path d="" fill="#000000" transform="translate(0,0)"/>
<path d="" fill="#000000" transform="translate(0,0)"/>
<path d="" fill="#010101" transform="translate(0,0)"/>
<path d="" fill="#000000" transform="translate(0,0)"/>
<path d="" fill="#000000" transform="translate(0,0)"/>
<path d="" fill="#000000" transform="translate(0,0)"/>
<path d="" fill="#000000" transform="translate(0,0)"/>
<path d="" fill="#020202" transform="translate(0,0)"/>
<path d="" fill="#000000" transform="translate(0,0)"/>
<path d="" fill="#010101" transform="translate(0,0)"/>
<path d="" fill="#030303" transform="translate(0,0)"/>
<path d="" fill="#060606" transform="translate(0,0)"/>
<path d="" fill="#000000" transform="translate(0,0)"/>
<path d="" fill="#000000" transform="translate(0,0)"/>
<path d="" fill="#050505" transform="translate(0,0)"/>
<path d="" fill="#000000" transform="translate(0,0)"/>
<path d="" fill="#000000" transform="translate(0,0)"/>
<path d="" fill="#000000" transform="translate(0,0)"/>
<path d="" fill="#000000" transform="translate(0,0)"/>
<path d="" fill="#010101" transform="translate(0,0)"/>
<path d="" fill="#020202" transform="translate(0,0)"/>
<path d="" fill="#010101" transform="translate(0,0)"/>
<path d="" fill="#010101" transform="translate(0,0)"/>
<path d="" fill="#000000" transform="translate(0,0)"/>
<path d="" fill="#010101" transform="translate(0,0)"/>
<path d="" fill="#000000" transform="translate(0,0)"/>
<path d="" fill="#020202" transform="translate(0,0)"/>
<path d="" fill="#000000" transform="translate(0,0)"/>
<path d="" fill="#000000" transform="translate(0,0)"/>
<path d="" fill="#050505" transform="translate(0,0)"/>
<path d="" fill="#020202" transform="translate(0,0)"/>
<path d="" fill="#010101" transform="translate(0,0)"/>
<path d="" fill="#010101" transform="translate(0,0)"/>
<path d="" fill="#010101" transform="translate(0,0)"/>
<path d="" fill="#000000" transform="translate(0,0)"/>
<path d="" fill="#060606" transform="translate(0,0)"/>
<path d="" fill="#000000" transform="translate(0,0)"/>
<path d="" fill="#000000" transform="translate(0,0)"/>
<path d="" fill="#010101" transform="translate(0,0)"/>
<path d="" fill="#000000" transform="translate(0,0)"/>
<path d="" fill="#000000" transform="translate(0,0)"/>
<path d="" fill="#000000" transform="translate(0,0)"/>
<path d="" fill="#060606" transform="translate(0,0)"/>
<path d="" fill="#030303" transform="translate(0,0)"/>
<path d="" fill="#000000" transform="translate(0,0)"/>
<path d="" fill="#000000" transform="translate(0,0)"/>
<path d="" fill="#030303" transform="translate(0,0)"/>
<path d="" fill="#000000" transform="translate(0,0)"/>
<path d="" fill="#060606" transform="translate(0,0)"/>
<path d="" fill="#000000" transform="translate(0,0)"/>
<path d="" fill="#000000" transform="translate(0,0)"/>
<path d="" fill="#020202" transform="translate(0,0)"/>
<path d="" fill="#010101" transform="translate(0,0)"/>
<path d="" fill="#000000" transform="translate(0,0)"/>
<path d="" fill="#000000" transform="translate(0,0)"/>
<path d="" fill="#000000" transform="translate(0,0)"/>
<path d="" fill="#000000" transform="translate(0,0)"/>
<path d="" fill="#000000" transform="translate(0,0)"/>
<path d="" fill="#000000" transform="translate(0,0)"/>
<path d="" fill="#000000" transform="translate(0,0)"/>
<path d="" fill="#000000" transform="translate(0,0)"/>
<path d="" fill="#000000" transform="translate(0,0)"/>
<path d="" fill="#000000" transform="translate(0,0)"/>
<path d="" fill="#000000" transform="translate(0,0)"/>
<path d="" fill="#050505" transform="translate(0,0)"/>
<path d="" fill="#1B0100" transform="translate(0,0)"/>
<path d="" fill="#000000" transform="translate(0,0)"/>
<path d="" fill="#140000" transform="translate(0,0)"/>
<path d="" fill="#020202" transform="translate(0,0)"/>
<path d="" fill="#060606" transform="translate(0,0)"/>
<path d="" fill="#100000" transform="translate(0,0)"/>
<path d="" fill="#1C0000" transform="translate(0,0)"/>
<path d="" fill="#000000" transform="translate(0,0)"/>
<path d="" fill="#000000" transform="translate(0,0)"/>
<path d="" fill="#140000" transform="translate(0,0)"/>
<path d="" fill="#020202" transform="translate(0,0)"/>
<path d="" fill="#000000" transform="translate(0,0)"/>
<path d="" fill="#050505" transform="translate(0,0)"/>
<path d="" fill="#0E0000" transform="translate(0,0)"/>
<path d="" fill="#200000" transform="translate(0,0)"/>
<path d="" fill="#000000" transform="translate(0,0)"/>
<path d="" fill="#000000" transform="translate(0,0)"/>
<path d="" fill="#010101" transform="translate(0,0)"/>
<path d="" fill="#100000" transform="translate(0,0)"/>
<path d="" fill="#180000" transform="translate(0,0)"/>
<path d="" fill="#000000" transform="translate(0,0)"/>
<path d="" fill="#000000" transform="translate(0,0)"/>
<path d="" fill="#000000" transform="translate(0,0)"/>
<path d="" fill="#000000" transform="translate(0,0)"/>
<path d="" fill="#0C0000" transform="translate(0,0)"/>
<path d="" fill="#210000" transform="translate(0,0)"/>
<path d="" fill="#060606" transform="translate(0,0)"/>
<path d="" fill="#060606" transform="translate(0,0)"/>
<path d="" fill="#000000" transform="translate(0,0)"/>
<path d="" fill="#0F0000" transform="translate(0,0)"/>
<path d="" fill="#180000" transform="translate(0,0)"/>
<path d="" fill="#010101" transform="translate(0,0)"/>
<path d="" fill="#0E0000" transform="translate(0,0)"/>
<path d="" fill="#200000" transform="translate(0,0)"/>
<path d="" fill="#010101" transform="translate(0,0)"/>
<path d="" fill="#130400" transform="translate(0,0)"/>
<path d="" fill="#160000" transform="translate(0,0)"/>
<path d="" fill="#100200" transform="translate(0,0)"/>
<path d="" fill="#1C0000" transform="translate(0,0)"/>
<path d="" fill="#0E0000" transform="translate(0,0)"/>
<path d="" fill="#1F0500" transform="translate(0,0)"/>
<path d="" fill="#020202" transform="translate(0,0)"/>
<path d="" fill="#100000" transform="translate(0,0)"/>
<path d="" fill="#180000" transform="translate(0,0)"/>
<path d="" fill="#110200" transform="translate(0,0)"/>
<path d="" fill="#1D0000" transform="translate(0,0)"/>
<path d="" fill="#050505" transform="translate(0,0)"/>
<path d="" fill="#110000" transform="translate(0,0)"/>
<path d="" fill="#260000" transform="translate(0,0)"/>
<path d="" fill="#000000" transform="translate(0,0)"/>
<path d="" fill="#100000" transform="translate(0,0)"/>
<path d="" fill="#100000" transform="translate(0,0)"/>
<path d="" fill="#050000" transform="translate(0,0)"/>
<path d="" fill="#020202" transform="translate(0,0)"/>
<path d="" fill="#020202" transform="translate(0,0)"/>
<path d="" fill="#010101" transform="translate(0,0)"/>
<path d="" fill="#100000" transform="translate(0,0)"/>
<path d="" fill="#020202" transform="translate(0,0)"/>
<path d="" fill="#000000" transform="translate(0,0)"/>
<path d="" fill="#030303" transform="translate(0,0)"/>
<path d="" fill="#090909" transform="translate(0,0)"/>
<path d="" fill="#020202" transform="translate(0,0)"/>
<path d="" fill="#030303" transform="translate(0,0)"/>
<path d="" fill="#0F0000" transform="translate(0,0)"/>
<path d="" fill="#000000" transform="translate(0,0)"/>
<path d="" fill="#060606" transform="translate(0,0)"/>
<path d="" fill="#000000" transform="translate(0,0)"/>
<path d="" fill="#070707" transform="translate(0,0)"/>
<path d="" fill="#190100" transform="translate(0,0)"/>
<path d="" fill="#090909" transform="translate(0,0)"/>
<path d="" fill="#010101" transform="translate(0,0)"/>
<path d="" fill="#060606" transform="translate(0,0)"/>
<path d="" fill="#100000" transform="translate(0,0)"/>
<path d="" fill="#000000" transform="translate(0,0)"/>
<path d="" fill="#010101" transform="translate(0,0)"/>
<path d="" fill="#020202" transform="translate(0,0)"/>
<path d="" fill="#000000" transform="translate(0,0)"/>
<path d="" fill="#110000" transform="translate(0,0)"/>
<path d="" fill="#000000" transform="translate(0,0)"/>
<path d="" fill="#2D0000" transform="translate(0,0)"/>
<path d="" fill="#0E0000" transform="translate(0,0)"/>
<path d="" fill="#2E0000" transform="translate(0,0)"/>
<path d="" fill="#100000" transform="translate(0,0)"/>
<path d="" fill="#230000" transform="translate(0,0)"/>
<path d="" fill="#160200" transform="translate(0,0)"/>
<path d="" fill="#050505" transform="translate(0,0)"/>
<path d="" fill="#230000" transform="translate(0,0)"/>
<path d="" fill="#0A0000" transform="translate(0,0)"/>
<path d="" fill="#210200" transform="translate(0,0)"/>
<path d="" fill="#0D0000" transform="translate(0,0)"/>
<path d="" fill="#2D0000" transform="translate(0,0)"/>
<path d="" fill="#180000" transform="translate(0,0)"/>
<path d="" fill="#200000" transform="translate(0,0)"/>
<path d="" fill="#170000" transform="translate(0,0)"/>
<path d="" fill="#000000" transform="translate(0,0)"/>
<path d="" fill="#210000" transform="translate(0,0)"/>
<path d="" fill="#0E0000" transform="translate(0,0)"/>
<path d="" fill="#1E0000" transform="translate(0,0)"/>
<path d="" fill="#0A0000" transform="translate(0,0)"/>
<path d="" fill="#000000" transform="translate(0,0)"/>
<path d="" fill="#220000" transform="translate(0,0)"/>
<path d="" fill="#000000" transform="translate(0,0)"/>
<path d="" fill="#200000" transform="translate(0,0)"/>
<path d="" fill="#260000" transform="translate(0,0)"/>
<path d="" fill="#000000" transform="translate(0,0)"/>
<path d="" fill="#1E0000" transform="translate(0,0)"/>
<path d="" fill="#000000" transform="translate(0,0)"/>
<path d="" fill="#330200" transform="translate(0,0)"/>
<path d="" fill="#1C0000" transform="translate(0,0)"/>
<path d="" fill="#020202" transform="translate(0,0)"/>
<path d="" fill="#2A0000" transform="translate(0,0)"/>
<path d="" fill="#000000" transform="translate(0,0)"/>
<path d="" fill="#000000" transform="translate(0,0)"/>
<path d="" fill="#1E0000" transform="translate(0,0)"/>
<path d="" fill="#000000" transform="translate(0,0)"/>
<path d="" fill="#030303" transform="translate(0,0)"/>
<path d="" fill="#310000" transform="translate(0,0)"/>
<path d="" fill="#000000" transform="translate(0,0)"/>
<path d="" fill="#020202" transform="translate(0,0)"/>
<path d="" fill="#000000" transform="translate(0,0)"/>
<path d="" fill="#000000" transform="translate(0,0)"/>
<path d="" fill="#020202" transform="translate(0,0)"/>
<path d="" fill="#290000" transform="translate(0,0)"/>
<path d="" fill="#060606" transform="translate(0,0)"/>
<path d="" fill="#020202" transform="translate(0,0)"/>
<path d="" fill="#020202" transform="translate(0,0)"/>
<path d="" fill="#000000" transform="translate(0,0)"/>
<path d="" fill="#000000" transform="translate(0,0)"/>
<path d="" fill="#030303" transform="translate(0,0)"/>
<path d="" fill="#000000" transform="translate(0,0)"/>
<path d="" fill="#000000" transform="translate(0,0)"/>
<path d="" fill="#000000" transform="translate(0,0)"/>
<path d="" fill="#000000" transform="translate(0,0)"/>
<path d="" fill="#030303" transform="translate(0,0)"/>
<path d="" fill="#000000" transform="translate(0,0)"/>
<path d="" fill="#030303" transform="translate(0,0)"/>
<path d="" fill="#050505" transform="translate(0,0)"/>
<path d="" fill="#050505" transform="translate(0,0)"/>
<path d="" fill="#000000" transform="translate(0,0)"/>
<path d="" fill="#010101" transform="translate(0,0)"/>
<path d="" fill="#050505" transform="translate(0,0)"/>
<path d="" fill="#000000" transform="translate(0,0)"/>
<path d="" fill="#060606" transform="translate(0,0)"/>
<path d="" fill="#000000" transform="translate(0,0)"/>
<path d="" fill="#020202" transform="translate(0,0)"/>
<path d="" fill="#010101" transform="translate(0,0)"/>
<path d="" fill="#000000" transform="translate(0,0)"/>
<path d="" fill="#000000" transform="translate(0,0)"/>
<path d="" fill="#050505" transform="translate(0,0)"/>
<path d="" fill="#050505" transform="translate(0,0)"/>
<path d="" fill="#000000" transform="translate(0,0)"/>
<path d="" fill="#050505" transform="translate(0,0)"/>
<path d="" fill="#000000" transform="translate(0,0)"/>
<path d="" fill="#000000" transform="translate(0,0)"/>
<path d="" fill="#010101" transform="translate(0,0)"/>
<path d="" fill="#060606" transform="translate(0,0)"/>
<path d="" fill="#000000" transform="translate(0,0)"/>
<path d="" fill="#050505" transform="translate(0,0)"/>
<path d="" fill="#000000" transform="translate(0,0)"/>
<path d="" fill="#000000" transform="translate(0,0)"/>
<path d="" fill="#000000" transform="translate(0,0)"/>
<path d="" fill="#020202" transform="translate(0,0)"/>
<path d="" fill="#060606" transform="translate(0,0)"/>
<path d="" fill="#010101" transform="translate(0,0)"/>
<path d="" fill="#020202" transform="translate(0,0)"/>
<path d="" fill="#020202" transform="translate(0,0)"/>
<path d="" fill="#010101" transform="translate(0,0)"/>
<path d="" fill="#020202" transform="translate(0,0)"/>
<path d="" fill="#030303" transform="translate(0,0)"/>
<path d="" fill="#050505" transform="translate(0,0)"/>
<path d="" fill="#010101" transform="translate(0,0)"/>
<path d="" fill="#020202" transform="translate(0,0)"/>
<path d="" fill="#010101" transform="translate(0,0)"/>
<path d="" fill="#100000" transform="translate(0,0)"/>
<path d="" fill="#000000" transform="translate(0,0)"/>
<path d="" fill="#070707" transform="translate(0,0)"/>
<path d="" fill="#000000" transform="translate(0,0)"/>
<path d="" fill="#000000" transform="translate(0,0)"/>
<path d="" fill="#000000" transform="translate(0,0)"/>
<path d="" fill="#000000" transform="translate(0,0)"/>
<path d="" fill="#000000" transform="translate(0,0)"/>
<path d="" fill="#000000" transform="translate(0,0)"/>
<path d="" fill="#000000" transform="translate(0,0)"/>
<path d="" fill="#000000" transform="translate(0,0)"/>
<path d="" fill="#000000" transform="translate(0,0)"/>
<path d="" fill="#080808" transform="translate(0,0)"/>
<path d="" fill="#000000" transform="translate(0,0)"/>
<path d="" fill="#000000" transform="translate(0,0)"/>
<path d="" fill="#010101" transform="translate(0,0)"/>
<path d="" fill="#000000" transform="translate(0,0)"/>
<path d="" fill="#000000" transform="translate(0,0)"/>
<path d="" fill="#000000" transform="translate(0,0)"/>
<path d="" fill="#050505" transform="translate(0,0)"/>
<path d="" fill="#010101" transform="translate(0,0)"/>
<path d="" fill="#020202" transform="translate(0,0)"/>
<path d="" fill="#000000" transform="translate(0,0)"/>
<path d="" fill="#000000" transform="translate(0,0)"/>
<path d="" fill="#020202" transform="translate(0,0)"/>
<path d="" fill="#100200" transform="translate(0,0)"/>
<path d="" fill="#0E0000" transform="translate(0,0)"/>
<path d="" fill="#030303" transform="translate(0,0)"/>
<path d="" fill="#160000" transform="translate(0,0)"/>
<path d="" fill="#000000" transform="translate(0,0)"/>
<path d="" fill="#220700" transform="translate(0,0)"/>
<path d="" fill="#110000" transform="translate(0,0)"/>
<path d="" fill="#100000" transform="translate(0,0)"/>
<path d="" fill="#1C0000" transform="translate(0,0)"/>
<path d="" fill="#0E0000" transform="translate(0,0)"/>
<path d="" fill="#110000" transform="translate(0,0)"/>
<path d="" fill="#000000" transform="translate(0,0)"/>
<path d="" fill="#020202" transform="translate(0,0)"/>
<path d="" fill="#030303" transform="translate(0,0)"/>
<path d="" fill="#000000" transform="translate(0,0)"/>
<path d="" fill="#060606" transform="translate(0,0)"/>
<path d="" fill="#000000" transform="translate(0,0)"/>
<path d="" fill="#000000" transform="translate(0,0)"/>
<path d="" fill="#010101" transform="translate(0,0)"/>
<path d="" fill="#000000" transform="translate(0,0)"/>
<path d="" fill="#000000" transform="translate(0,0)"/>
</svg>
