<?xml version="1.0" encoding="UTF-8"?>
<svg version="1.1" xmlns="http://www.w3.org/2000/svg" width="1280" height="684">
<path d="M0 0 C0.67401855 0.28568848 1.34803711 0.57137695 2.04248047 0.86572266 C30.79731201 13.18351789 57.35498228 34.04816509 75 60 C75.47244141 60.69287109 75.94488281 61.38574219 76.43164062 62.09960938 C102.81549505 101.28589894 113.80321475 147.25303889 105.06640625 194.08984375 C94.92369119 243.070999 66.53337828 284.85038092 24.80444336 312.36669922 C1.63609267 327.2515427 -24.6011675 336.84564981 -52 340 C-52.93199219 340.11085938 -53.86398437 340.22171875 -54.82421875 340.3359375 C-83.47364346 343.22823958 -112.3816754 338.86564295 -139 328 C-138.99000725 329.83924042 -138.99000725 329.83924042 -138.97981262 331.71563721 C-138.91882378 343.30819319 -138.87394225 354.90071634 -138.84456348 366.49339676 C-138.8289515 372.45237194 -138.80779514 378.41121692 -138.77368164 384.37011719 C-138.74092854 390.1278485 -138.72311343 395.88545507 -138.71536827 401.6432724 C-138.7098533 403.83275056 -138.69908438 406.02222241 -138.68280983 408.21164703 C-138.54395256 427.67798739 -140.2762888 446.12385029 -154.58984375 460.90625 C-168.44518306 472.94265498 -183.53762214 477.43267985 -201.7890625 476.22753906 C-215.73044506 474.79275897 -227.59286434 467.03954815 -237 457 C-244.10792052 447.8262976 -249.11399356 436.80346044 -249.13142776 425.05773258 C-249.13526891 424.08251056 -249.13911005 423.10728853 -249.1430676 422.10251433 C-249.14220112 421.0387287 -249.14133463 419.97494307 -249.14044189 418.87892151 C-249.14341302 417.74269362 -249.14638414 416.60646573 -249.1494453 415.43580669 C-249.15813296 411.6193878 -249.15964066 407.80300027 -249.16113281 403.98657227 C-249.16522391 401.25309057 -249.17076559 398.51961217 -249.17617798 395.78613281 C-249.18975447 388.34924012 -249.19578641 380.91235282 -249.20018864 373.4754498 C-249.2029551 368.82333783 -249.20719347 364.17122793 -249.21169281 359.51911736 C-249.22389005 346.61796607 -249.23418491 333.71681645 -249.2375679 320.81565952 C-249.23778747 319.98997073 -249.23800703 319.16428195 -249.23823325 318.31357228 C-249.23845153 317.4859725 -249.23866981 316.65837272 -249.2388947 315.80569416 C-249.23933816 314.12884494 -249.23978472 312.45199571 -249.24023438 310.77514648 C-249.2404558 309.94338207 -249.24067723 309.11161766 -249.24090537 308.25464826 C-249.24484236 294.81619507 -249.26226061 281.37779648 -249.2855939 267.93936432 C-249.30940225 254.11452594 -249.32177423 240.2897148 -249.32293582 226.46485561 C-249.32384786 218.71430328 -249.32947929 210.96382188 -249.34775543 203.21328926 C-249.36328571 196.60408451 -249.36820221 189.99497255 -249.36001733 183.38575298 C-249.35615438 180.02296366 -249.35851011 176.6605097 -249.37107468 173.29771996 C-249.52074324 130.70365611 -240.32369221 91.26515956 -214 57 C-213.32839844 56.10410156 -212.65679688 55.20820312 -211.96484375 54.28515625 C-182.63430113 16.70363247 -138.99220776 -6.72100325 -92 -13 C-60.81485019 -16.61197395 -28.87700187 -12.51807259 0 0 Z M-116 111 C-116.68578125 111.49886719 -117.3715625 111.99773437 -118.078125 112.51171875 C-130.15853937 121.95251502 -136.42888798 137.28878084 -139 152 C-140.91739293 171.27660937 -136.48712717 190.36705405 -124.76171875 205.98046875 C-122.60251453 208.445467 -120.36836583 210.73680139 -118 213 C-117.08154297 213.94746094 -117.08154297 213.94746094 -116.14453125 214.9140625 C-104.82281368 225.87367823 -88.37764206 230.72745852 -72.9375 231.1875 C-53.00087132 230.84553381 -34.99711596 225.22909047 -20.31640625 211.3984375 C-6.80625704 197.4098513 -2.54235451 179.29861998 -2.56616211 160.40649414 C-2.73978499 151.80675853 -4.4223151 144.88365171 -8 137 C-8.49628906 135.88367188 -8.99257812 134.76734375 -9.50390625 133.6171875 C-16.83524164 118.67186282 -29.52014655 106.30317386 -45 100 C-68.79376126 92.02443757 -96.1285768 95.27416681 -116 111 Z " fill="#0D78BE" transform="translate(1160,23)"/>
<path d="M0 0 C0.60150879 0.31549805 1.20301758 0.63099609 1.82275391 0.95605469 C16.25463851 8.55178343 28.2447312 18.81270173 40 30 C40.70511719 30.65226562 41.41023438 31.30453125 42.13671875 31.9765625 C48.49314592 38.03644236 53.77453977 44.9682308 59 52 C59.63059326 52.84014648 59.63059326 52.84014648 60.27392578 53.69726562 C86.53712813 89.18751604 97.95128461 137.13403734 91.8125 180.75 C84.54632864 227.67534688 58.69005712 269.85226531 20.390625 297.9296875 C-2.02242309 313.86940183 -27.06390558 323.89665852 -54 329 C-55.13308594 329.21527344 -56.26617188 329.43054688 -57.43359375 329.65234375 C-102.27796065 337.02770781 -149.92979383 327.58004306 -187.25 301.1875 C-227.97527663 271.42855078 -254.15137942 228.63993039 -262.45703125 178.95703125 C-268.6272423 133.98995356 -258.27683458 87.94715227 -230.875 51.375 C-226.80269111 46.07053987 -222.50855401 40.99650413 -217.94921875 36.1015625 C-216.20472294 34.22072333 -214.56532432 32.29381969 -212.9375 30.3125 C-209.63218741 26.4503141 -205.92925858 23.21484793 -202 20 C-200.62908203 18.87271484 -200.62908203 18.87271484 -199.23046875 17.72265625 C-142.33866245 -27.57610273 -63.9232182 -34.36228479 0 0 Z M-135 109 C-135.69996094 109.66515625 -136.39992188 110.3303125 -137.12109375 111.015625 C-147.88808867 122.01349116 -153.84650158 137.62985336 -154.375 152.875 C-153.75985414 173.1480679 -145.61980309 191.97065745 -131 206 C-118.00911834 216.64962229 -104.04443665 221.59527814 -87.3125 221.4375 C-85.60175293 221.42505249 -85.60175293 221.42505249 -83.85644531 221.41235352 C-64.72319497 221.03147768 -46.70952985 214.8996466 -33 201 C-20.69340081 186.21672172 -15.7461397 169.10177801 -17 150 C-18.94599038 131.87583086 -24.69746437 114.26562001 -39.00390625 102.13671875 C-68.2957536 81.24670506 -109.32898733 83.45755668 -135 109 Z " fill="#0D78BE" transform="translate(789,31)"/>
<path d="M0 0 C10.82503432 9.13822867 16.92573843 21.00375088 19.20703125 34.9296875 C19.29441025 37.54581318 19.33358835 40.1339131 19.32055664 42.74926758 C19.32067718 43.53293292 19.32079771 44.31659826 19.3209219 45.12401104 C19.32017826 47.64910961 19.31257511 50.17413346 19.3046875 52.69921875 C19.30321638 54.26281702 19.30219672 55.82641579 19.30163574 57.39001465 C19.29640257 63.1740798 19.28244132 68.95813439 19.26953125 74.7421875 C19.24890625 87.6740625 19.22828125 100.6059375 19.20703125 113.9296875 C54.84703125 113.9296875 90.48703125 113.9296875 127.20703125 113.9296875 C127.04910389 87.8578636 127.04910389 87.8578636 126.84667969 61.78637695 C126.82861328 56.70349121 126.82861328 56.70349121 126.82525635 54.31169128 C126.81917946 52.66805162 126.80524969 51.02442794 126.784729 49.38090515 C126.57071237 31.31103317 130.1019367 16.77891083 142.75390625 3.2890625 C154.37717383 -7.89000378 168.50965251 -12.67104573 184.45703125 -12.37890625 C199.23245184 -11.16301226 212.09782982 -5.27621909 222.2421875 5.546875 C229.2304402 14.02169438 235.31616822 25.32735836 235.34125233 36.53978634 C235.34571017 37.46631667 235.35016801 38.392847 235.35476094 39.34745401 C235.3544844 40.869164 235.3544844 40.869164 235.35420227 42.4216156 C235.35787896 43.50208587 235.36155565 44.58255614 235.36534375 45.69576794 C235.37638758 49.32900306 235.38022567 52.96220958 235.3840332 56.59545898 C235.39029743 59.19561352 235.3969442 61.79576715 235.40394592 64.3959198 C235.42369798 72.20898895 235.43377623 80.02205936 235.44267371 87.83514723 C235.44705982 91.51790218 235.4524259 95.20065569 235.45766258 98.8834095 C235.47467575 111.13258153 235.48916778 123.38175268 235.49641132 135.63093472 C235.49832111 138.80888813 235.50024146 141.98684154 235.50219727 145.16479492 C235.50268101 145.95462641 235.50316475 146.7444579 235.50366315 147.55822367 C235.51195538 160.34002127 235.53727823 173.12172504 235.56977794 185.90348171 C235.60290065 199.03780713 235.6208649 212.17208495 235.62405556 225.30645233 C235.62621615 232.67614151 235.63489808 240.04569397 235.66051674 247.41534233 C235.68458018 254.35352593 235.68801676 261.29146043 235.67775536 268.2296772 C235.67726068 270.77045636 235.68356074 273.31124774 235.6973114 275.85198975 C235.84648512 305.05953901 235.84648512 305.05953901 227.76953125 316.8671875 C227.21394531 317.70121094 226.65835937 318.53523438 226.0859375 319.39453125 C217.18686689 331.40180116 205.149853 339.58950421 190.20703125 341.9296875 C172.93842 342.96648404 159.45755696 339.65063652 145.01953125 329.7421875 C138.76122569 323.48388194 133.63296816 316.09602328 130.20703125 307.9296875 C129.93948532 307.32065582 129.67193939 306.71162415 129.39628601 306.08413696 C125.99739956 296.85144062 126.83345878 286.94894259 126.9140625 277.265625 C126.91848071 275.48869102 126.92153671 273.71175313 126.92321777 271.93481445 C126.93886114 265.39137874 126.98074489 258.84802696 127.01953125 252.3046875 C127.08140625 237.6609375 127.14328125 223.0171875 127.20703125 207.9296875 C91.56703125 207.9296875 55.92703125 207.9296875 19.20703125 207.9296875 C19.32553887 236.02108376 19.32553887 236.02108376 19.47729492 264.11230469 C19.49084473 269.58056641 19.49084473 269.58056641 19.49336243 272.15118408 C19.49792943 273.92317982 19.5083969 275.69516701 19.52375793 277.46710205 C19.67876002 296.31061457 17.22080026 312.46814707 3.62890625 326.67578125 C-9.11518739 338.53601033 -22.97265896 342.60169395 -40.01953125 342.2421875 C-55.18994913 341.52121715 -67.48261284 333.61529033 -77.79296875 322.9296875 C-87.28188156 311.84198632 -89.94282477 297.70892152 -89.94013977 283.55911255 C-89.94381646 282.5158021 -89.94749315 281.47249164 -89.95128125 280.39756572 C-89.96229323 276.90192032 -89.96615776 273.40630467 -89.9699707 269.91064453 C-89.97623735 267.40373135 -89.98288432 264.89681909 -89.98988342 262.38990784 C-90.00909094 254.86686848 -90.01970971 247.34383436 -90.02861121 239.82077676 C-90.03300166 236.27140518 -90.03836657 232.72203507 -90.04360008 229.17266464 C-90.06060975 217.36177188 -90.07510101 205.55088001 -90.08234882 193.73997688 C-90.08425849 190.67788822 -90.08617885 187.61579957 -90.08813477 184.55371094 C-90.08861851 183.79271292 -90.08910225 183.0317149 -90.08960065 182.24765633 C-90.09789011 169.93683399 -90.12320984 157.62610915 -90.15571544 145.31532933 C-90.18887088 132.65440125 -90.2068053 119.99352257 -90.20999306 107.33255088 C-90.21215055 100.23274871 -90.22078653 93.13308865 -90.24645424 86.03332901 C-90.27057217 79.34707684 -90.27393401 72.66112327 -90.26369286 65.97482109 C-90.26319941 63.53044091 -90.26946283 61.08604782 -90.2832489 58.64170647 C-90.38684128 39.17352395 -89.58304963 19.79206048 -75.60546875 4.61328125 C-53.82666067 -15.61660298 -24.08946652 -17.85652763 0 0 Z " fill="#0D78BE" transform="translate(252.79296875,21.0703125)"/>
<path d="M0 0 C8.58508973 5.50095035 12.39857115 14.98396428 15.921875 24.12890625 C33.03257479 67.08324377 58.20648288 104.83657863 89.609375 138.62890625 C90.21120605 139.27931885 90.81303711 139.92973145 91.43310547 140.59985352 C95.12112349 144.52436052 98.9733465 148.13703129 103.06005859 151.64379883 C105.19314554 153.47848515 107.24070224 155.39627517 109.296875 157.31640625 C127.15866042 173.35943844 147.62935844 187.03554062 168.859375 198.19140625 C169.79861816 198.68882324 169.79861816 198.68882324 170.75683594 199.19628906 C207.5768026 218.55835038 247.58484514 230.28112164 288.859375 235.19140625 C289.57001099 235.27754181 290.28064697 235.36367737 291.01281738 235.4524231 C305.16528023 237.1225288 319.21559603 237.53374199 333.45898438 237.50708008 C336.95995527 237.50392823 340.46007055 237.52746179 343.9609375 237.55273438 C365.2987559 237.61334363 386.42461536 235.70614976 407.359375 231.50390625 C408.63925293 231.25044434 409.91913086 230.99698242 411.23779297 230.73583984 C466.80050342 219.44801782 518.45284422 192.62531938 560.859375 155.19140625 C561.60276123 154.5355957 562.34614746 153.87978516 563.11206055 153.20410156 C576.25735498 141.49715511 589.13146497 129.18076503 599.859375 115.19140625 C600.75554459 114.09213201 601.65556705 112.99599203 602.55859375 111.90234375 C625.51438156 83.99097238 644.5421277 52.4962623 656.5625 18.33813477 C659.86973918 9.09150945 663.75398274 2.54025031 672.859375 -1.80859375 C679.69650494 -4.08763706 688.25648231 -3.90864415 694.921875 -1.12109375 C701.43646593 2.33489072 705.52115763 7.73323957 708.859375 14.19140625 C711.44138616 22.86765536 709.51452477 30.87772554 706.609375 39.19140625 C706.25512451 40.22322021 705.90087402 41.25503418 705.53588867 42.31811523 C689.20207366 88.43242747 660.69963257 129.34123964 627.859375 165.19140625 C627.38322754 165.7126709 626.90708008 166.23393555 626.41650391 166.77099609 C618.91416796 174.97853732 611.44399936 183.06218835 603.00390625 190.32421875 C600.70830071 192.3229427 598.474579 194.38085854 596.234375 196.44140625 C590.02926148 202.02506683 583.49252434 207.13399055 576.859375 212.19140625 C575.79734863 213.00617432 575.79734863 213.00617432 574.71386719 213.83740234 C562.57400524 223.11318949 550.02174729 231.43808705 536.859375 239.19140625 C535.73329834 239.8558374 535.73329834 239.8558374 534.58447266 240.53369141 C480.45467345 272.17525155 416.66511798 291.14880785 353.7734375 291.39453125 C351.96178101 291.40505272 351.96178101 291.40505272 350.11352539 291.41578674 C346.23710356 291.43319331 342.36083448 291.43963902 338.484375 291.44140625 C337.82394951 291.44184811 337.16352402 291.44228996 336.48308563 291.44274521 C316.44800503 291.44977533 296.71031156 291.17829048 276.859375 288.19140625 C275.65410156 288.01448242 274.44882812 287.83755859 273.20703125 287.65527344 C247.16132327 283.73215561 221.84474484 277.50044016 196.859375 269.19140625 C195.88742187 268.86865723 194.91546875 268.5459082 193.9140625 268.21337891 C139.17519054 249.67189111 91.2050551 216.46406984 50.484375 175.94140625 C49.83041748 175.29212158 49.17645996 174.64283691 48.50268555 173.97387695 C44.08650605 169.54307249 39.93478987 164.93571533 35.859375 160.19140625 C35.00214844 159.21558594 34.14492188 158.23976563 33.26171875 157.234375 C10.53440934 130.90527329 -7.56483613 101.19360351 -23.140625 70.19140625 C-23.52202637 69.43794922 -23.90342773 68.68449219 -24.29638672 67.90820312 C-28.73361543 59.07875218 -32.54231196 50.01789747 -36.140625 40.81640625 C-36.73846802 39.33636108 -36.73846802 39.33636108 -37.34838867 37.82641602 C-40.57381424 29.33481496 -41.51687016 21.65815521 -38.578125 12.94140625 C-35.30353546 5.72814958 -30.11123324 0.76258458 -22.7265625 -2.1484375 C-14.96815843 -4.12905727 -7.12424136 -3.73112641 0 0 Z " fill="#E6242A" transform="translate(562.140625,384.80859375)"/>
<path d="M0 0 C12.60517519 9.12081782 21.20001613 21.15216404 23.92310715 36.71440029 C24.59829189 41.56108783 24.54713204 46.39519106 24.54278564 51.28053284 C24.54575677 52.3301924 24.54872789 53.37985196 24.55178905 54.46131939 C24.56044827 57.97234931 24.56198195 61.48334502 24.56347656 64.99438477 C24.56810674 67.51454236 24.57313166 70.03469926 24.57852173 72.55485535 C24.59162937 79.39813807 24.59812478 86.24140959 24.60253239 93.08470273 C24.6053007 97.36321654 24.60953914 101.64172811 24.61403656 105.9202404 C24.62622551 117.78179183 24.63652518 129.64334147 24.63991165 141.50489902 C24.640241 142.64246301 24.640241 142.64246301 24.640577 143.80300808 C24.64090442 144.94319325 24.64090442 144.94319325 24.64123845 146.10641247 C24.64168191 147.64654386 24.64212847 149.18667525 24.64257812 150.72680664 C24.64279955 151.4907544 24.64302098 152.25470215 24.64324912 153.04179984 C24.64719362 165.40885581 24.66463866 177.77585274 24.68793765 190.14288593 C24.71170205 202.86033704 24.72411583 215.57775858 24.72527957 228.29523224 C24.72619354 235.42734397 24.73187526 242.55937876 24.75009918 249.69146919 C24.76719337 256.40477985 24.76871493 263.1179202 24.75996017 269.83125496 C24.75919203 272.28775931 24.76350302 274.74427162 24.77341843 277.20075607 C24.85573589 298.87505025 23.62605874 317.04580932 7.84765625 333.51953125 C-5.15059341 345.31347024 -20.28123296 348.61640631 -37.33544922 347.921875 C-50.95963199 346.81617832 -62.37000662 339.34787002 -71.59765625 329.73828125 C-81.35693997 317.87441917 -84.91609659 305.88332008 -84.85835266 290.71427917 C-84.86217821 289.63699832 -84.86600376 288.55971746 -84.86994523 287.44979173 C-84.88022427 283.85734663 -84.87629272 280.26506288 -84.87231445 276.67260742 C-84.87666376 274.08979648 -84.88184764 271.50698682 -84.88780212 268.92417908 C-84.90052125 262.64682588 -84.90234627 256.36951552 -84.90000186 250.0921516 C-84.89821527 244.98662908 -84.89997565 239.88111951 -84.9042263 234.77559853 C-84.90482149 234.04758724 -84.90541668 233.31957596 -84.90602991 232.56950373 C-84.90724172 231.09029831 -84.90845586 229.61109289 -84.90967228 228.13188747 C-84.92053728 214.27391952 -84.91839038 200.41597594 -84.91228744 186.55800662 C-84.9071203 173.89872951 -84.91837019 161.2395294 -84.93738566 148.58026751 C-84.95678925 135.56217451 -84.96501557 122.54411788 -84.9612624 109.52601033 C-84.95935404 102.22520718 -84.96180215 94.92446952 -84.97597694 87.62367821 C-84.98917647 80.75603798 -84.98659653 73.88855395 -84.97356606 67.02091408 C-84.97120401 64.50551933 -84.97392155 61.99011371 -84.98218918 59.47473145 C-84.99268965 56.03072203 -84.98452899 52.5872257 -84.97187805 49.14323425 C-84.97925234 48.15711708 -84.98662662 47.1709999 -84.99422437 46.15500039 C-84.87514008 30.65573138 -79.50530944 18.15017594 -68.87890625 6.95703125 C-50.49301174 -10.92514012 -21.62559998 -14.1249867 0 0 Z " fill="#0D78BE" transform="translate(91.59765625,16.26171875)"/>
</svg>
