<?xml version="1.0" encoding="UTF-8"?>
<svg version="1.1" xmlns="http://www.w3.org/2000/svg" width="960" height="352">
<path d="M0 0 C1.877076 0.21653799 3.7542334 0.43237133 5.631464 0.64756489 C10.73685445 1.23483551 15.84105063 1.8319511 20.94509411 2.43079996 C26.41708901 3.07104192 31.89015425 3.70200716 37.36309814 4.33407593 C46.75542754 5.42005113 56.14707568 6.51175928 65.53826904 7.60751343 C79.03566139 9.18236167 92.53406025 10.74843573 106.03273988 12.31220734 C127.18181477 14.76240962 148.33015686 17.21886921 169.47802734 19.67944336 C194.41831291 22.58114886 219.35994146 25.47112052 244.30234194 28.35458493 C252.69736129 29.32514511 261.09232835 30.2961577 269.48730469 31.26708984 C270.82031966 31.42125659 270.82031966 31.42125659 272.18026423 31.57853782 C301.88246857 35.01373009 301.88246857 35.01373009 315.06089973 36.54295063 C316.62217283 36.72410808 318.1834464 36.90526141 319.74472046 37.08641052 C320.88914154 37.21920161 320.88914154 37.21920161 322.05668223 37.35467535 C326.52956999 37.87334698 331.00275419 38.38935993 335.47622216 38.90300256 C339.0137392 39.30927837 342.55110746 39.7168358 346.08837891 40.12524414 C346.76915489 40.20384088 347.44993087 40.28243762 348.15133643 40.36341608 C356.59613869 41.3407466 365.03345584 42.36684044 373.46491814 43.45374203 C378.1466965 44.05725381 382.83026125 44.64625003 387.51387405 45.23533058 C390.60041879 45.63100863 393.68289701 46.051039 396.76596069 46.4728241 C398.64524718 46.71035686 400.52468442 46.94670117 402.40429688 47.18164062 C403.18368748 47.29677065 403.96307808 47.41190067 404.76608658 47.53051949 C414.53127836 48.68800356 424.38006378 47.09255711 434.09326172 46.0065918 C434.96803681 45.91049657 435.8428119 45.81440134 436.74409533 45.71539414 C443.12288758 45.01290608 449.49700567 44.27246177 455.87084961 43.52661133 C457.97249371 43.28234357 460.07416027 43.038269 462.17584705 42.79436874 C467.86337171 42.13378314 473.55058137 41.4705216 479.23773527 40.80675268 C485.33890247 40.09513103 491.4403573 39.38598358 497.54177856 38.67654419 C507.98799959 37.46160127 518.43404104 36.24512337 528.87997437 35.02770996 C543.15321828 33.36428467 557.42686969 31.70437751 571.70064097 30.04548427 C620.93442297 24.32353449 670.1671126 18.59256069 719.39369136 12.80890644 C726.60551325 11.96168143 733.81749138 11.11579793 741.02958679 10.27090454 C742.01577655 10.15536779 743.0019663 10.03983104 744.0180406 9.92079318 C747.91410053 9.46438333 751.8101656 9.00801761 755.70625341 8.55184579 C766.79794232 7.25315342 777.88902638 5.94956231 788.97909641 4.63711441 C795.81283925 3.82875332 802.6472291 3.02603213 809.48216438 2.2278167 C813.35364219 1.77547399 817.22476787 1.3205552 821.09506607 0.85821915 C825.24215567 0.36282205 829.39061079 -0.12004644 833.53930664 -0.60180664 C834.71923722 -0.74489698 835.8991678 -0.88798733 837.11485386 -1.03541374 C842.96805699 -1.70447603 848.80047471 -2.15657156 854.69038391 -2.3303833 C855.82104939 -2.36423252 856.95171488 -2.39808174 858.11664295 -2.4329567 C861.75130225 -1.8962373 862.84935751 -0.83343739 865.09326172 2.0065918 C868.54253707 8.9051425 863.56351032 20.06540999 861.50732422 26.8815918 C860.94218026 28.79645569 860.37703995 30.71132067 859.81203461 32.62622547 C859.20708671 34.67038859 858.59780432 36.71321353 857.98724365 38.75570679 C856.68910806 43.0993426 855.40380908 47.44671074 854.12109375 51.79492188 C853.79379807 52.9042349 853.79379807 52.9042349 853.45989037 54.03595829 C853.0151761 55.54327217 852.57049383 57.05059548 852.12584305 58.55792809 C851.44820692 60.85363037 850.76944038 63.1489959 850.09042358 65.44429016 C846.02658685 79.18808527 842.05326165 92.95705478 838.10375977 106.73406982 C836.16132793 113.5095891 834.21369906 120.28361464 832.26513672 127.05737305 C832.06415375 127.75609024 831.86317078 128.45480743 831.65609741 129.17469788 C824.80828181 152.97542987 817.90001354 176.7588174 810.96801758 200.53515625 C810.57325242 201.88922844 810.57325242 201.88922844 810.1705122 203.27065563 C809.13220755 206.83188265 808.09386304 210.39309793 807.05502129 213.95416832 C804.29338873 223.42180835 801.54415804 232.8924474 798.84039307 242.37680054 C797.66797788 246.48652976 796.48509027 250.59319367 795.29998779 254.69927979 C794.8013998 256.43786951 794.308103 258.17798883 793.82110596 259.91986084 C789.43272074 275.61251676 783.58028703 293.87115643 769.03076172 302.90893555 C762.70324411 306.20451764 757.27333605 308.12989044 750.11077195 308.1342423 C749.12450721 308.13725827 748.13824246 308.14027423 747.12209091 308.1433816 C746.04392086 308.14161212 744.96575081 308.13984265 743.85490894 308.13801956 C742.12354278 308.14109851 742.12354278 308.14109851 740.35719952 308.14423966 C737.14325689 308.14893121 733.92934959 308.14913394 730.7154051 308.14746207 C727.22260528 308.1467313 723.72981299 308.15175317 720.23701638 308.15603709 C713.30495498 308.1636202 706.37290129 308.16581031 699.44083618 308.16636615 C691.13947784 308.16727948 682.83812664 308.17394608 674.53677138 308.18071297 C654.47224273 308.19677818 634.40771483 308.20267673 614.34318091 308.20746172 C604.85318094 308.20979702 595.36318158 308.21339959 585.87318209 308.2171571 C553.3939396 308.22999271 520.91469744 308.24071217 488.43545246 308.2441597 C486.39634171 308.24438133 484.35723095 308.24460312 482.31812019 308.24482505 C480.27406016 308.24504569 478.23000012 308.24526617 476.18594009 308.2454865 C472.0851417 308.24592905 467.98434331 308.24637617 463.88354492 308.24682617 C462.86678423 308.24693556 461.85002353 308.24704495 460.80245191 308.24715766 C427.82752078 308.25078899 394.85261164 308.26671187 361.87768893 308.29001654 C327.02221488 308.31460527 292.16675339 308.32833208 257.31127042 308.32952762 C253.48600367 308.32969907 249.66073694 308.3299145 245.8354702 308.33016205 C244.8935683 308.33021782 243.95166641 308.33027359 242.98122203 308.33033104 C227.81509385 308.33148229 212.6489882 308.34251047 197.48286763 308.3570491 C182.24287438 308.37140609 167.00291005 308.37465559 151.76291189 308.36660913 C142.70673651 308.36214919 133.65065439 308.36602803 124.59449124 308.38184763 C118.54531402 308.39158764 112.49620224 308.39042876 106.44702564 308.3804114 C103.00024916 308.37501231 99.55365197 308.37433185 96.10689024 308.38692012 C92.39137079 308.39796131 88.67632624 308.3905599 84.9608202 308.37852859 C83.89435598 308.38612379 82.82789176 308.39371898 81.72911045 308.40154433 C69.91377714 308.31875858 60.77091643 305.06133095 51.99951172 297.1081543 C42.06217051 286.8268282 37.87046966 273.29030429 34.07373047 259.8659668 C33.6185365 258.29546701 33.16213358 256.72531722 32.70463562 255.15548706 C31.47241567 250.91492184 30.2568539 246.66974661 29.04427338 242.42353058 C27.74458004 237.88371441 26.4290289 233.34849536 25.11523438 228.81274414 C22.89204399 221.13007299 20.67809029 213.4447943 18.47070312 205.75756836 C15.43699394 195.19353614 12.386573 184.63439721 9.33002853 174.07695198 C4.70489879 158.10150436 0.08857647 142.12353522 -4.52001953 126.14331055 C-10.2632726 106.22958945 -16.01853693 86.31936094 -21.78143311 66.41131592 C-22.95391035 62.36095683 -24.12595045 58.31047143 -25.2978096 54.25993347 C-25.95496909 51.98883112 -26.61246734 49.71782706 -27.27001953 47.44683838 C-28.08684651 44.6255846 -28.90217235 41.8039039 -29.71630859 38.98187256 C-31.3145745 33.4481507 -32.92041404 27.91841084 -34.61523438 22.41333008 C-34.8574321 21.62040054 -35.09962982 20.82747101 -35.34916687 20.01051331 C-35.942122 18.08217076 -36.54704699 16.15751832 -37.15356445 14.23339844 C-38.25885392 9.49803024 -38.6547864 5.5706924 -36.53173828 1.1315918 C-30.58192471 -6.64893364 -8.85018819 -1.04928864 0 0 Z " fill="#FEFDFD" transform="translate(65.90673828125,22.993408203125)"/>
<path d="M0 0 C1.877076 0.21653799 3.7542334 0.43237133 5.631464 0.64756489 C10.73685445 1.23483551 15.84105063 1.8319511 20.94509411 2.43079996 C26.41708901 3.07104192 31.89015425 3.70200716 37.36309814 4.33407593 C46.75542754 5.42005113 56.14707568 6.51175928 65.53826904 7.60751343 C79.03566139 9.18236167 92.53406025 10.74843573 106.03273988 12.31220734 C127.18181477 14.76240962 148.33015686 17.21886921 169.47802734 19.67944336 C194.41831291 22.58114886 219.35994146 25.47112052 244.30234194 28.35458493 C252.69736129 29.32514511 261.09232835 30.2961577 269.48730469 31.26708984 C270.82031966 31.42125659 270.82031966 31.42125659 272.18026423 31.57853782 C301.88246857 35.01373009 301.88246857 35.01373009 315.06089973 36.54295063 C316.62217283 36.72410808 318.1834464 36.90526141 319.74472046 37.08641052 C320.88914154 37.21920161 320.88914154 37.21920161 322.05668223 37.35467535 C326.52956999 37.87334698 331.00275419 38.38935993 335.47622216 38.90300256 C339.0137392 39.30927837 342.55110746 39.7168358 346.08837891 40.12524414 C346.76915489 40.20384088 347.44993087 40.28243762 348.15133643 40.36341608 C356.59613869 41.3407466 365.03345584 42.36684044 373.46491814 43.45374203 C378.1466965 44.05725381 382.83026125 44.64625003 387.51387405 45.23533058 C390.60041879 45.63100863 393.68289701 46.051039 396.76596069 46.4728241 C398.64524718 46.71035686 400.52468442 46.94670117 402.40429688 47.18164062 C403.18368748 47.29677065 403.96307808 47.41190067 404.76608658 47.53051949 C414.53127836 48.68800356 424.38006378 47.09255711 434.09326172 46.0065918 C434.96803681 45.91049657 435.8428119 45.81440134 436.74409533 45.71539414 C443.12288758 45.01290608 449.49700567 44.27246177 455.87084961 43.52661133 C457.97249371 43.28234357 460.07416027 43.038269 462.17584705 42.79436874 C467.86337171 42.13378314 473.55058137 41.4705216 479.23773527 40.80675268 C485.33890247 40.09513103 491.4403573 39.38598358 497.54177856 38.67654419 C507.98799959 37.46160127 518.43404104 36.24512337 528.87997437 35.02770996 C543.15321828 33.36428467 557.42686969 31.70437751 571.70064097 30.04548427 C620.93442297 24.32353449 670.1671126 18.59256069 719.39369136 12.80890644 C726.60551325 11.96168143 733.81749138 11.11579793 741.02958679 10.27090454 C742.01577655 10.15536779 743.0019663 10.03983104 744.0180406 9.92079318 C747.91410053 9.46438333 751.8101656 9.00801761 755.70625341 8.55184579 C766.79794232 7.25315342 777.88902638 5.94956231 788.97909641 4.63711441 C795.81283925 3.82875332 802.6472291 3.02603213 809.48216438 2.2278167 C813.35364219 1.77547399 817.22476787 1.3205552 821.09506607 0.85821915 C825.24215567 0.36282205 829.39061079 -0.12004644 833.53930664 -0.60180664 C834.71923722 -0.74489698 835.8991678 -0.88798733 837.11485386 -1.03541374 C842.96805699 -1.70447603 848.80047471 -2.15657156 854.69038391 -2.3303833 C855.82104939 -2.36423252 856.95171488 -2.39808174 858.11664295 -2.4329567 C861.75130225 -1.8962373 862.84935751 -0.83343739 865.09326172 2.0065918 C868.54253707 8.9051425 863.56351032 20.06540999 861.50732422 26.8815918 C860.94218026 28.79645569 860.37703995 30.71132067 859.81203461 32.62622547 C859.20708671 34.67038859 858.59780432 36.71321353 857.98724365 38.75570679 C856.68910806 43.0993426 855.40380908 47.44671074 854.12109375 51.79492188 C853.79379807 52.9042349 853.79379807 52.9042349 853.45989037 54.03595829 C853.0151761 55.54327217 852.57049383 57.05059548 852.12584305 58.55792809 C851.44820692 60.85363037 850.76944038 63.1489959 850.09042358 65.44429016 C846.02658685 79.18808527 842.05326165 92.95705478 838.10375977 106.73406982 C836.16132793 113.5095891 834.21369906 120.28361464 832.26513672 127.05737305 C832.06415375 127.75609024 831.86317078 128.45480743 831.65609741 129.17469788 C824.80828181 152.97542987 817.90001354 176.7588174 810.96801758 200.53515625 C810.57325242 201.88922844 810.57325242 201.88922844 810.1705122 203.27065563 C809.13220755 206.83188265 808.09386304 210.39309793 807.05502129 213.95416832 C804.29338873 223.42180835 801.54415804 232.8924474 798.84039307 242.37680054 C797.66797788 246.48652976 796.48509027 250.59319367 795.29998779 254.69927979 C794.8013998 256.43786951 794.308103 258.17798883 793.82110596 259.91986084 C789.43272074 275.61251676 783.58028703 293.87115643 769.03076172 302.90893555 C762.70324411 306.20451764 757.27333605 308.12989044 750.11077195 308.1342423 C749.12450721 308.13725827 748.13824246 308.14027423 747.12209091 308.1433816 C746.04392086 308.14161212 744.96575081 308.13984265 743.85490894 308.13801956 C742.12354278 308.14109851 742.12354278 308.14109851 740.35719952 308.14423966 C737.14325689 308.14893121 733.92934959 308.14913394 730.7154051 308.14746207 C727.22260528 308.1467313 723.72981299 308.15175317 720.23701638 308.15603709 C713.30495498 308.1636202 706.37290129 308.16581031 699.44083618 308.16636615 C691.13947784 308.16727948 682.83812664 308.17394608 674.53677138 308.18071297 C654.47224273 308.19677818 634.40771483 308.20267673 614.34318091 308.20746172 C604.85318094 308.20979702 595.36318158 308.21339959 585.87318209 308.2171571 C553.3939396 308.22999271 520.91469744 308.24071217 488.43545246 308.2441597 C486.39634171 308.24438133 484.35723095 308.24460312 482.31812019 308.24482505 C480.27406016 308.24504569 478.23000012 308.24526617 476.18594009 308.2454865 C472.0851417 308.24592905 467.98434331 308.24637617 463.88354492 308.24682617 C462.86678423 308.24693556 461.85002353 308.24704495 460.80245191 308.24715766 C427.82752078 308.25078899 394.85261164 308.26671187 361.87768893 308.29001654 C327.02221488 308.31460527 292.16675339 308.32833208 257.31127042 308.32952762 C253.48600367 308.32969907 249.66073694 308.3299145 245.8354702 308.33016205 C244.8935683 308.33021782 243.95166641 308.33027359 242.98122203 308.33033104 C227.81509385 308.33148229 212.6489882 308.34251047 197.48286763 308.3570491 C182.24287438 308.37140609 167.00291005 308.37465559 151.76291189 308.36660913 C142.70673651 308.36214919 133.65065439 308.36602803 124.59449124 308.38184763 C118.54531402 308.39158764 112.49620224 308.39042876 106.44702564 308.3804114 C103.00024916 308.37501231 99.55365197 308.37433185 96.10689024 308.38692012 C92.39137079 308.39796131 88.67632624 308.3905599 84.9608202 308.37852859 C83.89435598 308.38612379 82.82789176 308.39371898 81.72911045 308.40154433 C69.91377714 308.31875858 60.77091643 305.06133095 51.99951172 297.1081543 C42.06217051 286.8268282 37.87046966 273.29030429 34.07373047 259.8659668 C33.6185365 258.29546701 33.16213358 256.72531722 32.70463562 255.15548706 C31.47241567 250.91492184 30.2568539 246.66974661 29.04427338 242.42353058 C27.74458004 237.88371441 26.4290289 233.34849536 25.11523438 228.81274414 C22.89204399 221.13007299 20.67809029 213.4447943 18.47070312 205.75756836 C15.43699394 195.19353614 12.386573 184.63439721 9.33002853 174.07695198 C4.70489879 158.10150436 0.08857647 142.12353522 -4.52001953 126.14331055 C-10.2632726 106.22958945 -16.01853693 86.31936094 -21.78143311 66.41131592 C-22.95391035 62.36095683 -24.12595045 58.31047143 -25.2978096 54.25993347 C-25.95496909 51.98883112 -26.61246734 49.71782706 -27.27001953 47.44683838 C-28.08684651 44.6255846 -28.90217235 41.8039039 -29.71630859 38.98187256 C-31.3145745 33.4481507 -32.92041404 27.91841084 -34.61523438 22.41333008 C-34.8574321 21.62040054 -35.09962982 20.82747101 -35.34916687 20.01051331 C-35.942122 18.08217076 -36.54704699 16.15751832 -37.15356445 14.23339844 C-38.25885392 9.49803024 -38.6547864 5.5706924 -36.53173828 1.1315918 C-30.58192471 -6.64893364 -8.85018819 -1.04928864 0 0 Z M-12.90673828 18.0065918 C-12.49779338 25.64084114 -11.16307221 32.38290893 -8.78173828 39.6315918 C-8.13605094 41.67378496 -7.49290267 43.71678233 -6.85205078 45.76049805 C-6.52495117 46.79964355 -6.19785156 47.83878906 -5.86083984 48.90942383 C-4.36359896 53.76970986 -3.0076863 58.66649051 -1.65673828 63.5690918 C1.36619494 74.48889996 4.49752163 85.37534376 7.65576172 96.2565918 C8.61022106 99.54564494 9.56467192 102.83470053 10.51904297 106.1237793 C10.86009567 107.29898888 10.86009567 107.29898888 11.20803833 108.49794006 C12.93570923 114.45464266 14.6463323 120.41605504 16.34326172 126.3815918 C18.68785687 134.62157563 21.08400773 142.84599652 23.48876953 151.06860352 C25.62781999 158.39019355 27.73128257 165.72134628 29.81933594 173.05761719 C32.05277239 180.8924529 34.32732389 188.71512758 36.6262207 196.53100586 C37.86457531 200.74823574 39.09882279 204.96202949 40.21435547 209.21362305 C42.78095435 218.87298067 45.52875823 229.08247514 54.09326172 235.0065918 C57.04637026 235.99096131 58.95028187 236.13282981 62.02842873 236.13539296 C63.56850655 236.14030125 63.56850655 236.14030125 65.13969705 236.1453087 C66.84029276 236.14308327 66.84029276 236.14308327 68.57524395 236.14081287 C70.38255675 236.14434122 70.38255675 236.14434122 72.22638091 236.14794084 C75.59163899 236.15347748 78.95684506 236.1545011 82.3221041 236.15366344 C85.9754205 236.1538326 89.62872829 236.15973492 93.28204042 236.1649043 C100.5373315 236.17424391 107.79261648 236.17815463 115.04791282 236.18042326 C123.73443293 236.18338178 132.42094491 236.19207709 141.10746076 236.20083754 C162.10490378 236.22169681 183.10234821 236.23215386 204.09979917 236.24096715 C214.02915892 236.24517133 223.95851806 236.25039361 233.88787729 236.25565168 C267.86395908 236.27354267 301.84004103 236.28853981 335.81612682 236.29597187 C337.94975204 236.29644663 340.08337725 236.29692252 342.21700247 236.29739953 C343.27510896 236.29763591 344.33321545 236.29787228 345.42338577 236.29811582 C350.78445445 236.29931705 356.14552312 236.30053249 361.5065918 236.30175781 C363.10248396 236.30211804 363.10248396 236.30211804 364.73061637 236.30248554 C399.23645556 236.3103809 433.74226041 236.33381722 468.2480846 236.36631376 C504.71274688 236.4005925 541.17738906 236.42032117 577.64206773 236.42361611 C581.64314132 236.42403366 585.64421489 236.42451323 589.64528847 236.42503929 C590.63049587 236.42516248 591.61570328 236.42528567 592.63076546 236.4254126 C608.50222002 236.42774701 624.37363476 236.44342036 640.24507512 236.46388114 C656.19101305 236.48411221 672.13690304 236.48962933 688.08285143 236.4801105 C697.56160183 236.47488501 707.04019288 236.48082235 716.51892042 236.50264518 C722.8472897 236.51611651 729.17554886 236.51510885 735.50391915 236.50224322 C739.111871 236.49532206 742.71951741 236.49476007 746.32744243 236.51180331 C750.21246377 236.53000628 754.09703371 236.51732942 757.98207378 236.50157642 C759.10409843 236.51179863 760.22612308 236.52202084 761.38214847 236.53255281 C768.58449601 236.46847827 774.51819566 235.6219176 779.82763672 230.25268555 C785.06097205 220.93332302 787.81357176 210.79814567 790.46826172 200.5065918 C792.50232214 192.7762892 794.60900689 185.10470273 797.09326172 177.5065918 C799.52054307 170.07050577 801.59581345 162.56898328 803.59326172 155.0065918 C805.59072239 147.44415336 807.66664578 139.94291702 810.09326172 132.5065918 C812.85022278 124.05105376 815.14562862 115.49813071 817.41748047 106.90112305 C819.32819695 99.71917559 821.38740617 92.60310189 823.59326172 85.5065918 C826.46378854 76.2589013 829.04882043 66.95521633 831.52539062 57.59472656 C832.9066208 52.3827959 834.31463566 47.18477079 835.83154297 42.01049805 C836.10732178 41.06899902 836.38310059 40.1275 836.66723633 39.1574707 C837.18106767 37.41692773 837.70088834 35.6781352 838.22827148 33.94165039 C839.79914149 28.61568429 840.61765843 23.54239291 841.09326172 18.0065918 C833.59403812 17.79834322 826.38000148 18.42899688 818.94873047 19.3972168 C817.79764801 19.54178818 816.64656555 19.68635956 815.46060181 19.83531189 C813.0041441 20.14420166 810.54801394 20.45570586 808.0921936 20.7696228 C801.65408604 21.59218998 795.21355738 22.39528091 788.77294922 23.19799805 C787.50020645 23.35694046 786.22746368 23.51588287 784.91615295 23.67964172 C774.59015344 24.96194227 764.25504925 26.11824392 753.90576172 27.1940918 C742.06765617 28.42884313 730.2757187 29.87625915 718.484375 31.50512695 C706.98613746 33.07132185 695.46067112 34.32203944 683.91943359 35.52416992 C673.12873705 36.65168456 662.35836815 37.91949175 651.58764648 39.22363281 C645.25550645 39.98964955 638.9209243 40.7335747 632.58544922 41.47143555 C605.13413495 44.65766301 605.13413495 44.65766301 577.71826172 48.1315918 C565.72538368 49.72223304 553.71437723 51.05291068 541.68438721 52.32351685 C532.47074729 53.29715781 523.27449645 54.31935499 514.09326172 55.5690918 C504.79743558 56.83319665 495.48676717 57.80699226 486.15209961 58.73681641 C473.16172455 60.05564052 460.20895959 61.66780981 447.25390625 63.29321289 C425.62284779 65.9979371 405.60564152 66.51583129 383.96298218 63.72875977 C379.5572641 63.16158298 375.14872735 62.61784941 370.74031067 62.07211304 C368.47403959 61.79125826 366.20791572 61.50921307 363.94194031 61.22598267 C353.39664283 59.90927326 342.84130686 58.69376187 332.28076172 57.5065918 C330.48696638 57.30382399 328.69318393 57.1009422 326.89941406 56.89794922 C318.19425897 55.91396072 309.48814366 54.93866682 300.78161621 53.96690369 C295.32276967 53.35716374 289.86419309 52.7450366 284.40576172 52.1315918 C283.31171021 52.00867767 282.21765869 51.88576355 281.0904541 51.75912476 C260.75158316 49.4684375 240.43610393 47.00024334 220.12768555 44.4543457 C207.53329875 42.88135399 194.93345433 41.43407253 182.31080627 40.10649109 C172.14735016 39.03046599 162.00848605 37.79737422 151.87091064 36.50216675 C146.72188945 35.84480228 141.57161534 35.19738633 136.42138672 34.54956055 C134.86280441 34.35333855 134.86280441 34.35333855 133.2727356 34.15315247 C118.8028993 32.33600595 104.31982198 30.63039553 89.8367157 28.92292786 C83.70371063 28.19920505 77.57208725 27.46444156 71.44091797 26.7253418 C52.51918354 24.4478495 33.59338166 22.25150738 14.63891602 20.26220703 C13.53591408 20.14560982 13.53591408 20.14560982 12.41062927 20.0266571 C10.44205057 19.81884382 8.47323158 19.61331026 6.50439453 19.40795898 C3.34443924 19.03614632 0.23033607 18.53225003 -2.90673828 18.0065918 C-5.53065756 17.91420027 -8.13219515 17.94207094 -10.75683594 17.97753906 C-11.8210376 17.99192017 -11.8210376 17.99192017 -12.90673828 18.0065918 Z " fill="#027651" transform="translate(65.90673828125,22.993408203125)"/>
<path d="M0 0 C0.99 0.33 1.98 0.66 3 1 C-0.09824061 11.22269728 -6.55629628 20.42049061 -15 27 C-20.9375364 30.16383391 -25.88747357 30.42358572 -32.54466248 30.37181091 C-34.11937658 30.37754776 -34.11937658 30.37754776 -35.72590309 30.3834005 C-39.23724523 30.39267273 -42.74819175 30.38070179 -46.25952148 30.36889648 C-48.77956302 30.3713648 -51.29960354 30.37520353 -53.81964111 30.38031006 C-59.243446 30.38864602 -64.66713739 30.38814775 -70.09094048 30.38012505 C-77.94148049 30.36887838 -85.79190027 30.37794788 -93.64242984 30.39268685 C-106.39190754 30.41644419 -119.14137038 30.42982199 -131.89086914 30.43383789 C-132.65340014 30.43408276 -133.41593115 30.43432763 -134.20156915 30.43457992 C-142.70880192 30.43712581 -151.21603355 30.43769256 -159.7232666 30.43664551 C-162.80843099 30.43631247 -165.89359537 30.43602708 -168.97875977 30.43579102 C-169.74005534 30.43572823 -170.50135091 30.43566544 -171.28571605 30.43560075 C-183.98734806 30.4349956 -196.68891149 30.44988974 -209.39051491 30.47662407 C-217.21964004 30.49241599 -225.04854358 30.49470112 -232.87767101 30.47949005 C-238.87786152 30.46889557 -244.87783891 30.47872767 -250.87802124 30.49604797 C-253.33704123 30.49977696 -255.7960826 30.49665825 -258.25508308 30.48617744 C-261.61316332 30.47281846 -264.97031114 30.48400734 -268.32835388 30.50120544 C-269.7861981 30.48649528 -269.7861981 30.48649528 -271.27349371 30.47148794 C-282.20890807 30.58722178 -290.33699646 36.23037087 -297.8671875 43.90234375 C-300.27192048 46.62348896 -301.83841538 48.51524613 -303 52 C-302.4740625 51.84015625 -301.948125 51.6803125 -301.40625 51.515625 C-298.40414402 50.87231658 -295.56960655 50.79224229 -292.5 50.75 C-290.81390625 50.71132812 -290.81390625 50.71132812 -289.09375 50.671875 C-285.65388599 51.03670906 -284.30626608 51.43687491 -282 54 C-277.39001749 69.16441615 -289.44104892 88.38333232 -295.5 101.8125 C-298.26908412 108.06249494 -299.34697392 114.22203962 -300 121 C-286.39223185 116.10862167 -279.87302398 99.55515557 -273.97265625 87.28515625 C-271.81149746 82.65904397 -269.79558006 77.98078775 -267.875 73.25 C-267.55523193 72.48727783 -267.23546387 71.72455566 -266.90600586 70.9387207 C-265.24127481 66.88985422 -265.24127481 66.88985422 -265.6953125 62.671875 C-266.12585938 62.12015625 -266.55640625 61.5684375 -267 61 C-269.23054053 57.65418921 -269.29683128 56.35990189 -269.3125 52.4375 C-269.32925781 51.46683594 -269.34601563 50.49617188 -269.36328125 49.49609375 C-269.24339844 48.67238281 -269.12351562 47.84867188 -269 47 C-265.23500419 44.4900028 -263.45706394 44.38523256 -259 45 C-256.46739035 47.53260965 -254.58403494 49.94156126 -252.85546875 53.07421875 C-250.10632068 55.92754506 -246.81372132 56.31359906 -243.0625 57.0625 C-233.53690968 59.02592051 -233.53690968 59.02592051 -231 62 C-230.62419121 66.5478958 -231.43115335 69.82162152 -233.1171875 74.02734375 C-233.55933594 75.14947266 -234.00148438 76.27160156 -234.45703125 77.42773438 C-235.15892578 79.16506836 -235.15892578 79.16506836 -235.875 80.9375 C-241.31657965 93.52966362 -241.31657965 93.52966362 -243.125 106.9375 C-243.10695313 107.89527344 -243.08890625 108.85304688 -243.0703125 109.83984375 C-243.04710937 110.55269531 -243.02390625 111.26554687 -243 112 C-239.18451256 111.7338032 -237.31630465 111.25745727 -234.3125 108.8125 C-230.28785785 103.91766495 -228.7161721 99.64719179 -228.125 93.375 C-226.48108394 80.76722438 -220.84323339 68.07336836 -210.625 60 C-203.65960295 55.65649844 -195.12469131 53.74896622 -187 55 C-182.14147723 57.33928874 -179.20689724 60.07692154 -177 65 C-176.0741505 71.57672405 -175.58411583 77.9796995 -179.625 83.5625 C-180.71166503 84.7447513 -181.83526534 85.89458053 -183 87 C-183.86625 87.886875 -184.7325 88.77375 -185.625 89.6875 C-193.30908961 95.60605466 -202.48107829 97.79388162 -212 98 C-211.60157441 99.60879422 -211.18046843 101.21198173 -210.75 102.8125 C-210.51796875 103.70582031 -210.2859375 104.59914063 -210.046875 105.51953125 C-208.81187682 108.44573962 -207.73928964 109.43970865 -205 111 C-195.52032054 112.52898056 -187.65950313 107.79173006 -179.98339844 102.64892578 C-173.48436946 97.66940972 -171.1638116 91.5195814 -168.375 84 C-167.90989014 82.80205811 -167.44478027 81.60411621 -166.96557617 80.36987305 C-166.04629772 77.99925427 -165.13577689 75.62521729 -164.23486328 73.24755859 C-162.9163977 69.78013488 -161.5486613 66.33583632 -160.15600586 62.89770508 C-159.09288874 60.26960571 -158.04800065 57.6341638 -157 55 C-150.07 55 -143.14 55 -136 55 C-136.66 57.64 -137.32 60.28 -138 63 C-137.18595703 62.36771484 -137.18595703 62.36771484 -136.35546875 61.72265625 C-135.28232422 60.90087891 -135.28232422 60.90087891 -134.1875 60.0625 C-133.47980469 59.51722656 -132.77210938 58.97195312 -132.04296875 58.41015625 C-127.50832022 55.28012161 -122.3112349 55.26185713 -117 56 C-112.27502159 59.24842265 -111.15658994 62.63762847 -110 68 C-109.6596875 67.55269531 -109.319375 67.10539062 -108.96875 66.64453125 C-104.17835086 60.66927275 -99.11363451 56.25111695 -91.375 54.9375 C-86.86636234 54.64938326 -84.41748968 55.99927736 -81 59 C-77.7942995 63.80855075 -78.30696803 68.37372413 -79 74 C-80.51669783 79.92632596 -82.84943241 85.61938822 -85.0625 91.3125 C-85.93943087 93.58130791 -86.80988659 95.8516347 -87.66123962 98.13017273 C-88.18683898 99.53619573 -88.72681729 100.93696088 -89.28370667 102.33088684 C-91.00723512 106.93111562 -91.04109313 110.2233334 -90 115 C-85.2009079 114.5765507 -82.18422108 112.46074555 -79 109 C-74.83226126 103.81322624 -73.63362788 98.71018506 -73 92.1875 C-71.83927807 80.34455217 -67.63742067 70.43619044 -59 62 C-56.1333364 59.93503045 -53.24190853 58.39025666 -50 57 C-49.01 56.566875 -48.02 56.13375 -47 55.6875 C-40.09866851 54.10594487 -34.24694759 54.39599178 -28 58 C-23.71414877 62.05848512 -21.17749719 65.87003375 -20.6875 71.75 C-20.8980511 78.05483582 -22.75743054 82.98709931 -27 87.6875 C-34.7849422 94.86603617 -45.57071374 98 -56 98 C-54.48509762 105.20933308 -54.48509762 105.20933308 -50.375 111.125 C-45.86527904 113.63040053 -43.0364345 114.14993736 -38 113 C-30.14413979 109.94494325 -24.25646166 106.65141019 -19 100 C-16.6875 99.125 -16.6875 99.125 -15 99 C-15.16583144 105.46742615 -18.77938024 109.46322894 -23 114 C-31.41312868 121.80126477 -39.31214942 125.80734717 -50.91796875 125.375 C-58.52702477 124.4491833 -62.81797035 120.78803728 -67.58984375 114.97265625 C-69.17572028 112.75418631 -70.26034267 110.62989272 -71 108 C-71.7734375 108.99 -71.7734375 108.99 -72.5625 110 C-73.7690625 111.485 -73.7690625 111.485 -75 113 C-75.72896484 113.9590625 -75.72896484 113.9590625 -76.47265625 114.9375 C-81.26960096 120.92517566 -86.72897193 125.13124102 -94.46484375 126.40625 C-99.04030476 126.58896392 -102.51619525 126.18519291 -106 123 C-110.62957471 116.92368319 -110.80137916 110.37535068 -110 103 C-108.69995052 98.22699539 -106.92676602 93.7030066 -105.0625 89.125 C-104.13207844 86.77526962 -103.20612903 84.42376236 -102.28515625 82.0703125 C-101.87144775 81.04695801 -101.45773926 80.02360352 -101.03149414 78.96923828 C-99.99168968 75.97607807 -99.42719818 73.134344 -99 70 C-106.6564345 72.85239717 -110.72145306 76.99263183 -115 84 C-116.35872711 87.03654753 -117.50115865 90.1397862 -118.63671875 93.265625 C-118.96162796 94.14023376 -119.28653717 95.01484253 -119.62129211 95.91595459 C-120.65067426 98.69132966 -121.66938442 101.47047462 -122.6875 104.25 C-123.71862908 107.04291147 -124.75190451 109.83501956 -125.7858429 112.62689209 C-126.42680502 114.36003043 -127.06569566 116.09393655 -127.70231628 117.82867432 C-127.98964127 118.60998718 -128.27696625 119.39130005 -128.57299805 120.19628906 C-128.825186 120.88434631 -129.07737396 121.57240356 -129.33720398 122.28131104 C-130 124 -130 124 -131 126 C-137.44070471 126.10655578 -143.62641289 125.96205088 -150 125 C-146.70986935 113.39225384 -142.30518499 102.31126063 -137.8371582 91.11938477 C-136.89304915 88.74946865 -135.95604697 86.3768311 -135.01953125 84.00390625 C-134.73100784 83.28819962 -134.44248444 82.57249298 -134.1452179 81.83509827 C-132.59292106 77.89585811 -131.52722904 74.23395935 -131 70 C-139.50303641 73.16779788 -145.06442583 78.96958731 -149.05187988 87.16082764 C-150.06566031 89.55742501 -151.01995866 91.96933039 -151.953125 94.3984375 C-152.29881531 95.27400299 -152.64450562 96.14956848 -153.00067139 97.05166626 C-154.09289725 99.82263332 -155.17198253 102.59847826 -156.25 105.375 C-157.34475711 108.17191235 -158.44221494 110.96773377 -159.54217529 113.76260376 C-160.22352601 115.49620839 -160.90140283 117.23118307 -161.57550049 118.96762085 C-163.89010501 124.89010501 -163.89010501 124.89010501 -165 126 C-166.41570123 126.08651611 -167.835595 126.10704904 -169.25390625 126.09765625 C-170.10791016 126.09443359 -170.96191406 126.09121094 -171.84179688 126.08789062 C-172.73962891 126.07951172 -173.63746094 126.07113281 -174.5625 126.0625 C-175.46419922 126.05798828 -176.36589844 126.05347656 -177.29492188 126.04882812 C-179.53001314 126.03700225 -181.76497437 126.0205222 -184 126 C-183.25320402 120.93918838 -181.8777744 116.73525719 -180 112 C-180.94875 112.886875 -181.8975 113.77375 -182.875 114.6875 C-190.54615154 121.26944138 -200.29811 125.63119493 -210.47265625 125.37109375 C-215.6857403 124.60564864 -219.34756814 122.06654495 -222.60546875 117.9921875 C-226 112.83858543 -226 112.83858543 -226 109 C-226.66 109.680625 -227.32 110.36125 -228 111.0625 C-241.96011006 124.9046373 -241.96011006 124.9046373 -251.1875 125.5625 C-255.8051401 124.88120884 -257.19528417 123.65462972 -260 120 C-264.25861382 107.22415853 -260.13191181 94.91113601 -255.11376953 83.06176758 C-254.70368652 82.08618896 -254.29360352 81.11061035 -253.87109375 80.10546875 C-253.48880615 79.24074951 -253.10651855 78.37603027 -252.71264648 77.48510742 C-251.88633413 74.60362969 -252.19263045 72.85406892 -253 70 C-254.98 69.67 -256.96 69.34 -259 69 C-259.25056152 69.62753174 -259.50112305 70.25506348 -259.75927734 70.90161133 C-275.14035803 109.19387548 -275.14035803 109.19387548 -286 121 C-286.62390625 121.71414062 -287.2478125 122.42828125 -287.890625 123.1640625 C-294.03138328 129.81252126 -299.55881192 133.0746896 -308.73608398 133.45898438 C-317.04732288 133.62825194 -317.04732288 133.62825194 -320.890625 131.09375 C-323.75690494 128.24870176 -324.19018481 126.62089902 -324.3125 122.6875 C-324.10462425 111.24900346 -318.65279408 100.26871087 -314.3125 89.875 C-313.32873787 87.49768092 -312.34563224 85.12009003 -311.36328125 82.7421875 C-310.93313721 81.7094873 -310.50299316 80.67678711 -310.05981445 79.61279297 C-308.58013587 75.96489613 -307.88076731 73.22705583 -307.9375 69.3125 C-307.94652344 68.50425781 -307.95554687 67.69601563 -307.96484375 66.86328125 C-307.97644531 66.24839844 -307.98804688 65.63351563 -308 65 C-313.31627608 64.18211137 -316.26471069 66.03298979 -320.55859375 68.80859375 C-327.9828222 75.47258121 -331.77957259 83.24548222 -335.3125 92.4375 C-335.77253418 93.59878418 -336.23256836 94.76006836 -336.70654297 95.95654297 C-338.15598236 99.63086439 -339.58149849 103.31363241 -341 107 C-341.48515082 108.25831543 -341.97033964 109.5166162 -342.45556641 110.77490234 C-344.28535048 115.52516303 -346.11463852 120.27546325 -347.9152832 125.03686523 C-348.30675537 126.06884033 -348.69822754 127.10081543 -349.1015625 128.1640625 C-349.44525879 129.07623535 -349.78895508 129.9884082 -350.14306641 130.92822266 C-351 133 -351 133 -352 134 C-353.85369611 134.08737645 -355.71067541 134.10698153 -357.56640625 134.09765625 C-358.69111328 134.09443359 -359.81582031 134.09121094 -360.97460938 134.08789062 C-362.15861328 134.07951172 -363.34261719 134.07113281 -364.5625 134.0625 C-365.75037109 134.05798828 -366.93824219 134.05347656 -368.16210938 134.04882812 C-371.10812226 134.03699675 -374.05403681 134.02051287 -377 134 C-372.80550692 121.71641985 -368.16140015 109.64646982 -363.33880615 97.5970459 C-356.38020041 80.20035658 -349.54518656 62.75928802 -342.875 45.25 C-342.52971252 44.34605499 -342.18442505 43.44210999 -341.82867432 42.51077271 C-340.85952952 39.97178339 -339.89384688 37.43151108 -338.9296875 34.890625 C-338.64518738 34.14495773 -338.36068726 33.39929047 -338.06756592 32.63102722 C-335.7150423 26.40238744 -334.57827122 21.64222824 -335 15 C-336.05864769 13.17460756 -336.05864769 13.17460756 -338 12 C-340.96243726 11.42052719 -340.96243726 11.42052719 -344.1875 11.3125 C-345.27417969 11.24675781 -346.36085938 11.18101563 -347.48046875 11.11328125 C-348.72763672 11.05720703 -348.72763672 11.05720703 -350 11 C-350.33 9.68 -350.66 8.36 -351 7 C-345.79154834 3.5276989 -339.13272941 4.20650637 -333 4 C-332.14873535 3.97131836 -331.2974707 3.94263672 -330.42041016 3.91308594 C-327.73852774 3.83594459 -325.05770662 3.78780881 -322.375 3.75 C-321.52236572 3.72856934 -320.66973145 3.70713867 -319.79125977 3.68505859 C-315.03433904 3.65951681 -311.83263514 3.85753288 -308 7 C-305.4774469 10.78382965 -305.62891951 12.49549516 -306 17 C-306.80600694 19.91079877 -307.91104855 22.66348318 -309.0625 25.453125 C-309.52861694 26.62618195 -309.52861694 26.62618195 -310.00415039 27.82293701 C-310.99155644 30.3032896 -311.99473563 32.77683761 -313 35.25 C-314.00282672 37.73831789 -315.00217351 40.22792319 -315.99584961 42.71990967 C-316.61318488 44.26592878 -317.23620215 45.80969379 -317.86547852 47.35089111 C-319.08223243 50.38062236 -320 52.7028313 -320 56 C-314.69127755 50.31420941 -309.43335818 44.63316516 -304.5625 38.5625 C-281.12341556 9.54667453 -281.12341556 9.54667453 -268.57742298 7.62987411 C-265.80792093 7.49061695 -263.06329149 7.47333745 -260.29039001 7.50120544 C-258.70721059 7.49312861 -258.70721059 7.49312861 -257.09204775 7.48488861 C-253.56755553 7.47165053 -250.04376383 7.48674609 -246.51928711 7.50170898 C-243.98762187 7.4978848 -241.45595881 7.49226491 -238.92430115 7.48498535 C-233.47865396 7.47304069 -228.03321441 7.4730409 -222.58756828 7.48357964 C-214.70658706 7.49854739 -206.82578533 7.48858377 -198.94481427 7.47206045 C-186.14704256 7.44562409 -173.34931121 7.43473965 -160.55151367 7.43579102 C-159.40368603 7.4358785 -159.40368603 7.4358785 -158.23266996 7.43596775 C-155.13208261 7.4362336 -152.03149527 7.43655089 -148.93090793 7.43693101 C-140.39330982 7.43789756 -131.85571293 7.43656882 -123.31811523 7.43383789 C-122.55352999 7.433598 -121.78894474 7.43335811 -121.00119024 7.43311094 C-108.24869338 7.42870309 -95.49623398 7.41246603 -82.74375921 7.3886171 C-74.88311481 7.37455539 -67.02261287 7.37165839 -59.16196359 7.38323999 C-53.14026325 7.39143364 -47.11867687 7.38470568 -41.09697914 7.37255096 C-38.6278618 7.37014195 -36.15873327 7.37289024 -33.6896286 7.38115883 C-30.32044968 7.39176753 -26.95178849 7.38403756 -23.58262634 7.37181091 C-22.11559962 7.383175 -22.11559962 7.383175 -20.618936 7.39476866 C-13.3409532 7.33872576 -8.81028064 5.9455789 -2.75 1.75 C-1.8425 1.1725 -0.935 0.595 0 0 Z " fill="#CE1343" transform="translate(854,98)"/>
<path d="M0 0 C1.09699219 -0.020625 2.19398438 -0.04125 3.32421875 -0.0625 C9.01950696 -0.09011352 13.38764639 -0.09798422 18.25 3.25 C20.67433474 6.44571398 20.51781488 9.33434215 20.25 13.25 C19.43137211 16.03767326 18.32102086 18.67883453 17.1875 21.3515625 C16.87675537 22.11044769 16.56601074 22.86933289 16.24584961 23.6512146 C15.25707935 26.06334361 14.25478013 28.4695005 13.25 30.875 C12.24646644 33.2880989 11.24611919 35.70233149 10.25415039 38.12020874 C9.63798369 39.6211865 9.01502961 41.11940032 8.38452148 42.6144104 C6.94824346 46.10432035 6.25 48.4170412 6.25 52.25 C11.1860876 46.92232299 16.04887927 41.5799828 20.625 35.9375 C38.53307008 13.89193931 38.53307008 13.89193931 47.25 8.25 C48.30413086 7.56405762 49.35826172 6.87811523 50.44433594 6.17138672 C56.78031276 3.0574342 63.80347329 3.75755779 70.6875 3.859375 C72.17821489 3.86684704 73.66893969 3.87253542 75.15966797 3.87652588 C79.05938435 3.89170677 82.95849289 3.93092154 86.85797119 3.9753418 C90.84663676 4.01645891 94.83540176 4.03457177 98.82421875 4.0546875 C106.63308786 4.09742479 114.44145835 4.1655823 122.25 4.25 C121.48095703 5.96101888 120.71191406 7.67203776 119.94287109 9.38305664 C118.22604873 14.00903995 119.04002032 18.03822659 120.7734375 22.47265625 C121.18601807 23.53818726 121.18601807 23.53818726 121.60693359 24.62524414 C121.92525146 25.42949829 121.92525146 25.42949829 122.25 26.25 C121.3326004 26.25142502 120.41520081 26.25285004 119.47000122 26.25431824 C110.79033934 26.27220718 102.11118346 26.3139948 93.4317646 26.38209057 C88.97039295 26.41626449 84.50936025 26.44145552 80.04785156 26.44555664 C75.73570796 26.44986033 71.4243277 26.4784928 67.11242294 26.52343178 C65.47399226 26.53634105 63.83546991 26.54073794 62.19699478 26.53615379 C49.68978796 26.50933108 40.68784121 28.4729758 31.3125 37.1875 C30.41660156 38.00089844 29.52070313 38.81429687 28.59765625 39.65234375 C26.14945409 42.36125296 24.71754982 44.92258507 23.25 48.25 C23.7759375 48.09144531 24.301875 47.93289062 24.84375 47.76953125 C27.84213728 47.12215218 30.68329682 47.00432037 33.75 46.9375 C34.8740625 46.90011719 35.998125 46.86273438 37.15625 46.82421875 C40.25 47.25 40.25 47.25 42.6171875 48.9453125 C45.76699236 53.39120932 44.9798885 58.04384215 44.25 63.25 C40.94163465 75.56590693 35.39226238 87.30146291 30.421875 99.01171875 C27.95287909 104.89638293 25.94186504 109.77916589 26.25 116.25 C32.02684542 115.61373905 34.2004674 112.7029018 37.8515625 108.4453125 C46.72645085 96.62176418 61.66397793 73.33243129 60.25 58.25 C59.26 56.826875 59.26 56.826875 58.25 55.375 C55.83777954 51.60590552 55.59858213 49.64707063 56.25 45.25 C58.34181809 41.98676378 59.76243945 41.3812663 63.5 40.375 C68.7255544 41.59429603 70.24110993 44.5349031 73.16015625 48.8671875 C77.17444838 53.44423087 83.13801051 53.66816991 88.8828125 54.58984375 C91.54897739 55.33337818 93.15113625 56.47515439 95.25 58.25 C94.75161012 65.5072561 92.45473096 71.63503684 89.8125 78.375 C89.00045422 80.48144418 88.18923036 82.58820542 87.37890625 84.6953125 C87.01869385 85.61844238 86.65848145 86.54157227 86.28735352 87.49267578 C84.30780571 92.75438747 82.99916021 96.96220926 83.125 102.625 C83.14304688 103.68460937 83.16109375 104.74421875 83.1796875 105.8359375 C83.20289063 106.63257813 83.22609375 107.42921875 83.25 108.25 C86.8917322 107.99592566 88.85748725 107.56584769 91.73242188 105.25244141 C94.85930946 101.52334292 96.24345041 97.94692077 97.84375 93.3984375 C98.15775757 92.54375885 98.47176514 91.6890802 98.79528809 90.8085022 C99.79334372 88.08524939 100.77251075 85.35569465 101.75 82.625 C103.04584427 79.04718998 104.34939974 75.47224068 105.65625 71.8984375 C105.96643066 71.04691101 106.27661133 70.19538452 106.59619141 69.3180542 C108.86834392 63.13613312 111.39521775 57.19014307 114.25 51.25 C120.52 51.25 126.79 51.25 133.25 51.25 C131.24389925 57.26830225 129.17525661 63.14661016 126.81640625 69.01953125 C126.16077405 70.66730448 125.50517617 72.31509137 124.84960938 73.96289062 C123.83266566 76.51026492 122.81462282 79.05719474 121.7956543 81.60375977 C118.00992549 91.07495492 114.29243249 100.50811896 111.25 110.25 C116.77095622 108.26245576 120.61414893 105.92804943 124.25 101.25 C124.58 100.404375 124.91 99.55875 125.25 98.6875 C126.25 96.25 126.25 96.25 128.9296875 94.14453125 C132.97114709 90.87634081 135.54738314 86.81441432 138.375 82.5 C139.51319902 80.80002822 140.65254788 79.10082581 141.79296875 77.40234375 C142.3657959 76.54495605 142.93862305 75.68756836 143.52880859 74.80419922 C146.19281555 70.85088847 148.93390886 66.95372914 151.6875 63.0625 C152.15881348 62.3931543 152.63012695 61.72380859 153.11572266 61.03417969 C156.40999928 56.37534773 159.80600079 51.79909011 163.25 47.25 C164.09708165 50.1756897 164.22546286 52.02291999 164.125 55.1875 C164.04133051 62.49065106 166.23701248 69.47639334 168.1171875 76.48046875 C170.66412703 86.43778947 172.23647621 97.40809369 168.44921875 107.2734375 C166.15664823 111.05207164 162.76825965 113.65100059 159.25 116.25 C161.48172201 115.52067908 163.70753314 114.78131503 165.92578125 114.01171875 C168.25 113.25 168.25 113.25 171.125 112.6875 C173.78868722 110.88559394 173.79828556 109.92889525 174.60693359 106.87304688 C176.2616923 101.03648376 178.41171933 95.47235096 180.6640625 89.84375 C181.07917084 88.79723267 181.49427917 87.75071533 181.92196655 86.67248535 C183.23575171 83.36342745 184.55539115 80.05673913 185.875 76.75 C186.76859197 74.50014407 187.66182459 72.25014536 188.5546875 70 C191.82016448 61.78270007 191.82016448 61.78270007 193.43994141 57.72460938 C193.92933701 56.49744202 193.92933701 56.49744202 194.42861938 55.2454834 C195.25 53.25 195.25 53.25 196.25 51.25 C202.52 51.25 208.79 51.25 215.25 51.25 C215.25 52.24 215.25 53.23 215.25 54.25 C216.06791016 53.79947266 216.06791016 53.79947266 216.90234375 53.33984375 C222.72175218 50.40527027 226.90811537 49.58675101 233.25 51.25 C237.89472688 53.00272713 240.89930314 54.81984052 243.25 59.25 C245.86305538 74.65970041 236.76930405 92.77855827 228.1796875 105.2578125 C226.58914236 107.31199833 224.9755808 109.3087216 223.25 111.25 C235.34268665 107.21910445 244.36018867 93.8910835 250.25 83.25 C252.67146571 77.99685116 254.6284203 72.54985927 256.625 67.125 C257.42054825 64.99680015 258.21957033 62.86995461 259.02090454 60.743927 C259.73547679 58.84316308 260.44099368 56.93900213 261.14599609 55.03466797 C262.25 52.25 262.25 52.25 263.25 51.25 C264.66570123 51.16348389 266.085595 51.14295096 267.50390625 51.15234375 C268.78491211 51.15717773 268.78491211 51.15717773 270.09179688 51.16210938 C270.98962891 51.17048828 271.88746094 51.17886719 272.8125 51.1875 C273.71419922 51.19201172 274.61589844 51.19652344 275.54492188 51.20117188 C277.78001314 51.21299775 280.01497437 51.2294778 282.25 51.25 C279.68119936 59.37416535 276.5117599 67.2342047 273.3125 75.125 C266.13504141 91.24004849 266.13504141 91.24004849 262.25 108.25 C272.87861053 102.54684313 277.09671019 90.95072808 281.25 80.25 C281.6521875 79.21423828 282.054375 78.17847656 282.46875 77.11132812 C285.10708586 70.29690543 287.72138901 63.47365531 290.3137207 56.64160156 C291.25 54.25 291.25 54.25 292.25 52.25 C298.85 52.25 305.45 52.25 312.25 52.25 C308.87478728 62.37563817 308.87478728 62.37563817 307.21289062 66.47509766 C306.84240601 67.39279938 306.47192139 68.3105011 306.09020996 69.25601196 C305.50414978 70.69549698 305.50414978 70.69549698 304.90625 72.1640625 C304.49588501 73.17794037 304.08552002 74.19181824 303.66271973 75.23641968 C302.80002921 77.36646631 301.93603581 79.49598569 301.07080078 81.625 C299.75150484 84.87129715 298.43594153 88.11908649 297.12109375 91.3671875 C296.27886145 93.4453999 295.43642063 95.5235278 294.59375 97.6015625 C294.20304321 98.56526764 293.81233643 99.52897278 293.40979004 100.5218811 C291.40513048 105.45337195 289.36697986 110.36563273 287.25 115.25 C287.83007812 115.20359375 288.41015625 115.1571875 289.0078125 115.109375 C294.63266961 114.84948061 297.83525201 115.38709551 302.25 119.25 C302.58 120.24 302.91 121.23 303.25 122.25 C302.59 123.24 301.93 124.23 301.25 125.25 C296.48966942 123.39876033 296.48966942 123.39876033 294.4375 122.125 C291.04086864 120.76634746 287.88899603 121.12870013 284.25 121.25 C283.87230469 122.04921875 283.49460937 122.8484375 283.10546875 123.671875 C276.5985016 136.65533169 267.58167818 148.47277394 253.25 153.25 C248.49289487 153.74183629 244.51203537 153.83053627 240.125 151.8125 C237.74319859 148.55737141 237.58979323 146.44859326 237.8359375 142.484375 C238.4885461 138.96275124 239.94512499 136.96857052 242.25 134.25 C242.66636719 133.70859375 243.08273437 133.1671875 243.51171875 132.609375 C249.14309738 126.04682352 257.42639781 122.56727626 265.25 119.25 C266.24 119.25 267.23 119.25 268.25 119.25 C268.58 117.27 268.91 115.29 269.25 113.25 C268.70472656 113.6109375 268.15945313 113.971875 267.59765625 114.34375 C262.18004215 117.67766637 257.6436872 119.70420329 251.25 118.25 C247.72027593 116.26051916 245.78726038 114.80208555 244.44140625 110.9140625 C243.93366539 108.69400936 243.53539002 106.50851756 243.25 104.25 C242.65574219 104.84167969 242.06148438 105.43335938 241.44921875 106.04296875 C231.41606463 115.60801304 222.05261351 119.36791428 208.25 119.5625 C207.56421875 119.59150391 206.8784375 119.62050781 206.171875 119.65039062 C200.99782297 119.71457257 198.27262591 118.40144675 194.25 115.25 C193.26 114.59 192.27 113.93 191.25 113.25 C191.07621826 113.78294678 190.90243652 114.31589355 190.72338867 114.86499023 C188.79255006 120.72857211 186.71258064 126.52618577 184.5625 132.3125 C183.469375 135.261875 182.37625 138.21125 181.25 141.25 C174.65 141.25 168.05 141.25 161.25 141.25 C163.17913853 135.46258441 165.14040202 129.81964393 167.4375 124.1875 C167.71013672 123.51267578 167.98277344 122.83785156 168.26367188 122.14257812 C168.92335311 120.51073506 169.58631421 118.88021848 170.25 117.25 C169.04730469 117.66572266 169.04730469 117.66572266 167.8203125 118.08984375 C157.99024839 121.22164422 145.7138285 124.56453003 135.50390625 121.3984375 C131.22014988 118.88810768 128.18797702 115.19790662 125.25 111.25 C124.71375 111.9925 124.1775 112.735 123.625 113.5 C119.83753955 117.88548052 115.59663759 120.93398623 109.7265625 121.48828125 C102.02974978 121.68860925 102.02974978 121.68860925 98.25 119.5625 C96.24666005 117.24613818 94.79016025 114.88839951 93.25 112.25 C92.47914063 112.81589844 91.70828125 113.38179688 90.9140625 113.96484375 C89.91117188 114.69832031 88.90828125 115.43179688 87.875 116.1875 C86.87726563 116.91839844 85.87953125 117.64929688 84.8515625 118.40234375 C80.36149929 121.59123249 76.69254902 122.08803955 71.25 121.25 C67.41515397 118.39426359 65.7409153 115.71626367 64.25 111.25 C62.68334216 99.40936496 66.51333247 88.82707467 71.5625 78.3125 C73.54257816 74.12968429 73.5836784 70.83807803 73.25 66.25 C70.94 65.59 68.63 64.93 66.25 64.25 C66.08129395 64.85440918 65.91258789 65.45881836 65.73876953 66.08154297 C59.58596326 87.42524569 49.2675347 113.83167942 29.75 126.4375 C22.66665689 130.10565983 13.66504582 130.8726905 5.9296875 128.5546875 C4.3125 127.5 4.3125 127.5 2.25 124.25 C-0.5660686 109.32254696 8.34822072 93.91403068 14.0078125 80.62890625 C17.38188096 73.02321057 17.38188096 73.02321057 18.375 64.875 C18.33375 63.67875 18.2925 62.4825 18.25 61.25 C14.49536707 60.69079935 12.33955734 60.63358953 8.9921875 62.52734375 C-6.16763345 73.85866755 -10.92123621 93.04632491 -17.5625 110 C-18.58108807 112.59618381 -19.6002962 115.19212083 -20.62052917 117.78765869 C-21.24927926 119.38762724 -21.87701717 120.98799401 -22.50361633 122.58880615 C-24.63863771 128.02727542 -24.63863771 128.02727542 -25.75 130.25 C-34 130.25 -42.25 130.25 -50.75 130.25 C-48.83877808 123.87926026 -46.9193583 117.81977496 -44.44140625 111.6953125 C-44.122323 110.89553482 -43.80323975 110.09575714 -43.4744873 109.27174377 C-42.78430491 107.54202013 -42.09240972 105.81297909 -41.3989563 104.08456421 C-39.50513172 99.36146645 -37.62710884 94.63210519 -35.75 89.90234375 C-35.35176529 88.89913589 -34.95353058 87.89592804 -34.54322815 86.86231995 C-29.54843559 74.25345185 -24.67852108 61.59649213 -19.8125 48.9375 C-19.37253693 47.79468567 -18.93257385 46.65187134 -18.47927856 45.47442627 C-17.22540046 42.21666275 -15.9735844 38.958116 -14.72265625 35.69921875 C-14.34943237 34.72916397 -13.9762085 33.75910919 -13.5916748 32.75965881 C-9.3292745 22.31345837 -9.3292745 22.31345837 -8.75 11.25 C-12.61758116 7.25349946 -18.47587095 7.54698979 -23.75 7.25 C-24.375 5.375 -24.375 5.375 -24.75 3.25 C-19.56115825 -1.93884175 -6.92506654 0.03301581 0 0 Z " fill="#CE1344" transform="translate(164.75,101.75)"/>
<path d="M0 0 C1.877076 0.21653799 3.7542334 0.43237133 5.631464 0.64756489 C10.73685445 1.23483551 15.84105063 1.8319511 20.94509411 2.43079996 C26.41708901 3.07104192 31.89015425 3.70200716 37.36309814 4.33407593 C46.75542754 5.42005113 56.14707568 6.51175928 65.53826904 7.60751343 C79.03566139 9.18236167 92.53406025 10.74843573 106.03273988 12.31220734 C127.18181477 14.76240962 148.33015686 17.21886921 169.47802734 19.67944336 C194.41831291 22.58114886 219.35994146 25.47112052 244.30234194 28.35458493 C252.69736129 29.32514511 261.09232835 30.2961577 269.48730469 31.26708984 C270.82031966 31.42125659 270.82031966 31.42125659 272.18026423 31.57853782 C301.88246857 35.01373009 301.88246857 35.01373009 315.06089973 36.54295063 C316.62217283 36.72410808 318.1834464 36.90526141 319.74472046 37.08641052 C320.88914154 37.21920161 320.88914154 37.21920161 322.05668223 37.35467535 C326.52956999 37.87334698 331.00275419 38.38935993 335.47622216 38.90300256 C339.0137392 39.30927837 342.55110746 39.7168358 346.08837891 40.12524414 C346.76915489 40.20384088 347.44993087 40.28243762 348.15133643 40.36341608 C356.59613869 41.3407466 365.03345584 42.36684044 373.46491814 43.45374203 C378.1466965 44.05725381 382.83026125 44.64625003 387.51387405 45.23533058 C390.60041879 45.63100863 393.68289701 46.051039 396.76596069 46.4728241 C398.64524718 46.71035686 400.52468442 46.94670117 402.40429688 47.18164062 C403.18368748 47.29677065 403.96307808 47.41190067 404.76608658 47.53051949 C414.53127836 48.68800356 424.38006378 47.09255711 434.09326172 46.0065918 C434.96803681 45.91049657 435.8428119 45.81440134 436.74409533 45.71539414 C443.12288758 45.01290608 449.49700567 44.27246177 455.87084961 43.52661133 C457.97249371 43.28234357 460.07416027 43.038269 462.17584705 42.79436874 C467.86337171 42.13378314 473.55058137 41.4705216 479.23773527 40.80675268 C485.33890247 40.09513103 491.4403573 39.38598358 497.54177856 38.67654419 C507.98799959 37.46160127 518.43404104 36.24512337 528.87997437 35.02770996 C543.15321828 33.36428467 557.42686969 31.70437751 571.70064097 30.04548427 C620.93442297 24.32353449 670.1671126 18.59256069 719.39369136 12.80890644 C726.60551325 11.96168143 733.81749138 11.11579793 741.02958679 10.27090454 C742.01577655 10.15536779 743.0019663 10.03983104 744.0180406 9.92079318 C747.91410053 9.46438333 751.8101656 9.00801761 755.70625341 8.55184579 C766.79794232 7.25315342 777.88902638 5.94956231 788.97909641 4.63711441 C795.81283925 3.82875332 802.6472291 3.02603213 809.48216438 2.2278167 C813.35364219 1.77547399 817.22476787 1.3205552 821.09506607 0.85821915 C825.24215567 0.36282205 829.39061079 -0.12004644 833.53930664 -0.60180664 C834.71923722 -0.74489698 835.8991678 -0.88798733 837.11485386 -1.03541374 C842.96805699 -1.70447603 848.80047471 -2.15657156 854.69038391 -2.3303833 C855.82104939 -2.36423252 856.95171488 -2.39808174 858.11664295 -2.4329567 C861.75130225 -1.8962373 862.84935751 -0.83343739 865.09326172 2.0065918 C868.54253707 8.9051425 863.56351032 20.06540999 861.50732422 26.8815918 C860.94218026 28.79645569 860.37703995 30.71132067 859.81203461 32.62622547 C859.20708671 34.67038859 858.59780432 36.71321353 857.98724365 38.75570679 C856.68910806 43.0993426 855.40380908 47.44671074 854.12109375 51.79492188 C853.79379807 52.9042349 853.79379807 52.9042349 853.45989037 54.03595829 C853.0151761 55.54327217 852.57049383 57.05059548 852.12584305 58.55792809 C851.44820692 60.85363037 850.76944038 63.1489959 850.09042358 65.44429016 C846.02658685 79.18808527 842.05326165 92.95705478 838.10375977 106.73406982 C836.16132793 113.5095891 834.21369906 120.28361464 832.26513672 127.05737305 C832.06415375 127.75609024 831.86317078 128.45480743 831.65609741 129.17469788 C824.80828181 152.97542987 817.90001354 176.7588174 810.96801758 200.53515625 C810.57325242 201.88922844 810.57325242 201.88922844 810.1705122 203.27065563 C809.13220755 206.83188265 808.09386304 210.39309793 807.05502129 213.95416832 C804.29338873 223.42180835 801.54415804 232.8924474 798.84039307 242.37680054 C797.66797788 246.48652976 796.48509027 250.59319367 795.29998779 254.69927979 C794.8013998 256.43786951 794.308103 258.17798883 793.82110596 259.91986084 C789.43272074 275.61251676 783.58028703 293.87115643 769.03076172 302.90893555 C762.70324411 306.20451764 757.27333605 308.12989044 750.11077195 308.1342423 C749.12450721 308.13725827 748.13824246 308.14027423 747.12209091 308.1433816 C746.04392086 308.14161212 744.96575081 308.13984265 743.85490894 308.13801956 C742.12354278 308.14109851 742.12354278 308.14109851 740.35719952 308.14423966 C737.14325689 308.14893121 733.92934959 308.14913394 730.7154051 308.14746207 C727.22260528 308.1467313 723.72981299 308.15175317 720.23701638 308.15603709 C713.30495498 308.1636202 706.37290129 308.16581031 699.44083618 308.16636615 C691.13947784 308.16727948 682.83812664 308.17394608 674.53677138 308.18071297 C654.47224273 308.19677818 634.40771483 308.20267673 614.34318091 308.20746172 C604.85318094 308.20979702 595.36318158 308.21339959 585.87318209 308.2171571 C553.3939396 308.22999271 520.91469744 308.24071217 488.43545246 308.2441597 C486.39634171 308.24438133 484.35723095 308.24460312 482.31812019 308.24482505 C480.27406016 308.24504569 478.23000012 308.24526617 476.18594009 308.2454865 C472.0851417 308.24592905 467.98434331 308.24637617 463.88354492 308.24682617 C462.86678423 308.24693556 461.85002353 308.24704495 460.80245191 308.24715766 C427.82752078 308.25078899 394.85261164 308.26671187 361.87768893 308.29001654 C327.02221488 308.31460527 292.16675339 308.32833208 257.31127042 308.32952762 C253.48600367 308.32969907 249.66073694 308.3299145 245.8354702 308.33016205 C244.8935683 308.33021782 243.95166641 308.33027359 242.98122203 308.33033104 C227.81509385 308.33148229 212.6489882 308.34251047 197.48286763 308.3570491 C182.24287438 308.37140609 167.00291005 308.37465559 151.76291189 308.36660913 C142.70673651 308.36214919 133.65065439 308.36602803 124.59449124 308.38184763 C118.54531402 308.39158764 112.49620224 308.39042876 106.44702564 308.3804114 C103.00024916 308.37501231 99.55365197 308.37433185 96.10689024 308.38692012 C92.39137079 308.39796131 88.67632624 308.3905599 84.9608202 308.37852859 C83.89435598 308.38612379 82.82789176 308.39371898 81.72911045 308.40154433 C69.91377714 308.31875858 60.77091643 305.06133095 51.99951172 297.1081543 C42.06217051 286.8268282 37.87046966 273.29030429 34.07373047 259.8659668 C33.6185365 258.29546701 33.16213358 256.72531722 32.70463562 255.15548706 C31.47241567 250.91492184 30.2568539 246.66974661 29.04427338 242.42353058 C27.74458004 237.88371441 26.4290289 233.34849536 25.11523438 228.81274414 C22.89204399 221.13007299 20.67809029 213.4447943 18.47070312 205.75756836 C15.43699394 195.19353614 12.386573 184.63439721 9.33002853 174.07695198 C4.70489879 158.10150436 0.08857647 142.12353522 -4.52001953 126.14331055 C-10.2632726 106.22958945 -16.01853693 86.31936094 -21.78143311 66.41131592 C-22.95391035 62.36095683 -24.12595045 58.31047143 -25.2978096 54.25993347 C-25.95496909 51.98883112 -26.61246734 49.71782706 -27.27001953 47.44683838 C-28.08684651 44.6255846 -28.90217235 41.8039039 -29.71630859 38.98187256 C-31.3145745 33.4481507 -32.92041404 27.91841084 -34.61523438 22.41333008 C-34.8574321 21.62040054 -35.09962982 20.82747101 -35.34916687 20.01051331 C-35.942122 18.08217076 -36.54704699 16.15751832 -37.15356445 14.23339844 C-38.25885392 9.49803024 -38.6547864 5.5706924 -36.53173828 1.1315918 C-30.58192471 -6.64893364 -8.85018819 -1.04928864 0 0 Z M-33.90673828 4.0065918 C-34.22021134 11.2306404 -31.88361808 18.3129666 -29.78173828 25.1315918 C-29.14347853 27.2591243 -28.50546459 29.38673056 -27.86767578 31.5144043 C-27.5412207 32.59238281 -27.21476562 33.67036133 -26.87841797 34.78100586 C-25.35263986 39.84597581 -23.88117556 44.92648899 -22.40673828 50.0065918 C-21.82501395 52.00277501 -21.24298181 53.99886856 -20.66064453 55.99487305 C-20.37205566 56.98438965 -20.0834668 57.97390625 -19.78613281 58.9934082 C-18.89895684 62.03325436 -18.01042805 65.07270232 -17.12158203 68.11206055 C-14.15527851 78.25981257 -11.21080417 88.41297466 -8.31665039 98.58154297 C-6.04098986 106.56460482 -3.72489624 114.53579799 -1.40673828 122.5065918 C1.39505724 132.14033324 4.17905751 141.77871125 6.92529297 151.4284668 C9.07970809 158.98677399 11.28373261 166.5303184 13.49047852 174.07348633 C15.36305109 180.48152545 17.20719217 186.89695556 19.03076172 193.3190918 C21.65739079 202.56198652 24.38704353 211.77302214 27.12768555 220.98266602 C29.20012224 227.95823302 31.2321487 234.94348925 33.21826172 241.9440918 C34.17400095 245.29900387 35.132439 248.65313212 36.09326172 252.0065918 C36.34317871 252.87960937 36.5930957 253.75262695 36.85058594 254.65209961 C43.85159035 280.17302117 43.85159035 280.17302117 60.84326172 299.7878418 C68.26611967 303.80855652 74.42097297 304.43966393 82.74202347 304.38970184 C84.48528082 304.39714112 84.48528082 304.39714112 86.2637555 304.40473068 C89.48606007 304.41544254 92.70803064 304.41276497 95.93033182 304.40439718 C99.43734843 304.39858564 102.94431539 304.41014201 106.4513185 304.41945887 C112.59675382 304.433371 118.74211552 304.43610493 124.88756371 304.43149948 C134.02623172 304.42466866 143.16482518 304.43492339 152.30348284 304.44845704 C169.57489286 304.47337679 186.84627198 304.47788557 204.11769709 304.47599107 C217.45503303 304.47461835 230.79235824 304.47843393 244.12969208 304.48591614 C246.04542324 304.48696647 247.96115441 304.48801409 249.87688558 304.489059 C250.82783938 304.48957835 251.77879318 304.49009769 252.75856376 304.49063277 C253.7112527 304.49115291 254.66394164 304.49167305 255.64549994 304.49220896 C257.07691561 304.49299495 257.07691561 304.49299495 258.53724876 304.49379681 C285.38059756 304.50838205 312.2239424 304.51666177 339.06729507 304.51204681 C340.58548787 304.51178888 340.58548787 304.51178888 342.13435122 304.51152574 C347.26428532 304.51063684 352.39421941 304.50969203 357.5241535 304.50872773 C359.05239938 304.50844118 359.05239938 304.50844118 360.61151891 304.50814884 C362.67184267 304.50776175 364.73216643 304.50737142 366.7924902 304.50697786 C398.84964535 304.50100811 430.90672831 304.51644422 462.96386719 304.54858398 C498.97658304 304.58465886 534.98925311 304.60399386 571.00198817 304.59904528 C574.84184821 304.5985753 578.68170825 304.59816504 582.5215683 304.59779358 C583.4670453 304.59769119 584.4125223 304.59758881 585.38665012 304.59748332 C599.66105966 304.59628836 613.93541976 304.60825742 628.20981598 304.62693787 C644.44446294 304.6481733 660.67900617 304.65202638 676.91365775 304.63263828 C685.99836796 304.62231033 695.08282515 304.6257865 704.1675125 304.64916913 C710.23816333 304.66340857 716.30862708 304.65942673 722.37926532 304.64072336 C725.83669747 304.63058049 729.29363742 304.62822065 732.7510387 304.64804405 C736.4815263 304.66519623 740.21069728 304.65150789 743.94113541 304.63021088 C745.00630109 304.6424884 746.07146677 304.65476593 747.16891021 304.6674155 C756.25752623 304.55904323 763.83006554 301.82191003 771.40576172 296.8190918 C783.69514133 283.95811313 787.48095419 267.83631233 792.18603516 251.19995117 C793.62715797 246.12732296 795.11144665 241.0674515 796.59326172 236.0065918 C797.17686441 234.00797252 797.76019721 232.0092744 798.34326172 230.01049805 C798.63201172 229.02065918 798.92076172 228.03082031 799.21826172 227.01098633 C800.09562327 223.99848319 800.96982658 220.98507923 801.84326172 217.97143555 C804.68823894 208.16801238 807.58173392 198.38520794 810.59326172 188.6315918 C813.50366511 179.19425901 816.12237077 169.693532 818.60888672 160.13598633 C819.94866179 155.03497073 821.38838107 150.01546547 823.08935547 145.0222168 C825.1744844 138.89861694 826.84123292 132.70247698 828.46826172 126.4440918 C830.5045683 118.73584112 832.61769051 111.08563545 835.09326172 103.5065918 C837.52030685 96.07041773 839.59577963 88.56899465 841.59326172 81.0065918 C843.81686111 72.58915781 846.20143065 64.27061621 848.8918457 55.99145508 C851.11773074 49.08312677 853.02873093 42.10306272 854.90063477 35.09155273 C856.06947932 30.72341811 857.26491902 26.37182856 858.58154297 22.0456543 C858.81542725 21.27624512 859.04931152 20.50683594 859.2902832 19.71411133 C859.72656242 18.29357236 860.16955668 16.87506933 860.62084961 15.45922852 C861.82433002 11.53732755 862.49134139 8.10801872 862.09326172 4.0065918 C859.44362971 1.35695979 858.30254934 1.71545811 854.58935547 1.7097168 C843.0530038 1.88003839 831.60401252 3.42954035 820.15576172 4.7565918 C817.7192843 5.03344568 815.28276051 5.3098917 812.84619141 5.5859375 C797.76012825 7.30505583 782.69579962 9.15136345 767.64404297 11.1472168 C753.35240932 13.03915489 739.02010978 14.5882306 724.68701172 16.12768555 C720.80156079 16.54533634 716.91614287 16.96329228 713.03076172 17.3815918 C711.55438736 17.54046371 711.55438736 17.54046371 710.04818726 17.70254517 C691.61880206 19.69029499 673.22157674 21.90132024 654.82617188 24.17926025 C644.91339259 25.4040943 634.99059177 26.54013061 625.06640625 27.66821289 C619.90812888 28.25528568 614.75068973 28.84961084 609.59326172 29.4440918 C608.00167236 29.62717896 608.00167236 29.62717896 606.37792969 29.81396484 C600.31685663 30.51290506 594.25716833 31.2226817 588.19873047 31.9440918 C585.39278282 32.2777789 582.58679274 32.61110652 579.78076172 32.9440918 C578.70847824 33.07136154 578.70847824 33.07136154 577.61453247 33.20120239 C567.34524972 34.41729223 557.06982576 35.55501524 546.78622437 36.64279175 C531.66140014 38.24415224 516.56295144 40.01775873 501.46826172 41.8815918 C499.40959872 42.13494563 497.35092353 42.38820038 495.29223633 42.64135742 C486.59559053 43.71141042 477.89902913 44.7820518 469.20361328 45.86206055 C463.44411992 46.57643467 457.68335264 47.2797124 451.92169189 47.97637939 C449.73727627 48.24231626 447.55329504 48.51185101 445.36981201 48.78533936 C423.09557873 51.57205521 402.88858606 50.7178503 380.59482193 48.12089157 C377.79484329 47.79627204 374.9940614 47.47888807 372.1932745 47.16133022 C352.99905004 44.98364218 333.82503808 42.65154488 314.66210938 40.21386719 C299.75416591 38.31966375 284.83479387 36.53912027 269.90576172 34.8190918 C268.79476105 34.69108185 267.68376038 34.5630719 266.53909302 34.43118286 C253.03657638 32.8794706 239.53090564 31.39759814 226.0065918 30.04882812 C216.66841992 29.10351673 207.36315744 27.93633947 198.0539856 26.74578857 C188.64094501 25.54428032 179.22295494 24.45753363 169.78076172 23.5065918 C147.66372877 21.27800295 125.5847426 18.72638993 103.53076172 15.9440918 C86.16181275 13.75319204 68.78067205 11.72155505 51.37451172 9.8503418 C48.41426553 9.53168113 45.4540199 9.21301531 42.49377441 8.89434814 C40.47974859 8.67783123 38.46566985 8.46180599 36.45153809 8.24627686 C26.48262963 7.17833847 16.51903511 6.09800113 6.57763672 4.7956543 C5.8528714 4.70128586 5.12810608 4.60691742 4.38137817 4.50968933 C1.0984648 4.07997052 -2.18148652 3.63765581 -5.45996094 3.17480469 C-11.87622652 2.31539553 -18.19659748 1.83323932 -24.66455078 1.77612305 C-25.35644501 1.7657048 -26.04833923 1.75528656 -26.76119995 1.74455261 C-30.78212151 1.65765063 -30.78212151 1.65765063 -33.90673828 4.0065918 Z " fill="#F4F9F7" transform="translate(65.90673828125,22.993408203125)"/>
<path d="M0 0 C0.99 0 1.98 0 3 0 C1.76481535 10.53815769 -5.04361938 19.31932598 -13 26 C-18.10613355 29.59750318 -22.14790919 30.12528672 -28.32745361 30.12025452 C-29.62873199 30.12162918 -30.93001038 30.12300385 -32.27072144 30.12442017 C-33.71075463 30.12088122 -35.15078758 30.11724642 -36.59082031 30.11352539 C-38.10863239 30.11324329 -39.6264446 30.1134017 -41.14425659 30.1139679 C-45.263735 30.11425497 -49.38318433 30.10837267 -53.50265598 30.10139394 C-57.8081453 30.09514553 -62.11363527 30.09455542 -66.41912842 30.09336853 C-74.57175731 30.09025961 -82.72437281 30.08205212 -90.8769958 30.07201904 C-100.15865136 30.06084429 -109.44030756 30.05534402 -118.72196817 30.05032361 C-137.81465305 30.03986916 -156.90732545 30.02227819 -176 30 C-175.51321777 28.895354 -175.02643555 27.79070801 -174.52490234 26.65258789 C-173.22432848 23.53733243 -172.58869999 21.72265072 -172.625 18.4375 C-172.61726563 17.73496094 -172.60953125 17.03242187 -172.6015625 16.30859375 C-173.13633692 13.21004784 -174.56426 10.7795185 -176 8 C-175.16400583 7.99945523 -174.32801167 7.99891047 -173.46668434 7.99834919 C-153.10077189 7.98336503 -132.73507794 7.94085205 -112.36928749 7.86790943 C-102.52041791 7.83329446 -92.67168778 7.80790849 -82.82275391 7.80444336 C-74.23581761 7.80139861 -65.64912991 7.78083947 -57.0622896 7.73947543 C-52.51790277 7.71819009 -47.97386897 7.70552178 -43.42943192 7.71384621 C-39.14631105 7.72141474 -34.86390381 7.70545067 -30.58091354 7.67193985 C-29.01450452 7.66374017 -27.44802408 7.66391681 -25.88162231 7.67340279 C-16.97438168 7.72197568 -9.52685165 7.25358678 -2 2 C-1.34 1.34 -0.68 0.68 0 0 Z " fill="#CE1041" transform="translate(490,98)"/>
<path d="M0 0 C4.63109954 2.71299488 8.11203542 6.20063333 10.53125 11.0390625 C11.2625863 17.83004242 11.34234515 23.73624423 7.125 29.34765625 C2.28250251 34.48687539 -1.84371279 36.35069281 -8.96875 36.6640625 C-14.93377356 36.387904 -19.28239739 35.452505 -23.46875 31.0390625 C-27.50555152 25.27078974 -29.48384202 20.03191865 -28.46875 13.0390625 C-26.75289949 7.07873966 -23.45183974 3.29816358 -18.1640625 0.11328125 C-12.31558825 -2.2176324 -5.87985396 -2.28867733 0 0 Z " fill="#F5F9F8" transform="translate(255.46875,273.9609375)"/>
<path d="M0 0 C20.43579952 -0.85744613 20.43579952 -0.85744613 26.46484375 4.30859375 C30.99021374 9.29456119 31.5519412 13.82793007 31.34765625 20.3828125 C30.65859965 25.57009249 27.6991938 28.50108376 23.9375 31.8125 C20.39844156 34.44796905 18.0620723 35.1280998 13.76953125 35.09765625 C12.68442261 35.09390991 12.68442261 35.09390991 11.57739258 35.09008789 C10.20877075 35.07643188 10.20877075 35.07643188 8.8125 35.0625 C5.904375 35.041875 2.99625 35.02125 0 35 C0 23.45 0 11.9 0 0 Z " fill="#F3F9F7" transform="translate(151,274)"/>
<path d="M0 0 C10 0 10 0 12.98828125 2.37890625 C13.75527344 3.42949219 14.52226563 4.48007812 15.3125 5.5625 C16.09238281 6.59503906 16.87226562 7.62757813 17.67578125 8.69140625 C18.44277344 9.78324219 19.20976563 10.87507813 20 12 C21.65 14.31 23.3 16.62 25 19 C25.33 12.73 25.66 6.46 26 0 C28.97 0 31.94 0 35 0 C35 11.55 35 23.1 35 35 C25 35 25 35 22.23046875 32.62109375 C21.55628906 31.57050781 20.88210938 30.51992188 20.1875 29.4375 C19.50042969 28.40496094 18.81335938 27.37242187 18.10546875 26.30859375 C17.06326172 24.67083984 17.06326172 24.67083984 16 23 C14.35 20.69 12.7 18.38 11 16 C10.67 22.27 10.34 28.54 10 35 C6.7 35 3.4 35 0 35 C0 23.45 0 11.9 0 0 Z " fill="#F6FAF9" transform="translate(555,274)"/>
<path d="M0 0 C4.46223257 1.63683113 7.25594359 3.60489424 9.5 7.8125 C9.7475 8.8953125 9.7475 8.8953125 10 10 C4.65245203 13.03837953 4.65245203 13.03837953 1.875 12.875 C0 12 0 12 -1.8125 10.375 C-4.07220851 8.67642085 -4.07220851 8.67642085 -7.5625 9.0625 C-10.93796851 9.73636618 -10.93796851 9.73636618 -12.9375 11.5625 C-14.45446251 15.04259047 -14.56518679 18.30059558 -14 22 C-12.84367254 24.36293002 -11.85016245 26.14983755 -10 28 C-5.34911285 28.30523962 -5.34911285 28.30523962 -1 27 C-0.67 26.01 -0.34 25.02 0 24 C-1.98 24 -3.96 24 -6 24 C-6 21.36 -6 18.72 -6 16 C-0.06 16 5.88 16 12 16 C11.64569557 22.55463198 11.41180439 26.85289488 7 32 C1.29404613 37.02667365 -2.28462876 37.35180434 -9.796875 37.27734375 C-15.43600319 36.78907777 -18.23829986 33.97483594 -21.8125 29.9375 C-25.76951166 24.62379863 -25.48722628 19.39829233 -25 13 C-23.22766847 7.47449583 -19.55001893 4.36591762 -15 1 C-10.54722701 -1.2263865 -4.83121029 -0.50172429 0 0 Z " fill="#F2F8F6" transform="translate(416,273)"/>
<path d="M0 0 C3.3 0 6.6 0 10 0 C10 4.29 10 8.58 10 13 C13.96 13 17.92 13 22 13 C22 8.71 22 4.42 22 0 C25.3 0 28.6 0 32 0 C32 11.55 32 23.1 32 35 C28.7 35 25.4 35 22 35 C22 30.38 22 25.76 22 21 C17.71 21 13.42 21 9 21 C9 25.62 9 30.24 9 35 C6.03 35 3.06 35 0 35 C0 23.45 0 11.9 0 0 Z " fill="#F2F8F6" transform="translate(475,274)"/>
<path d="M0 0 C3.3 0 6.6 0 10 0 C10.02505615 0.7520874 10.0501123 1.5041748 10.07592773 2.27905273 C10.19150514 5.66539196 10.31440345 9.05142613 10.4375 12.4375 C10.47681641 13.62150391 10.51613281 14.80550781 10.55664062 16.02539062 C10.61948242 17.71245117 10.61948242 17.71245117 10.68359375 19.43359375 C10.72025146 20.47572021 10.75690918 21.51784668 10.79467773 22.59155273 C10.73515341 24.9499826 10.73515341 24.9499826 12 26 C14.33297433 26.04092937 16.66705225 26.04241723 19 26 C20.28605661 23.42788678 20.21043941 21.43093034 20.31640625 18.5546875 C20.35830078 17.47832031 20.40019531 16.40195312 20.44335938 15.29296875 C20.48267578 14.16503906 20.52199219 13.03710938 20.5625 11.875 C20.60568359 10.73933594 20.64886719 9.60367187 20.69335938 8.43359375 C20.7996604 5.62252232 20.90169405 2.81136055 21 0 C24.3 0 27.6 0 31 0 C31.11710979 3.99974981 31.18755489 7.99905281 31.25 12 C31.30027344 13.68802734 31.30027344 13.68802734 31.3515625 15.41015625 C31.43394522 22.45387888 30.85693936 27.0424689 27 33 C21.98168472 36.91673388 16.09758953 36.6542868 10 36 C5.84324593 34.63960776 3.21075947 32.8532683 0.81811523 29.14013672 C-1.0996676 24.12334043 -0.39308838 18.40826342 -0.25 13.125 C-0.23195313 11.86429687 -0.21390625 10.60359375 -0.1953125 9.3046875 C-0.14830729 6.20234386 -0.08260676 3.1015662 0 0 Z " fill="#F1F7F5" transform="translate(639,274)"/>
<path d="M0 0 C2.53657675 2.61186328 3.46759843 4.63108675 3.5625 8.25 C3.18922415 20.24815246 -3.24926391 33.10549551 -11.5 41.5625 C-14.65678419 43.37765091 -16.41483076 43.61024157 -20 43 C-22.375 41.5 -22.375 41.5 -24 39 C-25.06371456 31.4728673 -22.0838092 25.35963024 -19.09277344 18.59838867 C-18.24769024 16.6822629 -17.43120559 14.75566903 -16.6171875 12.82617188 C-16.08498584 11.59563815 -15.55118658 10.36579388 -15.015625 9.13671875 C-14.29294434 7.47709106 -14.29294434 7.47709106 -13.55566406 5.78393555 C-10.15530589 -0.30116869 -6.48830437 -0.72092271 0 0 Z " fill="#FEFAFB" transform="translate(386,167)"/>
<path d="M0 0 C3.3 0 6.6 0 10 0 C10.01981934 0.7113208 10.03963867 1.4226416 10.06005859 2.15551758 C10.15524867 5.37488816 10.26495229 8.5936045 10.375 11.8125 C10.4059375 12.93205078 10.436875 14.05160156 10.46875 15.20507812 C10.50742187 16.27822266 10.54609375 17.35136719 10.5859375 18.45703125 C10.6173584 19.44678955 10.6487793 20.43654785 10.68115234 21.45629883 C10.83773433 24.24075094 10.83773433 24.24075094 13 27 C15.3431213 26.74438677 17.67843403 26.40729228 20 26 C21.25838557 23.48322887 21.20818973 21.58706712 21.31640625 18.7734375 C21.35830078 17.7421875 21.40019531 16.7109375 21.44335938 15.6484375 C21.48267578 14.56820313 21.52199219 13.48796875 21.5625 12.375 C21.60568359 11.28703125 21.64886719 10.1990625 21.69335938 9.078125 C21.7996453 6.3855483 21.90168057 3.69287747 22 1 C24.97 1 27.94 1 31 1 C31.0872253 5.39570794 31.14046869 9.79119271 31.1875 14.1875 C31.21263672 15.43337891 31.23777344 16.67925781 31.26367188 17.96289062 C31.27333984 19.16494141 31.28300781 20.36699219 31.29296875 21.60546875 C31.3086792 22.71043701 31.32438965 23.81540527 31.34057617 24.95385742 C30.95539693 28.39893367 30.03621403 30.22345593 28 33 C24.07746446 36.11896055 20.94007588 36.40694015 16 36.375 C14.80375 36.38273437 13.6075 36.39046875 12.375 36.3984375 C7.89389298 35.86941792 5.25447364 34.38888153 2.25 31.0625 C-0.0932906 27.1960705 -0.12039662 23.59773754 -0.09765625 19.140625 C-0.09443359 18.02558594 -0.09121094 16.91054688 -0.08789062 15.76171875 C-0.07951172 14.60285156 -0.07113281 13.44398438 -0.0625 12.25 C-0.05798828 11.07566406 -0.05347656 9.90132813 -0.04882812 8.69140625 C-0.03705094 5.79421928 -0.02060326 2.89713546 0 0 Z " fill="#F4F9F7" transform="translate(313,273)"/>
<path d="M0 0 C1.41732422 -0.02126953 1.41732422 -0.02126953 2.86328125 -0.04296875 C5.83156882 0.19925665 7.99617165 0.94723393 10.6875 2.1875 C10.14026317 5.56212715 9.6326 7.26985 7.6875 10.1875 C4.7175 9.8575 1.7475 9.5275 -1.3125 9.1875 C-1.3125 10.1775 -1.3125 11.1675 -1.3125 12.1875 C-0.63703125 12.41824219 0.0384375 12.64898437 0.734375 12.88671875 C10.21375052 16.35244419 10.21375052 16.35244419 12.6875 21.1875 C13.15945807 24.96316459 13.03242852 27.36350409 11.5625 30.875 C8.6640886 34.44970739 6.00962197 36.8426304 1.3203125 37.5390625 C-4.30763112 37.72723083 -8.33950126 36.78210804 -13.3125 34.1875 C-12.76526317 30.81287285 -12.2576 29.10515 -10.3125 26.1875 C-9.61125 26.5175 -8.91 26.8475 -8.1875 27.1875 C-5.05246884 28.27794562 -2.60686818 28.34072643 0.6875 28.1875 C0.6875 26.8675 0.6875 25.5475 0.6875 24.1875 C-0.34310547 23.82398438 -0.34310547 23.82398438 -1.39453125 23.453125 C-2.74611328 22.95039063 -2.74611328 22.95039063 -4.125 22.4375 C-5.01832031 22.11265625 -5.91164063 21.7878125 -6.83203125 21.453125 C-9.63305224 20.02394263 -10.77147264 18.91048039 -12.3125 16.1875 C-13.13463804 12.41936729 -13.17092013 8.7199389 -11.2578125 5.3046875 C-7.67470754 0.91591396 -5.47859335 0.03706761 0 0 Z " fill="#F0F7F5" transform="translate(798.3125,272.8125)"/>
<path d="M0 0 C9.9 0 19.8 0 30 0 C30 2.64 30 5.28 30 8 C26.7 8 23.4 8 20 8 C20 16.91 20 25.82 20 35 C16.7 35 13.4 35 10 35 C10 26.09 10 17.18 10 8 C6.7 8 3.4 8 0 8 C0 5.36 0 2.72 0 0 Z " fill="#F5F9F8" transform="translate(713,274)"/>
<path d="M0 0 C3.72508806 8.44796757 5.8159757 16.49356299 3.26953125 25.6171875 C1.43645829 30.18116508 -0.54098341 33.61494461 -5 36 C-10.98550725 36.50724638 -10.98550725 36.50724638 -14 35 C-14 34.01 -14 33.02 -14 32 C-13.38125 31.95875 -12.7625 31.9175 -12.125 31.875 C-9.70474235 31.15919994 -9.70474235 31.15919994 -8.75 28.3125 C-7.98779894 24.94611198 -7.56261126 22.42621181 -8 19 C-9.87769142 16.15079947 -9.87769142 16.15079947 -12 14 C-10.63350805 9.99304703 -8.82896473 7.3232826 -6 4.1875 C-4.948125 3.00220703 -4.948125 3.00220703 -3.875 1.79296875 C-2 0 -2 0 0 0 Z " fill="#FDF6F8" transform="translate(316,181)"/>
<path d="M0 0 C2.88886379 2.18853317 2.95808081 3.75314256 3.5625 7.3125 C2.78781226 12.3910085 1.08746312 14.91055301 -3 18 C-9.2401157 21.13983008 -14.95117297 23.35031821 -22 23 C-21.7781631 14.28786 -18.90766034 8.61469992 -12.75 2.5 C-8.79272578 -0.67623325 -4.89952008 -1.12464034 0 0 Z " fill="#FDF7F9" transform="translate(820,166)"/>
<path d="M0 0 C2.47035712 2.47035712 2.35042281 3.3960007 2.4375 6.8125 C2.34640871 10.53652609 2.18682768 11.73143522 0 14.875 C-6.94817764 19.79662583 -14.32778429 23.41296265 -23 23 C-21.60247308 13.98908015 -18.16631487 6.88066785 -10.97265625 1.0625 C-7.48849465 -0.81411773 -3.82519252 -0.81022408 0 0 Z " fill="#FDF8FA" transform="translate(665,166)"/>
<path d="M0 0 C3 2.4375 3 2.4375 5 5 C5.33 5.33 5.66 5.66 6 6 C6.71194379 13.11943794 6.71194379 13.11943794 3.625 16.9375 C0.07479644 19.72694565 -2.29170876 20.5269156 -6.890625 20.4765625 C-10.31758634 19.70232309 -11.89735018 17.68948041 -13.93359375 14.9375 C-15.51397109 12.06619171 -15.62605936 10.19985895 -15 7 C-11.74568675 0.18143891 -7.15437822 -1.28025715 0 0 Z " fill="#CF1646" transform="translate(305,107)"/>
<path d="M0 0 C3.48490622 1.50186335 4.97030726 3.6037021 6.8671875 6.8046875 C7.4862255 10.27130031 7.67691424 12.4769738 5.8046875 15.546875 C3.1317121 18.87218368 1.36830091 20.63410643 -2.8828125 21.1171875 C-6.94183135 20.72689723 -8.96582934 19.30881372 -12.1328125 16.8046875 C-13.90270291 13.26490667 -13.90423072 9.64892164 -13.1328125 5.8046875 C-9.92670802 0.89778369 -5.7754068 -1.2809268 0 0 Z " fill="#117E5C" transform="translate(833.1328125,275.1953125)"/>
<path d="M0 0 C3.71446592 0.32220408 6.41754716 0.61912174 9.63671875 2.58203125 C11.68135025 6.04901509 11.8023937 9.15637153 11.07421875 13.01953125 C9.52302994 16.18935186 8.3615996 17.56027584 5.015625 18.75390625 C1.66589943 19.40916454 -0.78744089 19.63854729 -3.84375 17.9765625 C-6.87480457 15.29109135 -7.83614639 13.48400278 -8.61328125 9.45703125 C-7.76373771 5.20931355 -6.2123944 3.74501533 -2.92578125 1.01953125 C-1.92578125 0.01953125 -1.92578125 0.01953125 0 0 Z " fill="#077854" transform="translate(244.92578125,281.98046875)"/>
<path d="M0 0 C7 1 7 1 9.4375 2.5 C11.78412514 6.25460022 11.76795682 9.69310816 11 14 C9.4375 16.5 9.4375 16.5 7 18 C4.69 18.33 2.38 18.66 0 19 C0 12.73 0 6.46 0 0 Z " fill="#037752" transform="translate(161,282)"/>
<path d="M0 0 C2.07114674 2.63600494 3.47524303 4.95048605 5 8 C6.32 5.36 7.64 2.72 9 0 C11.27474277 3.41211416 11.56629644 5.6568529 12.125 9.6875 C12.29257812 10.86699219 12.46015625 12.04648437 12.6328125 13.26171875 C12.75398437 14.16535156 12.87515625 15.06898438 13 16 C11.68 15.67 10.36 15.34 9 15 C8.67 13.68 8.34 12.36 8 11 C7.34 12.65 6.68 14.3 6 16 C5.34 16 4.68 16 4 16 C3.34 14.68 2.68 13.36 2 12 C1.34 13.32 0.68 14.64 0 16 C-0.99 16 -1.98 16 -3 16 C-2.52013969 10.43109483 -1.70084819 5.32932432 0 0 Z " fill="#00744F" transform="translate(866,277)"/>
<path d="M0 0 C-1.37771949 4.20762981 -3.26927291 6.62331977 -6.4375 9.6875 C-7.21996094 10.45449219 -8.00242187 11.22148437 -8.80859375 12.01171875 C-13.16132916 15.96099205 -13.16132916 15.96099205 -16.6875 16.125 C-17.450625 16.08375 -18.21375 16.0425 -19 16 C-18.73097555 12.40116355 -18.56602315 10.54896784 -15.92578125 7.98828125 C-14.63220703 7.15876953 -14.63220703 7.15876953 -13.3125 6.3125 C-12.41144531 5.72984375 -11.51039063 5.1471875 -10.58203125 4.546875 C-2.99242424 0 -2.99242424 0 0 0 Z " fill="#FCF4F6" transform="translate(429,228)"/>
<path d="M0 0 C3.48490622 1.50186335 4.97030726 3.6037021 6.8671875 6.8046875 C7.4862255 10.27130031 7.67691424 12.4769738 5.8046875 15.546875 C3.1317121 18.87218368 1.36830091 20.63410643 -2.8828125 21.1171875 C-6.94183135 20.72689723 -8.96582934 19.30881372 -12.1328125 16.8046875 C-13.90270291 13.26490667 -13.90423072 9.64892164 -13.1328125 5.8046875 C-9.92670802 0.89778369 -5.7754068 -1.2809268 0 0 Z M-10.1328125 4.3671875 C-12.42526277 7.6642433 -12.42526277 7.6642433 -12.1953125 11.4296875 C-11.02057202 15.16121608 -10.42573094 16.69384235 -7.1328125 18.8046875 C-3.1447415 19.59902608 -0.17369157 19.40319297 3.3671875 17.3671875 C5.59864157 13.55512013 5.76720922 10.10742291 4.8671875 5.8046875 C2.20702843 2.49964138 0.52391448 1.92196018 -3.6328125 1.1796875 C-7.3295762 1.53542245 -7.3295762 1.53542245 -10.1328125 4.3671875 Z " fill="#CCE3DC" transform="translate(833.1328125,275.1953125)"/>
<path d="M0 0 C0.33 1.32 0.66 2.64 1 4 C0.030625 3.979375 -0.93875 3.95875 -1.9375 3.9375 C-4.87465895 3.64381501 -4.87465895 3.64381501 -6 5 C-6.04063832 6.66617115 -6.042721 8.33388095 -6 10 C-3.69 10.33 -1.38 10.66 1 11 C0.67 12.32 0.34 13.64 0 15 C-6.30162703 14.40550688 -6.30162703 14.40550688 -8.9375 12.875 C-10.6712306 9.81547541 -10.42145216 7.43182475 -10 4 C-7.21083461 -0.18374808 -4.85662887 -0.44151172 0 0 Z " fill="#007550" transform="translate(890,278)"/>
<path d="M0 0 C2.31 0 4.62 0 7 0 C7.87867729 3.73437848 8.08912219 7.16774573 8 11 C7.34 10.01 6.68 9.02 6 8 C3.94074861 7.27617533 3.94074861 7.27617533 2 7 C2 8.32 2 9.64 2 11 C1.34 11 0.68 11 0 11 C0 7.37 0 3.74 0 0 Z " fill="#AFD4C8" transform="translate(826,280)"/>
<path d="M0 0 C0.680625 0.78375 1.36125 1.5675 2.0625 2.375 C5.51308916 5.45850521 7.56566662 6.04357515 12 7 C12 7.33 12 7.66 12 8 C6.72611976 8.50227431 4.08984305 7.32894202 0 4 C-0.33 3.01 -0.66 2.02 -1 1 C-0.67 0.67 -0.34 0.34 0 0 Z " fill="#B5D7CC" transform="translate(821,288)"/>
<path d="M0 0 C1.10844919 3.32534757 0.84454356 5.62182575 0 9 C-0.66 8.01 -1.32 7.02 -2 6 C-2.99 6.495 -2.99 6.495 -4 7 C-2.92598892 4.08482708 -2.22189824 2.22189824 0 0 Z " fill="#D32854" transform="translate(328,149)"/>
</svg>
