<?xml version="1.0" encoding="UTF-8"?>
<svg version="1.1" xmlns="http://www.w3.org/2000/svg" width="3840" height="2160">
<path d="M0 0 C18.56051112 15.07159499 30.150507 32.76815909 41.12597656 53.78027344 C43.22632674 57.7661497 45.41825495 61.69734501 47.625 65.625 C51.46148164 72.48596401 55.20824673 79.39274318 58.9375 86.3125 C63.30255072 94.4090794 67.75998667 102.44489171 72.3125 110.4375 C76.6384957 118.03379204 80.80348527 125.68885494 84.83032227 133.44726562 C88.00194098 139.52361909 91.35041775 145.48617321 94.75 151.4375 C99.87509512 160.41559027 104.788878 169.48954279 109.625 178.625 C114.33954213 187.52967149 119.12136596 196.37799884 124.125 205.125 C129.49133645 214.50605199 134.59397258 224.01037024 139.64971924 233.56069946 C144.65431951 243.00833017 149.80984978 252.35250338 155.11328125 261.63671875 C158.83385878 268.16860549 162.36847687 274.77731029 165.83105469 281.44873047 C169.00248524 287.5245637 172.35068932 293.48664861 175.75 299.4375 C180.87509512 308.41559027 185.788878 317.48954279 190.625 326.625 C195.33954213 335.52967149 200.12136596 344.37799884 205.125 353.125 C210.12864179 361.87201469 214.91016573 370.72047444 219.625 379.625 C224.87726145 389.54368775 230.24253036 399.37765285 235.82104492 409.11816406 C238.71316089 414.18531279 241.52760456 419.2831054 244.26171875 424.4375 C244.87515137 425.59282227 245.48858398 426.74814453 246.12060547 427.93847656 C247.28986063 430.15003738 248.45221598 432.36526716 249.60595703 434.58496094 C258.00551535 451.14115313 258.00551535 451.14115313 271.625 462.625 C279.58441437 463.4611405 285.60653431 459.36682145 291.625 454.625 C293.92736881 452.65469698 296.13463849 450.60674767 298.3125 448.5 C298.82264648 448.01692383 299.33279297 447.53384766 299.85839844 447.03613281 C308.68048231 438.12385511 314.21311431 425.91774463 320 414.9375 C321.31541251 412.45841237 322.63413239 409.98109057 323.953125 407.50390625 C324.27310455 406.90218597 324.59308411 406.3004657 324.92276001 405.68051147 C327.47831103 400.88145757 330.09235501 396.11810422 332.75 391.375 C336.60469046 384.49185449 340.3766194 377.5666062 344.125 370.625 C348.30722964 362.8813878 352.52981559 355.16378425 356.82299805 347.48120117 C360.25198935 341.33070106 363.59676418 335.13628354 366.9375 328.9375 C371.17914228 321.07054899 375.50746359 313.26229819 379.9375 305.5 C385.361532 295.98788409 390.53165491 286.3556477 395.65493774 276.67987061 C400.52138714 267.49483205 405.5296599 258.41012071 410.69140625 249.38671875 C415.15516385 241.54498242 419.40326576 233.59849807 423.625 225.625 C428.83261167 215.78949658 434.16479832 206.04794608 439.69140625 196.38671875 C444.15516385 188.54498242 448.40326576 180.59849807 452.625 172.625 C457.83261167 162.78949658 463.16479832 153.04794608 468.69140625 143.38671875 C473.15516385 135.54498242 477.40326576 127.59849807 481.625 119.625 C486.83106855 109.79241104 492.16033956 100.05293119 497.68701172 90.39550781 C501.83288081 83.114397 505.78988692 75.7436411 509.70959473 68.3394165 C529.60109409 30.78175447 551.07006996 -4.70303517 593.875 -18.25 C618.55875682 -25.57775872 642.13813927 -23.2600154 665.125 -11.75 C683.52208133 -1.2373821 696.72419758 16.37748395 702.54956055 36.69799805 C704.84084031 45.30583774 705.77767578 53.60060684 705.74804783 62.46492004 C705.74920167 63.32340276 705.75035552 64.18188548 705.75154433 65.06638283 C705.75418793 67.93856203 705.74970746 70.81068501 705.74525452 73.68286133 C705.74569068 75.76454049 705.74656642 77.84621959 705.74784368 79.92789841 C705.75007978 85.64482225 705.74607943 91.36172735 705.74106562 97.07864881 C705.73674863 103.24489164 705.73820843 109.4111334 705.7389679 115.57737732 C705.73949234 126.25971766 705.73638877 136.94205127 705.73073006 147.62438965 C705.72481108 158.82678252 705.72096371 170.02917296 705.71987724 181.23156738 C705.7198085 181.9283499 705.71973976 182.62513241 705.71966894 183.34302954 C705.7193306 186.88170046 705.71902922 190.42037139 705.71874207 193.95904231 C705.71664219 219.01713012 705.70990634 244.07521476 705.70043945 269.13330078 C705.69125367 293.47542301 705.68417072 317.81754436 705.67993164 342.15966797 C705.67973435 343.28535484 705.67973435 343.28535484 705.67953308 344.43378286 C705.67821455 351.97025606 705.67693873 359.50672926 705.67569422 367.04320247 C705.67315807 382.39558229 705.67033682 397.74796206 705.66734314 413.1003418 C705.66720585 413.80620441 705.66706856 414.51206701 705.66692711 415.2393194 C705.65772795 462.36788095 705.64186211 509.49644063 705.625 556.625 C703.70522472 556.79022662 701.78532092 556.95396036 699.86536407 557.11706352 C698.79623166 557.20840281 697.72709924 557.29974211 696.62556887 557.39384925 C693.22776414 557.65560132 689.85880497 557.75192596 686.45117188 557.75439453 C685.18366089 557.75754669 683.9161499 557.76069885 682.61022949 557.76394653 C681.27140263 557.7621577 679.93257609 557.76010699 678.59375 557.7578125 C677.1855874 557.75848808 675.77742491 557.75946022 674.3692627 557.76071167 C671.44473134 557.76217281 668.52023085 557.76008307 665.59570312 557.75537109 C661.85226786 557.74963214 658.10890365 557.75298891 654.36547089 557.75894356 C651.46927351 557.76255617 648.57309303 557.76140808 645.67689514 557.75881577 C644.29582206 557.75815063 642.91474742 557.75896044 641.53367615 557.76129532 C639.6103417 557.76383794 637.68700182 557.75927473 635.76367188 557.75439453 C634.67179565 557.75359894 633.57991943 557.75280334 632.45495605 557.75198364 C629.625 557.625 629.625 557.625 625.625 556.625 C625.295 391.625 624.965 226.625 624.625 56.625 C617.42491969 57.33625481 617.42491969 57.33625481 611.625 60.125 C610.861875 60.5684375 610.09875 61.011875 609.3125 61.46875 C600.89993551 68.2183657 595.93487717 76.78311928 590.9375 86.1875 C590.24030434 87.47733557 589.54196148 88.76655163 588.8425293 90.05517578 C587.08680477 93.29583806 585.34429563 96.54338166 583.60595703 99.793396 C581.06527658 104.53725361 578.49828909 109.26697972 575.9375 114 C575.4110791 114.97638428 574.8846582 115.95276855 574.34228516 116.95874023 C570.75019992 123.60548162 567.05624681 130.18770823 563.3125 136.75 C557.8886361 146.26221597 552.71834822 155.89434639 547.59506226 165.57012939 C542.72861286 174.75516795 537.7203401 183.83987929 532.55859375 192.86328125 C527.73370626 201.33943494 523.16293687 209.9418206 518.60028076 218.56069946 C513.59568049 228.00833017 508.44015022 237.35250338 503.13671875 246.63671875 C499.84873935 252.40913146 496.6851776 258.22889263 493.625 264.125 C490.06464292 270.9848135 486.33344818 277.72664519 482.5 284.4375 C477.37490488 293.41559027 472.461122 302.48954279 467.625 311.625 C462.41758047 321.46060203 457.08519746 331.2020613 451.55859375 340.86328125 C446.73370626 349.33943494 442.16293687 357.9418206 437.60028076 366.56069946 C432.59568049 376.00833017 427.44015022 385.35250338 422.13671875 394.63671875 C418.84873935 400.40913146 415.6851776 406.22889263 412.625 412.125 C408.5613869 419.95444727 404.25283512 427.62344909 399.87426758 435.28051758 C396.66730631 440.92086178 393.54997946 446.59942449 390.51953125 452.3359375 C390.16987305 452.99706039 389.82021484 453.65818329 389.45996094 454.33934021 C387.74915138 457.57838719 386.04719392 460.82171819 384.35693359 464.0715332 C378.61066254 475.04767389 372.38283273 485.40424056 363.6875 494.3125 C363.0790625 494.94768555 362.470625 495.58287109 361.84375 496.23730469 C360.64501523 497.48503233 359.44223902 498.72889369 358.23486328 499.96826172 C356.88044557 501.36211652 355.54531742 502.77467821 354.21484375 504.19140625 C333.01698268 526.3401994 304.92289882 541.24980129 274.12890625 542.58642578 C248.78062684 542.97693165 227.17330432 530.75211727 208.99609375 514 C204.83335157 509.83039992 201.20424839 505.29754608 197.625 500.625 C196.62339844 499.32949219 196.62339844 499.32949219 195.6015625 498.0078125 C185.53722264 484.60195268 177.918692 469.73166992 170.0390625 454.98828125 C167.26231319 449.79740063 164.43790196 444.63676723 161.5625 439.5 C157.74673456 432.68063492 154.01947812 425.81656408 150.3125 418.9375 C146.07089454 411.07052701 141.742461 403.26234142 137.3125 395.5 C131.46192623 385.23775315 125.89774168 374.83559732 120.36279297 364.40136719 C116.40834734 356.9495379 112.40063648 349.53341036 108.27392578 342.17529297 C104.88853466 336.13065668 101.59851039 330.03662987 98.3125 323.9375 C94.07097168 316.07048964 89.74253474 308.26229525 85.3125 300.5 C79.888468 290.98788409 74.71834509 281.3556477 69.59506226 271.67987061 C65.22156287 263.42523622 60.76396287 255.23468544 56.125 247.125 C50.69390414 237.62887042 45.52069338 228.01028243 40.39511108 218.34735107 C36.09972564 210.24993219 31.76316981 202.18202932 27.28051758 194.1862793 C23.83459686 188.03176832 20.47611825 181.83156337 17.125 175.625 C12.94280814 167.88136775 8.72018411 160.16378371 4.42700195 152.48120117 C0.99800986 146.33069964 -2.34667412 140.13623616 -5.6875 133.9375 C-10.51123455 124.99372865 -15.45002243 116.12389382 -20.48828125 107.29931641 C-23.33154936 102.30213535 -26.1094738 97.28008331 -28.80078125 92.19921875 C-29.6515625 90.59820313 -29.6515625 90.59820313 -30.51953125 88.96484375 C-31.59245555 86.93709221 -32.65697057 84.90485689 -33.7109375 82.8671875 C-39.96999454 71.0517874 -47.41330389 61.21209375 -60.375 56.625 C-63.08386941 56.45701738 -63.08386941 56.45701738 -65.375 56.625 C-66.6236282 60.37088459 -66.51871945 63.85420019 -66.5136652 67.75597668 C-66.51650742 68.59855993 -66.51934964 69.44114319 -66.52227798 70.30925927 C-66.53065801 73.15745105 -66.53189578 76.00560235 -66.53321838 78.85380554 C-66.53778148 80.90642148 -66.54278113 82.95903648 -66.54818195 85.01165038 C-66.56180117 90.67145248 -66.56919234 96.33124854 -66.57560861 101.99106276 C-66.58359598 108.08718871 -66.59729945 114.18330205 -66.61032104 120.27941895 C-66.63210745 130.84779691 -66.65027858 141.41617546 -66.66592598 151.98456383 C-66.68235558 163.07107714 -66.70083352 174.15758391 -66.72205925 185.24408913 C-66.72337686 185.93289726 -66.72469446 186.62170539 -66.726052 187.33138649 C-66.7327539 190.82936199 -66.73949251 194.32733743 -66.74624526 197.82531283 C-66.79403387 222.61441119 -66.83721154 247.40351566 -66.87768555 272.19262695 C-66.91702093 296.27791793 -66.95843993 320.36320385 -67.00268555 344.44848633 C-67.00404808 345.19063754 -67.00541061 345.93278875 -67.00681442 346.69742939 C-67.02049956 354.15028036 -67.03422712 361.60313126 -67.04798577 369.0559821 C-67.07601382 384.23888447 -67.1037587 399.42178735 -67.1313324 414.60469055 C-67.1326006 415.30280668 -67.1338688 416.0009228 -67.13517542 416.72019396 C-67.21986005 463.35512111 -67.29792236 509.99005972 -67.375 556.625 C-68.96654544 556.79047676 -70.55827867 556.95414794 -72.15008831 557.11706352 C-73.03646408 557.20840281 -73.92283985 557.29974211 -74.83607548 557.39384925 C-77.99930976 557.6818389 -81.13013488 557.7520969 -84.3059082 557.75439453 C-86.20255974 557.75912277 -86.20255974 557.75912277 -88.13752747 557.76394653 C-89.48361242 557.76215722 -90.82969706 557.76010638 -92.17578125 557.7578125 C-93.5844067 557.75848773 -94.99303204 557.75945958 -96.4016571 557.76071167 C-99.33394495 557.76217591 -102.26620208 557.7600738 -105.19848633 557.75537109 C-108.94860659 557.74964806 -112.69865567 557.75297708 -116.44877338 557.75894356 C-119.34930455 557.76256124 -122.24981889 557.76140548 -125.15035057 557.75881577 C-126.53338823 557.75815121 -127.91642743 557.75895838 -129.29946327 557.76129532 C-131.22999669 557.76384458 -133.16053551 557.75926797 -135.09106445 557.75439453 C-136.73459648 557.75320114 -136.73459648 557.75320114 -138.41133118 557.75198364 C-141.18398039 557.63318457 -143.66817787 557.20040405 -146.375 556.625 C-146.42637728 508.70569579 -146.47413624 460.78638954 -146.50202942 412.86706543 C-146.50244359 412.15735688 -146.50285776 411.44764834 -146.50328448 410.71643347 C-146.51226411 395.29095558 -146.52057452 379.8654774 -146.52819599 364.43999878 C-146.53193786 356.87487542 -146.53582754 349.30975215 -146.53979492 341.74462891 C-146.5401872 340.99182549 -146.54057948 340.23902208 -146.54098364 339.46340644 C-146.55375784 315.08181796 -146.57628441 290.7002504 -146.60389166 266.31867459 C-146.63222023 241.25442083 -146.65066347 216.19017864 -146.65674497 191.12590914 C-146.65760938 187.58225585 -146.65858629 184.03860259 -146.65963173 180.49494934 C-146.659834 179.79753712 -146.66003627 179.10012489 -146.66024467 178.38157896 C-146.66378387 167.17465381 -146.67768196 155.96776453 -146.6954961 144.76085398 C-146.71320149 133.48232251 -146.71965092 122.20382574 -146.71550413 110.92527747 C-146.71358495 104.81910067 -146.71650237 98.71302875 -146.73261642 92.60687065 C-146.74728061 87.00906536 -146.74791017 81.4114349 -146.73769668 75.81362134 C-146.73643549 73.79584986 -146.74018547 71.77806719 -146.74964955 69.7603175 C-146.86945829 42.62395428 -141.1279589 20.42379664 -121.99609375 0.15625 C-88.2165329 -32.46544215 -35.14646356 -27.51207094 0 0 Z " fill="#151616" transform="translate(2394.375,955.375)"/>
<path d="M0 0 C1.94834083 -0.00087396 3.89668142 -0.00262843 5.84502077 -0.00517833 C11.15623994 -0.00961845 16.46737738 -0.00169447 21.77858615 0.00837779 C27.52205306 0.01705846 33.2655158 0.01408888 39.00898743 0.01257324 C48.94581687 0.0115273 58.88261994 0.01777344 68.81944275 0.02904892 C83.18621142 0.04534047 97.55296741 0.05051566 111.91974431 0.0530249 C135.23194451 0.05739628 158.54413067 0.07067297 181.85632324 0.08963013 C204.49466886 0.10801799 227.13301071 0.12217589 249.7713623 0.13064575 C250.46997011 0.1309088 251.16857791 0.13117186 251.88835565 0.13144288 C258.90447627 0.13408007 265.92059692 0.13663167 272.93671759 0.1391206 C331.71477939 0.15997976 390.49282562 0.19581036 449.27087402 0.24050903 C449.27087402 25.98050903 449.27087402 51.72050903 449.27087402 78.24050903 C443.47640717 78.24637527 437.68194031 78.25224152 431.71188354 78.25828552 C378.56490872 78.31347131 325.4179665 78.38342876 272.27103295 78.46949532 C265.3041833 78.48077346 258.33733341 78.49190529 251.3704834 78.50296021 C250.33057656 78.50461405 250.33057656 78.50461405 249.2696615 78.50630131 C226.81418257 78.54194555 204.35870514 78.56793556 181.9032081 78.58889872 C158.16492705 78.611112 134.42668696 78.64436916 110.6884371 78.68921059 C96.47305908 78.71570805 82.25772605 78.73341748 68.04232456 78.73985507 C58.29183419 78.74511475 48.54140042 78.76135132 38.79094039 78.78617469 C33.16703841 78.80016965 27.54323771 78.80936794 21.91931725 78.8055172 C16.76445332 78.80209473 11.60980531 78.81254226 6.45498557 78.83374455 C4.59607518 78.8389916 2.73714223 78.83926941 0.87823217 78.83390466 C-20.91595378 78.77744371 -41.16210935 83.02259779 -57.54162598 98.55300903 C-92.7960324 135.63309008 -74.46584111 218.90961042 -74.72912598 250.24050903 C85.98087402 250.24050903 246.69087402 250.24050903 412.27087402 250.24050903 C412.27087402 276.31050903 412.27087402 302.38050903 412.27087402 329.24050903 C410.52346487 330.98791819 408.24120819 330.36402976 405.91258672 330.37151751 C404.74695941 330.36757699 404.74695941 330.36757699 403.55778408 330.36355686 C402.3252289 330.36528763 402.3252289 330.36528763 401.06777361 330.36705336 C398.27855606 330.36972754 395.48939475 330.36519132 392.70018005 330.36076355 C390.69466388 330.36119909 388.68914777 330.36207367 386.68363196 330.36335272 C381.14471924 330.36560109 375.60582567 330.36157174 370.06691539 330.35657465 C364.10436875 330.35227522 358.14182327 330.35371622 352.17927551 330.35447693 C341.83948967 330.35500249 331.49970967 330.3518871 321.15992546 330.34623909 C310.31179716 330.34032855 299.46367136 330.33647446 288.61554146 330.33538628 C287.60499777 330.33528317 287.60499777 330.33528317 286.57403905 330.33517797 C283.15288618 330.33483966 279.73173331 330.33453827 276.31058044 330.3342511 C252.05832959 330.33214889 227.80608201 330.32540654 203.55383301 330.31594849 C179.9884035 330.30676887 156.42297488 330.2996829 132.85754395 330.29544067 C131.76857447 330.29524338 131.76857447 330.29524338 130.65760562 330.29504211 C123.36723288 330.29372363 116.07686014 330.29244781 108.78648739 330.29120325 C93.93424208 330.28866682 79.08199682 330.28584557 64.22975159 330.28285217 C63.54682126 330.28271488 62.86389093 330.28257759 62.16026575 330.28243614 C16.53046712 330.2732305 -29.0993296 330.25736397 -74.72912598 330.24050903 C-74.71525572 345.47999981 -74.67272152 360.71922987 -74.59703541 375.95853424 C-74.5625365 383.03612132 -74.5370499 390.11351669 -74.53356934 397.19119263 C-74.53050822 403.36767719 -74.50973317 409.54381902 -74.46860141 415.72017145 C-74.44746156 418.98378744 -74.43721562 422.24681869 -74.44297218 425.51051331 C-74.47251425 447.36134683 -72.6719985 464.92719191 -56.97912598 481.49050903 C-40.07411846 497.55535804 -20.17073246 500.5453267 2.1645813 500.51898193 C4.0953712 500.52398872 6.026159 500.52986564 7.95694387 500.53653467 C13.24749456 500.55230228 18.5379921 500.55576357 23.82856345 500.55718327 C29.53943115 500.56088296 35.25026988 500.5760413 40.96112061 500.58979797 C50.85056885 500.61205671 60.74000678 500.62707834 70.62947464 500.63716507 C84.92792957 500.65175922 99.22634853 500.67729815 113.52478234 500.70549636 C136.72382846 500.75095094 159.92287881 500.7875883 183.12194824 500.81863403 C205.65581167 500.84881061 228.18966247 500.88315501 250.72351074 500.92312622 C251.76588293 500.92497273 251.76588293 500.92497273 252.82931315 500.92685653 C259.80810145 500.93922367 266.7868896 500.95167537 273.76567765 500.96418902 C332.2673919 501.06908037 390.76912243 501.1591636 449.27087402 501.24050903 C449.27087402 526.98050903 449.27087402 552.72050903 449.27087402 579.24050903 C404.74481901 579.29126814 360.21876404 579.33961091 315.69268799 579.36753845 C315.03287248 579.36795262 314.37305698 579.36836679 313.69324707 579.36879352 C299.35100294 579.37777386 285.00875849 579.38608418 270.66651358 579.39370502 C263.63228991 579.39744678 256.59806632 579.40133647 249.56384277 579.40530396 C248.86388189 579.40569623 248.163921 579.40608851 247.44274918 579.40649267 C224.78668228 579.41925901 202.13063794 579.44177966 179.47458469 579.4694007 C155.51576824 579.49855669 131.55696654 579.51650888 107.59813285 579.52277452 C93.25684237 579.52688364 78.91561668 579.53984564 64.57434615 579.56425843 C54.72992352 579.58015915 44.88553423 579.58489959 35.0410997 579.58101317 C29.36783111 579.57909837 23.69467548 579.58196088 18.02142715 579.59812546 C12.81446456 579.61285214 7.60768964 579.6133796 2.40071794 579.60320572 C0.5295766 579.60195051 -1.34157703 579.60564708 -3.21269462 579.61515858 C-19.33601526 579.69226804 -35.50026757 578.30585666 -51.04162598 573.74050903 C-51.88717041 573.49478149 -52.73271484 573.24905396 -53.60388184 572.99588013 C-68.84813146 568.28541396 -84.02156755 560.93271461 -96.72912598 551.24050903 C-97.59666504 550.5921106 -98.4642041 549.94371216 -99.35803223 549.27566528 C-128.47022694 526.51984496 -149.14679108 494.28974406 -153.72912598 457.24050903 C-154.60499984 448.8518661 -154.87406501 440.54167002 -154.86283875 432.11181641 C-154.8651043 430.84427871 -154.86736986 429.57674101 -154.86970407 428.27079308 C-154.87576649 424.78676021 -154.8756951 421.30275154 -154.87450969 417.81871462 C-154.87430426 414.04758117 -154.87983793 410.27645521 -154.88456726 406.50532532 C-154.89284395 399.12948628 -154.89562075 391.75365525 -154.89617964 384.37781195 C-154.89665625 378.37663062 -154.89871819 372.3754519 -154.90188026 366.37427139 C-154.91067892 349.32637844 -154.91530091 332.27849176 -154.91454979 315.23059653 C-154.91450983 314.31315476 -154.91446988 313.395713 -154.91442871 312.45046997 C-154.91438783 311.53189638 -154.91434695 310.61332279 -154.91430483 309.66691364 C-154.91389865 294.79064866 -154.92346325 279.91440902 -154.93756708 265.03815137 C-154.9519643 249.73053477 -154.95883542 234.42293051 -154.9579733 219.11530697 C-154.95764247 210.53446005 -154.96033925 201.9536397 -154.97115135 193.37279892 C-154.98030054 186.06537763 -154.98239561 178.75799495 -154.97564193 171.45057039 C-154.97239879 167.72984045 -154.97223913 164.00918439 -154.98099518 160.28846169 C-155.06249695 123.34816789 -155.06249695 123.34816789 -150.60412598 106.24050903 C-150.39312256 105.41857056 -150.18211914 104.59663208 -149.96472168 103.74978638 C-147.53333157 94.80412194 -143.90643134 86.4965984 -139.72912598 78.24050903 C-139.25152832 77.29353149 -139.25152832 77.29353149 -138.76428223 76.3274231 C-125.31736721 50.20079258 -102.73979178 29.50203823 -76.72912598 16.24050903 C-76.07138184 15.90422485 -75.4136377 15.56794067 -74.73596191 15.22146606 C-65.80152848 10.75004886 -56.76112827 7.42886154 -47.10412598 4.86550903 C-46.21153076 4.62687134 -45.31893555 4.38823364 -44.39929199 4.1423645 C-29.67835279 0.4730739 -15.07536602 -0.05085583 0 0 Z " fill="#151616" transform="translate(3348.7291259765625,932.7594909667969)"/>
<path d="M0 0 C26.07 0 52.14 0 79 0 C79 84.15 79 168.3 79 255 C91.90165241 248.01160494 104.69256335 241.06477681 117.42675781 233.81689453 C125.47191025 229.25009656 133.62392919 224.89048225 141.79110718 220.5475769 C150.9137231 215.69372851 159.93521776 210.68400125 168.91015625 205.5625 C175.47674569 201.82729112 182.11863897 198.27401662 188.82324219 194.79418945 C194.89925137 191.62269487 200.86145657 188.27434635 206.8125 184.875 C215.89576718 179.69088384 225.0742785 174.71263658 234.3125 169.8125 C244.41971745 164.44968506 254.47502977 159.01203543 264.45751953 153.41992188 C269.96197593 150.34579873 275.48096939 147.29785496 281 144.25 C281.61889099 143.9081366 282.23778198 143.56627319 282.87542725 143.21405029 C292.8707163 137.69583471 302.90909342 132.26253813 312.96948242 126.86376953 C320.37355405 122.88680332 327.73603051 118.84299494 335.07421875 114.74609375 C341.41374119 111.20716355 347.76895359 107.69663256 354.125 104.1875 C355.06011917 103.6710643 355.06011917 103.6710643 356.01412964 103.14419556 C365.42616216 97.9481165 374.87169038 92.81725195 384.3359375 87.71679688 C390.9813706 84.12383271 397.56333508 80.43088919 404.125 76.6875 C413.63657074 71.26400402 423.26811457 66.09423685 432.94311523 60.97106934 C442.17465818 56.07964262 451.30807733 51.04845012 460.37890625 45.86328125 C467.84937126 41.60941197 475.41060508 37.53630789 483 33.5 C491.64682504 28.90064059 500.23774368 24.21989474 508.75 19.375 C509.5449802 18.93564778 510.3399604 18.49629557 511.15903091 18.04362965 C515.91543996 15.394905 520.52639952 12.6876603 524.99731445 9.57832336 C542.67712468 -2.12675649 559.34596667 -1.75105518 579.75175476 -1.31812119 C584.31177487 -1.23562226 588.8719659 -1.22912305 593.43261719 -1.21379089 C602.02832934 -1.17373817 610.62183511 -1.06755744 619.21658516 -0.93624753 C629.01833376 -0.78981923 638.82020021 -0.71918658 648.62277412 -0.65420687 C668.74973718 -0.51912711 688.87472841 -0.29117952 709 0 C706.4794179 2.63041746 704.06569621 4.1941269 700.828125 5.8984375 C699.26143066 6.73060791 699.26143066 6.73060791 697.66308594 7.57958984 C696.53676758 8.1720752 695.41044922 8.76456055 694.25 9.375 C691.8625596 10.64205003 689.47779197 11.91406879 687.09375 13.1875 C686.49125427 13.50899017 685.88875854 13.83048035 685.26800537 14.16171265 C679.70694709 17.13814761 674.2238329 20.24197995 668.75 23.375 C659.8133586 28.47636234 650.77647827 33.36519076 641.6875 38.1875 C631.58332548 43.54910326 621.53080929 48.98496001 611.55126953 54.57568359 C606.00284806 57.67324253 600.43825082 60.74168172 594.875 63.8125 C594.25122467 64.15697174 593.62744934 64.50144348 592.98477173 64.85635376 C583.5811461 70.04782327 574.14425388 75.1745061 564.68823242 80.27001953 C556.82796428 84.51956146 549.05593661 88.91509322 541.29150391 93.33666992 C534.65615225 97.10118613 527.94823349 100.69123962 521.17773438 104.20532227 C515.10137838 107.3769423 509.13886037 110.72547261 503.1875 114.125 C494.10424906 119.30910689 484.92589934 124.28771926 475.6875 129.1875 C466.93483151 133.83004224 458.20398313 138.49912888 449.5612793 143.34448242 C443.40676653 146.79040414 437.20650366 150.14876866 431 153.5 C423.3768894 157.6187038 415.77359634 161.76808117 408.20556641 165.98706055 C401.10458341 169.94556433 393.99198536 173.88286205 386.875 177.8125 C386.25176849 178.15669983 385.62853699 178.50089966 384.98641968 178.85552979 C375.5822377 184.047259 366.14479283 189.17421568 356.68823242 194.27001953 C348.82796428 198.51956146 341.05593661 202.91509322 333.29150391 207.33666992 C326.67128527 211.09260052 319.97921589 214.675593 313.22387695 218.18115234 C304.78086139 222.58783355 296.51636937 227.30564844 288.2421875 232.01953125 C287.36530273 232.51791504 286.48841797 233.01629883 285.58496094 233.52978516 C283.85183015 234.51551557 282.12072598 235.50481719 280.39160156 236.49755859 C279.58432617 236.95598145 278.77705078 237.4144043 277.9453125 237.88671875 C277.23133301 238.29494873 276.51735352 238.70317871 275.78173828 239.1237793 C274 240 274 240 272 240 C275.74575225 244.09629056 280.15703272 247.1886399 284.625 250.4375 C285.46458252 251.05222168 286.30416504 251.66694336 287.16918945 252.30029297 C293.57039761 256.98001175 300.00410988 261.61451876 306.44018555 266.24609375 C311.97566136 270.23798266 317.44794132 274.30751132 322.89794922 278.41503906 C330.4116466 284.07480324 337.99317052 289.64167867 345.57226562 295.21337891 C347.98252539 296.98714006 350.39013424 298.76443644 352.796875 300.54296875 C360.56338058 306.28004367 368.34880075 311.98687423 376.1875 317.625 C382.47859939 322.15170536 388.7086361 326.7503164 394.89794922 331.41503906 C402.4116466 337.07480324 409.99317052 342.64167867 417.57226562 348.21337891 C419.98252539 349.98714006 422.39013424 351.76443644 424.796875 353.54296875 C432.56338058 359.28004367 440.34880075 364.98687423 448.1875 370.625 C454.47859939 375.15170536 460.7086361 379.7503164 466.89794922 384.41503906 C474.4116466 390.07480324 481.99317052 395.64167867 489.57226562 401.21337891 C491.98252539 402.98714006 494.39013424 404.76443644 496.796875 406.54296875 C504.56338058 412.28004367 512.34880075 417.98687423 520.1875 423.625 C526.47777532 428.15111241 532.7064374 432.74982873 538.89575195 437.4128418 C550.22998399 445.94805014 561.66998198 454.3390516 573.1875 462.625 C579.47854911 467.1517772 585.70863438 471.7503151 591.89794922 476.41503906 C599.4116466 482.07480324 606.99317052 487.64167867 614.57226562 493.21337891 C616.98252539 494.98714006 619.39013424 496.76443644 621.796875 498.54296875 C629.56338058 504.28004367 637.34880075 509.98687423 645.1875 515.625 C651.47859939 520.15170536 657.7086361 524.7503164 663.89794922 529.41503906 C671.4116466 535.07480324 678.99317052 540.64167867 686.57226562 546.21337891 C688.98252539 547.98714006 691.39013424 549.76443644 693.796875 551.54296875 C695.38535474 552.71622969 696.97389607 553.88940723 698.5625 555.0625 C699.33770996 555.63516602 700.11291992 556.20783203 700.91162109 556.79785156 C704.94079267 559.76795057 708.98480328 562.71479393 713.0546875 565.62890625 C713.87380615 566.21599365 714.6929248 566.80308105 715.53686523 567.40795898 C717.09383068 568.52157009 718.65310619 569.63196123 720.21508789 570.73852539 C720.91625732 571.23989014 721.61742676 571.74125488 722.33984375 572.2578125 C723.25817993 572.90967529 723.25817993 572.90967529 724.19506836 573.57470703 C726.29779883 575.23516158 728.11870057 577.09504724 730 579 C712.30103773 579.3049296 694.60290556 579.53352621 676.90190983 579.67355824 C668.68118568 579.74033356 660.46210199 579.83120903 652.24243164 579.98071289 C645.07029306 580.11110045 637.89934322 580.19434414 630.72605222 580.22315043 C626.93401839 580.23996795 623.14538218 580.27889838 619.35444832 580.37449074 C591.15332836 581.05843307 591.15332836 581.05843307 579.87233829 570.89053059 C578.73000034 569.77860894 577.60328131 568.65030007 576.4966116 567.50287342 C574.4714044 565.46919276 572.22224803 563.85734615 569.859375 562.23828125 C569.1691626 561.74529541 568.4789502 561.25230957 567.76782227 560.74438477 C567.10194092 560.27186279 566.43605957 559.79934082 565.75 559.3125 C559.55385544 554.87582857 553.47867352 550.32859453 547.4609375 545.65234375 C542.44735628 541.78281118 537.32379389 538.0604376 532.21899414 534.31274414 C527.12407273 530.57039401 522.05050181 526.802056 517 523 C511.19322387 518.6301252 505.35534214 514.30456934 499.5 510 C492.99197607 505.21561002 486.51269943 500.39587442 480.05859375 495.5390625 C474.89645299 491.6597599 469.70265715 487.82474635 464.5 484 C457.99197607 479.21561002 451.51269943 474.39587442 445.05859375 469.5390625 C439.89645299 465.6597599 434.70265715 461.82474635 429.5 458 C422.99197607 453.21561002 416.51269943 448.39587442 410.05859375 443.5390625 C404.89645299 439.6597599 399.70265715 435.82474635 394.5 432 C387.99197607 427.21561002 381.51269943 422.39587442 375.05859375 417.5390625 C369.89645299 413.6597599 364.70265715 409.82474635 359.5 406 C352.99197607 401.21561002 346.51269943 396.39587442 340.05859375 391.5390625 C334.89645299 387.6597599 329.70265715 383.82474635 324.5 380 C317.99197607 375.21561002 311.51269943 370.39587442 305.05859375 365.5390625 C299.89645299 361.6597599 294.70265715 357.82474635 289.5 354 C282.99492747 349.21777974 276.51852646 344.40031103 270.06738281 339.5456543 C264.003791 334.98888773 257.89578471 330.49339398 251.78515625 326 C246.56806239 322.16164873 241.37776852 318.2899682 236.203125 314.39453125 C231.25704866 310.69703759 226.2787624 307.04337067 221.30029297 303.38964844 C217.31011701 300.456889 213.33614231 297.5068519 209.3984375 294.50390625 C208.67688477 293.95516846 207.95533203 293.40643066 207.21191406 292.84106445 C205.85859396 291.80929245 204.50875158 290.77293661 203.16308594 289.73120117 C202.5549707 289.26818604 201.94685547 288.8051709 201.3203125 288.328125 C200.79711426 287.9249707 200.27391602 287.52181641 199.73486328 287.10644531 C197.45284958 285.65104338 195.64483906 284.67095569 193 284 C190.02083883 284.98919814 190.02083883 284.98919814 187.01171875 286.84765625 C186.44045761 287.17021393 185.86919647 287.49277161 185.28062439 287.82510376 C183.40640266 288.88792741 181.5475528 289.97510231 179.6875 291.0625 C178.38117254 291.80837374 177.07370293 292.55225042 175.76513672 293.29418945 C173.10674535 294.80260047 170.45276031 296.3183635 167.80126953 297.83886719 C162.4629884 300.88811459 157.0450198 303.786835 151.625 306.6875 C143.98572817 310.8012936 136.4111987 315.01306111 128.875 319.3125 C118.39600634 325.28864261 107.77418455 330.97859675 97.11279297 336.62036133 C96.4933078 336.94848816 95.87382263 337.27661499 95.23556519 337.61468506 C93.55229925 338.50564267 91.86798439 339.39461778 90.18359375 340.28344727 C86.7571401 342.13094693 83.37989108 344.06863367 80 346 C79.67 422.89 79.34 499.78 79 579 C52.93 579 26.86 579 0 579 C0 387.93 0 196.86 0 0 Z " fill="#151616" transform="translate(1489,933)"/>
<path d="M0 0 C18.52805736 14.00072131 30.79131568 30.97803567 42 51 C42.55171875 51.98548828 43.1034375 52.97097656 43.671875 53.98632812 C47.16843304 60.24592713 50.6444462 66.5167527 54.11430359 72.79116821 C57.4099503 78.74723842 60.73360025 84.68746956 64.0625 90.625 C64.63508545 91.6464209 65.2076709 92.6678418 65.79760742 93.72021484 C66.95221358 95.77967712 68.10691717 97.83908479 69.26171875 99.8984375 C71.01990823 103.03552164 72.77591344 106.17381873 74.53125 109.3125 C80.16636258 119.38704442 85.81398918 129.4540811 91.5 139.5 C98.96921324 152.69644174 106.369364 165.93131721 113.77050781 179.16601562 C119.99194386 190.28970968 126.22197534 201.40812405 132.5 212.5 C139.96921324 225.69644174 147.369364 238.93131721 154.77050781 252.16601562 C160.99194386 263.28970968 167.22197534 274.40812405 173.5 285.5 C180.96921324 298.69644174 188.369364 311.93131721 195.77050781 325.16601562 C197.53409366 328.31924091 199.29811817 331.47222004 201.0625 334.625 C201.64322266 335.66269531 202.22394531 336.70039062 202.82226562 337.76953125 C206.67515875 344.64877506 210.55072022 351.51485747 214.4375 358.375 C219.19186753 366.76642959 223.88865893 375.18847661 228.5625 383.625 C232.98906187 391.61429461 237.44939333 399.58068247 242 407.5 C247.2098733 416.56662427 252.29369855 425.70027678 257.36108398 434.84716797 C261.39565751 442.12516157 265.46041795 449.38485029 269.5625 456.625 C277.01451759 469.77776545 284.39205058 482.97188526 291.77050781 496.16601562 C298.51495352 508.2248313 305.27566259 520.27385396 312.08374023 532.296875 C316.89262396 540.7949972 321.66209986 549.3149929 326.41992188 557.84179688 C326.97486328 558.83501953 327.52980469 559.82824219 328.1015625 560.8515625 C328.58963379 561.72635254 329.07770508 562.60114258 329.58056641 563.50244141 C330.57690767 565.25554962 331.61441222 566.98559359 332.68115234 568.69677734 C334 571 334 571 334 573 C322.3694298 573.20861797 310.73930522 573.36848837 299.10724449 573.46630955 C293.70575207 573.51326228 288.30554039 573.57693264 282.90478516 573.67895508 C277.69161041 573.77681664 272.47966649 573.83057205 267.26564407 573.85389519 C265.27757002 573.87051297 263.2895627 573.90296627 261.3020134 573.95157051 C245.74167569 574.31692068 245.74167569 574.31692068 241.52157593 571.12600708 C239.92599682 568.78944847 238.93497599 566.66170951 238 564 C237.44425293 563.04577148 236.88850586 562.09154297 236.31591797 561.10839844 C235.87908691 560.2837207 235.44225586 559.45904297 234.9921875 558.609375 C234.48695557 557.66392822 233.98172363 556.71848145 233.46118164 555.74438477 C232.9377417 554.75623779 232.41430176 553.76809082 231.875 552.75 C227.70321801 544.96128004 223.47074852 537.2200209 219.0625 529.5625 C212.88133378 518.82011583 206.82605317 508.00958618 200.78222656 497.18945312 C197.85866563 491.95748051 194.9291023 486.72887166 192 481.5 C188.48671658 475.22743669 184.97418249 468.95445878 181.46484375 462.6796875 C175.83065887 452.60795878 170.18457751 442.54338657 164.5 432.5 C160.00161891 424.55235919 155.52302872 416.59394904 151.0625 408.625 C150.1947998 407.07522461 150.1947998 407.07522461 149.30957031 405.49414062 C146.32000973 400.15243826 143.33510369 394.80818287 140.35546875 389.4609375 C139.7514624 388.3786084 139.14745605 387.2962793 138.52514648 386.18115234 C137.39671894 384.15895307 136.26975994 382.13593309 135.14477539 380.11181641 C134.0880316 378.21920362 132.99624508 376.3456952 131.86890984 374.49426174 C130.41176319 371.76986506 129.53003436 369.63078675 128.64525032 366.7387476 C126.78010868 361.52299451 124.58229138 357.28420423 120 354 C110.22629957 350.86661266 99.14919968 351.80998846 88.99566841 352.02688444 C84.67134491 352.10054326 80.34743396 352.07543885 76.0226593 352.06254578 C68.53689881 352.05364608 61.05366377 352.10681774 53.56853867 352.20258904 C42.74686724 352.34096066 31.92641258 352.38504348 21.10395242 352.40638489 C3.54452131 352.44355996 -14.01356462 352.55660362 -31.57226562 352.7175293 C-48.62525721 352.87365728 -65.67788298 352.99394753 -82.73144531 353.06616211 C-83.78322752 353.07062841 -84.83500972 353.07509471 -85.91866411 353.07969635 C-91.19533262 353.10188255 -96.47200372 353.12336545 -101.74867654 353.14449871 C-145.5000493 353.32063384 -189.24995512 353.61996763 -233 354 C-233.42330093 354.76325089 -233.84660187 355.52650177 -234.2827301 356.31288147 C-235.88221763 359.19626814 -237.48221409 362.07937125 -239.08253479 364.96229553 C-239.76968355 366.20040583 -240.45664036 367.43862269 -241.14338684 368.67695618 C-246.80416988 378.8839385 -252.55381083 389.03714493 -258.36767578 399.15771484 C-261.54220846 404.68537106 -264.70968568 410.21706174 -267.875 415.75 C-268.21455719 416.34332123 -268.55411438 416.93664246 -268.90396118 417.54794312 C-273.69420874 425.92117935 -278.42927739 434.323275 -283.125 442.75 C-288.19620052 451.84936277 -293.40297219 460.85966744 -298.68017578 469.84082031 C-303.7267187 478.46111947 -308.56881189 487.18767016 -313.39428711 495.93310547 C-318.04465085 504.33853716 -322.84737301 512.64326463 -327.71948242 520.92163086 C-332.2047869 528.56975554 -336.52967526 536.30009895 -340.8125 544.0625 C-355.29376186 570.29376186 -355.29376186 570.29376186 -358 573 C-360.83040672 573.09520906 -363.63634993 573.12553631 -366.46704102 573.11352539 C-367.35476196 573.11367142 -368.24248291 573.11381744 -369.15710449 573.1139679 C-372.10606284 573.11326843 -375.05495887 573.10547448 -378.00390625 573.09765625 C-380.04271917 573.09579219 -382.08153254 573.09436823 -384.12034607 573.09336853 C-389.49784574 573.08954241 -394.87531858 573.07971132 -400.25280762 573.06866455 C-405.73559201 573.05845245 -411.21838072 573.05387134 -416.70117188 573.04882812 C-427.46745973 573.03808914 -438.23372764 573.02101159 -449 573 C-447.89184556 570.76968965 -446.78217318 568.54015617 -445.67163086 566.31103516 C-445.36077293 565.68499893 -445.04991501 565.05896271 -444.72963715 564.41395569 C-442.17692583 559.29471481 -439.43970156 554.31687197 -436.5625 549.375 C-435.5206435 547.56781776 -434.47898789 545.7605197 -433.4375 543.953125 C-432.88578125 542.99857422 -432.3340625 542.04402344 -431.765625 541.06054688 C-428.85918725 536.02250711 -425.9741594 530.97222618 -423.08908081 525.92193604 C-422.05785578 524.11687072 -421.02612898 522.31209282 -419.99438477 520.50732422 C-415.28079874 512.25909008 -410.59798085 503.99380414 -405.93164062 495.71875 C-401.33391266 487.5725915 -396.68792405 479.45430961 -392.03863525 471.33752441 C-387.26642711 463.00318036 -382.54940142 454.63968101 -377.875 446.25 C-372.80386255 437.15060308 -367.5970269 428.14033101 -362.31982422 419.15917969 C-357.2732813 410.53888053 -352.43118811 401.81232984 -347.60571289 393.06689453 C-342.95169098 384.65485078 -338.14409999 376.34426025 -333.26953125 368.05859375 C-328.89737072 360.60135815 -324.6760561 353.06856352 -320.5 345.5 C-315.77369072 336.93417349 -310.96066973 328.43229846 -306 320 C-300.3343635 310.36681523 -294.86953085 300.63370614 -289.46264648 290.85327148 C-284.27082903 281.4664817 -278.9755142 272.14352078 -273.63232422 262.84228516 C-270.45779154 257.31462894 -267.29031432 251.78293826 -264.125 246.25 C-263.78544281 245.65667877 -263.44588562 245.06335754 -263.09603882 244.45205688 C-258.30579126 236.07882065 -253.57072261 227.676725 -248.875 219.25 C-243.80379948 210.15063723 -238.59702781 201.14033256 -233.31982422 192.15917969 C-228.2732813 183.53888053 -223.43118811 174.81232984 -218.60571289 166.06689453 C-213.95169098 157.65485078 -209.14409999 149.34426025 -204.26953125 141.05859375 C-199.89737072 133.60135815 -195.6760561 126.06856352 -191.5 118.5 C-186.22224524 108.93474962 -180.80578211 99.46704461 -175.26513672 90.05200195 C-170.93115725 82.66163747 -166.75851248 75.19149798 -162.625 67.6875 C-139.43793761 25.78732798 -139.43793761 25.78732798 -128 14 C-126.92105469 12.80697266 -126.92105469 12.80697266 -125.8203125 11.58984375 C-93.00745754 -23.44659296 -38.53714004 -27.96862133 0 0 Z M-69.53881836 67.61401367 C-79.62876114 77.18470794 -85.57931954 92.90696534 -92.21697998 104.96632385 C-95.07502773 110.15166897 -97.99145843 115.30175784 -100.9375 120.4375 C-101.41179443 121.26483643 -101.88608887 122.09217285 -102.37475586 122.94458008 C-103.37192577 124.68256145 -104.36957996 126.42026504 -105.36767578 128.15771484 C-108.54220846 133.68537106 -111.70968568 139.21706174 -114.875 144.75 C-115.21455719 145.34332123 -115.55411438 145.93664246 -115.90396118 146.54794312 C-120.69420874 154.92117935 -125.42927739 163.323275 -130.125 171.75 C-135.19620052 180.84936277 -140.40297219 189.85966744 -145.68017578 198.84082031 C-150.72208291 207.45320079 -155.55976192 216.17170093 -160.38110352 224.90893555 C-165.17207318 233.56783259 -170.1138595 242.12933868 -175.12158203 250.66430664 C-178.58277618 256.56472814 -182.01410305 262.47929862 -185.375 268.4375 C-185.75060059 269.10031982 -186.12620117 269.76313965 -186.51318359 270.44604492 C-188.2504388 273.07004998 -188.2504388 273.07004998 -189 276 C-101.22 276 -13.44 276 77 276 C73.32734124 268.65468248 69.68067116 261.50722969 65.5625 254.4375 C60.81560762 246.21015628 56.16309463 237.93500861 51.5625 229.625 C46.88897332 221.1883045 42.19186574 212.76642643 37.4375 204.375 C29.98548241 191.22223455 22.60794942 178.02811474 15.22949219 164.83398438 C8.47928221 152.7648624 1.71309155 140.70537069 -5.10131836 128.67236328 C-8.53146594 122.61120458 -11.93920148 116.53795714 -15.33374023 110.45678711 C-17.66477903 106.28366532 -20.00362682 102.11496414 -22.34521484 97.94775391 C-23.42351225 96.02692728 -24.49947632 94.10478834 -25.57275391 92.18115234 C-27.01829527 89.59451719 -28.47606208 87.01517855 -29.9375 84.4375 C-30.3495166 83.69467773 -30.7615332 82.95185547 -31.18603516 82.18652344 C-36.33133841 73.1848247 -43.16345068 64.40824947 -53.5 61.5 C-60.16650621 60.3115736 -64.58433765 63.39239441 -69.53881836 67.61401367 Z " fill="#151616" transform="translate(1090,945)"/>
<path d="M0 0 C26.07 0 52.14 0 79 0 C79.00808685 5.40387589 79.01617371 10.80775177 79.02450562 16.37538147 C79.09960907 65.95064924 79.18450359 115.52589263 79.28005161 165.10112536 C79.29257021 171.60102679 79.30500303 178.10092838 79.31738281 184.60083008 C79.31984881 185.89482223 79.3223148 187.18881439 79.32485552 188.52201843 C79.36455961 209.46342365 79.39731735 230.40483426 79.42749982 251.34625513 C79.45863371 272.84030958 79.49725141 294.33434123 79.54279006 315.82837003 C79.57064586 329.08713656 79.59269152 342.34588644 79.60726251 355.60467433 C79.61781933 364.70152466 79.63565737 373.79834273 79.65916704 382.89516873 C79.67250952 388.14045126 79.6826935 393.38568866 79.68421364 398.63098907 C79.68567879 403.44107048 79.69636698 408.25104335 79.71413441 413.06109136 C79.71895138 414.79350751 79.72049564 416.52593682 79.71827881 418.25835825 C79.69410082 440.88043084 82.71180665 462.67554303 98.8671875 480.0625 C115.06518093 494.7771607 133.37045271 499.47052955 154.78681946 499.39872742 C156.45208874 499.40417676 158.11735417 499.41093241 159.78261346 499.41886932 C164.32531875 499.43679041 168.86785971 499.43635044 173.41059196 499.43273985 C178.32181966 499.43211343 183.23299343 499.44876011 188.14419556 499.46325684 C196.64215309 499.48600111 205.14006975 499.49792074 213.6380558 499.50238609 C225.92454739 499.50885796 238.21096521 499.53181358 250.49742701 499.55872939 C270.43373978 499.60195881 290.37004943 499.63194752 310.30639648 499.65356445 C329.66708913 499.67458567 349.02775631 499.70187075 368.38842773 499.73754883 C370.17998247 499.74084707 370.17998247 499.74084707 372.00773022 499.74421193 C377.99982474 499.75528187 383.99191902 499.76647463 389.9840132 499.77772844 C439.65599342 499.87085911 489.3279665 499.94003483 539 500 C539 526.07 539 552.14 539 579 C487.74582573 579.06619793 436.49169194 579.12156675 385.23748712 579.15319599 C379.17964629 579.15694789 373.12180554 579.16083087 367.06396484 579.16479492 C365.85801207 579.16558185 364.6520593 579.16636878 363.4095625 579.16717956 C343.91031607 579.18021584 324.41109631 579.20385985 304.91186568 579.23145839 C284.88795103 579.25956213 264.8640503 579.27618675 244.84011674 579.28226548 C232.49493688 579.28637163 220.14983242 579.29931729 207.80467579 579.3237494 C199.32686294 579.33966798 190.84908879 579.34438656 182.3712621 579.34050413 C177.48784021 579.33859208 172.6045496 579.34141984 167.72115135 579.35761642 C123.1857494 579.49805831 123.1857494 579.49805831 103.9375 573.375 C103.1242627 573.12121582 102.31102539 572.86743164 101.47314453 572.60595703 C80.25742614 565.69499303 61.21379081 554.10646846 45.40673828 538.38330078 C44.1008425 537.09916237 42.75302815 535.85803631 41.40234375 534.62109375 C33.6473087 527.35766156 27.82752562 518.82255738 22 510 C21.32839844 508.99066406 20.65679687 507.98132812 19.96484375 506.94140625 C12.63510179 495.17040835 7.77341436 481.70638993 4.125 468.375 C3.93405762 467.69751709 3.74311523 467.02003418 3.54638672 466.32202148 C-0.12754787 451.92106392 -0.29376456 436.85888853 -0.24050903 422.09335327 C-0.24138359 420.25878071 -0.24313916 418.4242084 -0.24568737 416.5896374 C-0.25011573 411.60217885 -0.24222011 406.61480777 -0.23213124 401.62736034 C-0.22343323 396.22885348 -0.22642136 390.8303509 -0.22793579 385.43183899 C-0.22898065 376.0963666 -0.22274592 366.76092232 -0.21146011 357.425457 C-0.19515374 343.92821475 -0.18999187 330.430986 -0.18748413 316.93373497 C-0.18311506 295.03133645 -0.16982741 273.1289529 -0.15087891 251.2265625 C-0.13249966 229.95996169 -0.11835318 208.69336496 -0.10986328 187.42675781 C-0.10933783 186.11422179 -0.10881239 184.80168576 -0.10827102 183.44937591 C-0.1056608 176.86427193 -0.10313342 170.27916793 -0.10064721 163.6940639 C-0.07993927 109.12936505 -0.04418193 54.56468448 0 0 Z " fill="#151616" transform="translate(41,933)"/>
<path d="M0 0 C2.06495285 5.209592 4.12785613 10.41998943 6.18896484 15.63110352 C6.88861417 17.39922331 7.58879739 19.16713194 8.28955078 20.93481445 C15.75578604 39.77081595 15.75578604 39.77081595 19 49 C13.02779131 52.0940149 6.97912846 54.70632918 0.72265625 57.16796875 C-1.316407 57.9778627 -3.35546946 58.78775862 -5.39453125 59.59765625 C-6.46010254 60.01934082 -7.52567383 60.44102539 -8.62353516 60.87548828 C-25.64056517 67.61259741 -42.61365556 74.44173151 -59.5 81.5 C-74.75616201 87.87292323 -90.07828323 94.06724973 -105.4375 100.1875 C-119.23510862 105.68631447 -133.02602067 111.19455565 -146.75 116.875 C-161.31390746 122.90208849 -175.90242058 128.86740214 -190.5 134.8125 C-191.66817261 135.28830505 -192.83634521 135.76411011 -194.03991699 136.2543335 C-209.84995251 142.69276136 -225.66801218 149.11106984 -241.49472046 155.50839233 C-257.95399044 162.16191819 -274.39540673 168.85896572 -290.83496094 175.56103516 C-305.42303692 181.5081685 -320.01491769 187.44554175 -334.61740112 193.35720825 C-344.66404842 197.42498763 -354.70487385 201.50689631 -364.7421875 205.59765625 C-365.9474408 206.08885956 -367.15269409 206.58006287 -368.39447021 207.08615112 C-374.38508099 209.52791606 -380.37534694 211.97052371 -386.36523438 214.4140625 C-391.65569598 216.5718943 -396.94748912 218.72642315 -402.24060059 220.87774658 C-404.00382995 221.59485559 -405.76664843 222.31297626 -407.52893066 223.03240967 C-409.6768322 223.90899056 -411.82636452 224.7814148 -413.9765625 225.65234375 C-415.11432129 226.11503662 -416.25208008 226.57772949 -417.42431641 227.05444336 C-420 228 -420 228 -422 228 C-424.93380673 220.81801517 -427.86283683 213.63410373 -430.78413391 206.44702148 C-432.35516274 202.58248364 -433.93233968 198.72050584 -435.51171875 194.859375 C-436.23734752 193.07306626 -436.96263216 191.28661766 -437.6875 189.5 C-438.02587891 188.67725586 -438.36425781 187.85451172 -438.71289062 187.00683594 C-441 181.34225109 -441 181.34225109 -441 178 C-349.39347672 140.59328639 -349.39347672 140.59328639 -314.49612427 126.48794556 C-299.31942207 120.35302798 -284.15820423 114.18046614 -269 108 C-252.54961123 101.2927742 -236.09437694 94.59797604 -219.625 87.9375 C-218.7615799 87.58829498 -217.89815979 87.23908997 -217.00857544 86.87930298 C-213.65217268 85.52185938 -210.29574769 84.16447078 -206.93928528 82.80717468 C-199.43643442 79.77283584 -191.93579646 76.73307589 -184.4375 73.6875 C-183.8172998 73.43559906 -183.19709961 73.18369812 -182.55810547 72.92416382 C-173.90341641 69.40798765 -165.25359297 65.87994544 -156.60546875 62.34765625 C-155.59783981 61.93609787 -154.59021088 61.52453949 -153.55204773 61.10050964 C-151.46838304 60.24943216 -149.38471912 59.39835283 -147.30105591 58.54727173 C-146.25295746 58.11917206 -145.20485901 57.69107239 -144.125 57.25 C-143.07359833 56.8205307 -142.02219666 56.3910614 -140.93893433 55.94857788 C-125.7929509 49.76269214 -110.63573013 43.60540547 -95.46664429 37.47640991 C-81.8486493 31.97342125 -68.24657521 26.43216095 -54.65045166 20.87536621 C-46.62651036 17.59664853 -38.60064927 14.32263399 -30.57427979 11.04986572 C-28.93219987 10.38017806 -27.29022145 9.71024146 -25.64837646 9.03997803 C-21.31030772 7.26903422 -16.96910149 5.50611215 -12.625 3.75 C-11.64587646 3.34982666 -10.66675293 2.94965332 -9.65795898 2.53735352 C-8.79372314 2.18987061 -7.9294873 1.8423877 -7.0390625 1.484375 C-6.31928223 1.19272461 -5.59950195 0.90107422 -4.85791016 0.60058594 C-3 0 -3 0 0 0 Z " fill="#151616" transform="translate(3724,641)"/>
</svg>
