<?xml version="1.0" standalone="no"?>
<!DOCTYPE svg PUBLIC "-//W3C//DTD SVG 20010904//EN"
 "http://www.w3.org/TR/2001/REC-SVG-20010904/DTD/svg10.dtd">
<svg version="1.0" xmlns="http://www.w3.org/2000/svg"
 width="380.000000pt" height="380.000000pt" viewBox="0 0 380.000000 380.000000"
 preserveAspectRatio="xMidYMid meet">

<g transform="translate(0.000000,380.000000) scale(0.100000,-0.100000)"
fill="#000000" stroke="none">
<path d="M1800 3469 c-233 -41 -433 -197 -529 -415 -70 -158 -67 -401 8 -559
44 -93 89 -148 247 -307 l147 -147 41 36 c23 20 62 57 89 83 l47 46 -148 146
c-160 157 -208 227 -231 336 -67 319 213 607 537 552 310 -52 484 -382 350
-660 -36 -73 -119 -159 -568 -590 -454 -436 -483 -469 -537 -629 -34 -100 -43
-262 -19 -374 40 -194 175 -368 360 -466 94 -50 180 -72 296 -78 141 -7 244
13 370 74 79 38 108 59 180 132 72 71 95 102 133 181 102 207 100 431 -6 635
-36 68 -68 106 -209 250 l-168 170 -85 -85 -85 -84 148 -151 c82 -82 160 -170
174 -195 106 -185 70 -422 -83 -565 -173 -159 -408 -177 -597 -45 -199 140
-259 395 -141 607 33 62 83 113 391 409 575 553 606 585 655 684 90 179 105
362 46 545 -64 201 -273 396 -483 450 -77 20 -254 28 -330 14z"/>
<path d="M778 2986 c-49 -13 -63 -21 -116 -70 -56 -51 -76 -100 -76 -186 -1
-87 18 -132 81 -192 51 -50 99 -68 178 -68 107 0 181 42 229 130 74 136 26
300 -107 364 -66 31 -129 39 -189 22z"/>
<path d="M2947 2986 c-69 -19 -125 -62 -161 -126 -27 -48 -31 -64 -30 -130 0
-85 20 -134 76 -189 50 -50 86 -64 170 -69 69 -4 83 -2 130 22 104 52 159 159
144 279 -14 106 -97 193 -207 216 -60 13 -61 13 -122 -3z"/>
<path d="M734 1426 c-130 -61 -190 -228 -125 -353 26 -50 87 -108 135 -128 47
-20 137 -22 195 -4 27 8 62 31 91 59 133 129 94 352 -75 431 -59 27 -156 25
-221 -5z"/>
<path d="M2905 1431 c-96 -44 -164 -167 -152 -274 23 -187 235 -291 397 -194
51 30 107 100 121 150 14 54 5 146 -20 195 -25 49 -87 107 -133 127 -52 21
-162 19 -213 -4z"/>
</g>
</svg>
