<?xml version="1.0" encoding="UTF-8"?>
<svg version="1.1" xmlns="http://www.w3.org/2000/svg" width="2400" height="598">
<path d="M0 0 C0.9340416 -0.00979385 1.86808319 -0.01958771 2.83042908 -0.02967834 C23.1939923 -0.19926126 42.91926576 -0.09457244 62.91015625 4.23828125 C63.9151416 4.44727051 64.92012695 4.65625977 65.95556641 4.87158203 C96.24216536 11.3068215 125.17196102 23.47181594 149.91015625 42.23828125 C150.8849292 42.97401367 150.8849292 42.97401367 151.87939453 43.72460938 C193.69588635 75.6449731 220.20192534 120.96539404 228.22265625 172.92578125 C228.47635581 175.02713112 228.70636015 177.13150602 228.91015625 179.23828125 C229.01972656 180.3675 229.12929688 181.49671875 229.2421875 182.66015625 C233.48876007 233.6190271 219.41865941 284.26619707 186.31640625 323.59863281 C170.41063859 342.14431608 152.21872252 357.28561702 130.91015625 369.23828125 C130.25998535 369.61049805 129.60981445 369.98271484 128.93994141 370.36621094 C105.27065848 383.85373529 78.77274974 392.11240925 51.91015625 396.23828125 C50.78552979 396.41705811 49.66090332 396.59583496 48.50219727 396.7800293 C36.7868032 398.45985683 25.16836519 398.59559888 13.34765625 398.55078125 C12.3272525 398.5486261 11.30684875 398.54647095 10.25552368 398.54425049 C-4.37325826 398.49461033 -18.72065479 398.24277257 -33.08984375 395.23828125 C-34.5601001 394.94026611 -34.5601001 394.94026611 -36.06005859 394.63623047 C-92.05962561 382.99327424 -142.23872291 353.49605092 -174.28466797 305.44677734 C-201.4438739 263.71772875 -211.30966903 210.06939612 -201.08984375 161.23828125 C-193.43387515 125.33656961 -176.97048874 93.22771733 -152.08984375 66.23828125 C-151.55665527 65.65981445 -151.0234668 65.08134766 -150.47412109 64.48535156 C-137.22146698 50.29753822 -121.87625185 38.92123968 -105.08984375 29.23828125 C-104.37666992 28.82481445 -103.66349609 28.41134766 -102.92871094 27.98535156 C-72.08214114 10.34518132 -35.5953422 0.31045028 0 0 Z M-94.08984375 79.23828125 C-95.07726562 80.10453125 -96.0646875 80.97078125 -97.08203125 81.86328125 C-128.96533183 110.20625038 -148.50473008 149.45718439 -151.08984375 192.23828125 C-153.20279548 234.6545588 -137.55368168 273.93177778 -109.52734375 305.42578125 C-108.05334031 307.03469348 -106.57461311 308.63929886 -105.08984375 310.23828125 C-104.28160156 311.12773438 -104.28160156 311.12773438 -103.45703125 312.03515625 C-77.50027432 339.42670878 -36.65841414 356.76450603 0.82495117 358.36254883 C15.77021718 358.73465404 30.26023284 358.33853582 44.91015625 355.23828125 C45.69793457 355.07199219 46.48571289 354.90570313 47.29736328 354.734375 C78.67012337 347.83505085 107.06534267 331.614323 129.91015625 309.23828125 C130.71839844 308.4803125 131.52664063 307.72234375 132.359375 306.94140625 C159.46001079 281.02317167 175.20544819 243.42222585 176.91015625 206.23828125 C176.95140625 205.42101562 176.99265625 204.60375 177.03515625 203.76171875 C178.01615492 164.15389746 163.03079963 123.39720851 135.9765625 94.4609375 C134.11897955 92.46289459 132.39194374 90.40700928 130.66015625 88.30078125 C105.55232551 59.68015768 64.64030323 42.90227697 27.25390625 40.36279297 C-16.15661932 38.0566088 -61.06783826 49.97096443 -94.08984375 79.23828125 Z " fill="#000000" transform="translate(624.08984375,99.76171875)"/>
<path d="M0 0 C34.2375 -0.04125 68.475 -0.0825 103.75 -0.125 C119.92209473 -0.15231201 119.92209473 -0.15231201 136.42089844 -0.18017578 C149.66064453 -0.18920898 149.66064453 -0.18920898 155.87310791 -0.19088745 C160.18058361 -0.19273889 164.48800923 -0.20018625 168.79547119 -0.21115112 C174.31299554 -0.22500727 179.83044847 -0.2289571 185.34798861 -0.22614455 C187.35848915 -0.2267315 189.36899254 -0.23061485 191.37947798 -0.23843026 C207.65262219 -0.29868116 224.43408308 -0.06975115 240.25 4.1875 C241.065896 4.40035645 241.88179199 4.61321289 242.72241211 4.83251953 C267.55364858 11.63433978 288.60893841 26.60525261 301.55859375 49.1171875 C306.77940738 59.55881476 310.02294003 70.50649463 312 82 C312.13148438 82.74636719 312.26296875 83.49273437 312.3984375 84.26171875 C315.69365776 106.21501051 308.8405054 129.19199981 296 147 C293.15207894 150.49606861 290.13782684 153.76429599 287 157 C286.20916016 157.90105469 286.20916016 157.90105469 285.40234375 158.8203125 C272.43410961 173.08205337 252.95881695 180.47225067 235 186 C245.34667052 202.95920431 257.29832081 218.96191845 269 235 C269.55123535 235.75603516 270.1024707 236.51207031 270.67041016 237.29101562 C278.00677935 247.33805367 285.47161078 257.27878628 293.03393555 267.15673828 C298.04895841 273.71862032 302.95742142 280.35215469 307.82958984 287.02050781 C312.54089139 293.44193747 317.41361288 299.72840871 322.38330078 305.9519043 C322.92970215 306.64324463 323.47610352 307.33458496 324.0390625 308.046875 C324.51553223 308.64338867 324.99200195 309.23990234 325.48291016 309.85449219 C327.55477829 312.78458185 329.25152966 315.86620677 331 319 C323.53452152 319.42011476 316.07028406 319.73833499 308.59562397 319.93261909 C305.12220378 320.02598006 301.65694698 320.15202543 298.18823242 320.35791016 C275.90736368 321.64579809 275.90736368 321.64579809 269.51922607 317.32019043 C265.43513434 313.22713685 262.76695702 308.56068502 260.2539978 303.39447021 C258.10524057 299.2914844 255.28036151 295.69008531 252.5 292 C251.41367882 290.50216242 250.32999025 289.00240879 249.25 287.5 C248.445625 286.38625 248.445625 286.38625 247.625 285.25 C241.66666667 277 235.70833333 268.75 229.75 260.5 C229.2135083 259.75717773 228.6770166 259.01435547 228.12426758 258.24902344 C227.04332809 256.75231299 225.96243599 255.25556832 224.8815918 253.75878906 C222.1370246 249.95817363 219.39158034 246.15819702 216.64453125 242.359375 C211.34747407 235.03260432 206.06046042 227.69936125 200.81445312 220.3359375 C196.81375396 214.72591024 192.77443464 209.14388771 188.72851562 203.56640625 C188.21611328 202.85871094 187.70371094 202.15101563 187.17578125 201.421875 C186.67962594 200.755278 186.18347063 200.08868099 185.67228031 199.40188408 C184 197 184 197 182.60609341 194.42381477 C180.37122543 190.53851803 178.65921424 187.56392613 174.28984261 186.07888412 C170.91414937 185.72733571 167.66514021 185.69723203 164.27172852 185.77294922 C162.98230063 185.76183168 161.69287275 185.75071415 160.3643713 185.73925972 C156.89125766 185.71030732 153.42112691 185.7410342 149.94826508 185.78456116 C146.68405112 185.81630852 143.42039492 185.79366789 140.15612793 185.77563477 C130.62488471 185.75440422 121.09360787 185.81994848 111.5625 185.875 C79.6040625 185.936875 79.6040625 185.936875 47 186 C47 229.89 47 273.78 47 319 C31.49 319 15.98 319 0 319 C0 213.73 0 108.46 0 0 Z M47 39 C47 74.64 47 110.28 47 147 C75.20018278 147.08749191 75.20018278 147.08749191 103.40039062 147.14648438 C114.91060423 147.16424241 126.42075166 147.1850481 137.9309082 147.22631836 C146.31600262 147.25636903 154.70104303 147.27560992 163.08618981 147.28226548 C167.51954312 147.2861514 171.952742 147.29518146 176.38604546 147.31719017 C180.57293253 147.3378039 184.75960401 147.3437845 188.94653702 147.33932304 C190.4697252 147.34013728 191.99292185 147.34595291 193.5160656 147.35761642 C212.5492478 147.49600987 232.34182764 145.24429353 247 132 C247.92039062 131.25169922 247.92039062 131.25169922 248.859375 130.48828125 C258.5860134 121.94519399 263.39640854 107.60330365 264.27734375 95.046875 C264.54391084 87.30824139 264.01975175 80.21603015 261 73 C260.73316406 72.3296875 260.46632813 71.659375 260.19140625 70.96875 C254.68137438 58.62627862 244.58836803 49.82326915 232.40234375 44.3984375 C220.09537267 39.81847656 208.75869253 38.70917047 195.71826172 38.77294922 C194.09119168 38.77351427 192.46412113 38.77319493 190.83705139 38.77206421 C186.44724232 38.77149338 182.05754387 38.78320378 177.66776037 38.79721212 C173.07002679 38.80976467 168.47229031 38.81089354 163.87454224 38.81326294 C155.180231 38.81946446 146.48597041 38.83585722 137.79168141 38.85596192 C126.03448566 38.88255572 114.27727594 38.8933043 102.52005768 38.90496635 C84.01333389 38.92373883 65.50671696 38.96359334 47 39 Z " fill="#000000" transform="translate(910,153)"/>
<path d="M0 0 C8.11018596 -0.23209854 16.2189772 -0.40956785 24.33166695 -0.51812172 C28.09926048 -0.57023525 31.86457684 -0.64085061 35.63085938 -0.75439453 C39.26855517 -0.86337063 42.90406772 -0.92290013 46.54327011 -0.94877243 C47.92862211 -0.96719705 49.31385929 -1.00318432 50.69827652 -1.05730057 C54.97133551 -1.2176295 58.8760108 -1.18635684 63 0 C66.06734796 2.89194899 67.42052412 6.14002894 69 10 C69.89740694 11.75240354 70.80602098 13.49911182 71.72558594 15.23999023 C72.64920311 17.09419399 73.56864112 18.95048404 74.484375 20.80859375 C75.23512299 22.31789207 75.23512299 22.31789207 76.0010376 23.85768127 C77.58790214 27.04904665 79.16936803 30.24304377 80.75 33.4375 C82.82526967 37.62512076 84.9032464 41.81138157 86.984375 45.99609375 C87.49492432 47.02278168 88.00547363 48.0494696 88.53149414 49.10726929 C92.05909761 56.17636387 95.69425506 63.18087218 99.39874268 70.15855408 C103.50032926 77.90060611 107.40795298 85.73535265 111.30105591 93.58380127 C116.80017448 104.6660222 122.3014035 115.73876573 128.14453125 126.64453125 C133.01914325 135.80946957 137.58204026 145.13507526 142.20831299 154.42687988 C148.44927085 166.96433988 148.44927085 166.96433988 154.9375 179.375 C160.44478725 189.65659022 165.57957808 200.12771344 170.77850342 210.56726074 C175.46839255 219.98130304 180.17705632 229.37310692 185.14453125 238.64453125 C190.01526631 247.80218038 194.5747861 257.12023643 199.19723511 266.40472412 C203.95714793 275.96174328 208.7607116 285.48497373 213.77490234 294.91186523 C216.44627127 299.93505851 219.0624301 304.98285635 221.625 310.0625 C221.96869629 310.73700195 222.31239258 311.41150391 222.66650391 312.10644531 C225 316.76368921 225 316.76368921 225 319 C206.85 319 188.7 319 170 319 C163.77849696 307.17914423 157.628059 295.36949531 151.69454956 283.40795898 C142.95674937 265.76309741 142.95674937 265.76309741 133.765625 248.3515625 C131.71286023 244.55127679 130.3904958 241.1714874 129 237 C64.98 237 0.96 237 -65 237 C-65.99 239.97 -65.99 239.97 -67 243 C-67.81369911 244.79529205 -68.6642483 246.57424264 -69.546875 248.33666992 C-70.05500732 249.3560112 -70.56313965 250.37535248 -71.08666992 251.42558289 C-71.91001831 253.06150139 -71.91001831 253.06150139 -72.75 254.73046875 C-73.32274658 255.87550369 -73.89549316 257.02053864 -74.4855957 258.20027161 C-75.70032639 260.62817151 -76.91772 263.05471034 -78.13720703 265.48022461 C-79.66956262 268.52820242 -81.19680944 271.57870171 -82.72225952 274.6301403 C-88.31428379 285.81372605 -93.93489669 296.98115675 -99.75 308.05078125 C-100.15629639 308.82487839 -100.56259277 309.59897552 -100.98120117 310.39653015 C-102.54890758 313.35919757 -104.13912952 316.20869428 -106 319 C-108.32852173 319.36076355 -108.32852173 319.36076355 -111.27587891 319.34057617 C-112.92736435 319.34023628 -112.92736435 319.34023628 -114.61221313 319.33988953 C-115.80494843 319.32440567 -116.99768372 319.30892181 -118.2265625 319.29296875 C-120.05349136 319.28660149 -120.05349136 319.28660149 -121.91732788 319.28010559 C-125.82010704 319.26326831 -129.72237604 319.22560595 -133.625 319.1875 C-136.26561756 319.17245974 -138.90624319 319.15877019 -141.546875 319.14648438 C-148.03142504 319.11334822 -154.51567608 319.06309861 -161 319 C-160.44111879 315.6780216 -159.67672952 313.01425038 -158.06640625 310.05859375 C-157.47182617 308.95173218 -157.47182617 308.95173218 -156.86523438 307.82250977 C-156.43533203 307.03545654 -156.00542969 306.24840332 -155.5625 305.4375 C-154.64538339 303.727501 -153.73007344 302.01653204 -152.81640625 300.3046875 C-152.34734863 299.42651367 -151.87829102 298.54833984 -151.39501953 297.64355469 C-149.19886674 293.48185667 -147.09468014 289.2759705 -145 285.0625 C-144.5882251 284.23556641 -144.1764502 283.40863281 -143.75219727 282.55664062 C-142.49976915 280.03859837 -141.24949872 277.51949703 -140 275 C-134.70110604 264.31527709 -129.3363268 253.67973521 -123.75 243.14208984 C-119.00918195 234.17342508 -114.50692603 225.08779381 -110 216 C-104.68984851 205.29257734 -99.31355355 194.63433196 -93.71594238 184.07397461 C-89.1605899 175.45728262 -84.82843218 166.73226633 -80.5 158 C-75.77484261 148.46737223 -71.01431075 138.96345705 -66.03125 129.5625 C-60.85249813 119.7909851 -55.91322991 109.90706749 -51 100 C-45.70110604 89.31527709 -40.3363268 78.67973521 -34.75 68.14208984 C-30.00918195 59.17342508 -25.50692603 50.08779381 -21 41 C-14.78302857 28.46405995 -8.44339626 16.00864154 -1.87280273 3.65380859 C-1.23401803 2.44342325 -0.61205859 1.22411718 0 0 Z M31 46 C21.34674997 65.2598359 11.69804745 84.52194369 2.05479431 103.78678703 C-2.42256424 112.73117955 -6.90142332 121.6748148 -11.38378906 130.61669922 C-15.28936583 138.40795506 -19.19215398 146.20060014 -23.09156132 153.99494565 C-25.157485 158.12417948 -27.22482442 162.25269092 -29.29550171 166.3795433 C-31.24254437 170.26010189 -33.18586641 174.14250021 -35.12629318 178.026371 C-35.84086395 179.45496017 -36.55681663 180.88285903 -37.27421951 182.31002808 C-38.25005522 184.25181513 -39.22098465 186.19597665 -40.19067383 188.14083862 C-40.73637527 189.23039793 -41.28207672 190.31995724 -41.84431458 191.44253349 C-43.13726468 193.83601488 -43.13726468 193.83601488 -43 196 C6.83 196 56.66 196 108 196 C105.36 190.72 102.72 185.44 100 180 C96.58837891 173.16088867 96.58837891 173.16088867 94.92861938 169.83158875 C92.79292262 165.54826705 90.65548698 161.26581466 88.51767921 156.98354626 C86.91240955 153.76780162 85.30789732 150.55168361 83.70507812 147.3347168 C77.47277765 134.82728226 71.23463484 122.33021923 64.67295837 109.99116516 C59.1427371 99.55555704 53.9415741 88.95139348 48.6875 78.375 C46.58962389 74.15245417 44.48897253 69.93130523 42.38671875 65.7109375 C41.91892502 64.7670517 41.45113129 63.82316589 40.96916199 62.85067749 C38.12720513 57.14580194 35.14791387 51.54205774 32 46 C31.67 46 31.34 46 31 46 Z " fill="#000000" transform="translate(1764,153)"/>
<path d="M0 0 C94.05 0 188.1 0 285 0 C285 11.88 285 23.76 285 36 C207.45 36 129.9 36 50 36 C50 69.33 50 102.66 50 137 C108.41 137 166.82 137 227 137 C227 148.88 227 160.76 227 173 C168.59 173 110.18 173 50 173 C50 209.3 50 245.6 50 283 C127.55 283 205.1 283 285 283 C285 294.88 285 306.76 285 319 C190.95 319 96.9 319 0 319 C0 213.73 0 108.46 0 0 Z " fill="#000000" transform="translate(1296,153)"/>
<path d="M0 0 C14.85 0 29.7 0 45 0 C45 93.39 45 186.78 45 283 C124.86 283 204.72 283 287 283 C287 294.88 287 306.76 287 319 C192.29 319 97.58 319 0 319 C0 213.73 0 108.46 0 0 Z " fill="#000000" transform="translate(2013,153)"/>
<path d="M0 0 C14.85 0 29.7 0 45 0 C45 93.39 45 186.78 45 283 C124.86 283 204.72 283 287 283 C287 294.88 287 306.76 287 319 C192.29 319 97.58 319 0 319 C0 213.73 0 108.46 0 0 Z " fill="#000000" transform="translate(100,153)"/>
<path d="M0 0 C16.17 0 32.34 0 49 0 C48.09006021 4.54969893 46.72843315 7.81123037 44.5625 11.80078125 C44.21073196 12.46114883 43.85896393 13.12151642 43.49653625 13.80189514 C42.33700869 15.97535589 41.1685185 18.14386183 40 20.3125 C39.18320059 21.83966582 38.36704787 23.36717769 37.55151367 24.89501953 C35.8672434 28.04864676 34.17972894 31.20050478 32.48974609 34.35107422 C30.16510408 38.68753591 27.85472592 43.03141889 25.55078125 47.37890625 C25.19703934 48.04632843 24.84329742 48.71375061 24.47883606 49.40139771 C23.77329639 50.73263558 23.06777559 52.06388346 22.36227417 53.3951416 C15.43393612 66.46188364 8.45733106 79.50265665 1.46484375 92.53515625 C-2.366945 99.68466062 -6.18277754 106.84270789 -10 114 C-21.22 114 -32.44 114 -44 114 C-43.23418892 109.40513353 -42.46420051 106.23258747 -40.76953125 102.03442383 C-40.30338409 100.870914 -39.83723694 99.70740417 -39.35696411 98.50863647 C-38.8422315 97.24139868 -38.32740741 95.97419803 -37.8125 94.70703125 C-37.27620525 93.37429897 -36.74048172 92.04133671 -36.20529175 90.7081604 C-35.06700724 87.87573844 -33.92510296 85.0448155 -32.7802124 82.21505737 C-30.9961584 77.80533193 -29.22005617 73.39243537 -27.44580078 68.97875977 C-26.85172144 67.50108082 -26.25763574 66.02340443 -25.6635437 64.54573059 C-25.36977718 63.81501657 -25.07601067 63.08430256 -24.77334213 62.33144569 C-23.88213877 60.11551229 -22.99013983 57.89990065 -22.09793091 55.68437195 C-14.6394969 37.15930206 -7.32480124 18.57835951 0 0 Z " fill="#000000" transform="translate(349,153)"/>
<path d="M0 0 C2.72180044 -0.28631983 5.21520901 -0.37831034 7.93798828 -0.34057617 C8.75758026 -0.34101425 9.57717224 -0.34145233 10.42160034 -0.34190369 C13.13807778 -0.33980906 15.85394253 -0.31644665 18.5703125 -0.29296875 C20.45075137 -0.28737518 22.3311946 -0.28310396 24.2116394 -0.28010559 C29.1667279 -0.26863795 34.1215536 -0.23915435 39.07653809 -0.20599365 C44.1304163 -0.17533404 49.18433689 -0.16160906 54.23828125 -0.14648438 C64.15896979 -0.11428643 74.07946306 -0.06306699 84 0 C82.66628093 2.66743813 81.59026014 2.69262635 78.80224609 3.65380859 C77.89672501 3.97022308 76.99120392 4.28663757 76.0582428 4.61264038 C74.55601418 5.12535995 74.55601418 5.12535995 73.0234375 5.6484375 C71.97469955 6.01337311 70.92596161 6.37830872 69.84544373 6.75430298 C67.55920131 7.54936634 65.27185 8.34124632 62.98355103 9.13037109 C56.84957408 11.24604715 50.72351138 13.38438285 44.59765625 15.5234375 C43.64629697 15.85524143 43.64629697 15.85524143 42.67571831 16.19374847 C32.94294568 19.58984783 23.24078884 23.06393517 13.55859375 26.6015625 C12.93461952 26.82942822 12.31064529 27.05729393 11.66776276 27.29206467 C5.03777164 29.71411146 -1.58798991 32.14749574 -8.21142578 34.58740234 C-10.40525483 35.39165233 -12.59910157 36.19585404 -14.79296875 37 C-15.76794815 37.36171295 -16.74292755 37.7234259 -17.74745178 38.09609985 C-24.08549258 40.41526857 -30.46252868 42.324821 -37 44 C-35.26383071 40.30752161 -33.10549826 37.7440257 -30.3125 34.75 C-27.31520384 31.51184489 -24.32945391 28.27071448 -21.4375 24.9375 C-18.82298058 21.92926472 -16.17048344 18.95869751 -13.5 16 C-10.67455334 12.86544464 -7.85495597 9.72650936 -5.0625 6.5625 C-4.51722656 5.94503906 -3.97195313 5.32757813 -3.41015625 4.69140625 C-1.81877961 2.84382494 -1.81877961 2.84382494 0 0 Z " fill="#000000" transform="translate(1443,102)"/>
</svg>
