<svg version="1.1" id="Layer_1" xmlns="http://www.w3.org/2000/svg" xmlns:xlink="http://www.w3.org/1999/xlink" x="0px" y="0px"
	 width="100%" viewBox="0 0 848 848" enable-background="new 0 0 848 848" xml:space="preserve">
<path fill="#000000" opacity="1.000000" stroke="none" 
	d="
M133.956390,486.049377 
	C123.897072,493.975647 113.180374,499.595062 100.815208,502.052277 
	C81.237633,505.942688 65.439491,496.416870 61.884304,478.090485 
	C59.324341,464.894348 61.152325,452.143921 67.781830,440.537170 
	C79.301277,420.369232 95.603058,405.138885 116.895561,395.501709 
	C118.401443,394.820160 120.012329,394.354126 121.604141,393.889893 
	C122.028351,393.766174 122.562973,394.021057 123.285072,394.142029 
	C122.518402,413.481384 128.551117,432.073242 129.376816,451.263641 
	C129.791351,460.897858 128.458649,470.929230 123.798050,484.442139 
	C124.983032,485.381927 126.126282,484.753174 126.823524,483.947601 
	C138.877518,470.020538 147.618332,454.679871 149.807068,435.835236 
	C153.934631,400.297363 130.762650,367.573883 100.139046,358.595093 
	C80.396622,352.806702 62.496643,357.365875 46.688591,369.600098 
	C25.976784,385.629486 16.747215,407.504303 18.535131,433.357483 
	C20.007307,454.645081 29.161940,472.811737 45.270138,487.321991 
	C37.972012,473.744354 38.155739,459.032654 38.764008,444.383759 
	C39.176651,434.446198 41.645615,424.736298 43.663109,415.007965 
	C44.859203,409.240448 45.234173,403.515198 43.834415,397.729584 
	C43.567135,396.624847 43.556156,395.401489 44.684673,393.905579 
	C50.404652,394.256775 55.259758,397.616882 60.264717,400.240021 
	C66.911621,403.723724 72.344429,408.963013 78.046913,413.781250 
	C80.509438,415.861877 80.330307,417.519012 78.171379,419.952850 
	C67.767624,431.681061 59.602234,444.776123 56.884045,460.447693 
	C54.217155,475.823425 56.665108,489.841888 70.233292,499.917664 
	C70.564735,500.163818 70.678909,500.702515 70.893997,501.104034 
	C69.913986,502.665161 68.529373,502.308502 67.284172,502.052673 
	C47.132439,497.911957 31.478268,487.354095 19.826147,470.225159 
	C1.265044,442.939758 4.025547,405.386719 24.585871,380.509888 
	C37.646877,364.706818 54.769772,355.620911 75.607727,353.501862 
	C95.325089,351.496735 113.291801,355.771362 129.236984,367.190308 
	C146.836121,379.793610 156.525574,397.237244 159.489456,418.831207 
	C162.109818,437.922699 157.678253,454.997162 147.470383,470.945923 
	C143.842148,476.614716 138.932114,481.116699 133.956390,486.049377 
z"/>
<path fill="#000000" opacity="1.000000" stroke="none" 
	d="
M554.664734,375.004272 
	C554.664246,372.673065 554.664429,370.840698 554.663818,369.008331 
	C554.660339,358.078217 557.270996,354.533661 568.410706,350.446381 
	C569.896362,351.719604 569.309570,353.495880 569.310791,355.037537 
	C569.348450,401.512939 569.288452,447.988556 569.427368,494.463593 
	C569.440857,498.975098 568.098328,500.123932 563.559387,500.539459 
	C555.342651,501.291656 550.511658,498.584564 545.886230,491.403748 
	C528.361511,464.197571 509.979828,437.542725 491.866638,410.716766 
	C484.436554,399.712708 476.883606,388.791473 469.355164,377.854218 
	C468.736328,376.955231 467.875641,376.222748 467.017426,375.293976 
	C465.873108,377.130737 466.375671,378.822083 466.374207,380.412659 
	C466.339539,418.725708 466.370514,457.038849 466.281067,495.351715 
	C466.275787,497.621063 467.688965,501.093109 464.595367,501.929230 
	C460.811890,502.951813 456.571411,503.054626 452.789368,501.708344 
	C450.944702,501.051758 451.681793,498.427673 451.678375,496.662415 
	C451.638763,476.173340 451.652344,455.684113 451.652130,435.194946 
	C451.651855,409.708405 451.643402,384.221863 451.657593,358.735321 
	C451.661194,352.311859 452.996368,351.190643 459.013428,353.810822 
	C468.233185,357.825562 475.133911,364.995972 481.234528,372.648682 
	C496.440918,391.723846 509.028503,412.652252 522.825012,432.727539 
	C532.408020,446.671661 541.845581,460.715698 551.362732,474.705139 
	C552.091797,475.776825 552.937256,476.769348 554.665100,479.016754 
	C554.665100,443.599915 554.665100,409.551514 554.664734,375.004272 
z"/>
<path fill="#000000" opacity="1.000000" stroke="none" 
	d="
M702.505737,401.831360 
	C707.899292,426.362213 707.863159,449.875610 692.447754,470.761902 
	C680.832031,486.499908 665.305664,496.089691 645.445740,498.474243 
	C627.725403,500.601868 609.978516,500.192139 592.218933,500.427094 
	C587.749084,500.486206 586.562317,498.983246 586.584595,494.679565 
	C586.737122,465.206451 586.406738,435.729126 586.758667,406.259430 
	C586.949463,390.282135 585.414429,374.380615 585.535583,358.414673 
	C585.571228,353.716400 587.126404,352.496918 591.577393,352.576630 
	C604.894653,352.815216 618.235291,352.243530 631.536804,352.759552 
	C652.610291,353.577026 672.221191,358.583008 687.213928,374.950409 
	C694.267761,382.651062 699.531006,391.349792 702.505737,401.831360 
M689.790405,429.014069 
	C690.182251,422.051880 689.704041,415.182526 687.660156,408.470276 
	C682.269958,390.768341 672.306580,376.885681 654.625488,369.774719 
	C638.458679,363.272736 621.390198,364.383728 604.479309,364.453583 
	C601.775391,364.464752 601.349426,366.358795 601.350220,368.587708 
	C601.364136,407.238464 601.376770,445.889221 601.320618,484.539886 
	C601.316284,487.512085 602.367065,488.675842 605.400635,488.700226 
	C616.701660,488.791107 627.915771,487.984680 639.168213,486.847443 
	C669.054260,483.826965 689.288635,456.869110 689.790405,429.014069 
z"/>
<path fill="#000000" opacity="1.000000" stroke="none" 
	d="
M363.417450,349.866730 
	C403.053406,347.485992 433.404755,376.421295 438.447937,413.832794 
	C441.394470,435.690826 437.387329,455.829285 424.468048,473.820129 
	C412.330597,490.722260 396.078308,500.373322 374.981445,502.505524 
	C339.118958,506.130035 309.073212,478.860870 301.538818,446.964752 
	C296.847412,427.104065 298.043213,407.905060 307.261658,389.852509 
	C318.538818,367.768402 336.064545,353.400269 361.540894,350.416718 
	C362.027374,350.359741 362.492798,350.122925 363.417450,349.866730 
M411.545715,383.984283 
	C398.239227,368.119293 381.709076,359.924377 360.703430,363.462585 
	C342.590698,366.513489 329.162811,376.538239 321.611786,393.238068 
	C314.415466,409.153534 312.571686,425.947021 316.290253,443.247467 
	C318.969391,455.712036 323.889343,467.098755 333.260529,475.795013 
	C344.018097,485.777863 356.937164,490.532043 371.935242,489.748810 
	C387.709595,488.925049 400.530792,482.320618 410.158295,470.301178 
	C428.341187,447.600769 428.135284,406.835449 411.545715,383.984283 
z"/>
<path fill="#000000" opacity="1.000000" stroke="none" 
	d="
M249.868347,352.662170 
	C261.419281,353.300171 272.113861,354.963959 280.979523,362.560333 
	C293.065063,372.915619 296.892792,386.367279 294.973633,401.501129 
	C292.303680,422.555359 275.048065,435.503143 255.346924,436.617767 
	C242.029678,437.371185 228.756927,437.025452 215.468689,437.276245 
	C211.605530,437.349121 210.231720,438.451691 210.269424,442.428528 
	C210.439957,460.420135 210.233231,478.415436 210.422394,496.406677 
	C210.468460,500.789337 209.422302,502.645599 204.612091,502.460236 
	C193.174988,502.019409 194.697174,503.450897 194.682022,492.579529 
	C194.622101,449.595795 194.659912,406.611877 194.645660,363.628052 
	C194.644562,360.319824 194.958908,356.994415 193.590897,352.662720 
	C212.624908,352.662720 231.005280,352.662720 249.868347,352.662170 
M210.339844,402.499878 
	C210.339249,407.991821 210.568665,413.496582 210.264099,418.971619 
	C210.027252,423.229279 211.270050,424.929871 215.817474,424.752960 
	C227.090881,424.314453 238.404190,425.240601 249.651627,423.645172 
	C259.057953,422.310883 267.559235,419.745941 273.541992,411.346863 
	C285.138763,395.066345 276.596985,371.597107 257.069061,367.075500 
	C242.616959,363.729218 227.930603,365.887146 213.355011,365.436707 
	C210.088120,365.335724 210.352921,367.870605 210.350540,370.045959 
	C210.339005,380.530609 210.342453,391.015228 210.339844,402.499878 
z"/>
<path fill="#000000" opacity="1.000000" stroke="none" 
	d="
M819.615295,438.349060 
	C809.874817,432.750702 799.147705,431.797516 788.869141,429.368408 
	C776.081238,426.346313 763.581787,422.661224 755.637451,411.178284 
	C744.397278,394.931519 747.888977,368.757507 770.025146,356.971191 
	C782.366333,350.400177 795.594666,348.614044 809.576660,350.340088 
	C817.090027,351.267578 824.204102,352.979034 831.178162,355.702972 
	C834.142761,356.860840 836.897888,358.285736 839.082092,360.614685 
	C835.133972,367.252502 827.953674,369.557404 821.425659,366.709290 
	C806.873169,360.360077 792.373169,360.475739 778.218994,367.885956 
	C765.523438,374.532532 760.978882,392.785309 769.421509,403.506226 
	C774.045776,409.378448 781.030151,411.637695 787.904907,413.539764 
	C797.314880,416.143280 806.918640,418.052673 816.309265,420.717987 
	C829.860352,424.564209 840.260254,431.960205 843.801270,446.633972 
	C848.500671,466.108154 839.545532,486.858917 821.569580,495.667938 
	C794.915649,508.729492 769.865173,504.976715 746.215088,488.034943 
	C744.910889,487.100677 743.439575,486.157043 743.052551,483.649902 
	C746.897461,481.538055 750.895691,479.274567 754.961853,477.140625 
	C756.685303,476.236176 758.110168,477.098694 759.457153,478.285095 
	C767.271545,485.167908 776.341858,489.782776 786.707520,490.403442 
	C801.690369,491.300537 820.185303,485.459106 827.172913,467.410248 
	C831.189026,457.036896 828.325378,445.380341 819.615295,438.349060 
z"/>
<path fill="#000000" opacity="1.000000" stroke="none" 
	d="
M725.962036,354.198517 
	C730.009521,351.614899 734.180969,352.905731 738.237854,352.844849 
	C739.633179,352.823944 740.117065,353.934113 740.251282,355.231171 
	C741.739685,369.610504 736.428589,383.165466 723.041321,391.848572 
	C719.296997,394.277130 715.246338,396.854370 709.252808,396.331970 
	C719.939697,384.014221 726.071045,370.527130 725.962036,354.198517 
z"/>
<path fill="#000000" opacity="1.000000" stroke="none" 
	d="
M72.948326,400.163879 
	C76.410774,394.899902 79.693840,389.966095 83.359497,384.457336 
	C88.473801,389.806244 91.695595,395.693909 95.001198,401.502167 
	C95.616920,402.584045 95.213028,403.918365 94.133133,404.614288 
	C90.369835,407.039642 87.962067,411.224426 83.220726,412.818420 
	C80.185127,410.321442 77.084717,407.584534 73.778519,405.124207 
	C71.910461,403.734131 71.672180,402.351044 72.948326,400.163879 
z"/>
</svg>