<?xml version="1.0" standalone="no"?>
<!DOCTYPE svg PUBLIC "-//W3C//DTD SVG 20010904//EN"
 "http://www.w3.org/TR/2001/REC-SVG-20010904/DTD/svg10.dtd">
<svg version="1.0" xmlns="http://www.w3.org/2000/svg"
 width="3840.000000pt" height="2160.000000pt" viewBox="0 0 3840.000000 2160.000000"
 preserveAspectRatio="xMidYMid meet">

<g transform="translate(0.000000,2160.000000) scale(0.100000,-0.100000)"
fill="#000000" stroke="none">
<path d="M19363 21533 c9 -2 23 -2 30 0 6 3 -1 5 -18 5 -16 0 -22 -2 -12 -5z"/>
<path d="M19963 21533 c9 -2 23 -2 30 0 6 3 -1 5 -18 5 -16 0 -22 -2 -12 -5z"/>
<path d="M19218 21523 c7 -3 16 -2 19 1 4 3 -2 6 -13 5 -11 0 -14 -3 -6 -6z"/>
<path d="M20118 21523 c7 -3 16 -2 19 1 4 3 -2 6 -13 5 -11 0 -14 -3 -6 -6z"/>
<path d="M19108 21513 c7 -3 16 -2 19 1 4 3 -2 6 -13 5 -11 0 -14 -3 -6 -6z"/>
<path d="M20228 21513 c7 -3 16 -2 19 1 4 3 -2 6 -13 5 -11 0 -14 -3 -6 -6z"/>
<path d="M23350 20176 c0 -2 8 -10 18 -17 15 -13 16 -12 3 4 -13 16 -21 21
-21 13z"/>
<path d="M15959 20143 c-13 -16 -12 -17 4 -4 9 7 17 15 17 17 0 8 -8 3 -21
-13z"/>
<path d="M23455 20080 c10 -11 20 -20 23 -20 3 0 -3 9 -13 20 -10 11 -20 20
-23 20 -3 0 3 -9 13 -20z"/>
<path d="M15859 20053 l-24 -28 28 24 c25 23 32 31 24 31 -2 0 -14 -12 -28
-27z"/>
<path d="M23650 19895 c35 -36 67 -65 69 -65 3 0 -24 29 -59 65 -35 36 -67 65
-69 65 -3 0 24 -29 59 -65z"/>
<path d="M15529 19723 l-24 -28 28 24 c15 14 27 26 27 28 0 8 -8 1 -31 -24z"/>
<path d="M23835 19700 c10 -11 20 -20 23 -20 3 0 -3 9 -13 20 -10 11 -20 20
-23 20 -3 0 3 -9 13 -20z"/>
<path d="M15439 19623 c-13 -16 -12 -17 4 -4 9 7 17 15 17 17 0 8 -8 3 -21
-13z"/>
<path d="M23910 19616 c0 -2 8 -10 18 -17 15 -13 16 -12 3 4 -13 16 -21 21
-21 13z"/>
<path d="M15379 19553 c-13 -16 -12 -17 4 -4 9 7 17 15 17 17 0 8 -8 3 -21
-13z"/>
<path d="M24918 19473 c6 -2 18 -2 25 0 6 3 1 5 -13 5 -14 0 -19 -2 -12 -5z"/>
<path d="M25088 19473 c6 -2 18 -2 25 0 6 3 1 5 -13 5 -14 0 -19 -2 -12 -5z"/>
<path d="M14558 19373 c6 -2 18 -2 25 0 6 3 1 5 -13 5 -14 0 -19 -2 -12 -5z"/>
<path d="M14768 19373 c6 -2 18 -2 25 0 6 3 1 5 -13 5 -14 0 -19 -2 -12 -5z"/>
<path d="M33159 19343 c-13 -16 -12 -17 4 -4 16 13 21 21 13 21 -2 0 -10 -8
-17 -17z"/>
<path d="M33585 19340 c10 -11 20 -20 23 -20 3 0 -3 9 -13 20 -10 11 -20 20
-23 20 -3 0 3 -9 13 -20z"/>
<path d="M5961 19174 c-69 -116 -90 -299 -52 -439 79 -285 319 -550 591 -650
70 -26 88 -28 290 -34 182 -6 221 -10 254 -26 65 -32 104 -121 72 -169 -8 -13
-111 -104 -228 -202 -254 -212 -279 -235 -429 -384 -227 -226 -315 -349 -368
-519 -42 -132 -53 -204 -53 -351 0 -456 205 -799 601 -1004 322 -166 661 -188
1118 -72 56 14 108 26 117 26 24 0 25 -8 41 -350 17 -357 27 -403 147 -705 83
-207 80 -262 -14 -337 -87 -68 -173 -116 -311 -172 -116 -47 -162 -56 -354
-70 -127 -9 -177 -16 -196 -29 -39 -25 -72 -89 -162 -311 -100 -246 -111 -269
-170 -334 -65 -72 -136 -125 -303 -224 l-143 -85 -60 -89 c-67 -98 -148 -187
-194 -212 -16 -9 -66 -25 -110 -37 -80 -20 -80 -20 -121 -82 -62 -92 -103
-210 -149 -423 -16 -79 -20 -112 -12 -114 71 -18 367 -68 430 -73 145 -10 287
44 375 143 26 29 79 106 119 171 147 243 180 260 395 208 57 -14 126 -25 153
-25 83 0 183 27 281 75 107 52 194 115 329 240 200 183 247 205 469 213 151 5
228 -3 481 -49 88 -16 192 -29 232 -29 87 0 207 22 269 49 102 45 562 296 611
333 91 69 209 230 297 405 39 78 130 289 138 319 3 13 -178 157 -191 152 -5
-2 -50 -65 -101 -141 -196 -295 -331 -422 -565 -537 -110 -53 -220 -89 -365
-119 -152 -32 -277 -42 -555 -47 -362 -6 -524 -28 -735 -100 -250 -86 -460
-220 -651 -416 -59 -62 -69 -67 -89 -43 -20 24 15 107 80 189 143 180 360 324
610 405 196 63 341 86 684 107 432 25 649 72 891 190 187 91 333 226 469 436
135 207 185 366 255 814 43 272 76 433 90 447 14 14 78 -1 85 -19 3 -9 -3 -68
-13 -132 -33 -196 -44 -336 -38 -475 11 -283 73 -439 196 -501 132 -67 293
-67 701 -1 139 22 358 30 465 16 50 -7 180 -29 290 -51 110 -21 232 -41 270
-45 39 -4 77 -9 86 -10 9 -2 84 -7 166 -11 160 -7 222 1 296 38 83 41 92 73
57 188 -38 120 -52 194 -45 236 7 49 38 86 68 82 17 -2 28 -25 62 -133 59
-186 91 -241 215 -366 118 -119 244 -216 400 -307 151 -88 202 -126 293 -222
125 -130 190 -260 204 -402 14 -143 -107 -260 -378 -363 -117 -45 -238 -75
-305 -75 -82 0 -139 25 -215 97 -54 52 -78 84 -120 166 -103 201 -202 346
-279 409 -106 84 -278 89 -623 18 -109 -22 -129 -30 -151 -62 -23 -32 -20 -71
10 -130 50 -99 256 -443 280 -468 24 -24 29 -25 157 -25 164 0 176 -6 242
-119 108 -185 139 -227 204 -288 123 -114 263 -161 421 -140 160 20 740 226
1036 367 129 61 133 62 240 69 225 15 314 35 378 88 86 70 332 503 365 640 16
67 13 155 -7 213 -9 28 -60 122 -113 210 -117 194 -157 272 -223 434 l-51 124
-95 33 c-145 51 -249 46 -304 -14 -18 -21 -15 -27 187 -424 113 -222 213 -429
222 -462 24 -84 14 -141 -44 -253 -63 -118 -156 -256 -198 -294 -63 -55 -69
-40 -38 97 26 117 55 330 55 404 0 75 -95 267 -308 624 -118 198 -150 266
-158 338 -6 56 -6 58 27 91 30 30 49 38 134 57 298 66 366 94 427 175 102 133
230 453 283 705 30 142 35 155 60 155 26 0 34 -38 42 -180 13 -261 -55 -511
-203 -748 -24 -39 -44 -83 -44 -98 0 -39 35 -77 83 -90 88 -24 298 9 446 70
52 22 91 31 130 31 74 1 175 14 353 47 188 34 198 30 128 -62 -63 -84 -123
-208 -155 -320 l-25 -90 -124 -120 c-178 -172 -219 -230 -245 -347 -13 -57 -2
-93 33 -109 19 -9 37 -7 91 11 66 22 67 22 86 3 18 -18 17 -21 -68 -147 -86
-126 -88 -130 -91 -197 -3 -40 2 -99 12 -141 8 -40 18 -96 22 -125 8 -65 31
-104 85 -143 126 -91 299 -79 656 46 272 95 328 111 444 125 107 12 266 7 390
-12 156 -24 326 49 547 233 55 47 101 78 115 78 52 0 129 -51 242 -159 264
-254 505 -356 860 -368 138 -5 152 -4 174 14 29 23 31 68 5 93 -11 10 -79 50
-152 88 -199 107 -339 209 -431 316 -51 59 -62 79 -106 203 -67 184 -151 346
-288 553 -38 57 -64 106 -58 108 27 9 159 -76 237 -153 93 -93 148 -167 238
-325 36 -63 90 -144 120 -181 106 -129 276 -244 441 -300 59 -20 90 -24 196
-24 138 0 162 8 171 60 8 38 -8 53 -115 107 -136 68 -178 97 -268 188 -78 79
-159 196 -324 467 -80 131 -104 161 -207 263 l-117 115 -49 135 c-205 563
-331 1051 -381 1480 -35 290 -40 319 -80 440 -60 178 -114 279 -270 500 -195
279 -669 868 -829 1034 -59 61 -299 263 -1037 876 -303 251 -425 329 -641 411
-145 54 -252 73 -419 72 -103 0 -167 -6 -243 -22 -177 -37 -235 -65 -527 -251
-263 -168 -442 -246 -855 -377 -274 -87 -421 -145 -543 -215 -111 -63 -164
-106 -358 -287 -166 -155 -215 -192 -269 -209 -19 -6 -100 -13 -180 -17 -302
-13 -485 -62 -695 -186 -98 -58 -155 -101 -326 -250 -235 -203 -403 -311 -574
-368 -109 -36 -218 -55 -430 -76 -466 -46 -636 -123 -1178 -539 -231 -177
-287 -215 -477 -323 -318 -182 -535 -258 -776 -270 -143 -7 -232 9 -343 62
-213 102 -347 266 -386 470 -37 192 -1 382 109 570 53 91 225 264 466 470 261
222 382 336 469 440 121 146 158 253 149 438 -12 226 -108 368 -328 481 -165
84 -335 137 -632 196 -248 49 -308 74 -518 215 -91 61 -181 121 -201 133 l-37
22 -21 -36z m8977 -1625 c84 -41 180 -198 223 -364 19 -75 23 -115 22 -240 0
-192 -33 -385 -68 -399 -22 -8 -32 14 -55 129 -44 221 -97 409 -142 500 -11
22 -49 83 -85 136 -50 75 -64 105 -66 137 -2 51 20 91 58 108 42 18 62 17 113
-7z m2237 -1938 c49 -22 113 -92 166 -182 22 -36 71 -104 110 -149 141 -168
199 -296 207 -461 7 -165 -28 -287 -90 -308 -48 -17 -78 7 -78 62 -1 78 -27
233 -49 283 -48 108 -204 278 -289 316 -35 16 -49 17 -74 9 -48 -17 -116 -78
-170 -152 -68 -93 -91 -98 -108 -23 -23 99 -5 182 82 374 76 169 99 204 151
229 51 26 90 26 142 2z m-70 -1992 c44 -43 11 -259 -46 -302 -40 -29 -132 -47
-242 -47 -90 0 -100 2 -122 24 -21 21 -23 29 -15 58 24 82 143 218 231 264 72
37 158 38 194 3z"/>
<path d="M24830 19178 c-111 -39 -194 -96 -424 -291 -205 -174 -378 -306 -816
-624 -437 -317 -589 -433 -795 -602 -348 -286 -672 -615 -823 -834 -122 -178
-237 -418 -331 -691 -73 -210 -234 -780 -336 -1184 -196 -783 -335 -1125 -593
-1471 -117 -156 -345 -371 -500 -470 -56 -36 -72 -66 -54 -106 25 -54 219 -73
367 -35 198 51 294 142 564 535 230 335 349 458 345 359 -2 -47 -54 -147 -141
-270 -85 -121 -117 -180 -161 -294 -15 -41 -52 -111 -82 -155 -56 -83 -218
-253 -330 -344 -79 -65 -95 -89 -86 -125 14 -54 95 -68 247 -41 254 44 442
161 774 479 155 148 148 148 287 26 121 -107 204 -164 271 -186 45 -15 59 -15
180 1 73 9 195 19 272 21 l140 4 115 -39 c63 -21 238 -84 389 -140 162 -59
289 -101 310 -101 80 1 183 78 265 198 58 84 66 137 43 274 -27 155 -27 158
-9 159 10 1 59 2 110 3 89 1 95 2 118 29 29 34 30 66 5 138 -26 77 -53 127
-130 243 -105 160 -132 206 -158 276 -48 127 -121 234 -265 386 -127 134 -218
277 -234 367 -5 33 -4 37 14 37 22 0 40 -13 238 -171 144 -114 249 -179 351
-216 87 -32 311 -55 534 -57 195 -1 220 5 238 57 10 26 4 45 -48 161 -114 256
-190 501 -224 731 -20 134 -16 406 8 490 20 71 30 85 61 85 46 0 56 -36 75
-255 41 -480 99 -683 268 -934 72 -107 137 -166 284 -252 64 -39 132 -85 151
-104 58 -58 82 -167 52 -239 -8 -19 -91 -146 -184 -284 -210 -309 -244 -366
-277 -466 -25 -75 -27 -89 -23 -232 4 -175 0 -179 -56 -49 -90 208 -93 363
-12 509 19 34 104 166 189 293 85 127 159 246 166 263 10 30 8 34 -18 59 -36
34 -171 92 -229 99 -40 4 -45 2 -85 -40 -28 -29 -109 -167 -239 -404 -235
-427 -243 -451 -215 -592 29 -143 135 -498 166 -559 16 -32 42 -70 58 -85 30
-28 85 -47 118 -42 11 2 63 7 115 10 117 8 144 -3 240 -101 96 -98 104 -102
525 -215 121 -33 296 -85 389 -115 278 -93 390 -96 516 -14 131 85 201 187
245 358 13 50 30 102 39 116 18 27 70 45 135 45 86 0 138 40 247 190 56 76
163 261 174 301 13 44 -11 94 -52 108 -19 7 -139 11 -317 11 -279 0 -287 -1
-337 -24 -84 -39 -134 -109 -225 -320 -22 -50 -51 -108 -64 -128 -34 -51 -94
-87 -165 -100 -54 -9 -72 -7 -207 27 -81 20 -180 49 -219 64 -199 77 -315 219
-290 355 8 42 98 150 265 316 151 150 178 171 256 194 230 68 461 283 538 501
34 95 58 137 90 154 39 21 60 11 71 -33 12 -54 -5 -143 -55 -278 -22 -61 -38
-113 -34 -116 4 -4 73 -9 154 -10 181 -5 346 13 691 73 140 25 298 50 350 57
119 15 451 15 590 0 263 -29 475 -21 609 24 187 63 289 168 336 349 35 130 30
428 -12 695 -9 58 -16 128 -17 155 -1 47 1 50 26 53 32 4 44 -15 82 -136 57
-182 112 -429 147 -655 47 -315 136 -549 304 -802 231 -347 661 -528 1075
-454 79 15 251 18 354 8 371 -36 722 -219 968 -503 114 -132 81 -158 -60 -48
-353 276 -573 385 -857 426 -106 16 -296 14 -420 -3 -64 -9 -176 -18 -295 -25
-197 -12 -434 68 -620 208 -204 153 -425 436 -516 659 -15 38 -36 73 -47 78
-41 23 -117 -36 -117 -91 0 -38 36 -245 65 -370 76 -330 172 -469 449 -651 67
-44 153 -95 191 -114 149 -72 321 -93 490 -59 110 22 337 26 455 9 323 -48
621 -188 904 -426 39 -33 100 -74 136 -92 56 -27 79 -32 162 -35 l97 -4 111
52 c123 58 179 66 239 36 44 -23 66 -47 167 -181 172 -230 238 -265 492 -265
144 1 319 13 329 24 22 22 -52 327 -121 496 l-34 85 -57 7 c-71 9 -147 44
-202 92 -23 20 -94 101 -156 179 -128 159 -149 181 -302 322 -129 119 -133
126 -210 393 -69 241 -107 334 -156 383 -48 48 -82 57 -266 69 -234 16 -335
49 -412 137 -67 75 -78 164 -35 285 73 209 96 297 113 448 12 99 5 272 -12
335 -74 262 -81 309 -51 339 18 18 82 21 134 6 240 -72 501 -77 744 -16 341
87 623 329 754 648 102 247 80 515 -68 823 -140 292 -391 584 -769 895 -99 81
-135 156 -93 192 29 27 87 46 286 97 105 26 226 63 268 80 248 104 407 300
459 566 17 87 17 339 0 420 -18 88 -21 94 -41 105 -16 9 -30 0 -87 -51 -140
-128 -220 -163 -528 -232 -405 -91 -654 -219 -821 -423 -143 -173 -169 -370
-75 -570 67 -143 122 -208 504 -594 348 -351 411 -427 498 -605 106 -218 117
-400 31 -559 -35 -65 -162 -193 -227 -228 -28 -15 -91 -39 -140 -54 -79 -23
-107 -27 -230 -27 -336 -1 -516 77 -1165 503 -496 326 -645 408 -935 518 -210
79 -257 92 -537 152 -244 52 -402 100 -498 151 -30 16 -118 74 -195 129 -488
346 -573 388 -919 445 -188 32 -229 50 -418 187 -300 219 -414 289 -598 370
-189 83 -382 143 -695 213 -92 21 -177 46 -200 60 -44 25 -122 102 -209 207
-96 114 -379 313 -542 382 -129 54 -200 68 -359 72 -137 4 -156 3 -215 -18z
m136 -1212 c33 -23 57 -89 50 -133 -6 -33 -27 -57 -149 -173 -373 -353 -481
-479 -593 -693 -47 -92 -59 -108 -77 -105 -21 3 -22 8 -22 113 1 143 22 230
91 370 86 176 260 391 434 537 102 85 127 98 189 98 33 0 65 -6 77 -14z
m-2242 -2487 c53 -47 129 -163 205 -314 45 -88 56 -120 56 -158 0 -41 -5 -53
-28 -73 -53 -45 -118 -21 -168 64 -43 72 -69 92 -116 92 -51 0 -82 -14 -173
-78 -71 -51 -218 -178 -265 -230 -65 -73 -101 -147 -124 -254 -29 -138 -63
-173 -129 -130 -33 22 -37 180 -7 296 41 158 90 238 242 387 58 57 166 179
239 271 74 92 141 171 150 176 25 14 65 -3 118 -49z m-24 -1887 c144 -66 232
-245 156 -320 -34 -34 -135 -43 -201 -18 -75 29 -134 113 -154 221 -15 80 -14
88 11 120 20 26 25 27 82 22 34 -3 81 -14 106 -25z"/>
<path d="M26085 18990 c27 -27 51 -50 54 -50 3 0 -17 23 -44 50 -27 28 -51 50
-54 50 -3 0 17 -22 44 -50z"/>
<path d="M5613 18885 c0 -44 2 -61 4 -37 2 23 2 59 0 80 -2 20 -4 1 -4 -43z"/>
<path d="M26170 18896 c0 -2 8 -10 18 -17 15 -13 16 -12 3 4 -13 16 -21 21
-21 13z"/>
<path d="M26220 18836 c0 -2 8 -10 18 -17 15 -13 16 -12 3 4 -13 16 -21 21
-21 13z"/>
<path d="M7720 18737 c0 -2 15 -16 33 -33 l32 -29 -29 33 c-28 30 -36 37 -36
29z"/>
<path d="M12084 18278 l-19 -23 23 19 c12 11 22 21 22 23 0 8 -8 2 -26 -19z"/>
<path d="M7971 18204 c0 -11 3 -14 6 -6 3 7 2 16 -1 19 -3 4 -6 -2 -5 -13z"/>
<path d="M11954 18158 l-29 -33 33 29 c17 17 32 31 32 33 0 8 -8 1 -36 -29z"/>
<path d="M7972 18040 c0 -14 2 -19 5 -12 2 6 2 18 0 25 -3 6 -5 1 -5 -13z"/>
<path d="M33414 18028 l-29 -33 33 29 c30 28 37 36 29 36 -2 0 -16 -15 -33
-32z"/>
<path d="M6060 18026 c0 -2 8 -10 18 -17 15 -13 16 -12 3 4 -13 16 -21 21 -21
13z"/>
<path d="M11578 17993 c6 -2 18 -2 25 0 6 3 1 5 -13 5 -14 0 -19 -2 -12 -5z"/>
<path d="M11468 17983 c7 -3 16 -2 19 1 4 3 -2 6 -13 5 -11 0 -14 -3 -6 -6z"/>
<path d="M6544 17728 l-19 -23 23 19 c21 18 27 26 19 26 -2 0 -12 -10 -23 -22z"/>
<path d="M32955 17660 c21 -22 41 -40 44 -40 3 0 -13 18 -34 40 -21 22 -41 40
-44 40 -3 0 13 -18 34 -40z"/>
<path d="M6469 17663 l-24 -28 28 24 c15 14 27 26 27 28 0 8 -8 1 -31 -24z"/>
<path d="M6354 17558 l-29 -33 33 29 c17 17 32 31 32 33 0 8 -8 1 -36 -29z"/>
<path d="M33085 17530 c21 -22 41 -40 44 -40 3 0 -13 18 -34 40 -21 22 -41 40
-44 40 -3 0 13 -18 34 -40z"/>
<path d="M10519 17523 c-13 -16 -12 -17 4 -4 9 7 17 15 17 17 0 8 -8 3 -21
-13z"/>
<path d="M7684 17468 l-29 -33 33 29 c30 28 37 36 29 36 -2 0 -16 -15 -33 -32z"/>
<path d="M33180 17426 c0 -2 8 -10 18 -17 15 -13 16 -12 3 4 -13 16 -21 21
-21 13z"/>
<path d="M31875 17400 c10 -11 20 -20 23 -20 3 0 -3 9 -13 20 -10 11 -20 20
-23 20 -3 0 3 -9 13 -20z"/>
<path d="M6174 17378 l-29 -33 33 29 c30 28 37 36 29 36 -2 0 -16 -15 -33 -32z"/>
<path d="M7559 17343 l-34 -38 38 34 c20 19 37 36 37 38 0 8 -8 0 -41 -34z"/>
<path d="M6089 17283 c-13 -16 -12 -17 4 -4 9 7 17 15 17 17 0 8 -8 3 -21 -13z"/>
<path d="M7449 17243 c-13 -16 -12 -17 4 -4 16 13 21 21 13 21 -2 0 -10 -8
-17 -17z"/>
<path d="M6039 17223 c-13 -16 -12 -17 4 -4 16 13 21 21 13 21 -2 0 -10 -8
-17 -17z"/>
<path d="M7369 17173 c-13 -16 -12 -17 4 -4 16 13 21 21 13 21 -2 0 -10 -8
-17 -17z"/>
<path d="M7299 17113 c-13 -16 -12 -17 4 -4 16 13 21 21 13 21 -2 0 -10 -8
-17 -17z"/>
<path d="M9598 17113 c7 -3 16 -2 19 1 4 3 -2 6 -13 5 -11 0 -14 -3 -6 -6z"/>
<path d="M32300 16978 c97 -100 110 -113 110 -105 0 1 -48 50 -107 107 l-108
105 105 -107z"/>
<path d="M7159 16993 c-13 -16 -12 -17 4 -4 16 13 21 21 13 21 -2 0 -10 -8
-17 -17z"/>
<path d="M7079 16923 c-13 -16 -12 -17 4 -4 16 13 21 21 13 21 -2 0 -10 -8
-17 -17z"/>
<path d="M6949 16803 l-34 -38 38 34 c34 33 42 41 34 41 -2 0 -19 -17 -38 -37z"/>
<path d="M5761 16504 c0 -11 3 -14 6 -6 3 7 2 16 -1 19 -3 4 -6 -2 -5 -13z"/>
<path d="M6763 16390 c0 -30 2 -43 4 -27 2 15 2 39 0 55 -2 15 -4 2 -4 -28z"/>
<path d="M5762 16280 c0 -14 2 -19 5 -12 2 6 2 18 0 25 -3 6 -5 1 -5 -13z"/>
<path d="M33681 16204 c0 -11 3 -14 6 -6 3 7 2 16 -1 19 -3 4 -6 -2 -5 -13z"/>
<path d="M7228 15983 c7 -3 16 -2 19 1 4 3 -2 6 -13 5 -11 0 -14 -3 -6 -6z"/>
<path d="M33300 15425 c-24 -25 -42 -45 -39 -45 3 0 25 20 49 45 24 25 42 45
39 45 -3 0 -25 -20 -49 -45z"/>
<path d="M6210 15356 c0 -2 8 -10 18 -17 15 -13 16 -12 3 4 -13 16 -21 21 -21
13z"/>
<path d="M32068 15013 c7 -3 16 -2 19 1 4 3 -2 6 -13 5 -11 0 -14 -3 -6 -6z"/>
<path d="M32188 15003 c12 -2 30 -2 40 0 9 3 -1 5 -23 4 -22 0 -30 -2 -17 -4z"/>
<path d="M32268 15003 c12 -2 32 -2 45 0 12 2 2 4 -23 4 -25 0 -35 -2 -22 -4z"/>
<path d="M7438 14983 c7 -3 16 -2 19 1 4 3 -2 6 -13 5 -11 0 -14 -3 -6 -6z"/>
<path d="M7183 14973 c15 -2 37 -2 50 0 12 2 0 4 -28 4 -27 0 -38 -2 -22 -4z"/>
<path d="M7278 14973 c12 -2 32 -2 45 0 12 2 2 4 -23 4 -25 0 -35 -2 -22 -4z"/>
<path d="M7643 14925 c0 -22 2 -30 4 -17 2 12 2 30 0 40 -3 9 -5 -1 -4 -23z"/>
<path d="M32051 14924 c0 -11 3 -14 6 -6 3 7 2 16 -1 19 -3 4 -6 -2 -5 -13z"/>
<path d="M7651 14744 c0 -11 3 -14 6 -6 3 7 2 16 -1 19 -3 4 -6 -2 -5 -13z"/>
<path d="M32051 14664 c0 -11 3 -14 6 -6 3 7 2 16 -1 19 -3 4 -6 -2 -5 -13z"/>
<path d="M32078 14063 c6 -2 18 -2 25 0 6 3 1 5 -13 5 -14 0 -19 -2 -12 -5z"/>
<path d="M32238 14053 c7 -3 16 -2 19 1 4 3 -2 6 -13 5 -11 0 -14 -3 -6 -6z"/>
<path d="M7438 13993 c7 -3 16 -2 19 1 4 3 -2 6 -13 5 -11 0 -14 -3 -6 -6z"/>
<path d="M7268 13983 c6 -2 18 -2 25 0 6 3 1 5 -13 5 -14 0 -19 -2 -12 -5z"/>
<path d="M32565 13920 c10 -11 20 -20 23 -20 3 0 -3 9 -13 20 -10 11 -20 20
-23 20 -3 0 3 -9 13 -20z"/>
<path d="M6964 13858 l-29 -33 33 29 c30 28 37 36 29 36 -2 0 -16 -15 -33 -32z"/>
<path d="M11318 13713 c6 -2 18 -2 25 0 6 3 1 5 -13 5 -14 0 -19 -2 -12 -5z"/>
<path d="M11473 13713 c9 -2 25 -2 35 0 9 3 1 5 -18 5 -19 0 -27 -2 -17 -5z"/>
<path d="M11648 13703 c7 -3 16 -2 19 1 4 3 -2 6 -13 5 -11 0 -14 -3 -6 -6z"/>
<path d="M11858 13683 c7 -3 16 -2 19 1 4 3 -2 6 -13 5 -11 0 -14 -3 -6 -6z"/>
<path d="M12048 13663 c7 -3 16 -2 19 1 4 3 -2 6 -13 5 -11 0 -14 -3 -6 -6z"/>
<path d="M12188 13653 c6 -2 18 -2 25 0 6 3 1 5 -13 5 -14 0 -19 -2 -12 -5z"/>
<path d="M10768 13643 c7 -3 16 -2 19 1 4 3 -2 6 -13 5 -11 0 -14 -3 -6 -6z"/>
<path d="M12328 13643 c6 -2 18 -2 25 0 6 3 1 5 -13 5 -14 0 -19 -2 -12 -5z"/>
<path d="M12518 13643 c7 -3 16 -2 19 1 4 3 -2 6 -13 5 -11 0 -14 -3 -6 -6z"/>
<path d="M27643 13643 c9 -2 23 -2 30 0 6 3 -1 5 -18 5 -16 0 -22 -2 -12 -5z"/>
<path d="M27893 13643 c15 -2 39 -2 55 0 15 2 2 4 -28 4 -30 0 -43 -2 -27 -4z"/>
<path d="M28278 13633 c7 -3 16 -2 19 1 4 3 -2 6 -13 5 -11 0 -14 -3 -6 -6z"/>
<path d="M28398 13623 c7 -3 16 -2 19 1 4 3 -2 6 -13 5 -11 0 -14 -3 -6 -6z"/>
<path d="M28518 13613 c7 -3 16 -2 19 1 4 3 -2 6 -13 5 -11 0 -14 -3 -6 -6z"/>
<path d="M28838 13613 c7 -3 16 -2 19 1 4 3 -2 6 -13 5 -11 0 -14 -3 -6 -6z"/>
<path d="M26628 13553 c7 -3 16 -2 19 1 4 3 -2 6 -13 5 -11 0 -14 -3 -6 -6z"/>
<path d="M26968 13553 c6 -2 18 -2 25 0 6 3 1 5 -13 5 -14 0 -19 -2 -12 -5z"/>
<path d="M12363 13533 c9 -2 25 -2 35 0 9 3 1 5 -18 5 -19 0 -27 -2 -17 -5z"/>
<path d="M12493 13533 c9 -2 23 -2 30 0 6 3 -1 5 -18 5 -16 0 -22 -2 -12 -5z"/>
<path d="M12238 13523 c7 -3 16 -2 19 1 4 3 -2 6 -13 5 -11 0 -14 -3 -6 -6z"/>
<path d="M26848 13443 c79 -2 205 -2 280 0 75 1 11 3 -143 3 -154 0 -216 -2
-137 -3z"/>
<path d="M33208 13423 c7 -3 16 -2 19 1 4 3 -2 6 -13 5 -11 0 -14 -3 -6 -6z"/>
<path d="M33278 13423 c7 -3 16 -2 19 1 4 3 -2 6 -13 5 -11 0 -14 -3 -6 -6z"/>
<path d="M11659 13363 l-24 -28 28 24 c15 14 27 26 27 28 0 8 -8 1 -31 -24z"/>
<path d="M13295 13356 c-55 -7 -147 -14 -205 -15 -58 -2 -118 -4 -135 -6 -16
-2 -38 -3 -47 -4 -10 -1 -25 -12 -34 -26 -23 -35 -7 -69 62 -134 66 -62 88
-97 150 -232 87 -191 109 -214 208 -212 135 3 376 127 376 195 0 10 -16 49
-35 86 -20 36 -52 117 -71 180 -56 180 -75 192 -269 168z"/>
<path d="M27515 13340 c10 -11 20 -20 23 -20 3 0 -3 9 -13 20 -10 11 -20 20
-23 20 -3 0 3 -9 13 -20z"/>
<path d="M6505 13280 c10 -11 20 -20 23 -20 3 0 -3 9 -13 20 -10 11 -20 20
-23 20 -3 0 3 -9 13 -20z"/>
<path d="M26048 13270 c-113 -3 -208 -7 -211 -10 -15 -16 -68 -135 -86 -194
-44 -142 -17 -228 87 -280 18 -10 72 -26 120 -36 153 -34 250 -22 287 34 34
52 99 262 124 400 8 44 7 51 -15 72 -17 18 -33 23 -61 22 -21 -1 -131 -4 -245
-8z"/>
<path d="M6115 13144 c-55 -29 -187 -119 -290 -196 -87 -66 -109 -103 -110
-181 l0 -59 71 -68 c57 -54 80 -69 113 -75 76 -13 154 28 251 131 97 102 210
275 210 320 0 43 -126 154 -176 154 -12 0 -43 -12 -69 -26z"/>
<path d="M11563 13115 c0 -22 2 -30 4 -17 2 12 2 30 0 40 -3 9 -5 -1 -4 -23z"/>
<path d="M33173 13129 c-56 -28 -133 -111 -133 -144 0 -36 33 -97 102 -188 86
-113 176 -205 221 -229 53 -27 133 -26 188 2 46 24 119 93 149 142 58 95 -3
162 -373 411 -50 33 -96 35 -154 6z"/>
<path d="M5569 13093 l-34 -38 38 34 c20 19 37 36 37 38 0 8 -8 0 -41 -34z"/>
<path d="M33790 13126 c0 -2 8 -10 18 -17 15 -13 16 -12 3 4 -13 16 -21 21
-21 13z"/>
<path d="M10149 12883 l-34 -38 38 34 c20 19 37 36 37 38 0 8 -8 0 -41 -34z"/>
<path d="M29370 12856 c0 -2 8 -10 18 -17 15 -13 16 -12 3 4 -13 16 -21 21
-21 13z"/>
<path d="M29490 12736 c0 -2 8 -10 18 -17 15 -13 16 -12 3 4 -13 16 -21 21
-21 13z"/>
<path d="M5429 12568 c-108 -78 -133 -126 -148 -288 -15 -159 -33 -222 -81
-285 -36 -46 -46 -74 -42 -117 2 -20 107 -64 251 -106 l103 -30 22 21 c14 14
39 79 69 182 27 88 67 222 91 297 l43 137 -19 33 c-26 43 -136 156 -170 174
-41 21 -71 17 -119 -18z"/>
<path d="M33815 12551 c-102 -49 -158 -128 -148 -210 2 -20 15 -70 28 -111 25
-78 85 -313 105 -413 6 -32 22 -70 35 -85 l23 -27 176 58 c119 39 180 65 190
79 20 28 11 67 -39 183 -35 81 -46 122 -60 220 -23 173 -39 221 -88 271 -40
39 -94 64 -142 64 -11 0 -47 -13 -80 -29z"/>
<path d="M8258 12453 c7 -3 16 -2 19 1 4 3 -2 6 -13 5 -11 0 -14 -3 -6 -6z"/>
<path d="M8438 12453 c6 -2 18 -2 25 0 6 3 1 5 -13 5 -14 0 -19 -2 -12 -5z"/>
<path d="M27264 12428 l-19 -23 23 19 c21 18 27 26 19 26 -2 0 -12 -10 -23
-22z"/>
<path d="M5011 12374 c0 -11 3 -14 6 -6 3 7 2 16 -1 19 -3 4 -6 -2 -5 -13z"/>
<path d="M9008 12373 c12 -2 30 -2 40 0 9 3 -1 5 -23 4 -22 0 -30 -2 -17 -4z"/>
<path d="M8054 12338 l-29 -33 33 29 c17 17 32 31 32 33 0 8 -8 1 -36 -29z"/>
<path d="M30268 12353 c7 -3 16 -2 19 1 4 3 -2 6 -13 5 -11 0 -14 -3 -6 -6z"/>
<path d="M30428 12353 c6 -2 18 -2 25 0 6 3 1 5 -13 5 -14 0 -19 -2 -12 -5z"/>
<path d="M15350 12306 c0 -2 8 -10 18 -17 15 -13 16 -12 3 4 -13 16 -21 21
-21 13z"/>
<path d="M34391 12294 c0 -11 3 -14 6 -6 3 7 2 16 -1 19 -3 4 -6 -2 -5 -13z"/>
<path d="M23939 12243 c-13 -16 -12 -17 4 -4 9 7 17 15 17 17 0 8 -8 3 -21
-13z"/>
<path d="M7939 12233 c-13 -16 -12 -17 4 -4 9 7 17 15 17 17 0 8 -8 3 -21 -13z"/>
<path d="M15410 12236 c0 -2 8 -10 18 -17 15 -13 16 -12 3 4 -13 16 -21 21
-21 13z"/>
<path d="M24788 12203 c7 -3 16 -2 19 1 4 3 -2 6 -13 5 -11 0 -14 -3 -6 -6z"/>
<path d="M14638 12173 c7 -3 16 -2 19 1 4 3 -2 6 -13 5 -11 0 -14 -3 -6 -6z"/>
<path d="M23864 12158 l-19 -23 23 19 c21 18 27 26 19 26 -2 0 -12 -10 -23
-22z"/>
<path d="M14518 12163 c6 -2 18 -2 25 0 6 3 1 5 -13 5 -14 0 -19 -2 -12 -5z"/>
<path d="M15495 12140 c10 -11 20 -20 23 -20 3 0 -3 9 -13 20 -10 11 -20 20
-23 20 -3 0 3 -9 13 -20z"/>
<path d="M23735 12018 l-50 -53 53 50 c28 27 52 51 52 52 0 8 -9 -1 -55 -49z"/>
<path d="M31660 12056 c0 -2 8 -10 18 -17 15 -13 16 -12 3 4 -13 16 -21 21
-21 13z"/>
<path d="M12460 12036 c0 -2 8 -10 18 -17 15 -13 16 -12 3 4 -13 16 -21 21
-21 13z"/>
<path d="M15700 11925 c52 -52 97 -95 100 -95 2 0 -38 43 -90 95 -52 52 -97
95 -100 95 -2 0 38 -43 90 -95z"/>
<path d="M31720 12006 c0 -2 8 -10 18 -17 15 -13 16 -12 3 4 -13 16 -21 21
-21 13z"/>
<path d="M26804 11928 l-19 -23 23 19 c21 18 27 26 19 26 -2 0 -12 -10 -23
-22z"/>
<path d="M7213 11923 c9 -2 25 -2 35 0 9 3 1 5 -18 5 -19 0 -27 -2 -17 -5z"/>
<path d="M12590 11906 c0 -2 8 -10 18 -17 15 -13 16 -12 3 4 -13 16 -21 21
-21 13z"/>
<path d="M23555 11838 l-40 -43 43 40 c39 36 47 45 39 45 -2 0 -21 -19 -42
-42z"/>
<path d="M32128 11823 c7 -3 16 -2 19 1 4 3 -2 6 -13 5 -11 0 -14 -3 -6 -6z"/>
<path d="M32258 11823 c7 -3 16 -2 19 1 4 3 -2 6 -13 5 -11 0 -14 -3 -6 -6z"/>
<path d="M15895 11740 c10 -11 20 -20 23 -20 3 0 -3 9 -13 20 -10 11 -20 20
-23 20 -3 0 3 -9 13 -20z"/>
<path d="M32650 11736 c0 -2 8 -10 18 -17 15 -13 16 -12 3 4 -13 16 -21 21
-21 13z"/>
<path d="M23419 11713 c-13 -16 -12 -17 4 -4 16 13 21 21 13 21 -2 0 -10 -8
-17 -17z"/>
<path d="M6779 11673 c-13 -16 -12 -17 4 -4 16 13 21 21 13 21 -2 0 -10 -8
-17 -17z"/>
<path d="M4960 11676 c0 -2 8 -10 18 -17 15 -13 16 -12 3 4 -13 16 -21 21 -21
13z"/>
<path d="M23339 11643 c-13 -16 -12 -17 4 -4 16 13 21 21 13 21 -2 0 -10 -8
-17 -17z"/>
<path d="M6699 11593 c-13 -16 -12 -17 4 -4 9 7 17 15 17 17 0 8 -8 3 -21 -13z"/>
<path d="M5678 11503 c7 -3 16 -2 19 1 4 3 -2 6 -13 5 -11 0 -14 -3 -6 -6z"/>
<path d="M33508 11473 c12 -2 30 -2 40 0 9 3 -1 5 -23 4 -22 0 -30 -2 -17 -4z"/>
<path d="M33158 11463 c6 -2 18 -2 25 0 6 3 1 5 -13 5 -14 0 -19 -2 -12 -5z"/>
<path d="M33353 11463 c9 -2 23 -2 30 0 6 3 -1 5 -18 5 -16 0 -22 -2 -12 -5z"/>
<path d="M33848 11433 c12 -2 30 -2 40 0 9 3 -1 5 -23 4 -22 0 -30 -2 -17 -4z"/>
<path d="M6218 11423 c7 -3 16 -2 19 1 4 3 -2 6 -13 5 -11 0 -14 -3 -6 -6z"/>
<path d="M19178 10303 c7 -3 16 -2 19 1 4 3 -2 6 -13 5 -11 0 -14 -3 -6 -6z"/>
<path d="M20158 10303 c7 -3 16 -2 19 1 4 3 -2 6 -13 5 -11 0 -14 -3 -6 -6z"/>
<path d="M19308 10293 c6 -2 18 -2 25 0 6 3 1 5 -13 5 -14 0 -19 -2 -12 -5z"/>
<path d="M20018 10293 c6 -2 18 -2 25 0 6 3 1 5 -13 5 -14 0 -19 -2 -12 -5z"/>
<path d="M19513 10284 c7 -7 148 -6 155 1 3 3 -32 5 -78 5 -46 0 -81 -3 -77
-6z"/>
<path d="M19702 10284 c3 -3 36 -5 73 -5 37 0 70 2 73 5 3 3 -30 6 -73 6 -43
0 -76 -3 -73 -6z"/>
<path d="M16818 6496 l-3 -1933 -110 95 c-625 537 -1450 692 -2210 415 -609
-223 -1136 -757 -1390 -1408 -135 -344 -190 -645 -189 -1030 1 -319 38 -557
130 -840 216 -662 656 -1186 1243 -1479 618 -309 1366 -299 1971 26 177 96
321 196 478 336 l82 73 0 -265 0 -266 780 0 780 0 0 4105 0 4105 -780 0 -780
0 -2 -1934z m-898 -2590 c332 -79 608 -300 768 -614 103 -201 145 -379 145
-612 0 -233 -42 -411 -145 -612 -276 -541 -878 -777 -1411 -552 -171 72 -372
238 -489 404 -100 141 -182 340 -214 520 -23 127 -23 353 0 480 31 175 103
353 204 505 62 94 207 242 296 304 138 95 314 168 461 191 84 13 307 5 385
-14z"/>
<path d="M32620 4325 l0 -4105 785 0 785 0 0 4105 0 4105 -785 0 -785 0 0
-4105z"/>
<path d="M35260 4325 l0 -4105 785 0 785 0 0 4105 0 4105 -785 0 -785 0 0
-4105z"/>
<path d="M1540 4140 l0 -3920 835 0 835 0 0 3240 0 3240 474 0 c593 0 647 -7
881 -121 258 -125 457 -370 531 -654 36 -138 38 -328 5 -460 -76 -302 -285
-549 -586 -691 -180 -86 -353 -114 -697 -114 l-188 0 0 -938 0 -937 103 -157
c56 -87 145 -224 197 -305 52 -81 131 -203 175 -270 44 -68 130 -200 190 -293
61 -94 142 -219 180 -278 39 -60 117 -181 175 -271 58 -89 155 -239 217 -334
61 -95 140 -217 176 -272 36 -55 106 -164 157 -242 l93 -143 980 0 c873 0 979
2 973 15 -3 9 -514 740 -1136 1626 -622 886 -1132 1615 -1133 1620 -1 6 48 26
110 44 1202 368 1899 1579 1597 2777 -243 965 -1102 1674 -2117 1748 -62 4
-768 8 -1569 9 l-1458 1 0 -3920z"/>
<path d="M20517 8053 c-4 -3 -7 -1767 -7 -3920 l0 -3914 1833 4 c1661 3 1842
5 1935 20 585 96 1049 324 1427 702 352 351 569 784 631 1258 20 154 15 537
-11 697 -80 510 -297 887 -691 1200 -150 119 -509 337 -612 371 l-32 11 95
100 c168 176 294 359 396 573 373 785 195 1720 -444 2332 -348 332 -901 525
-1610 562 -185 10 -2901 14 -2910 4z m2866 -1369 c102 -22 258 -100 342 -171
138 -116 254 -302 297 -478 44 -180 24 -391 -52 -554 -81 -172 -243 -330 -418
-408 -127 -56 -196 -64 -548 -65 l-324 -2 0 -707 0 -708 573 -3 572 -4 96 -26
c94 -26 220 -83 295 -133 180 -122 322 -323 389 -550 36 -120 45 -325 21 -461
-65 -377 -291 -649 -631 -763 -181 -60 -192 -61 -1036 -61 l-769 0 0 2555 0
2555 561 0 c473 0 571 -2 632 -16z"/>
<path d="M9499 5278 c-1086 -56 -2039 -837 -2334 -1913 -229 -835 -31 -1740
524 -2397 436 -517 1041 -839 1709 -909 163 -17 558 -6 732 20 713 106 1295
423 1693 921 80 99 210 297 205 311 -3 10 -1196 568 -1249 584 -12 4 -26 -10
-49 -52 -159 -282 -451 -474 -795 -523 -264 -37 -549 28 -772 176 -261 174
-433 475 -433 759 l0 75 1719 0 1719 0 7 118 c11 162 -1 554 -20 692 -45 333
-120 587 -251 856 -108 223 -248 418 -430 599 -479 478 -1190 724 -1975 683z
m341 -1114 c396 -75 696 -377 765 -771 8 -47 15 -101 15 -119 l0 -34 -951 0
-952 0 7 73 c30 311 196 575 464 736 83 49 231 104 324 120 86 14 240 12 328
-5z"/>
<path d="M26893 3418 l3 -1663 22 -97 c129 -563 522 -1026 1117 -1318 312
-153 651 -247 1009 -281 177 -17 577 -6 743 19 928 145 1669 686 1903 1391 81
243 74 66 77 1939 l3 1672 -770 0 -770 0 -1 -477 c0 -263 -2 -923 -3 -1468 -3
-979 -3 -991 -25 -1070 -105 -388 -450 -648 -861 -647 -245 0 -446 78 -617
236 -119 110 -198 236 -245 388 l-23 73 -3 1483 -2 1482 -780 0 -781 0 4
-1662z"/>
</g>
</svg>
