<?xml version="1.0" encoding="UTF-8"?>
<svg version="1.1" xmlns="http://www.w3.org/2000/svg" width="1200" height="630">
<path d="M0 0 C1.28890137 0.01788574 2.57780273 0.03577148 3.90576172 0.05419922 C46.44246534 0.71539482 89.10847916 3.70931402 131.02734375 11.14453125 C134.94647005 11.83751632 138.85741335 12.36118336 142.8125 12.8125 C169.39153614 16.56370293 199.66658483 25.51443606 223 39 C223.7204248 39.39767578 224.44084961 39.79535156 225.18310547 40.20507812 C239.63575818 48.19873447 255.67070847 59.21810032 261.25 75.625 C261.56453125 76.52476562 261.8790625 77.42453125 262.203125 78.3515625 C266.5742328 92.87906783 263.79513742 107.17227035 257.7890625 120.734375 C246.56467365 141.00630153 227.49473806 158.56203123 208.7734375 171.74365234 C206.189403 173.57424727 203.6634221 175.48187903 201.125 177.375 C197.10518755 180.28383902 192.99026199 182.88872337 188.703125 185.3828125 C186.14741206 186.91180839 183.66128444 188.52473603 181.17700195 190.16650391 C174.74254056 194.40557223 168.15944972 198.14961723 161.31811523 201.69238281 C156.79995256 204.03335744 152.38830343 206.48588147 148 209.0625 C142.69195436 212.13005661 137.29322106 214.88178458 131.75 217.5 C131.01007812 217.85070557 130.27015625 218.20141113 129.5078125 218.56274414 C124.25852738 221 124.25852738 221 122 221 C122.54886336 218.07272874 123.20922264 215.25264664 124.01318359 212.38085938 C125.14327441 207.87180346 125.34655753 203.53871844 125.4140625 198.90625 C125.44052856 197.79781738 125.44052856 197.79781738 125.4675293 196.66699219 C125.52990427 193.94487 125.57656597 191.22240592 125.625 188.5 C125.74875 182.395 125.8725 176.29 126 170 C113.13 170 100.26 170 87 170 C87 174.95 87 179.9 87 185 C90.96 185 94.92 185 99 185 C99.08104454 188.56295812 99.14052442 192.12406707 99.1875 195.6875 C99.22520508 197.19860352 99.22520508 197.19860352 99.26367188 198.74023438 C99.35708722 208.17518378 99.35708722 208.17518378 96 212 C92.9573561 214.93972148 90.7515071 215.43169 86.5625 215.4375 C82.89027339 215.32978135 81.20791312 215.11456437 77.9375 213.3125 C74.47419324 209.17887581 73.74943252 205.43935353 73.7253418 200.12744141 C73.71580978 198.96918854 73.70627777 197.81093567 73.69645691 196.61758423 C73.69736832 195.37479706 73.69827972 194.13200989 73.69921875 192.8515625 C73.69279106 190.9227272 73.69279106 190.9227272 73.68623352 188.95492554 C73.6787871 186.23650991 73.67905068 183.51822419 73.68432617 180.79980469 C73.69011356 177.33092629 73.67320057 173.8625831 73.6499815 170.39379311 C73.63162941 167.06719467 73.63543102 163.74071118 73.63671875 160.4140625 C73.627509 159.17532379 73.61829926 157.93658508 73.60881042 156.66030884 C73.64251933 150.35796933 73.81120963 145.51111943 77 140 C80.60954028 136.70894857 84.15315235 136.542997 88.84765625 136.70703125 C91.82074323 137.11171641 93.68989692 138.10991566 96 140 C99.4162061 145.12430915 99 148.68776709 99 155 C112.365 155.495 112.365 155.495 126 156 C125.04982435 139.90948077 125.04982435 139.90948077 116.8125 126.6875 C105.20159093 117.82589709 90.24238996 116.84083003 76.1875 118.625 C67.64002923 120.15523773 59.37917452 124.05552221 53 130 C51.59953634 132.52654289 51.59953634 132.52654289 50.75 135.3125 C50.43546875 136.21613281 50.1209375 137.11976563 49.796875 138.05078125 C47.7581257 145.59615242 47.83936445 153.02948148 47.83203125 160.80078125 C47.82870285 162.03233444 47.82537445 163.26388763 47.82194519 164.53276062 C47.81689401 167.13243233 47.8145363 169.7321105 47.81469727 172.33178711 C47.81251333 176.28835853 47.79434491 180.24464981 47.77539062 184.20117188 C47.77245574 186.73437405 47.77047158 189.26757755 47.76953125 191.80078125 C47.76234573 192.97401443 47.75516022 194.14724762 47.74775696 195.35603333 C47.77551114 205.43997888 48.16907072 217.0450084 55.65234375 224.6875 C65.86512612 233.04151421 77.37678181 233.70402771 90 234 C90.33 234.66 90.66 235.32 91 236 C86.86294584 237.76737928 82.72259661 239.52675481 78.5793457 241.27954102 C77.17742839 241.87383379 75.77635046 242.47011148 74.3762207 243.06860352 C65.86417753 246.70526156 57.35094159 249.97360225 48.54370117 252.82250977 C43.09271072 254.63374827 37.77611038 256.75992999 32.4375 258.875 C22.83815948 262.61507431 13.21012536 265.98406322 3.3671875 269.015625 C-1.75120977 270.59389606 -6.84199888 272.24800455 -11.9296875 273.921875 C-41.26510813 283.56419864 -41.26510813 283.56419864 -51.68896484 286.13378906 C-56.78018764 287.39373236 -61.82086786 288.7965888 -66.85546875 290.265625 C-81.81184931 294.62680759 -96.73520952 298.8133259 -111.93994141 302.24121094 C-119.62498326 303.97449739 -127.28125427 305.79436856 -134.92578125 307.69921875 C-135.89237671 307.93924118 -136.85897217 308.17926361 -137.8548584 308.42655945 C-143.65349058 309.86676637 -143.65349058 309.86676637 -149.44818115 311.32272339 C-163.69418392 314.92096711 -177.99675966 317.75364388 -192.4559021 320.35308838 C-198.47065911 321.45097459 -204.47132587 322.6203595 -210.47265625 323.7890625 C-211.67379562 324.02223175 -212.874935 324.255401 -214.11247253 324.49563599 C-218.99944933 325.44461081 -223.88604611 326.395516 -228.7722168 327.34863281 C-247.71946304 331.04187778 -266.5577932 334.52228677 -285.72332764 336.85058594 C-292.72787462 337.70355599 -299.71539022 338.64012649 -306.69921875 339.6484375 C-307.66825638 339.78802383 -308.63729401 339.92761017 -309.63569641 340.07142639 C-311.62697084 340.35841794 -313.61822735 340.6455339 -315.60946655 340.93276978 C-333.44036733 343.49458835 -351.28162638 345.83883061 -369.1875 347.8125 C-370.52498795 347.96087311 -370.52498795 347.96087311 -371.88949585 348.11224365 C-377.9228655 348.77742341 -383.95930578 349.40505694 -390 350 C-390.87727753 350.08657867 -391.75455505 350.17315735 -392.65841675 350.26235962 C-409.30933718 351.87602829 -425.97975362 352.77282846 -442.6875 353.5625 C-444.04081769 353.62745886 -445.39412982 353.69253364 -446.74743652 353.75772095 C-516.82003106 357.1251371 -588.46671217 358.81479649 -658 348 C-659.18561523 347.81711426 -660.37123047 347.63422852 -661.59277344 347.44580078 C-678.25748035 344.81202393 -694.55978387 341.10151007 -710.87109375 336.81103516 C-713.99010828 336.00256401 -717.11831414 335.2420569 -720.25 334.484375 C-725.28945185 333.22699208 -730.14111183 331.70441201 -735 329.875 C-735.79543213 329.577146 -736.59086426 329.27929199 -737.41040039 328.97241211 C-761.38238479 319.8345417 -789.32614806 307.27296681 -800.58984375 282.50390625 C-806.41743835 267.75917924 -804.7952887 253.41410857 -799 239 C-794.94527625 230.35730098 -789.24202354 223.16245752 -783 216 C-781.95199219 214.76830078 -781.95199219 214.76830078 -780.8828125 213.51171875 C-764.32995776 194.50322072 -743.21999319 178.9993294 -721.46484375 166.4296875 C-719.5853617 165.33952834 -717.72697156 164.21292109 -715.87890625 163.0703125 C-705.53576288 156.6782208 -694.80553299 151.11204523 -683.99707031 145.55371094 C-680.97355645 143.9862914 -677.96550235 142.39247418 -674.9609375 140.7890625 C-674.00074707 140.27843262 -673.04055664 139.76780273 -672.05126953 139.24169922 C-670.21911146 138.26605987 -668.38925247 137.28608757 -666.56201172 136.30126953 C-665.7423291 135.86669434 -664.92264648 135.43211914 -664.078125 134.984375 C-663.36043945 134.59991211 -662.64275391 134.21544922 -661.90332031 133.81933594 C-660 133 -660 133 -657 133 C-657.32097656 133.98355469 -657.64195312 134.96710938 -657.97265625 135.98046875 C-660.29143807 144.15268564 -660.60666819 154.6631709 -657.125 162.5 C-650.71042971 173.1246967 -639.61092549 179.30444059 -628.76586914 184.55053711 C-621.16943557 188.23565437 -614.05701701 191.95394808 -608.875 198.8125 C-607.62070104 203.38173192 -607.82861686 207.41666865 -609 212 C-611.23937831 215.0604837 -612.41016349 215.80338783 -616 217 C-621.21930524 217.39390983 -624.58177416 216.87698427 -629 214 C-631 210 -631 210 -631 196 C-640.9 196 -650.8 196 -661 196 C-660.81031046 211.82460816 -660.81031046 211.82460816 -653 225 C-653 225.66 -653 226.32 -653 227 C-652.2265625 227.37125 -652.2265625 227.37125 -651.4375 227.75 C-649 229 -649 229 -645.875 231 C-638.08851567 235.44047267 -628.85847657 235.35973051 -620.125 235.3125 C-619.06941895 235.30831055 -618.01383789 235.30412109 -616.92626953 235.29980469 C-607.29257117 235.15990547 -597.57615927 234.67423555 -590 228 C-581.88479775 219.3638218 -580.42360154 210.14486401 -580.7265625 198.55078125 C-581.44699949 189.19539229 -584.89779241 183.16058909 -592 177 C-599.53683755 171.40727304 -607.36701661 166.58726004 -615.99389648 162.89135742 C-621.75966055 160.3294973 -627.82690318 156.55291943 -631 151 C-632.41649923 146.51752545 -632.44143462 143.88286923 -630.3125 139.625 C-627.67804613 136.63453885 -625.82857624 135.15701549 -621.81640625 134.8125 C-617.49178794 135.17226028 -615.42054118 135.66528355 -611.9375 138.4375 C-610 142 -610 142 -610 152 C-601.09 152 -592.18 152 -583 152 C-583.42601305 137.45101119 -583.42601305 137.45101119 -591.125 125.6875 C-599.40661137 119.36686215 -608.88081862 118.10815243 -619 117 C-617.51001812 114.02003624 -615.41364257 113.79791364 -612.33984375 112.609375 C-611.16172119 112.15014648 -609.98359863 111.69091797 -608.76977539 111.21777344 C-607.49246817 110.72820788 -606.21504053 110.2389564 -604.9375 109.75 C-603.63971393 109.24818314 -602.34210676 108.74590333 -601.04467773 108.24316406 C-598.49732901 107.25782286 -595.94830325 106.27704219 -593.39746094 105.30078125 C-590.70267088 104.26903065 -588.01073547 103.23054869 -585.3203125 102.1875 C-577.35789366 99.12587837 -569.30238007 96.4041038 -561.19750977 93.74731445 C-555.67539139 91.9268742 -550.20954139 89.99434631 -544.76074219 87.96533203 C-536.3021898 84.81618934 -527.85585019 81.96420703 -519.15356445 79.57006836 C-512.950541 77.85836508 -506.78505831 76.04383418 -500.62890625 74.171875 C-468.56745944 64.42678821 -468.56745944 64.42678821 -452.296875 60.54296875 C-447.36617038 59.35891887 -442.47153297 58.06591369 -437.578125 56.73828125 C-416.52540874 51.03999029 -395.40527154 46.11071275 -374.04989624 41.68444824 C-367.66430443 40.35806202 -361.2914052 38.97945104 -354.921875 37.578125 C-352.16459112 36.97473671 -349.40719234 36.37187567 -346.64978027 35.76907349 C-344.93511593 35.39273914 -343.22096609 35.01404964 -341.50744629 34.63253784 C-330.4057565 32.16426904 -319.29287541 30.19827993 -308.04440308 28.51980591 C-300.38987981 27.37707614 -292.75830429 26.13887957 -285.1328125 24.81640625 C-284.07431595 24.63314285 -283.0158194 24.44987946 -281.92524719 24.26106262 C-279.76506502 23.88667925 -277.60493456 23.51199739 -275.44485474 23.13702393 C-245.58536642 17.96963203 -215.78693208 13.43091741 -185.60446167 10.63046265 C-179.57436839 10.06589198 -173.55106399 9.44102854 -167.52734375 8.8125 C-146.93261526 6.67373994 -126.34582008 4.66882853 -105.6875 3.25 C-104.83459381 3.19110596 -103.98168762 3.13221191 -103.10293579 3.0715332 C-84.39863459 1.79515884 -65.67858712 0.92695898 -46.9375 0.4375 C-45.75235809 0.40623016 -45.75235809 0.40623016 -44.54327393 0.37432861 C-29.69317314 -0.01038133 -14.85512515 -0.20634901 0 0 Z M-286.46484375 127.16015625 C-292.70239448 134.63569415 -294.80157682 143.47182271 -294 153 C-292.69478682 160.73548363 -289.5917819 165.60750592 -284 171 C-283.24783203 171.76570313 -283.24783203 171.76570313 -282.48046875 172.546875 C-277.31658143 177.41008028 -270.97169239 180.59178442 -264.80761719 183.99755859 C-262.00134667 185.55381828 -259.21743012 187.14725017 -256.4375 188.75 C-255.50808594 189.28109375 -254.57867188 189.8121875 -253.62109375 190.359375 C-248.55604197 193.52975018 -244.93318271 196.20045187 -243 202 C-243.01410283 206.51995546 -243.5707883 210.7123649 -245 215 C-247.43816585 215.0809723 -249.87364384 215.14046972 -252.3125 215.1875 C-253.00279297 215.21263672 -253.69308594 215.23777344 -254.40429688 215.26367188 C-259.51091074 215.33768077 -259.51091074 215.33768077 -261.91796875 213.67578125 C-265.43716746 208.22546989 -264.47583915 202.81409104 -265 196 C-274.9 196 -284.8 196 -295 196 C-295 208.89785535 -294.16259121 217.70203063 -285.1875 227.25 C-275.96514294 236.01546965 -263.13058361 236.44196319 -250.95703125 236.25390625 C-239.27853867 235.50454592 -229.21221997 233.85239949 -220.8125 225 C-214.41184231 217.52236741 -213.43539817 208.40547258 -213.7109375 198.82421875 C-214.68908297 189.26747316 -219.12147053 182.05685814 -226.41015625 175.921875 C-233.89509504 170.36744078 -242.11070171 165.83852003 -250.5 161.8125 C-255.66898857 159.30822618 -261.3282776 156.34344479 -264 151 C-264.09585131 149.35643193 -264.12983511 147.70885358 -264.125 146.0625 C-264.12886719 144.74958984 -264.12886719 144.74958984 -264.1328125 143.41015625 C-264 141 -264 141 -263 138 C-260.11079306 137.03693102 -258.07752119 136.8044064 -255.0625 136.75 C-254.20785156 136.72421875 -253.35320313 136.6984375 -252.47265625 136.671875 C-250 137 -250 137 -246 140 C-245.505 146.435 -245.505 146.435 -245 153 C-235.76 153 -226.52 153 -217 153 C-216.60787579 138.5580108 -216.60787579 138.5580108 -223.25 126.41015625 C-239.37878445 113.41352413 -270.82590195 112.63035926 -286.46484375 127.16015625 Z M-188 120 C-188.04529314 131.17068095 -188.08194051 142.34130031 -188.10362434 153.51205254 C-188.11403464 158.69980167 -188.12814331 163.88748439 -188.15087891 169.07519531 C-188.17270578 174.08726779 -188.18458931 179.09927662 -188.18975449 184.11139297 C-188.19343263 186.01782355 -188.20061487 187.92425087 -188.21146011 189.83065414 C-188.592767 210.33268972 -188.592767 210.33268972 -178.51953125 227.56640625 C-169.78990782 235.40668466 -159.68774049 235.18163946 -148.6875 235.1875 C-147.48931641 235.19974609 -146.29113281 235.21199219 -145.05664062 235.22460938 C-134.5568794 235.24196435 -125.37032795 234.28159617 -117.375 226.8125 C-110.12587722 219.22658169 -108.84227103 211.29661735 -108.88647461 201.1706543 C-108.88632858 200.29210281 -108.88618256 199.41355133 -108.8860321 198.50837708 C-108.88672701 195.61363224 -108.89449964 192.7189523 -108.90234375 189.82421875 C-108.90420943 187.81354304 -108.90563263 185.80286688 -108.90663147 183.79219055 C-108.91044483 178.50681294 -108.92026505 173.22146292 -108.93133545 167.93609619 C-108.94157495 162.54008355 -108.94613453 157.14406644 -108.95117188 151.74804688 C-108.96188837 141.16535053 -108.97947563 130.58268188 -109 120 C-118.24 120 -127.48 120 -137 120 C-137.01458252 122.63436035 -137.02916504 125.2687207 -137.04418945 127.98291016 C-137.09455322 136.69220889 -137.16115156 145.40132916 -137.23571491 154.11045265 C-137.28041968 159.39018855 -137.31967571 164.66984726 -137.34643555 169.94970703 C-137.37246726 175.04620498 -137.41286906 180.14240592 -137.46318626 185.23871994 C-137.47985581 187.18190183 -137.49136954 189.12513509 -137.49761391 191.06837845 C-137.50725395 193.79280902 -137.53531219 196.5164796 -137.56762695 199.24072266 C-137.56619186 200.04201599 -137.56475677 200.84330933 -137.5632782 201.66888428 C-137.64393736 206.48530551 -138.34563108 209.82230593 -141 214 C-143.40513021 215.20256511 -145.12853564 215.2703777 -147.8125 215.375 C-148.66457031 215.42398438 -149.51664063 215.47296875 -150.39453125 215.5234375 C-154.26729368 214.74540127 -155.57277339 213.08113534 -158 210 C-158.72499113 207.05504871 -158.69107032 204.19231212 -158.65942383 201.1706543 C-158.66990753 200.29210281 -158.68039124 199.41355133 -158.69119263 198.50837708 C-158.71992387 195.61329753 -158.71365339 192.71941522 -158.70703125 189.82421875 C-158.72014745 187.81352745 -158.73545143 185.80284933 -158.75285339 183.79219055 C-158.79272528 178.50675515 -158.80289528 173.22166426 -158.80688477 167.93609619 C-158.81621202 162.53997329 -158.85362306 157.14405317 -158.88867188 151.74804688 C-158.9532704 141.16532636 -158.98389592 130.58290555 -159 120 C-168.57 120 -178.14 120 -188 120 Z M-77 120 C-77 156.96 -77 193.92 -77 232 C-68.09 231.67 -59.18 231.34 -50 231 C-50.10891755 221.90591029 -50.2212652 212.81187961 -50.33933926 203.71790409 C-50.39405925 199.4933548 -50.44738623 195.26879831 -50.49731445 191.04418945 C-50.54572369 186.95274952 -50.59807285 182.86137585 -50.65294075 178.77001762 C-50.67302418 177.2238681 -50.69178424 175.67770069 -50.70907402 174.13151741 C-50.83034096 163.39479274 -51.28398271 152.71363304 -52 142 C-50 143 -50 143 -48.67480469 146.63574219 C-48.1657317 148.27028682 -47.66543591 149.9075797 -47.171875 151.546875 C-46.90038635 152.42788879 -46.62889771 153.30890259 -46.34918213 154.21661377 C-45.47558212 157.0589233 -44.61292099 159.90443252 -43.75 162.75 C-43.18425326 164.59134859 -42.61785382 166.43249678 -42.05078125 168.2734375 C-38.95110391 178.37425286 -35.98100063 188.50600509 -33.10281372 198.67198181 C-31.08617726 205.76783799 -28.91082726 212.7982671 -26.625 219.8125 C-25.42875 223.504375 -24.2325 227.19625 -23 231 C-3.2 231.495 -3.2 231.495 17 232 C17 195.04 17 158.08 17 120 C8.09 120 -0.82 120 -10 120 C-10.13875871 149.01598832 -9.74543326 177.9935266 -9 207 C-9.66 207 -10.32 207 -11 207 C-11.40605469 205.11667969 -11.40605469 205.11667969 -11.8203125 203.1953125 C-16.08748739 184.04887859 -21.95629673 165.30756902 -27.82373047 146.60498047 C-28.07675934 145.7946637 -28.32978821 144.98434692 -28.59048462 144.1494751 C-29.06036991 142.64586548 -29.53303324 141.14311917 -30.0093689 139.64154053 C-31.93972136 133.46116161 -33.42014817 127.31940731 -35 121 C-48.86 120.67 -62.72 120.34 -77 120 Z M-541 121 C-541.69867187 124.96128906 -542.39734375 128.92257812 -543.1171875 133.00390625 C-545.00223852 143.61071897 -546.96863664 154.19911137 -549.0078125 164.77734375 C-549.13494377 165.43791401 -549.26207504 166.09848427 -549.39305878 166.77907181 C-550.56455892 172.86605914 -551.73895108 178.95248034 -552.92138672 185.03735352 C-556.01761616 200.98153204 -558.86812962 216.89335173 -561 233 C-551.1 233 -541.2 233 -531 233 C-529.76368091 225.1809896 -528.5281979 217.36189944 -527.29907227 209.54176331 C-526.72594123 205.89652962 -526.15168327 202.25148352 -525.57421875 198.60693359 C-523.13360687 183.19713112 -520.76658001 167.78139488 -518.671875 152.3203125 C-518.50133606 151.07909637 -518.33079712 149.83788025 -518.15509033 148.55905151 C-517.4173529 142.99598023 -516.78011346 137.61327192 -517 132 C-516.01 132 -515.02 132 -514 132 C-513.94175049 133.0813623 -513.94175049 133.0813623 -513.88232422 134.18457031 C-513.29487407 143.29783312 -511.98266566 152.2101102 -510.53192139 161.21920776 C-508.43873124 174.23751924 -506.51312196 187.24228731 -505.05004883 200.34838867 C-503.79665401 211.30741495 -501.88702014 222.13336675 -500 233 C-490.1 233 -480.2 233 -470 233 C-470.62199574 227.40203834 -471.26584778 222.15441346 -472.33520508 216.67382812 C-472.46547592 216.00066055 -472.59574677 215.32749298 -472.72996521 214.63392639 C-473.01047574 213.18673162 -473.29259895 211.73984864 -473.57621193 210.29325867 C-474.03035965 207.97599877 -474.47980717 205.65786786 -474.92814636 203.33947754 C-476.04491214 197.56933737 -477.16886798 191.80060377 -478.29376221 186.03204346 C-479.3944147 180.38682477 -480.49138195 174.74091038 -481.58203125 169.09375 C-481.73345707 168.31001007 -481.88488289 167.52627014 -482.04089737 166.71878052 C-484.50283635 153.94006899 -486.71520927 141.14063831 -488.63334656 128.26745605 C-489.02682367 125.83411722 -489.51658418 123.41707908 -490 121 C-506.83 121 -523.66 121 -541 121 Z M-370 120 C-376.27979547 155.07592434 -376.27979547 155.07592434 -382.18408203 190.21582031 C-382.30063644 190.927836 -382.41719086 191.63985168 -382.53727722 192.3734436 C-382.84778515 194.27157716 -383.15533598 196.17019381 -383.46264648 198.06884766 C-384 201 -384 201 -385 204 C-391.93 162.915 -391.93 162.915 -399 121 C-413.85 121 -428.7 121 -444 121 C-445.52813916 124.05627831 -445.22933106 127.27490313 -445.29711914 130.63305664 C-445.31677231 131.42224487 -445.33642548 132.21143311 -445.35667419 133.02453613 C-445.42086699 135.65298752 -445.4781299 138.28154032 -445.53515625 140.91015625 C-445.57823588 142.75313583 -445.62165258 144.59610757 -445.66539001 146.43907166 C-445.75655428 150.32382132 -445.84445057 154.20862707 -445.92993164 158.09350586 C-446.03796626 162.99741648 -446.15260134 167.90114314 -446.26949501 172.80484962 C-446.74601237 192.87488275 -447.12060636 212.92306047 -447 233 C-437.76 233 -428.52 233 -419 233 C-418.97494385 230.61958496 -418.9498877 228.23916992 -418.92407227 225.78662109 C-418.8401386 217.87173767 -418.75151611 209.95691156 -418.66066074 202.04210472 C-418.60578231 197.24911935 -418.55242359 192.45612763 -418.50268555 187.66308594 C-418.45451806 183.02701828 -418.40216591 178.39101414 -418.34705925 173.75502396 C-418.32687002 171.99706251 -418.30812244 170.23908382 -418.29092598 168.48109055 C-418.19005836 158.27871236 -417.88296696 148.17031026 -417 138 C-415.07475902 147.92737055 -413.15325512 157.85545671 -411.23635292 167.78444099 C-410.34588401 172.39619397 -409.45419075 177.00770276 -408.55957031 181.61865234 C-407.69421222 186.07903359 -406.83223886 190.54005741 -405.97248459 195.00152206 C-405.64598282 196.69274462 -405.31831789 198.38374311 -404.98939896 200.07449722 C-403.22927905 209.12635902 -401.60110836 218.14480249 -400.41293335 227.29244995 C-400.06488852 230.08797025 -400.06488852 230.08797025 -399 233 C-389.43 233 -379.86 233 -370 233 C-366.45805479 214.15390421 -366.45805479 214.15390421 -363.25 195.25 C-361.35158713 183.57862451 -359.18236888 171.95640998 -356.99108887 160.33703613 C-356.58062174 158.15538748 -356.17314649 155.97317378 -355.76867676 153.79040527 C-355.1956047 150.70361207 -354.61108835 147.61920272 -354.0234375 144.53515625 C-353.76265915 143.11502983 -353.76265915 143.11502983 -353.49661255 141.66621399 C-353.32934662 140.80191269 -353.16208069 139.93761139 -352.98974609 139.04711914 C-352.8463681 138.28677872 -352.70299011 137.52643829 -352.55526733 136.74305725 C-352.37202911 136.16784836 -352.18879089 135.59263947 -352 135 C-351.34 134.67 -350.68 134.34 -350 134 C-350 166.67 -350 199.34 -350 233 C-340.76 233 -331.52 233 -322 233 C-322.24159169 222.40091173 -322.48476112 211.80186258 -322.73049068 201.20286942 C-322.84461131 196.27800789 -322.95811733 191.35313402 -323.07006836 186.42822266 C-323.57401968 164.2783937 -324.14551818 142.13954707 -325 120 C-339.85 120 -354.7 120 -370 120 Z " fill="#2856A4" transform="translate(870,158)"/>
<path d="" fill="#007F7F" transform="translate(0,0)"/>
</svg>
