<?xml version="1.0" encoding="UTF-8"?>
<svg version="1.1" xmlns="http://www.w3.org/2000/svg" width="2400" height="2400">
<path d="M0 0 C29.7 0 59.4 0 90 0 C107.18746357 41.24991257 107.18746357 41.24991257 113.16436768 55.74258423 C114.3217281 58.54892461 115.47988783 61.35493422 116.63818359 64.16088867 C118.27632112 68.12944203 119.91417769 72.09811113 121.55175781 76.06689453 C125.57451941 85.81611196 129.59937548 95.56446442 133.625 105.3125 C134.01973511 106.26840027 134.41447021 107.22430054 134.82116699 108.20916748 C140.71560832 122.4822524 146.62436305 136.74934673 152.5425415 151.01260376 C158.61056609 165.63770319 164.6587102 180.27095352 170.69995117 194.90713501 C176.09287961 207.97227716 181.49988192 221.03147412 186.91970825 234.08547974 C193.67822242 250.36422189 200.38580229 266.66199332 207 283 C214.69201962 265.17922652 221.99269796 247.20764414 229.2487793 229.20605469 C230.08637691 227.12823551 230.9240241 225.05043631 231.76171875 222.97265625 C232.18507004 221.92258392 232.60842133 220.8725116 233.04460144 219.7906189 C238.03958644 207.40995697 243.08265373 195.04892909 248.125 182.6875 C254.60430003 166.80009115 261.07062404 150.90768043 267.5 135 C274.43833426 117.83330455 281.4200434 100.68447521 288.41116333 83.53921509 C295.45464576 66.26445073 302.47400644 48.98014706 309.45898438 31.68164062 C311.30167661 27.11933918 313.14896528 22.55892276 315 18 C315.32591125 17.19645081 315.65182251 16.39290161 315.98760986 15.56500244 C316.95889418 13.17365225 317.93392522 10.78386566 318.91015625 8.39453125 C319.35481483 7.29850838 319.35481483 7.29850838 319.80845642 6.18034363 C321.88511903 1.11488097 321.88511903 1.11488097 323 0 C325.67787973 -0.09512944 328.32988869 -0.12555279 331.00805664 -0.11352539 C331.84700974 -0.11367142 332.68596283 -0.11381744 333.55033875 -0.1139679 C336.33697044 -0.1132685 339.12353616 -0.10547485 341.91015625 -0.09765625 C343.83686791 -0.09579217 345.76358005 -0.09436822 347.69029236 -0.09336853 C352.77187397 -0.08954259 357.8534272 -0.07971166 362.93499756 -0.06866455 C368.11616634 -0.05845206 373.29733969 -0.05387126 378.47851562 -0.04882812 C388.6523568 -0.03808946 398.82617468 -0.02061671 409 0 C411.61214783 13.47080235 414.06857549 26.9556913 416.33032227 40.48950195 C416.64212816 42.34461329 416.95413885 44.1996902 417.26633358 46.05473614 C418.10900784 51.06526565 418.94889419 56.07625882 419.7882843 61.0873394 C420.69059135 66.4707874 421.59562883 71.85377641 422.50036621 77.23681641 C424.05063776 86.4627081 425.59936417 95.688858 427.14700317 104.91519165 C429.57727462 119.40309585 432.01081909 133.89044923 434.44506836 148.37768555 C434.85509334 150.81797939 435.26511766 153.25827333 435.67514133 155.69856739 C436.29129248 159.36563817 436.90744765 163.03270828 437.52361852 166.69977576 C438.76072247 174.06235968 439.99758353 181.42498435 441.23424679 188.7876423 C448.54607111 232.31952006 455.88014811 275.84761752 463.22864914 319.37331772 C464.18006772 325.00872217 465.13121351 330.64417265 466.08233637 336.27962703 C466.73161506 340.12656889 467.38096767 343.97349824 468.03049946 347.82039738 C468.15670215 348.56784393 468.28290484 349.31529048 468.41293186 350.08538693 C468.66538874 351.58058332 468.9178475 353.07577938 469.17030817 354.57097512 C469.90320575 358.91200068 470.63546897 363.25313263 471.36719877 367.59435517 C471.95817429 371.10023115 472.54952602 374.60604359 473.14111328 378.11181641 C473.25702863 378.79873814 473.37294398 379.48565986 473.49237192 380.1933974 C475.24015972 390.54627756 477.00777674 400.89566953 478.78385508 411.24373066 C479.5652089 415.79983938 480.34361235 420.35645322 481.12194604 424.91307873 C481.85793777 429.21946611 482.59899965 433.52493942 483.3440423 437.82976961 C483.6892005 439.82943311 484.03170686 441.82952905 484.37302589 443.82985115 C484.78673052 446.25426215 485.20461269 448.67796567 485.62755394 451.10078239 C485.80975298 452.17641504 485.99195202 453.25204769 486.17967224 454.36027527 C486.33908011 455.28624103 486.49848799 456.21220678 486.6627264 457.16623211 C487.0503566 460.42309546 487 463.72015 487 467 C456.64 467 426.28 467 395 467 C383.77261519 411.16927735 372.74425455 355.30348324 361.84069824 299.40904963 C361.4402338 297.35623515 361.03971818 295.30343065 360.63919067 293.25062847 C359.45669547 287.18978768 358.27449782 281.12888993 357.09403276 275.06765336 C354.40893638 261.28231283 351.70822319 247.50030396 348.97103488 233.72520256 C348.54182627 231.56425863 348.11322778 229.4031947 347.68487644 227.24208069 C347.47621351 226.18937626 347.47621351 226.18937626 347.26333517 225.11540508 C346.9857298 223.71479179 346.70815235 222.31417297 346.43060356 220.91354847 C345.7570689 217.51644799 345.08157329 214.11975941 344.40176964 210.72390747 C343.65671679 206.99903456 342.91729224 203.27308391 342.17895508 199.546875 C341.95678881 198.44494308 341.73462254 197.34301117 341.50572395 196.20768738 C341.30590857 195.19394547 341.10609318 194.18020355 340.90022278 193.13574219 C340.63785686 191.82098907 340.63785686 191.82098907 340.37019062 190.47967529 C339.99234973 187.9487556 339.93402834 185.55498201 340 183 C339.34 183 338.68 183 338 183 C337.87117432 183.55478027 337.74234863 184.10956055 337.60961914 184.68115234 C335.28135214 193.92818287 331.87811508 202.76601794 328.53909302 211.68301392 C327.01615479 215.75027198 325.50388702 219.82147534 323.99064636 223.89234924 C323.19483102 226.03272523 322.39844717 228.17288991 321.60151672 230.31285095 C317.38656519 241.63313581 313.22263381 252.9719814 309.0625 264.3125 C308.30987965 266.3628169 307.55719379 268.41310976 306.80444336 270.46337891 C305.29145387 274.58439458 303.77869048 278.70549313 302.26611328 282.82666016 C298.88729702 292.03197491 295.50553484 301.23620748 292.12399292 310.44052124 C290.24920777 315.54363643 288.37461355 320.64682177 286.5 325.75 C285.75000091 327.791667 285.00000091 329.83333367 284.25 331.875 C283.87875 332.885625 283.5075 333.89625 283.125 334.9375 C282 338 280.875 341.0625 279.75 344.125 C279.37878525 345.13552933 279.0075705 346.14605865 278.62510681 347.18721008 C277.8747515 349.22984341 277.12439547 351.27247646 276.3740387 353.31510925 C274.5044689 358.40448384 272.63491163 363.49386303 270.76538086 368.58325195 C267.32567997 377.94704644 263.88586763 387.31079992 260.44561768 396.6743927 C251.95637779 419.78023409 243.47061459 442.88732304 235 466 C217.18 466 199.36 466 181 466 C176.50051212 457.00102424 176.50051212 457.00102424 175.04321289 453.2512207 C174.71006073 452.39976471 174.37690857 451.54830872 174.03366089 450.67105103 C173.68352936 449.765112 173.33339783 448.85917297 172.97265625 447.92578125 C172.59158722 446.94942719 172.21051819 445.97307312 171.81790161 444.96713257 C170.99420946 442.85578065 170.17218252 440.74377849 169.35165405 438.63119507 C167.12515799 432.89948172 164.88589168 427.17275497 162.6484375 421.4453125 C161.95245705 419.66228981 161.95245705 419.66228981 161.24241638 417.84324646 C156.26801171 405.10724522 151.23114355 392.39620544 146.1875 379.6875 C144.85846108 376.33722132 143.52955977 372.98688808 142.20066833 369.6365509 C141.34164603 367.47082774 140.48256692 365.30512711 139.62342834 363.13945007 C135.8219791 353.55536157 132.03326689 343.96627814 128.25 334.375 C127.05731674 331.35155261 125.86461338 328.32811315 124.671875 325.3046875 C124.22930107 324.1827877 124.22930107 324.1827877 123.77778625 323.03822327 C120.02374373 313.52341942 116.26149051 304.01186122 112.5 294.5 C107.16224294 281.0017434 101.8282152 267.50202595 96.5 254 C90.90045671 239.81067147 85.29559429 225.6234511 79.6875 211.4375 C79.12796631 210.02198853 79.12796631 210.02198853 78.55712891 208.57788086 C77.50044179 205.90473917 76.44360787 203.23165558 75.38671875 200.55859375 C75.07284714 199.7645665 74.75897552 198.97053925 74.43559265 198.15245056 C72.96435835 194.43201429 71.48959159 190.71313802 70 187 C68.41013836 192.22219079 67.2988264 197.39751382 66.37742615 202.77471924 C66.2268924 203.63493077 66.07635865 204.4951423 65.92126328 205.38142085 C65.41974362 208.25269029 64.92362643 211.12486615 64.42749023 213.99707031 C64.06774539 216.06316731 63.70766483 218.12920588 63.34727478 220.19519043 C62.36824552 225.81314188 61.39387934 231.43189334 60.42029071 237.05078983 C59.39163849 242.98248708 58.35856362 248.91341394 57.32594299 254.84442139 C55.36107841 266.13373172 53.39997202 277.42369141 51.44030005 288.71390414 C48.59934579 305.08048548 45.75285507 321.44610393 42.90633488 337.81171799 C42.47890068 340.26923333 42.0514686 342.72674905 41.6240387 345.18426514 C41.41437959 346.38966595 41.20472049 347.59506677 40.98870808 348.83699489 C39.77221918 355.83172736 38.55678645 362.82664225 37.34232789 369.82172751 C34.90116635 383.88224877 32.45491343 397.94187284 30 412 C29.79578383 413.16953154 29.59156766 414.33906307 29.38116312 415.54403496 C28.12302627 422.7461963 26.86168322 429.94778618 25.59643757 437.14870214 C25.19658885 439.42607314 24.79750348 441.70357831 24.39921463 443.98122263 C23.85026559 447.11912041 23.29840537 450.25649224 22.7457428 453.39373779 C22.58302749 454.32721275 22.42031219 455.2606877 22.25266612 456.22244978 C22.1016209 457.07623354 21.95057569 457.93001731 21.79495335 458.80967331 C21.66480101 459.55090588 21.53464868 460.29213846 21.40055233 461.05583262 C21 463 21 463 20 466 C-10.03 466 -40.06 466 -71 466 C-69.875017 451.37522097 -69.875017 451.37522097 -68.87591553 444.96537781 C-68.76645637 444.25411161 -68.65699721 443.54284541 -68.5442211 442.81002569 C-68.18227554 440.46593989 -67.81333343 438.12301446 -67.44433594 435.7800293 C-67.17791945 434.06420364 -66.91194794 432.34830884 -66.64637852 430.63235188 C-66.07024722 426.91615157 -65.4909555 423.20046262 -64.90920448 419.48513794 C-63.95823852 413.41175369 -63.01433241 407.33728326 -62.0710907 401.26269531 C-60.69377973 392.3974287 -59.31309417 383.53269323 -57.93014526 374.66830444 C-55.73347919 360.58737384 -53.54376535 346.50536706 -51.35571289 332.4230957 C-51.07748576 330.63249743 -51.07748576 330.63249743 -50.79363787 328.80572546 C-50.03336864 323.91277073 -49.27311937 319.0198129 -48.51295143 314.12684244 C-47.34064174 306.58116839 -46.16782435 299.03557346 -44.99465305 291.49003333 C-38.82715104 251.82048158 -32.69131435 212.14610337 -26.57421875 172.46875 C-26.46725439 171.77495358 -26.36029004 171.08115717 -26.25008434 170.36633661 C-23.60144544 153.18638325 -20.9541401 136.0062245 -18.30751026 118.82596153 C-16.849513 109.36158528 -15.39122729 99.89725351 -13.93273926 90.43295288 C-13.83034037 89.76847156 -13.72794147 89.10399023 -13.62243959 88.41937311 C-13.21247886 85.75907888 -12.80251729 83.09878478 -12.39255412 80.43849093 C-8.26061012 53.62582888 -4.12995868 26.81296793 0 0 Z " fill="#000000" transform="translate(876,967)"/>
<path d="M0 0 C126.72 0 253.44 0 384 0 C384 28.05 384 56.1 384 85 C288.3 85 192.6 85 94 85 C94 117.34 94 149.68 94 183 C182.44 183 270.88 183 362 183 C362 209.4 362 235.8 362 263 C273.56 263 185.12 263 94 263 C94 302.27 94 341.54 94 382 C193 382 292 382 394 382 C394 410.05 394 438.1 394 467 C263.98 467 133.96 467 0 467 C0 312.89 0 158.78 0 0 Z " fill="#000000" transform="translate(1457,967)"/>
<path d="M0 0 C38.28 0 76.56 0 116 0 C121.28 9.24 126.56 18.48 132 28 C139.87185426 41.67895986 147.77139048 55.33968085 155.7331543 68.96630859 C161.24544658 78.40644761 166.70984723 87.87387033 172.1640625 97.34765625 C174.48474658 101.37733868 176.81256508 105.40270105 179.1504364 109.42242432 C180.53879977 111.80989553 181.9247507 114.1987632 183.31057739 116.58770752 C184.28929105 118.2725462 185.27143565 119.95539038 186.25366211 121.63818359 C186.84671143 122.66121582 187.43976074 123.68424805 188.05078125 124.73828125 C188.57325439 125.63587158 189.09572754 126.53346191 189.6340332 127.45825195 C190.9581544 129.92213502 192.01706574 132.38364731 193 135 C193.66 135 194.32 135 195 135 C195.22300781 134.19949219 195.44601563 133.39898438 195.67578125 132.57421875 C197.37059418 127.99972368 199.7215887 124.01001659 202.1875 119.8125 C203.28014419 117.92664859 204.37121487 116.03988486 205.4609375 114.15234375 C206.03811523 113.15315918 206.61529297 112.15397461 207.20996094 111.12451172 C210.2964223 105.73709594 213.30401123 100.30622972 216.3125 94.875 C216.9410791 93.74118896 217.5696582 92.60737793 218.21728516 91.43920898 C219.50268066 89.11985166 220.78767221 86.80027041 222.07226562 84.48046875 C231.17177167 68.05157334 240.30287768 51.64055834 249.4921875 35.26171875 C251.63598577 31.43940045 253.77328178 27.61358642 255.90242004 23.78308105 C256.87146424 22.03994473 257.84185219 20.29755565 258.81225586 18.55517578 C260.03414631 16.36083171 261.25382179 14.16525234 262.47094727 11.96826172 C263.02065186 10.98229004 263.57035645 9.99631836 264.13671875 8.98046875 C264.61842529 8.11317139 265.10013184 7.24587402 265.59643555 6.35229492 C266.97407018 4.04345691 268.19891932 1.99991937 270 0 C272.08705425 -0.49219131 272.08705425 -0.49219131 274.53678894 -0.48101807 C275.46646988 -0.48651672 276.39615082 -0.49201538 277.35400391 -0.49768066 C278.37179932 -0.48329956 279.38959473 -0.46891846 280.43823242 -0.45410156 C281.51156326 -0.45468567 282.5848941 -0.45526978 283.69075012 -0.45587158 C287.24598291 -0.45308015 290.80038205 -0.42193694 294.35546875 -0.390625 C296.81740358 -0.38316641 299.27934435 -0.37747168 301.74128723 -0.37347412 C308.22696267 -0.35818789 314.71228084 -0.31887979 321.19781494 -0.2746582 C327.81346808 -0.23377023 334.42917885 -0.21547692 341.04492188 -0.1953125 C354.0301005 -0.15238888 367.01503127 -0.08486789 380 0 C373.76321011 11.60143511 373.76321011 11.60143511 370.51953125 16.47265625 C369.61847656 17.83680664 369.61847656 17.83680664 368.69921875 19.22851562 C368.07660156 20.16373047 367.45398437 21.09894531 366.8125 22.0625 C362.25531229 28.973938 357.76848943 35.90638162 353.5 43 C348.70847216 50.95337644 343.64507877 58.71319011 338.546875 66.47265625 C334.75861437 72.25514351 331.06760633 78.07906298 327.5 84 C322.70794705 91.95307582 317.64509464 99.71316596 312.546875 107.47265625 C308.75861437 113.25514351 305.06760633 119.07906298 301.5 125 C296.70794705 132.95307582 291.64509464 140.71316596 286.546875 148.47265625 C282.3024147 154.95149707 278.21017169 161.50071363 274.21411133 168.13476562 C269.75549936 175.49291895 265.03876971 182.67882107 260.30078125 189.859375 C259.10402993 191.6776152 257.91419204 193.50042806 256.73193359 195.328125 C255.55579604 197.1425667 254.36000704 198.94439014 253.14697266 200.734375 C252.57897949 201.60578125 252.01098633 202.4771875 251.42578125 203.375 C250.91055908 204.14585937 250.39533691 204.91671875 249.86450195 205.7109375 C248.74664014 208.00222114 248.74664014 208.00222114 249.64599609 210.46069336 C251.07563317 213.14184288 252.58991921 215.70070552 254.23828125 218.25390625 C254.88667969 219.26259766 255.53507812 220.27128906 256.203125 221.31054688 C257.24726563 222.92026367 257.24726563 222.92026367 258.3125 224.5625 C259.04071142 225.69183372 259.76857173 226.82139391 260.49609375 227.95117188 C265.32741649 235.44639389 270.18964867 242.92174381 275.05932617 250.39208984 C280.15126613 258.21031813 285.17541045 266.07147567 290.19921875 273.93359375 C293.9490086 279.80031698 297.71002216 285.6591621 301.5 291.5 C305.98893641 298.41802195 310.43452767 305.36328625 314.875 312.3125 C319.72054197 319.89445499 324.58562434 327.4624726 329.5 335 C335.1119266 343.60741087 340.65507139 352.25780696 346.18823242 360.91601562 C351.75964878 369.63192348 357.36909706 378.32244582 363 387 C370.07039986 397.895904 377.09226432 408.82187019 384.08764648 419.76611328 C387.95578838 425.81511624 391.84004313 431.85295854 395.75 437.875 C399.74985342 444.04926528 403.73238473 450.23447155 407.6875 456.4375 C408.21762695 457.26169434 408.74775391 458.08588867 409.29394531 458.93505859 C410.02049316 460.079021 410.02049316 460.079021 410.76171875 461.24609375 C411.19444092 461.92341553 411.62716309 462.6007373 412.07299805 463.29858398 C413 465 413 465 413 467 C399.25750043 467.44131013 385.516699 467.77834225 371.76854324 467.98443127 C365.38334252 468.08338038 359.00300576 468.21740489 352.62060547 468.43334961 C346.45392419 468.64067626 340.2919 468.75356029 334.12200165 468.80266762 C331.77549621 468.83762881 329.42923097 468.90591902 327.08472443 469.00887108 C309.21918947 469.76177402 309.21918947 469.76177402 303.87315369 465.17535782 C300.11865885 460.68202049 297.5575622 455.72486862 295.15637589 450.41285706 C293.36410386 446.67315938 291.07875206 443.29702458 288.75 439.875 C288.25854492 439.11751465 287.76708984 438.3600293 287.26074219 437.57958984 C286.86016602 436.96293457 286.45958984 436.3462793 286.046875 435.7109375 C282.33942133 429.990082 278.67140504 424.24402779 275 418.5 C270.47748947 411.42493598 265.94692772 404.35574 261.375 397.3125 C256.59856669 389.95304082 251.89067681 382.55083126 247.18652344 375.14501953 C243.26230245 368.97149766 239.30710039 362.81938439 235.32421875 356.68359375 C231.188738 350.30656256 227.09365034 343.90394245 223 337.5 C217.14139073 328.33671002 211.25837142 319.19013275 205.33837891 310.06640625 C203.86144486 307.78607612 202.38939147 305.50264001 200.91796875 303.21875 C200.40919189 302.42984375 199.90041504 301.6409375 199.3762207 300.828125 C198.39594903 299.30789883 197.41657886 297.78709087 196.43823242 296.265625 C194.43486151 292.96588463 194.43486151 292.96588463 192 290 C191.62415771 290.65669678 191.24831543 291.31339355 190.86108398 291.98999023 C183.84937104 304.22736376 176.790716 316.42611047 169.5 328.5 C164.40101331 336.94509276 159.40764061 345.44230168 154.5 354 C148.99045269 363.60727312 143.34919102 373.12477738 137.625 382.60546875 C133.15968389 390.01975404 128.80571751 397.49204878 124.5 405 C119.04508088 414.51037523 113.48545694 423.9492524 107.80078125 433.32421875 C107.24648437 434.24074219 106.6921875 435.15726563 106.12109375 436.1015625 C105.52309464 437.04371613 104.92509552 437.98586975 104.30897522 438.95657349 C102.38572914 442.14317414 100.91582181 445.42780854 99.43675232 448.84127808 C91.98897109 464.98089185 91.98897109 464.98089185 85.33287621 468.35002518 C77.78190036 470.36646948 70.07805271 469.75831051 62.3515625 469.34375 C59.88309324 469.29891467 57.41440852 469.26478548 54.94564819 469.24084473 C48.48540484 469.1497262 42.03837534 468.91459551 35.58331299 468.64794922 C28.98184067 468.40120706 22.37820374 468.2925727 15.7734375 468.171875 C2.84335891 467.91543202 -10.0776146 467.51127183 -23 467 C-22.29282338 463.96634262 -21.38334129 461.68274483 -19.76953125 459.0078125 C-19.07089966 457.84427246 -19.07089966 457.84427246 -18.3581543 456.65722656 C-17.84808838 455.8215918 -17.33802246 454.98595703 -16.8125 454.125 C-16.27858643 453.24295898 -15.74467285 452.36091797 -15.19458008 451.45214844 C-10.1273062 443.12330749 -4.88797591 434.90632614 0.3671875 426.6953125 C4.09636402 420.86280789 7.77274615 414.99814358 11.4375 409.125 C12.05987549 408.12758789 12.68225098 407.13017578 13.32348633 406.10253906 C14.58551906 404.07924663 15.84731879 402.05580884 17.10888672 400.03222656 C20.23543424 395.01909459 23.36800161 390.00972757 26.5 385 C27.75002926 383.00001829 29.00002926 381.00001828 30.25 379 C42.75 359 55.25 339 67.75 319 C68.67848755 317.51439575 68.67848755 317.51439575 69.62573242 315.9987793 C70.87323247 314.00281172 72.12079088 312.00688061 73.3684082 310.01098633 C76.53214182 304.94959084 79.69479561 299.88752606 82.85546875 294.82421875 C89.02631358 284.94083313 95.21083887 275.06682593 101.44213867 265.22143555 C104.19172662 260.87353784 106.92974148 256.51866362 109.65625 252.15625 C110.28813232 251.145625 110.92001465 250.135 111.57104492 249.09375 C112.84887831 247.04429996 114.12253834 244.99224146 115.3918457 242.9375 C118.41438479 238.05805061 121.48633894 233.24546044 124.76171875 228.53125 C125.62990234 227.25314453 125.62990234 227.25314453 126.515625 225.94921875 C127.60001422 224.36063921 128.70952825 222.78881328 129.84765625 221.23828125 C131.25835321 219.14511197 132.31036755 217.42882036 133 215 C132.35686064 211.87150211 130.79880127 209.6023862 129 207 C128.16886434 205.63645665 127.33947536 204.27184729 126.51171875 202.90625 C125.57387422 201.43522317 124.63226444 199.96659212 123.6875 198.5 C122.61397126 196.81679647 121.541085 195.13318304 120.46875 193.44921875 C119.90414062 192.56411621 119.33953125 191.67901367 118.7578125 190.76708984 C115.70764574 185.96561901 112.69865042 181.13849907 109.6875 176.3125 C108.41015992 174.26692479 107.13281614 172.2213519 105.85546875 170.17578125 C105.21786621 169.15436035 104.58026367 168.13293945 103.92333984 167.08056641 C100.78410777 162.05253513 97.64192849 157.02634659 94.5 152 C93.24998536 150.00000915 91.99998538 148.00000914 90.75 146 C90.13125 145.01 89.5125 144.02 88.875 143 C38.25 62 38.25 62 36.37426758 58.9987793 C35.12676753 57.00281172 33.87920912 55.00688061 32.6315918 53.01098633 C29.46785818 47.94959084 26.30520439 42.88752606 23.14453125 37.82421875 C21.86722711 35.7786211 20.58988375 33.73304794 19.3125 31.6875 C18.38908813 30.20817993 18.38908813 30.20817993 17.44702148 28.69897461 C14.44316309 23.89128469 11.42867283 19.09085793 8.390625 14.3046875 C7.82819092 13.41821533 7.26575684 12.53174316 6.6862793 11.6184082 C5.62732266 9.95155855 4.56638034 8.28596825 3.50317383 6.62182617 C3.03935303 5.8919751 2.57553223 5.16212402 2.09765625 4.41015625 C1.69039307 3.77215088 1.28312988 3.13414551 0.86352539 2.47680664 C0 1 0 1 0 0 Z " fill="#000000" transform="translate(1952,967)"/>
<path d="M0 0 C72.57601361 -0.05766739 145.15082315 0.00602461 217.7265625 0.21875 C218.66158706 0.22148658 219.59661162 0.22422317 220.55997026 0.22704268 C244.41649777 0.29694796 268.27301359 0.37048749 292.1295259 0.44538212 C305.9515823 0.48873946 319.77364158 0.53107066 333.59570312 0.57275391 C334.58608855 0.5757409 335.57647398 0.5787279 336.59687109 0.58180541 C341.57122502 0.59680294 346.54557899 0.61178429 351.51993299 0.62675762 C392.01329664 0.74866745 432.50664986 0.87366618 473 1 C473 27.4 473 53.8 473 81 C410.3 81 347.6 81 283 81 C283 208.38 283 335.76 283 467 C250.99 467 218.98 467 186 467 C186 339.62 186 212.24 186 81 C124.62 81 63.24 81 0 81 C0 54.27 0 27.54 0 0 Z " fill="#000000" transform="translate(35,966)"/>
<path d="M0 0 C32.34 0 64.68 0 98 0 C98.02926627 42.35594949 98.05068932 84.71189418 98.06185675 127.06785214 C98.06249796 129.49228136 98.06315683 131.91671058 98.06381607 134.34113979 C98.08676417 220.10376957 98.02481959 305.86362239 97.5 391.625 C97.49402628 392.60453014 97.48805257 393.58406029 97.48189783 394.59327316 C97.4405991 401.35190051 97.39851606 408.11052264 97.35571289 414.86914062 C97.35039138 415.70985076 97.34506986 416.55056089 97.33958709 417.41674709 C97.23644545 433.61124207 97.11677658 449.80559015 97 466 C64.99 466 32.98 466 0 466 C0 312.22 0 158.44 0 0 Z " fill="#000000" transform="translate(598,967)"/>
</svg>
